G04 #@! TF.FileFunction,Copper,L2,Bot,Signal*
%FSLAX46Y46*%
G04 Gerber Fmt 4.6, Leading zero omitted, Abs format (unit mm)*
G04 Created by KiCad (PCBNEW 0.201508140901+6091~28~ubuntu14.04.1-product) date Tue 22 Sep 2015 11:40:43 PM CEST*
%MOMM*%
G01*
G04 APERTURE LIST*
%ADD10C,0.100000*%
%ADD11R,2.032000X2.032000*%
%ADD12O,2.032000X2.032000*%
%ADD13R,1.727200X1.727200*%
%ADD14O,1.727200X1.727200*%
%ADD15R,0.500000X0.700000*%
%ADD16R,0.200000X1.100000*%
%ADD17C,2.000000*%
%ADD18C,1.524000*%
%ADD19R,1.727200X2.032000*%
%ADD20O,1.727200X2.032000*%
%ADD21C,0.685800*%
%ADD22C,0.609600*%
%ADD23C,0.254000*%
%ADD24C,0.304800*%
%ADD25C,0.152400*%
G04 APERTURE END LIST*
D10*
D11*
X148488400Y-67360800D03*
D12*
X145948400Y-67360800D03*
D13*
X178663600Y-111252000D03*
D14*
X178663600Y-108712000D03*
X181203600Y-111252000D03*
X181203600Y-108712000D03*
X183743600Y-111252000D03*
X183743600Y-108712000D03*
D15*
X169375000Y-82075000D03*
X173625000Y-82075000D03*
X169375000Y-78925000D03*
X173625000Y-78925000D03*
D16*
X173975000Y-82075000D03*
X169025000Y-82075000D03*
X169025000Y-78925000D03*
X173975000Y-78925000D03*
D15*
X183875000Y-82075000D03*
X188125000Y-82075000D03*
X183875000Y-78925000D03*
X188125000Y-78925000D03*
D16*
X188475000Y-82075000D03*
X183525000Y-82075000D03*
X183525000Y-78925000D03*
X188475000Y-78925000D03*
D15*
X173625000Y-93925000D03*
X169375000Y-93925000D03*
X173625000Y-97075000D03*
X169375000Y-97075000D03*
D16*
X169025000Y-93925000D03*
X173975000Y-93925000D03*
X173975000Y-97075000D03*
X169025000Y-97075000D03*
D15*
X188125000Y-93925000D03*
X183875000Y-93925000D03*
X188125000Y-97075000D03*
X183875000Y-97075000D03*
D16*
X183525000Y-93925000D03*
X188475000Y-93925000D03*
X188475000Y-97075000D03*
X183525000Y-97075000D03*
D15*
X198625000Y-110725000D03*
X194375000Y-110725000D03*
X198625000Y-113875000D03*
X194375000Y-113875000D03*
D16*
X194025000Y-110725000D03*
X198975000Y-110725000D03*
X198975000Y-113875000D03*
X194025000Y-113875000D03*
D11*
X172339000Y-105054400D03*
D12*
X169799000Y-105054400D03*
D17*
X161518600Y-72340200D03*
X159018600Y-75640200D03*
X164018600Y-75640200D03*
D18*
X133604000Y-105156000D03*
X131064000Y-105156000D03*
X128524000Y-105156000D03*
X125984000Y-105156000D03*
X123444000Y-105156000D03*
X120904000Y-105156000D03*
X120904000Y-74676000D03*
X123444000Y-74676000D03*
X125984000Y-74676000D03*
X128524000Y-74676000D03*
X131064000Y-74676000D03*
X133604000Y-74676000D03*
D19*
X176225200Y-116128800D03*
D20*
X178765200Y-116128800D03*
X181305200Y-116128800D03*
X183845200Y-116128800D03*
X186385200Y-116128800D03*
D21*
X150114000Y-84582000D03*
X144272000Y-86614000D03*
X146812000Y-77978000D03*
X171500800Y-80492600D03*
X196519800Y-112293400D03*
X186004200Y-95504000D03*
X186004200Y-80518000D03*
X171424600Y-95529400D03*
X178130200Y-80924400D03*
X149148800Y-94665800D03*
X120904000Y-96774000D03*
X135636000Y-98552000D03*
X135636000Y-91186000D03*
X135636000Y-83820000D03*
X135636000Y-76200000D03*
X120650000Y-89408000D03*
X120396000Y-81788000D03*
X175539400Y-84480400D03*
X175717200Y-93040200D03*
X179984400Y-95885000D03*
X173609000Y-80975200D03*
X178130200Y-89712800D03*
X177241200Y-88163400D03*
X178968400Y-96266000D03*
X174142400Y-111937800D03*
X181229000Y-96316800D03*
X182016400Y-95910400D03*
X185166000Y-98526600D03*
X145694400Y-99187000D03*
X175959307Y-86422693D03*
X115062000Y-110998000D03*
X175514000Y-88392000D03*
X187198000Y-88392000D03*
X178054000Y-73406000D03*
X155194000Y-77724000D03*
D22*
X169933200Y-78925000D02*
X171500800Y-80492600D01*
X169933200Y-78925000D02*
X169375000Y-78925000D01*
X169375000Y-78925000D02*
X173625000Y-78925000D01*
X169025000Y-78925000D02*
X169375000Y-78925000D01*
X173625000Y-78925000D02*
X173975000Y-78925000D01*
X198625000Y-113875000D02*
X198975000Y-113875000D01*
X194025000Y-113875000D02*
X194375000Y-113875000D01*
X183525000Y-97075000D02*
X183875000Y-97075000D01*
X188125000Y-97075000D02*
X188475000Y-97075000D01*
X169025000Y-97075000D02*
X169375000Y-97075000D01*
X173625000Y-97075000D02*
X173975000Y-97075000D01*
X188125000Y-78925000D02*
X188475000Y-78925000D01*
X183525000Y-78925000D02*
X183875000Y-78925000D01*
X194375000Y-113875000D02*
X194938200Y-113875000D01*
X194938200Y-113875000D02*
X196519800Y-112293400D01*
X188125000Y-97075000D02*
X187575200Y-97075000D01*
X187575200Y-97075000D02*
X186004200Y-95504000D01*
X188125000Y-97075000D02*
X183875000Y-97075000D01*
X188125000Y-78925000D02*
X187597200Y-78925000D01*
X187597200Y-78925000D02*
X186004200Y-80518000D01*
X169375000Y-97075000D02*
X169879000Y-97075000D01*
X169879000Y-97075000D02*
X171424600Y-95529400D01*
X198625000Y-113875000D02*
X194375000Y-113875000D01*
X183875000Y-78925000D02*
X188125000Y-78925000D01*
D23*
X171450000Y-97028000D02*
X171450000Y-97075000D01*
X171450000Y-97075000D02*
X171450000Y-97028000D01*
X171450000Y-97028000D02*
X171450000Y-97075000D01*
D22*
X169375000Y-97075000D02*
X171450000Y-97075000D01*
X171450000Y-97075000D02*
X173625000Y-97075000D01*
D24*
X178130200Y-80924400D02*
X184683400Y-80924400D01*
X184531000Y-112039400D02*
X183743600Y-111252000D01*
X195072000Y-112039400D02*
X184531000Y-112039400D01*
X195707000Y-111404400D02*
X195072000Y-112039400D01*
X196951600Y-111404400D02*
X195707000Y-111404400D01*
X197561200Y-112014000D02*
X196951600Y-111404400D01*
X199110600Y-112014000D02*
X197561200Y-112014000D01*
X199999600Y-111125000D02*
X199110600Y-112014000D01*
X199999600Y-91795600D02*
X199999600Y-111125000D01*
X189103000Y-80899000D02*
X199999600Y-91795600D01*
X187960000Y-80899000D02*
X189103000Y-80899000D01*
X187502800Y-81356200D02*
X187960000Y-80899000D01*
X185115200Y-81356200D02*
X187502800Y-81356200D01*
X184683400Y-80924400D02*
X185115200Y-81356200D01*
D22*
X149148800Y-94665800D02*
X149098000Y-94665800D01*
X188125000Y-82075000D02*
X188475000Y-82075000D01*
X183525000Y-82075000D02*
X183875000Y-82075000D01*
D24*
X183525000Y-82075000D02*
X181704000Y-82075000D01*
X179298600Y-84480400D02*
X175539400Y-84480400D01*
X181704000Y-82075000D02*
X179298600Y-84480400D01*
X183875000Y-82075000D02*
X183558200Y-82075000D01*
D22*
X183875000Y-82075000D02*
X188125000Y-82075000D01*
X198625000Y-110725000D02*
X198975000Y-110725000D01*
X194025000Y-110725000D02*
X194375000Y-110725000D01*
D24*
X189738000Y-104013000D02*
X189738000Y-106088000D01*
X175717200Y-93040200D02*
X177673000Y-94996000D01*
X184454800Y-94996000D02*
X177673000Y-94996000D01*
X184734200Y-94716600D02*
X184454800Y-94996000D01*
X187198000Y-94716600D02*
X184734200Y-94716600D01*
X189738000Y-97256600D02*
X187198000Y-94716600D01*
X189738000Y-104013000D02*
X189738000Y-97256600D01*
X189738000Y-106088000D02*
X194375000Y-110725000D01*
X194375000Y-110725000D02*
X196450000Y-110725000D01*
X198625000Y-110725000D02*
X196450000Y-110725000D01*
X179984400Y-99949000D02*
X179984400Y-95885000D01*
X183845200Y-116128800D02*
X183845200Y-116865400D01*
X183845200Y-116865400D02*
X182854600Y-117856000D01*
X179984400Y-109194600D02*
X179984400Y-99949000D01*
X179984400Y-99949000D02*
X179984400Y-99872800D01*
X179222400Y-109956600D02*
X179984400Y-109194600D01*
X177622200Y-109956600D02*
X179222400Y-109956600D01*
X177063400Y-110515400D02*
X177622200Y-109956600D01*
X177063400Y-112598200D02*
X177063400Y-110515400D01*
X177495200Y-113030000D02*
X177063400Y-112598200D01*
X177495200Y-117017800D02*
X177495200Y-113030000D01*
X178333400Y-117856000D02*
X177495200Y-117017800D01*
X182854600Y-117856000D02*
X178333400Y-117856000D01*
X183845200Y-116128800D02*
X183845200Y-116713000D01*
D22*
X169375000Y-82075000D02*
X173625000Y-82075000D01*
X169025000Y-82075000D02*
X169375000Y-82075000D01*
X173625000Y-82075000D02*
X173975000Y-82075000D01*
D24*
X173625000Y-82075000D02*
X173625000Y-80984600D01*
X173615600Y-80975200D02*
X173609000Y-80975200D01*
X173625000Y-80984600D02*
X173615600Y-80975200D01*
D22*
X173625000Y-93925000D02*
X173975000Y-93925000D01*
X169025000Y-93925000D02*
X169375000Y-93925000D01*
D24*
X174853600Y-91846400D02*
X172775000Y-93925000D01*
X175996600Y-91846400D02*
X174853600Y-91846400D01*
X178130200Y-89712800D02*
X175996600Y-91846400D01*
D22*
X169375000Y-93925000D02*
X172775000Y-93925000D01*
X172775000Y-93925000D02*
X173625000Y-93925000D01*
X188125000Y-93925000D02*
X188475000Y-93925000D01*
X183525000Y-93925000D02*
X183875000Y-93925000D01*
D24*
X180492400Y-88874600D02*
X185542800Y-93925000D01*
X177952400Y-88874600D02*
X180492400Y-88874600D01*
X177241200Y-88163400D02*
X177952400Y-88874600D01*
D22*
X183875000Y-93925000D02*
X185542800Y-93925000D01*
X185542800Y-93925000D02*
X186381000Y-93925000D01*
X186381000Y-93925000D02*
X188125000Y-93925000D01*
D24*
X174142400Y-111937800D02*
X174142400Y-101092000D01*
X174142400Y-101092000D02*
X178968400Y-96266000D01*
X181203600Y-99796600D02*
X181203600Y-96342200D01*
X181203600Y-96342200D02*
X181229000Y-96316800D01*
X181203600Y-108712000D02*
X181203600Y-99796600D01*
X181203600Y-99796600D02*
X181203600Y-99771200D01*
X182448200Y-99618800D02*
X182448200Y-96342200D01*
X182448200Y-96342200D02*
X182016400Y-95910400D01*
X178663600Y-111252000D02*
X178663600Y-111201200D01*
X178663600Y-111201200D02*
X179806600Y-110058200D01*
X182448200Y-109524800D02*
X182448200Y-99618800D01*
X182448200Y-99618800D02*
X182448200Y-99542600D01*
X181914800Y-110058200D02*
X182448200Y-109524800D01*
X179806600Y-110058200D02*
X181914800Y-110058200D01*
X178663600Y-111252000D02*
X178663600Y-116027200D01*
X178663600Y-116027200D02*
X178765200Y-116128800D01*
X181203600Y-111252000D02*
X181787800Y-111252000D01*
X181787800Y-111252000D02*
X183108600Y-109931200D01*
X185166000Y-109321600D02*
X185166000Y-98526600D01*
X184556400Y-109931200D02*
X185166000Y-109321600D01*
X183108600Y-109931200D02*
X184556400Y-109931200D01*
X181203600Y-111252000D02*
X181203600Y-116027200D01*
X181203600Y-116027200D02*
X181305200Y-116128800D01*
D25*
G36*
X201345800Y-118846600D02*
X111074200Y-118846600D01*
X111074200Y-116452650D01*
X174777400Y-116452650D01*
X174777400Y-117261005D01*
X174866339Y-117475723D01*
X175030678Y-117640061D01*
X175245396Y-117729000D01*
X175901350Y-117729000D01*
X176047400Y-117582950D01*
X176047400Y-116306600D01*
X174923450Y-116306600D01*
X174777400Y-116452650D01*
X111074200Y-116452650D01*
X111074200Y-114996595D01*
X174777400Y-114996595D01*
X174777400Y-115804950D01*
X174923450Y-115951000D01*
X176047400Y-115951000D01*
X176047400Y-114674650D01*
X175901350Y-114528600D01*
X175245396Y-114528600D01*
X175030678Y-114617539D01*
X174866339Y-114781877D01*
X174777400Y-114996595D01*
X111074200Y-114996595D01*
X111074200Y-112852377D01*
X111096664Y-112798278D01*
X111097212Y-112170272D01*
X111074200Y-112114579D01*
X111074200Y-109042200D01*
X143256000Y-109042200D01*
X143285646Y-109036197D01*
X143310621Y-109019132D01*
X143326989Y-108993695D01*
X143332200Y-108966000D01*
X143332200Y-105030017D01*
X168554400Y-105030017D01*
X168554400Y-105078783D01*
X168649140Y-105555071D01*
X168918935Y-105958848D01*
X169322712Y-106228643D01*
X169799000Y-106323383D01*
X170275288Y-106228643D01*
X170679065Y-105958848D01*
X170948860Y-105555071D01*
X171043600Y-105078783D01*
X171043600Y-105030017D01*
X170948860Y-104553729D01*
X170679065Y-104149952D01*
X170512116Y-104038400D01*
X171089922Y-104038400D01*
X171089922Y-106070400D01*
X171105862Y-106155114D01*
X171155928Y-106232918D01*
X171232320Y-106285115D01*
X171323000Y-106303478D01*
X173355000Y-106303478D01*
X173439714Y-106287538D01*
X173517518Y-106237472D01*
X173569715Y-106161080D01*
X173588078Y-106070400D01*
X173588078Y-104038400D01*
X173572138Y-103953686D01*
X173522072Y-103875882D01*
X173445680Y-103823685D01*
X173355000Y-103805322D01*
X171323000Y-103805322D01*
X171238286Y-103821262D01*
X171160482Y-103871328D01*
X171108285Y-103947720D01*
X171089922Y-104038400D01*
X170512116Y-104038400D01*
X170275288Y-103880157D01*
X169799000Y-103785417D01*
X169322712Y-103880157D01*
X168918935Y-104149952D01*
X168649140Y-104553729D01*
X168554400Y-105030017D01*
X143332200Y-105030017D01*
X143332200Y-97104200D01*
X153162000Y-97104200D01*
X153191646Y-97098197D01*
X153216621Y-97081132D01*
X153220566Y-97075000D01*
X168491600Y-97075000D01*
X168532203Y-97279123D01*
X168647829Y-97452171D01*
X168691922Y-97481633D01*
X168691922Y-97625000D01*
X168707862Y-97709714D01*
X168757928Y-97787518D01*
X168834320Y-97839715D01*
X168925000Y-97858078D01*
X169125000Y-97858078D01*
X169209714Y-97842138D01*
X169287518Y-97792072D01*
X169339715Y-97715680D01*
X169351380Y-97658078D01*
X169625000Y-97658078D01*
X169709714Y-97642138D01*
X169762144Y-97608400D01*
X173238489Y-97608400D01*
X173284320Y-97639715D01*
X173375000Y-97658078D01*
X173648146Y-97658078D01*
X173657862Y-97709714D01*
X173707928Y-97787518D01*
X173784320Y-97839715D01*
X173875000Y-97858078D01*
X174075000Y-97858078D01*
X174159714Y-97842138D01*
X174237518Y-97792072D01*
X174289715Y-97715680D01*
X174308078Y-97625000D01*
X174308078Y-97481633D01*
X174352171Y-97452171D01*
X174467797Y-97279123D01*
X174508400Y-97075000D01*
X174467797Y-96870877D01*
X174352171Y-96697829D01*
X174308078Y-96668367D01*
X174308078Y-96525000D01*
X174292138Y-96440286D01*
X174242072Y-96362482D01*
X174165680Y-96310285D01*
X174075000Y-96291922D01*
X173875000Y-96291922D01*
X173790286Y-96307862D01*
X173712482Y-96357928D01*
X173660285Y-96434320D01*
X173648620Y-96491922D01*
X173375000Y-96491922D01*
X173290286Y-96507862D01*
X173237856Y-96541600D01*
X171166741Y-96541600D01*
X171656324Y-96052017D01*
X171747906Y-96014176D01*
X171908811Y-95853551D01*
X171996000Y-95643577D01*
X171996199Y-95416220D01*
X171909376Y-95206094D01*
X171748751Y-95045189D01*
X171538777Y-94958000D01*
X171311420Y-94957801D01*
X171101294Y-95044624D01*
X170940389Y-95205249D01*
X170902029Y-95297630D01*
X169693803Y-96505855D01*
X169625000Y-96491922D01*
X169351854Y-96491922D01*
X169342138Y-96440286D01*
X169292072Y-96362482D01*
X169215680Y-96310285D01*
X169125000Y-96291922D01*
X168925000Y-96291922D01*
X168840286Y-96307862D01*
X168762482Y-96357928D01*
X168710285Y-96434320D01*
X168691922Y-96525000D01*
X168691922Y-96668367D01*
X168647829Y-96697829D01*
X168532203Y-96870877D01*
X168491600Y-97075000D01*
X153220566Y-97075000D01*
X153232989Y-97055695D01*
X153238200Y-97028000D01*
X153238200Y-93925000D01*
X168491600Y-93925000D01*
X168532203Y-94129123D01*
X168647829Y-94302171D01*
X168691922Y-94331633D01*
X168691922Y-94475000D01*
X168707862Y-94559714D01*
X168757928Y-94637518D01*
X168834320Y-94689715D01*
X168925000Y-94708078D01*
X169125000Y-94708078D01*
X169209714Y-94692138D01*
X169287518Y-94642072D01*
X169339715Y-94565680D01*
X169351380Y-94508078D01*
X169625000Y-94508078D01*
X169709714Y-94492138D01*
X169762144Y-94458400D01*
X173238489Y-94458400D01*
X173284320Y-94489715D01*
X173375000Y-94508078D01*
X173648146Y-94508078D01*
X173657862Y-94559714D01*
X173707928Y-94637518D01*
X173784320Y-94689715D01*
X173875000Y-94708078D01*
X174075000Y-94708078D01*
X174159714Y-94692138D01*
X174237518Y-94642072D01*
X174289715Y-94565680D01*
X174308078Y-94475000D01*
X174308078Y-94331633D01*
X174352171Y-94302171D01*
X174467797Y-94129123D01*
X174508400Y-93925000D01*
X174467797Y-93720877D01*
X174352171Y-93547829D01*
X174308078Y-93518367D01*
X174308078Y-93375000D01*
X174292138Y-93290286D01*
X174242072Y-93212482D01*
X174165680Y-93160285D01*
X174093207Y-93145609D01*
X175011415Y-92227400D01*
X175996600Y-92227400D01*
X176142403Y-92198398D01*
X176266008Y-92115808D01*
X178097545Y-90284271D01*
X178243380Y-90284399D01*
X178453506Y-90197576D01*
X178614411Y-90036951D01*
X178701600Y-89826977D01*
X178701799Y-89599620D01*
X178614976Y-89389494D01*
X178481315Y-89255600D01*
X180334584Y-89255600D01*
X184470584Y-93391600D01*
X184261511Y-93391600D01*
X184215680Y-93360285D01*
X184125000Y-93341922D01*
X183851854Y-93341922D01*
X183842138Y-93290286D01*
X183792072Y-93212482D01*
X183715680Y-93160285D01*
X183625000Y-93141922D01*
X183425000Y-93141922D01*
X183340286Y-93157862D01*
X183262482Y-93207928D01*
X183210285Y-93284320D01*
X183191922Y-93375000D01*
X183191922Y-93518367D01*
X183147829Y-93547829D01*
X183032203Y-93720877D01*
X182991600Y-93925000D01*
X183032203Y-94129123D01*
X183147829Y-94302171D01*
X183191922Y-94331633D01*
X183191922Y-94475000D01*
X183207862Y-94559714D01*
X183243438Y-94615000D01*
X177830816Y-94615000D01*
X176288671Y-93072855D01*
X176288799Y-92927020D01*
X176201976Y-92716894D01*
X176041351Y-92555989D01*
X175831377Y-92468800D01*
X175604020Y-92468601D01*
X175393894Y-92555424D01*
X175232989Y-92716049D01*
X175145800Y-92926023D01*
X175145601Y-93153380D01*
X175232424Y-93363506D01*
X175393049Y-93524411D01*
X175603023Y-93611600D01*
X175749913Y-93611729D01*
X177403592Y-95265408D01*
X177527197Y-95347998D01*
X177673000Y-95377001D01*
X177673005Y-95377000D01*
X179717300Y-95377000D01*
X179661094Y-95400224D01*
X179500189Y-95560849D01*
X179413000Y-95770823D01*
X179412885Y-95902333D01*
X179292551Y-95781789D01*
X179082577Y-95694600D01*
X178855220Y-95694401D01*
X178645094Y-95781224D01*
X178484189Y-95941849D01*
X178397000Y-96151823D01*
X178396871Y-96298714D01*
X173872992Y-100822592D01*
X173790402Y-100946197D01*
X173790402Y-100946198D01*
X173761400Y-101092000D01*
X173761400Y-111510618D01*
X173658189Y-111613649D01*
X173571000Y-111823623D01*
X173570801Y-112050980D01*
X173657624Y-112261106D01*
X173818249Y-112422011D01*
X174028223Y-112509200D01*
X174255580Y-112509399D01*
X174465706Y-112422576D01*
X174626611Y-112261951D01*
X174713800Y-112051977D01*
X174713999Y-111824620D01*
X174627176Y-111614494D01*
X174523400Y-111510537D01*
X174523400Y-108311615D01*
X177272249Y-108311615D01*
X177372795Y-108534200D01*
X178485800Y-108534200D01*
X178485800Y-107422450D01*
X178263218Y-107320663D01*
X177962881Y-107445052D01*
X177531380Y-107809646D01*
X177272249Y-108311615D01*
X174523400Y-108311615D01*
X174523400Y-101249816D01*
X178935744Y-96837471D01*
X179081580Y-96837599D01*
X179291706Y-96750776D01*
X179452611Y-96590151D01*
X179539800Y-96380177D01*
X179539915Y-96248667D01*
X179603400Y-96312263D01*
X179603400Y-107647062D01*
X179364319Y-107445052D01*
X179063982Y-107320663D01*
X178841400Y-107422450D01*
X178841400Y-108534200D01*
X178861400Y-108534200D01*
X178861400Y-108889800D01*
X178841400Y-108889800D01*
X178841400Y-108909800D01*
X178485800Y-108909800D01*
X178485800Y-108889800D01*
X177372795Y-108889800D01*
X177272249Y-109112385D01*
X177521694Y-109595592D01*
X177476398Y-109604602D01*
X177352792Y-109687192D01*
X177352790Y-109687195D01*
X176793992Y-110245992D01*
X176711402Y-110369597D01*
X176711402Y-110369598D01*
X176682400Y-110515400D01*
X176682400Y-112598200D01*
X176711402Y-112744003D01*
X176793992Y-112867608D01*
X177114200Y-113187815D01*
X177114200Y-114528600D01*
X176549050Y-114528600D01*
X176403000Y-114674650D01*
X176403000Y-115951000D01*
X176423000Y-115951000D01*
X176423000Y-116306600D01*
X176403000Y-116306600D01*
X176403000Y-117582950D01*
X176549050Y-117729000D01*
X177205004Y-117729000D01*
X177419722Y-117640061D01*
X177499184Y-117560600D01*
X178063992Y-118125408D01*
X178187598Y-118207998D01*
X178333400Y-118237001D01*
X178333405Y-118237000D01*
X182854600Y-118237000D01*
X183000403Y-118207998D01*
X183124008Y-118125408D01*
X183853230Y-117396186D01*
X184263167Y-117314644D01*
X184617502Y-117077885D01*
X184854261Y-116723550D01*
X184937400Y-116305583D01*
X184937400Y-115952017D01*
X185293000Y-115952017D01*
X185293000Y-116305583D01*
X185376139Y-116723550D01*
X185612898Y-117077885D01*
X185967233Y-117314644D01*
X186385200Y-117397783D01*
X186803167Y-117314644D01*
X187157502Y-117077885D01*
X187394261Y-116723550D01*
X187477400Y-116305583D01*
X187477400Y-115952017D01*
X187394261Y-115534050D01*
X187157502Y-115179715D01*
X186803167Y-114942956D01*
X186385200Y-114859817D01*
X185967233Y-114942956D01*
X185612898Y-115179715D01*
X185376139Y-115534050D01*
X185293000Y-115952017D01*
X184937400Y-115952017D01*
X184854261Y-115534050D01*
X184617502Y-115179715D01*
X184263167Y-114942956D01*
X183845200Y-114859817D01*
X183427233Y-114942956D01*
X183072898Y-115179715D01*
X182836139Y-115534050D01*
X182753000Y-115952017D01*
X182753000Y-116305583D01*
X182836139Y-116723550D01*
X183072898Y-117077885D01*
X183085487Y-117086297D01*
X182696784Y-117475000D01*
X178491216Y-117475000D01*
X178297890Y-117281674D01*
X178347233Y-117314644D01*
X178765200Y-117397783D01*
X179183167Y-117314644D01*
X179537502Y-117077885D01*
X179774261Y-116723550D01*
X179857400Y-116305583D01*
X179857400Y-115952017D01*
X179774261Y-115534050D01*
X179537502Y-115179715D01*
X179183167Y-114942956D01*
X179044600Y-114915393D01*
X179044600Y-112348678D01*
X179527200Y-112348678D01*
X179611914Y-112332738D01*
X179689718Y-112282672D01*
X179741915Y-112206280D01*
X179760278Y-112115600D01*
X179760278Y-110643338D01*
X179964416Y-110439200D01*
X180459885Y-110439200D01*
X180431298Y-110458301D01*
X180194539Y-110812636D01*
X180111400Y-111230603D01*
X180111400Y-111273397D01*
X180194539Y-111691364D01*
X180431298Y-112045699D01*
X180785633Y-112282458D01*
X180822600Y-112289811D01*
X180822600Y-114986142D01*
X180532898Y-115179715D01*
X180296139Y-115534050D01*
X180213000Y-115952017D01*
X180213000Y-116305583D01*
X180296139Y-116723550D01*
X180532898Y-117077885D01*
X180887233Y-117314644D01*
X181305200Y-117397783D01*
X181723167Y-117314644D01*
X182077502Y-117077885D01*
X182314261Y-116723550D01*
X182397400Y-116305583D01*
X182397400Y-115952017D01*
X182314261Y-115534050D01*
X182077502Y-115179715D01*
X181723167Y-114942956D01*
X181584600Y-114915393D01*
X181584600Y-112289811D01*
X181621567Y-112282458D01*
X181975902Y-112045699D01*
X182212661Y-111691364D01*
X182293461Y-111285155D01*
X182726732Y-110851883D01*
X182651400Y-111230603D01*
X182651400Y-111273397D01*
X182734539Y-111691364D01*
X182971298Y-112045699D01*
X183325633Y-112282458D01*
X183743600Y-112365597D01*
X184161567Y-112282458D01*
X184205732Y-112252948D01*
X184261592Y-112308808D01*
X184385198Y-112391398D01*
X184531000Y-112420401D01*
X184531005Y-112420400D01*
X195072000Y-112420400D01*
X195217803Y-112391398D01*
X195341408Y-112308808D01*
X195864815Y-111785400D01*
X196252700Y-111785400D01*
X196196494Y-111808624D01*
X196035589Y-111969249D01*
X195997230Y-112061628D01*
X194735221Y-113323637D01*
X194715680Y-113310285D01*
X194625000Y-113291922D01*
X194351854Y-113291922D01*
X194342138Y-113240286D01*
X194292072Y-113162482D01*
X194215680Y-113110285D01*
X194125000Y-113091922D01*
X193925000Y-113091922D01*
X193840286Y-113107862D01*
X193762482Y-113157928D01*
X193710285Y-113234320D01*
X193691922Y-113325000D01*
X193691922Y-113468367D01*
X193647829Y-113497829D01*
X193532203Y-113670877D01*
X193491600Y-113875000D01*
X193532203Y-114079123D01*
X193647829Y-114252171D01*
X193691922Y-114281633D01*
X193691922Y-114425000D01*
X193707862Y-114509714D01*
X193757928Y-114587518D01*
X193834320Y-114639715D01*
X193925000Y-114658078D01*
X194125000Y-114658078D01*
X194209714Y-114642138D01*
X194287518Y-114592072D01*
X194339715Y-114515680D01*
X194351380Y-114458078D01*
X194625000Y-114458078D01*
X194709714Y-114442138D01*
X194762144Y-114408400D01*
X198238489Y-114408400D01*
X198284320Y-114439715D01*
X198375000Y-114458078D01*
X198648146Y-114458078D01*
X198657862Y-114509714D01*
X198707928Y-114587518D01*
X198784320Y-114639715D01*
X198875000Y-114658078D01*
X199075000Y-114658078D01*
X199159714Y-114642138D01*
X199237518Y-114592072D01*
X199289715Y-114515680D01*
X199308078Y-114425000D01*
X199308078Y-114281633D01*
X199352171Y-114252171D01*
X199467797Y-114079123D01*
X199508400Y-113875000D01*
X199467797Y-113670877D01*
X199352171Y-113497829D01*
X199308078Y-113468367D01*
X199308078Y-113325000D01*
X199292138Y-113240286D01*
X199242072Y-113162482D01*
X199165680Y-113110285D01*
X199075000Y-113091922D01*
X198875000Y-113091922D01*
X198790286Y-113107862D01*
X198712482Y-113157928D01*
X198660285Y-113234320D01*
X198648620Y-113291922D01*
X198375000Y-113291922D01*
X198290286Y-113307862D01*
X198237856Y-113341600D01*
X196225942Y-113341600D01*
X196751525Y-112816017D01*
X196843106Y-112778176D01*
X197004011Y-112617551D01*
X197091200Y-112407577D01*
X197091399Y-112180220D01*
X197022952Y-112014568D01*
X197291790Y-112283405D01*
X197291792Y-112283408D01*
X197389477Y-112348678D01*
X197415398Y-112365998D01*
X197561200Y-112395001D01*
X197561205Y-112395000D01*
X199110600Y-112395000D01*
X199256403Y-112365998D01*
X199380008Y-112283408D01*
X200269008Y-111394408D01*
X200351598Y-111270802D01*
X200380601Y-111125000D01*
X200380600Y-111124995D01*
X200380600Y-91795605D01*
X200380601Y-91795600D01*
X200351598Y-91649798D01*
X200269008Y-91526192D01*
X200269005Y-91526190D01*
X189372408Y-80629592D01*
X189248803Y-80547002D01*
X189103000Y-80518000D01*
X187960000Y-80518000D01*
X187814198Y-80547002D01*
X187690592Y-80629592D01*
X187690590Y-80629595D01*
X187344984Y-80975200D01*
X186355130Y-80975200D01*
X186488411Y-80842151D01*
X186526770Y-80749772D01*
X187786405Y-79490137D01*
X187875000Y-79508078D01*
X188148146Y-79508078D01*
X188157862Y-79559714D01*
X188207928Y-79637518D01*
X188284320Y-79689715D01*
X188375000Y-79708078D01*
X188575000Y-79708078D01*
X188659714Y-79692138D01*
X188737518Y-79642072D01*
X188789715Y-79565680D01*
X188808078Y-79475000D01*
X188808078Y-79331633D01*
X188852171Y-79302171D01*
X188967797Y-79129123D01*
X189008400Y-78925000D01*
X188967797Y-78720877D01*
X188852171Y-78547829D01*
X188808078Y-78518367D01*
X188808078Y-78375000D01*
X188792138Y-78290286D01*
X188742072Y-78212482D01*
X188665680Y-78160285D01*
X188575000Y-78141922D01*
X188375000Y-78141922D01*
X188290286Y-78157862D01*
X188212482Y-78207928D01*
X188160285Y-78284320D01*
X188148620Y-78341922D01*
X187875000Y-78341922D01*
X187790286Y-78357862D01*
X187737856Y-78391600D01*
X184261511Y-78391600D01*
X184215680Y-78360285D01*
X184125000Y-78341922D01*
X183851854Y-78341922D01*
X183842138Y-78290286D01*
X183792072Y-78212482D01*
X183715680Y-78160285D01*
X183625000Y-78141922D01*
X183425000Y-78141922D01*
X183340286Y-78157862D01*
X183262482Y-78207928D01*
X183210285Y-78284320D01*
X183191922Y-78375000D01*
X183191922Y-78518367D01*
X183147829Y-78547829D01*
X183032203Y-78720877D01*
X182991600Y-78925000D01*
X183032203Y-79129123D01*
X183147829Y-79302171D01*
X183191922Y-79331633D01*
X183191922Y-79475000D01*
X183207862Y-79559714D01*
X183257928Y-79637518D01*
X183334320Y-79689715D01*
X183425000Y-79708078D01*
X183625000Y-79708078D01*
X183709714Y-79692138D01*
X183787518Y-79642072D01*
X183839715Y-79565680D01*
X183851380Y-79508078D01*
X184125000Y-79508078D01*
X184209714Y-79492138D01*
X184262144Y-79458400D01*
X186309458Y-79458400D01*
X185772475Y-79995383D01*
X185680894Y-80033224D01*
X185519989Y-80193849D01*
X185432800Y-80403823D01*
X185432601Y-80631180D01*
X185519424Y-80841306D01*
X185653085Y-80975200D01*
X185273015Y-80975200D01*
X184952808Y-80654992D01*
X184829203Y-80572402D01*
X184683400Y-80543400D01*
X178557382Y-80543400D01*
X178454351Y-80440189D01*
X178244377Y-80353000D01*
X178017020Y-80352801D01*
X177806894Y-80439624D01*
X177645989Y-80600249D01*
X177558800Y-80810223D01*
X177558601Y-81037580D01*
X177645424Y-81247706D01*
X177806049Y-81408611D01*
X178016023Y-81495800D01*
X178243380Y-81495999D01*
X178453506Y-81409176D01*
X178557463Y-81305400D01*
X183353370Y-81305400D01*
X183340286Y-81307862D01*
X183262482Y-81357928D01*
X183210285Y-81434320D01*
X183191922Y-81525000D01*
X183191922Y-81668367D01*
X183153560Y-81694000D01*
X181704000Y-81694000D01*
X181558197Y-81723002D01*
X181508688Y-81756083D01*
X181434592Y-81805592D01*
X181434590Y-81805595D01*
X179140784Y-84099400D01*
X175966582Y-84099400D01*
X175863551Y-83996189D01*
X175653577Y-83909000D01*
X175426220Y-83908801D01*
X175216094Y-83995624D01*
X175055189Y-84156249D01*
X174968000Y-84366223D01*
X174967801Y-84593580D01*
X175054624Y-84803706D01*
X175215249Y-84964611D01*
X175425223Y-85051800D01*
X175652580Y-85051999D01*
X175862706Y-84965176D01*
X175966663Y-84861400D01*
X179298600Y-84861400D01*
X179444403Y-84832398D01*
X179568008Y-84749808D01*
X181861815Y-82456000D01*
X183153560Y-82456000D01*
X183191922Y-82481633D01*
X183191922Y-82625000D01*
X183207862Y-82709714D01*
X183257928Y-82787518D01*
X183334320Y-82839715D01*
X183425000Y-82858078D01*
X183625000Y-82858078D01*
X183709714Y-82842138D01*
X183787518Y-82792072D01*
X183839715Y-82715680D01*
X183851380Y-82658078D01*
X184125000Y-82658078D01*
X184209714Y-82642138D01*
X184262144Y-82608400D01*
X187738489Y-82608400D01*
X187784320Y-82639715D01*
X187875000Y-82658078D01*
X188148146Y-82658078D01*
X188157862Y-82709714D01*
X188207928Y-82787518D01*
X188284320Y-82839715D01*
X188375000Y-82858078D01*
X188575000Y-82858078D01*
X188659714Y-82842138D01*
X188737518Y-82792072D01*
X188789715Y-82715680D01*
X188808078Y-82625000D01*
X188808078Y-82481633D01*
X188852171Y-82452171D01*
X188967797Y-82279123D01*
X189008400Y-82075000D01*
X188967797Y-81870877D01*
X188852171Y-81697829D01*
X188808078Y-81668367D01*
X188808078Y-81525000D01*
X188792138Y-81440286D01*
X188742072Y-81362482D01*
X188665680Y-81310285D01*
X188575000Y-81291922D01*
X188375000Y-81291922D01*
X188290286Y-81307862D01*
X188212482Y-81357928D01*
X188160285Y-81434320D01*
X188148620Y-81491922D01*
X187905894Y-81491922D01*
X188117815Y-81280000D01*
X188945184Y-81280000D01*
X199618600Y-91953415D01*
X199618600Y-110967184D01*
X199307391Y-111278393D01*
X199308078Y-111275000D01*
X199308078Y-111131633D01*
X199352171Y-111102171D01*
X199467797Y-110929123D01*
X199508400Y-110725000D01*
X199467797Y-110520877D01*
X199352171Y-110347829D01*
X199308078Y-110318367D01*
X199308078Y-110175000D01*
X199292138Y-110090286D01*
X199242072Y-110012482D01*
X199165680Y-109960285D01*
X199075000Y-109941922D01*
X198875000Y-109941922D01*
X198790286Y-109957862D01*
X198712482Y-110007928D01*
X198660285Y-110084320D01*
X198648620Y-110141922D01*
X198375000Y-110141922D01*
X198290286Y-110157862D01*
X198212482Y-110207928D01*
X198160285Y-110284320D01*
X198148200Y-110344000D01*
X194852245Y-110344000D01*
X194842138Y-110290286D01*
X194792072Y-110212482D01*
X194715680Y-110160285D01*
X194625000Y-110141922D01*
X194351854Y-110141922D01*
X194342138Y-110090286D01*
X194292072Y-110012482D01*
X194215680Y-109960285D01*
X194132194Y-109943379D01*
X190119000Y-105930184D01*
X190119000Y-103405839D01*
X194112087Y-103405839D01*
X194211382Y-103646151D01*
X194395082Y-103830172D01*
X194635221Y-103929887D01*
X194895239Y-103930113D01*
X195135551Y-103830818D01*
X195319572Y-103647118D01*
X195419287Y-103406979D01*
X195419287Y-103405839D01*
X197112087Y-103405839D01*
X197211382Y-103646151D01*
X197395082Y-103830172D01*
X197635221Y-103929887D01*
X197895239Y-103930113D01*
X198135551Y-103830818D01*
X198319572Y-103647118D01*
X198419287Y-103406979D01*
X198419513Y-103146961D01*
X198320218Y-102906649D01*
X198136518Y-102722628D01*
X197896379Y-102622913D01*
X197636361Y-102622687D01*
X197396049Y-102721982D01*
X197212028Y-102905682D01*
X197112313Y-103145821D01*
X197112087Y-103405839D01*
X195419287Y-103405839D01*
X195419513Y-103146961D01*
X195320218Y-102906649D01*
X195136518Y-102722628D01*
X194896379Y-102622913D01*
X194636361Y-102622687D01*
X194396049Y-102721982D01*
X194212028Y-102905682D01*
X194112313Y-103145821D01*
X194112087Y-103405839D01*
X190119000Y-103405839D01*
X190119000Y-97256600D01*
X190089998Y-97110798D01*
X190007408Y-96987192D01*
X190007405Y-96987190D01*
X187478616Y-94458400D01*
X187738489Y-94458400D01*
X187784320Y-94489715D01*
X187875000Y-94508078D01*
X188148146Y-94508078D01*
X188157862Y-94559714D01*
X188207928Y-94637518D01*
X188284320Y-94689715D01*
X188375000Y-94708078D01*
X188575000Y-94708078D01*
X188659714Y-94692138D01*
X188737518Y-94642072D01*
X188789715Y-94565680D01*
X188808078Y-94475000D01*
X188808078Y-94331633D01*
X188852171Y-94302171D01*
X188967797Y-94129123D01*
X189008400Y-93925000D01*
X188967797Y-93720877D01*
X188852171Y-93547829D01*
X188808078Y-93518367D01*
X188808078Y-93375000D01*
X188792138Y-93290286D01*
X188742072Y-93212482D01*
X188665680Y-93160285D01*
X188575000Y-93141922D01*
X188375000Y-93141922D01*
X188290286Y-93157862D01*
X188212482Y-93207928D01*
X188160285Y-93284320D01*
X188148620Y-93341922D01*
X187875000Y-93341922D01*
X187790286Y-93357862D01*
X187737856Y-93391600D01*
X185548216Y-93391600D01*
X180761808Y-88605192D01*
X180638203Y-88522602D01*
X180492400Y-88493600D01*
X178110215Y-88493600D01*
X177812671Y-88196056D01*
X177812799Y-88050220D01*
X177725976Y-87840094D01*
X177565351Y-87679189D01*
X177355377Y-87592000D01*
X177128020Y-87591801D01*
X176917894Y-87678624D01*
X176756989Y-87839249D01*
X176669800Y-88049223D01*
X176669601Y-88276580D01*
X176756424Y-88486706D01*
X176917049Y-88647611D01*
X177127023Y-88734800D01*
X177273913Y-88734929D01*
X177682990Y-89144005D01*
X177682992Y-89144008D01*
X177806598Y-89226598D01*
X177809127Y-89227101D01*
X177806894Y-89228024D01*
X177645989Y-89388649D01*
X177558800Y-89598623D01*
X177558671Y-89745513D01*
X175838784Y-91465400D01*
X174853600Y-91465400D01*
X174707797Y-91494402D01*
X174660220Y-91526192D01*
X174584192Y-91576992D01*
X174584190Y-91576995D01*
X172769584Y-93391600D01*
X169761511Y-93391600D01*
X169715680Y-93360285D01*
X169625000Y-93341922D01*
X169351854Y-93341922D01*
X169342138Y-93290286D01*
X169292072Y-93212482D01*
X169215680Y-93160285D01*
X169125000Y-93141922D01*
X168925000Y-93141922D01*
X168840286Y-93157862D01*
X168762482Y-93207928D01*
X168710285Y-93284320D01*
X168691922Y-93375000D01*
X168691922Y-93518367D01*
X168647829Y-93547829D01*
X168532203Y-93720877D01*
X168491600Y-93925000D01*
X153238200Y-93925000D01*
X153238200Y-82075000D01*
X168491600Y-82075000D01*
X168532203Y-82279123D01*
X168647829Y-82452171D01*
X168691922Y-82481633D01*
X168691922Y-82625000D01*
X168707862Y-82709714D01*
X168757928Y-82787518D01*
X168834320Y-82839715D01*
X168925000Y-82858078D01*
X169125000Y-82858078D01*
X169209714Y-82842138D01*
X169287518Y-82792072D01*
X169339715Y-82715680D01*
X169351380Y-82658078D01*
X169625000Y-82658078D01*
X169709714Y-82642138D01*
X169762144Y-82608400D01*
X173238489Y-82608400D01*
X173284320Y-82639715D01*
X173375000Y-82658078D01*
X173648146Y-82658078D01*
X173657862Y-82709714D01*
X173707928Y-82787518D01*
X173784320Y-82839715D01*
X173875000Y-82858078D01*
X174075000Y-82858078D01*
X174159714Y-82842138D01*
X174237518Y-82792072D01*
X174289715Y-82715680D01*
X174308078Y-82625000D01*
X174308078Y-82481633D01*
X174352171Y-82452171D01*
X174467797Y-82279123D01*
X174508400Y-82075000D01*
X174467797Y-81870877D01*
X174352171Y-81697829D01*
X174308078Y-81668367D01*
X174308078Y-81525000D01*
X174292138Y-81440286D01*
X174242072Y-81362482D01*
X174165680Y-81310285D01*
X174094644Y-81295900D01*
X174180400Y-81089377D01*
X174180599Y-80862020D01*
X174093776Y-80651894D01*
X173933151Y-80490989D01*
X173723177Y-80403800D01*
X173495820Y-80403601D01*
X173285694Y-80490424D01*
X173124789Y-80651049D01*
X173037600Y-80861023D01*
X173037401Y-81088380D01*
X173124224Y-81298506D01*
X173244000Y-81418491D01*
X173244000Y-81537647D01*
X173237856Y-81541600D01*
X169761511Y-81541600D01*
X169715680Y-81510285D01*
X169625000Y-81491922D01*
X169351854Y-81491922D01*
X169342138Y-81440286D01*
X169292072Y-81362482D01*
X169215680Y-81310285D01*
X169125000Y-81291922D01*
X168925000Y-81291922D01*
X168840286Y-81307862D01*
X168762482Y-81357928D01*
X168710285Y-81434320D01*
X168691922Y-81525000D01*
X168691922Y-81668367D01*
X168647829Y-81697829D01*
X168532203Y-81870877D01*
X168491600Y-82075000D01*
X153238200Y-82075000D01*
X153238200Y-78925000D01*
X168491600Y-78925000D01*
X168532203Y-79129123D01*
X168647829Y-79302171D01*
X168691922Y-79331633D01*
X168691922Y-79475000D01*
X168707862Y-79559714D01*
X168757928Y-79637518D01*
X168834320Y-79689715D01*
X168925000Y-79708078D01*
X169125000Y-79708078D01*
X169209714Y-79692138D01*
X169287518Y-79642072D01*
X169339715Y-79565680D01*
X169351380Y-79508078D01*
X169625000Y-79508078D01*
X169709714Y-79492138D01*
X169731790Y-79477932D01*
X170978183Y-80724325D01*
X171016024Y-80815906D01*
X171176649Y-80976811D01*
X171386623Y-81064000D01*
X171613980Y-81064199D01*
X171824106Y-80977376D01*
X171985011Y-80816751D01*
X172072200Y-80606777D01*
X172072399Y-80379420D01*
X171985576Y-80169294D01*
X171824951Y-80008389D01*
X171732572Y-79970030D01*
X171220942Y-79458400D01*
X173238489Y-79458400D01*
X173284320Y-79489715D01*
X173375000Y-79508078D01*
X173648146Y-79508078D01*
X173657862Y-79559714D01*
X173707928Y-79637518D01*
X173784320Y-79689715D01*
X173875000Y-79708078D01*
X174075000Y-79708078D01*
X174159714Y-79692138D01*
X174237518Y-79642072D01*
X174289715Y-79565680D01*
X174308078Y-79475000D01*
X174308078Y-79331633D01*
X174352171Y-79302171D01*
X174467797Y-79129123D01*
X174508400Y-78925000D01*
X174467797Y-78720877D01*
X174352171Y-78547829D01*
X174308078Y-78518367D01*
X174308078Y-78375000D01*
X174292138Y-78290286D01*
X174242072Y-78212482D01*
X174165680Y-78160285D01*
X174075000Y-78141922D01*
X173875000Y-78141922D01*
X173790286Y-78157862D01*
X173712482Y-78207928D01*
X173660285Y-78284320D01*
X173648620Y-78341922D01*
X173375000Y-78341922D01*
X173290286Y-78357862D01*
X173237856Y-78391600D01*
X169761511Y-78391600D01*
X169715680Y-78360285D01*
X169625000Y-78341922D01*
X169351854Y-78341922D01*
X169342138Y-78290286D01*
X169292072Y-78212482D01*
X169215680Y-78160285D01*
X169125000Y-78141922D01*
X168925000Y-78141922D01*
X168840286Y-78157862D01*
X168762482Y-78207928D01*
X168710285Y-78284320D01*
X168691922Y-78375000D01*
X168691922Y-78518367D01*
X168647829Y-78547829D01*
X168532203Y-78720877D01*
X168491600Y-78925000D01*
X153238200Y-78925000D01*
X153238200Y-75883512D01*
X157789787Y-75883512D01*
X157976436Y-76335237D01*
X158321745Y-76681149D01*
X158773144Y-76868587D01*
X159261912Y-76869013D01*
X159713637Y-76682364D01*
X160059549Y-76337055D01*
X160246987Y-75885656D01*
X160246988Y-75883512D01*
X162789787Y-75883512D01*
X162976436Y-76335237D01*
X163321745Y-76681149D01*
X163773144Y-76868587D01*
X164261912Y-76869013D01*
X164713637Y-76682364D01*
X165059549Y-76337055D01*
X165246987Y-75885656D01*
X165247413Y-75396888D01*
X165060764Y-74945163D01*
X164715455Y-74599251D01*
X164264056Y-74411813D01*
X163775288Y-74411387D01*
X163323563Y-74598036D01*
X162977651Y-74943345D01*
X162790213Y-75394744D01*
X162789787Y-75883512D01*
X160246988Y-75883512D01*
X160247413Y-75396888D01*
X160060764Y-74945163D01*
X159715455Y-74599251D01*
X159264056Y-74411813D01*
X158775288Y-74411387D01*
X158323563Y-74598036D01*
X157977651Y-74943345D01*
X157790213Y-75394744D01*
X157789787Y-75883512D01*
X153238200Y-75883512D01*
X153238200Y-72583512D01*
X160289787Y-72583512D01*
X160476436Y-73035237D01*
X160821745Y-73381149D01*
X161273144Y-73568587D01*
X161761912Y-73569013D01*
X162213637Y-73382364D01*
X162559549Y-73037055D01*
X162746987Y-72585656D01*
X162747413Y-72096888D01*
X162560764Y-71645163D01*
X162215455Y-71299251D01*
X161764056Y-71111813D01*
X161275288Y-71111387D01*
X160823563Y-71298036D01*
X160477651Y-71643345D01*
X160290213Y-72094744D01*
X160289787Y-72583512D01*
X153238200Y-72583512D01*
X153238200Y-65125600D01*
X201345800Y-65125600D01*
X201345800Y-118846600D01*
X201345800Y-118846600D01*
G37*
X201345800Y-118846600D02*
X111074200Y-118846600D01*
X111074200Y-116452650D01*
X174777400Y-116452650D01*
X174777400Y-117261005D01*
X174866339Y-117475723D01*
X175030678Y-117640061D01*
X175245396Y-117729000D01*
X175901350Y-117729000D01*
X176047400Y-117582950D01*
X176047400Y-116306600D01*
X174923450Y-116306600D01*
X174777400Y-116452650D01*
X111074200Y-116452650D01*
X111074200Y-114996595D01*
X174777400Y-114996595D01*
X174777400Y-115804950D01*
X174923450Y-115951000D01*
X176047400Y-115951000D01*
X176047400Y-114674650D01*
X175901350Y-114528600D01*
X175245396Y-114528600D01*
X175030678Y-114617539D01*
X174866339Y-114781877D01*
X174777400Y-114996595D01*
X111074200Y-114996595D01*
X111074200Y-112852377D01*
X111096664Y-112798278D01*
X111097212Y-112170272D01*
X111074200Y-112114579D01*
X111074200Y-109042200D01*
X143256000Y-109042200D01*
X143285646Y-109036197D01*
X143310621Y-109019132D01*
X143326989Y-108993695D01*
X143332200Y-108966000D01*
X143332200Y-105030017D01*
X168554400Y-105030017D01*
X168554400Y-105078783D01*
X168649140Y-105555071D01*
X168918935Y-105958848D01*
X169322712Y-106228643D01*
X169799000Y-106323383D01*
X170275288Y-106228643D01*
X170679065Y-105958848D01*
X170948860Y-105555071D01*
X171043600Y-105078783D01*
X171043600Y-105030017D01*
X170948860Y-104553729D01*
X170679065Y-104149952D01*
X170512116Y-104038400D01*
X171089922Y-104038400D01*
X171089922Y-106070400D01*
X171105862Y-106155114D01*
X171155928Y-106232918D01*
X171232320Y-106285115D01*
X171323000Y-106303478D01*
X173355000Y-106303478D01*
X173439714Y-106287538D01*
X173517518Y-106237472D01*
X173569715Y-106161080D01*
X173588078Y-106070400D01*
X173588078Y-104038400D01*
X173572138Y-103953686D01*
X173522072Y-103875882D01*
X173445680Y-103823685D01*
X173355000Y-103805322D01*
X171323000Y-103805322D01*
X171238286Y-103821262D01*
X171160482Y-103871328D01*
X171108285Y-103947720D01*
X171089922Y-104038400D01*
X170512116Y-104038400D01*
X170275288Y-103880157D01*
X169799000Y-103785417D01*
X169322712Y-103880157D01*
X168918935Y-104149952D01*
X168649140Y-104553729D01*
X168554400Y-105030017D01*
X143332200Y-105030017D01*
X143332200Y-97104200D01*
X153162000Y-97104200D01*
X153191646Y-97098197D01*
X153216621Y-97081132D01*
X153220566Y-97075000D01*
X168491600Y-97075000D01*
X168532203Y-97279123D01*
X168647829Y-97452171D01*
X168691922Y-97481633D01*
X168691922Y-97625000D01*
X168707862Y-97709714D01*
X168757928Y-97787518D01*
X168834320Y-97839715D01*
X168925000Y-97858078D01*
X169125000Y-97858078D01*
X169209714Y-97842138D01*
X169287518Y-97792072D01*
X169339715Y-97715680D01*
X169351380Y-97658078D01*
X169625000Y-97658078D01*
X169709714Y-97642138D01*
X169762144Y-97608400D01*
X173238489Y-97608400D01*
X173284320Y-97639715D01*
X173375000Y-97658078D01*
X173648146Y-97658078D01*
X173657862Y-97709714D01*
X173707928Y-97787518D01*
X173784320Y-97839715D01*
X173875000Y-97858078D01*
X174075000Y-97858078D01*
X174159714Y-97842138D01*
X174237518Y-97792072D01*
X174289715Y-97715680D01*
X174308078Y-97625000D01*
X174308078Y-97481633D01*
X174352171Y-97452171D01*
X174467797Y-97279123D01*
X174508400Y-97075000D01*
X174467797Y-96870877D01*
X174352171Y-96697829D01*
X174308078Y-96668367D01*
X174308078Y-96525000D01*
X174292138Y-96440286D01*
X174242072Y-96362482D01*
X174165680Y-96310285D01*
X174075000Y-96291922D01*
X173875000Y-96291922D01*
X173790286Y-96307862D01*
X173712482Y-96357928D01*
X173660285Y-96434320D01*
X173648620Y-96491922D01*
X173375000Y-96491922D01*
X173290286Y-96507862D01*
X173237856Y-96541600D01*
X171166741Y-96541600D01*
X171656324Y-96052017D01*
X171747906Y-96014176D01*
X171908811Y-95853551D01*
X171996000Y-95643577D01*
X171996199Y-95416220D01*
X171909376Y-95206094D01*
X171748751Y-95045189D01*
X171538777Y-94958000D01*
X171311420Y-94957801D01*
X171101294Y-95044624D01*
X170940389Y-95205249D01*
X170902029Y-95297630D01*
X169693803Y-96505855D01*
X169625000Y-96491922D01*
X169351854Y-96491922D01*
X169342138Y-96440286D01*
X169292072Y-96362482D01*
X169215680Y-96310285D01*
X169125000Y-96291922D01*
X168925000Y-96291922D01*
X168840286Y-96307862D01*
X168762482Y-96357928D01*
X168710285Y-96434320D01*
X168691922Y-96525000D01*
X168691922Y-96668367D01*
X168647829Y-96697829D01*
X168532203Y-96870877D01*
X168491600Y-97075000D01*
X153220566Y-97075000D01*
X153232989Y-97055695D01*
X153238200Y-97028000D01*
X153238200Y-93925000D01*
X168491600Y-93925000D01*
X168532203Y-94129123D01*
X168647829Y-94302171D01*
X168691922Y-94331633D01*
X168691922Y-94475000D01*
X168707862Y-94559714D01*
X168757928Y-94637518D01*
X168834320Y-94689715D01*
X168925000Y-94708078D01*
X169125000Y-94708078D01*
X169209714Y-94692138D01*
X169287518Y-94642072D01*
X169339715Y-94565680D01*
X169351380Y-94508078D01*
X169625000Y-94508078D01*
X169709714Y-94492138D01*
X169762144Y-94458400D01*
X173238489Y-94458400D01*
X173284320Y-94489715D01*
X173375000Y-94508078D01*
X173648146Y-94508078D01*
X173657862Y-94559714D01*
X173707928Y-94637518D01*
X173784320Y-94689715D01*
X173875000Y-94708078D01*
X174075000Y-94708078D01*
X174159714Y-94692138D01*
X174237518Y-94642072D01*
X174289715Y-94565680D01*
X174308078Y-94475000D01*
X174308078Y-94331633D01*
X174352171Y-94302171D01*
X174467797Y-94129123D01*
X174508400Y-93925000D01*
X174467797Y-93720877D01*
X174352171Y-93547829D01*
X174308078Y-93518367D01*
X174308078Y-93375000D01*
X174292138Y-93290286D01*
X174242072Y-93212482D01*
X174165680Y-93160285D01*
X174093207Y-93145609D01*
X175011415Y-92227400D01*
X175996600Y-92227400D01*
X176142403Y-92198398D01*
X176266008Y-92115808D01*
X178097545Y-90284271D01*
X178243380Y-90284399D01*
X178453506Y-90197576D01*
X178614411Y-90036951D01*
X178701600Y-89826977D01*
X178701799Y-89599620D01*
X178614976Y-89389494D01*
X178481315Y-89255600D01*
X180334584Y-89255600D01*
X184470584Y-93391600D01*
X184261511Y-93391600D01*
X184215680Y-93360285D01*
X184125000Y-93341922D01*
X183851854Y-93341922D01*
X183842138Y-93290286D01*
X183792072Y-93212482D01*
X183715680Y-93160285D01*
X183625000Y-93141922D01*
X183425000Y-93141922D01*
X183340286Y-93157862D01*
X183262482Y-93207928D01*
X183210285Y-93284320D01*
X183191922Y-93375000D01*
X183191922Y-93518367D01*
X183147829Y-93547829D01*
X183032203Y-93720877D01*
X182991600Y-93925000D01*
X183032203Y-94129123D01*
X183147829Y-94302171D01*
X183191922Y-94331633D01*
X183191922Y-94475000D01*
X183207862Y-94559714D01*
X183243438Y-94615000D01*
X177830816Y-94615000D01*
X176288671Y-93072855D01*
X176288799Y-92927020D01*
X176201976Y-92716894D01*
X176041351Y-92555989D01*
X175831377Y-92468800D01*
X175604020Y-92468601D01*
X175393894Y-92555424D01*
X175232989Y-92716049D01*
X175145800Y-92926023D01*
X175145601Y-93153380D01*
X175232424Y-93363506D01*
X175393049Y-93524411D01*
X175603023Y-93611600D01*
X175749913Y-93611729D01*
X177403592Y-95265408D01*
X177527197Y-95347998D01*
X177673000Y-95377001D01*
X177673005Y-95377000D01*
X179717300Y-95377000D01*
X179661094Y-95400224D01*
X179500189Y-95560849D01*
X179413000Y-95770823D01*
X179412885Y-95902333D01*
X179292551Y-95781789D01*
X179082577Y-95694600D01*
X178855220Y-95694401D01*
X178645094Y-95781224D01*
X178484189Y-95941849D01*
X178397000Y-96151823D01*
X178396871Y-96298714D01*
X173872992Y-100822592D01*
X173790402Y-100946197D01*
X173790402Y-100946198D01*
X173761400Y-101092000D01*
X173761400Y-111510618D01*
X173658189Y-111613649D01*
X173571000Y-111823623D01*
X173570801Y-112050980D01*
X173657624Y-112261106D01*
X173818249Y-112422011D01*
X174028223Y-112509200D01*
X174255580Y-112509399D01*
X174465706Y-112422576D01*
X174626611Y-112261951D01*
X174713800Y-112051977D01*
X174713999Y-111824620D01*
X174627176Y-111614494D01*
X174523400Y-111510537D01*
X174523400Y-108311615D01*
X177272249Y-108311615D01*
X177372795Y-108534200D01*
X178485800Y-108534200D01*
X178485800Y-107422450D01*
X178263218Y-107320663D01*
X177962881Y-107445052D01*
X177531380Y-107809646D01*
X177272249Y-108311615D01*
X174523400Y-108311615D01*
X174523400Y-101249816D01*
X178935744Y-96837471D01*
X179081580Y-96837599D01*
X179291706Y-96750776D01*
X179452611Y-96590151D01*
X179539800Y-96380177D01*
X179539915Y-96248667D01*
X179603400Y-96312263D01*
X179603400Y-107647062D01*
X179364319Y-107445052D01*
X179063982Y-107320663D01*
X178841400Y-107422450D01*
X178841400Y-108534200D01*
X178861400Y-108534200D01*
X178861400Y-108889800D01*
X178841400Y-108889800D01*
X178841400Y-108909800D01*
X178485800Y-108909800D01*
X178485800Y-108889800D01*
X177372795Y-108889800D01*
X177272249Y-109112385D01*
X177521694Y-109595592D01*
X177476398Y-109604602D01*
X177352792Y-109687192D01*
X177352790Y-109687195D01*
X176793992Y-110245992D01*
X176711402Y-110369597D01*
X176711402Y-110369598D01*
X176682400Y-110515400D01*
X176682400Y-112598200D01*
X176711402Y-112744003D01*
X176793992Y-112867608D01*
X177114200Y-113187815D01*
X177114200Y-114528600D01*
X176549050Y-114528600D01*
X176403000Y-114674650D01*
X176403000Y-115951000D01*
X176423000Y-115951000D01*
X176423000Y-116306600D01*
X176403000Y-116306600D01*
X176403000Y-117582950D01*
X176549050Y-117729000D01*
X177205004Y-117729000D01*
X177419722Y-117640061D01*
X177499184Y-117560600D01*
X178063992Y-118125408D01*
X178187598Y-118207998D01*
X178333400Y-118237001D01*
X178333405Y-118237000D01*
X182854600Y-118237000D01*
X183000403Y-118207998D01*
X183124008Y-118125408D01*
X183853230Y-117396186D01*
X184263167Y-117314644D01*
X184617502Y-117077885D01*
X184854261Y-116723550D01*
X184937400Y-116305583D01*
X184937400Y-115952017D01*
X185293000Y-115952017D01*
X185293000Y-116305583D01*
X185376139Y-116723550D01*
X185612898Y-117077885D01*
X185967233Y-117314644D01*
X186385200Y-117397783D01*
X186803167Y-117314644D01*
X187157502Y-117077885D01*
X187394261Y-116723550D01*
X187477400Y-116305583D01*
X187477400Y-115952017D01*
X187394261Y-115534050D01*
X187157502Y-115179715D01*
X186803167Y-114942956D01*
X186385200Y-114859817D01*
X185967233Y-114942956D01*
X185612898Y-115179715D01*
X185376139Y-115534050D01*
X185293000Y-115952017D01*
X184937400Y-115952017D01*
X184854261Y-115534050D01*
X184617502Y-115179715D01*
X184263167Y-114942956D01*
X183845200Y-114859817D01*
X183427233Y-114942956D01*
X183072898Y-115179715D01*
X182836139Y-115534050D01*
X182753000Y-115952017D01*
X182753000Y-116305583D01*
X182836139Y-116723550D01*
X183072898Y-117077885D01*
X183085487Y-117086297D01*
X182696784Y-117475000D01*
X178491216Y-117475000D01*
X178297890Y-117281674D01*
X178347233Y-117314644D01*
X178765200Y-117397783D01*
X179183167Y-117314644D01*
X179537502Y-117077885D01*
X179774261Y-116723550D01*
X179857400Y-116305583D01*
X179857400Y-115952017D01*
X179774261Y-115534050D01*
X179537502Y-115179715D01*
X179183167Y-114942956D01*
X179044600Y-114915393D01*
X179044600Y-112348678D01*
X179527200Y-112348678D01*
X179611914Y-112332738D01*
X179689718Y-112282672D01*
X179741915Y-112206280D01*
X179760278Y-112115600D01*
X179760278Y-110643338D01*
X179964416Y-110439200D01*
X180459885Y-110439200D01*
X180431298Y-110458301D01*
X180194539Y-110812636D01*
X180111400Y-111230603D01*
X180111400Y-111273397D01*
X180194539Y-111691364D01*
X180431298Y-112045699D01*
X180785633Y-112282458D01*
X180822600Y-112289811D01*
X180822600Y-114986142D01*
X180532898Y-115179715D01*
X180296139Y-115534050D01*
X180213000Y-115952017D01*
X180213000Y-116305583D01*
X180296139Y-116723550D01*
X180532898Y-117077885D01*
X180887233Y-117314644D01*
X181305200Y-117397783D01*
X181723167Y-117314644D01*
X182077502Y-117077885D01*
X182314261Y-116723550D01*
X182397400Y-116305583D01*
X182397400Y-115952017D01*
X182314261Y-115534050D01*
X182077502Y-115179715D01*
X181723167Y-114942956D01*
X181584600Y-114915393D01*
X181584600Y-112289811D01*
X181621567Y-112282458D01*
X181975902Y-112045699D01*
X182212661Y-111691364D01*
X182293461Y-111285155D01*
X182726732Y-110851883D01*
X182651400Y-111230603D01*
X182651400Y-111273397D01*
X182734539Y-111691364D01*
X182971298Y-112045699D01*
X183325633Y-112282458D01*
X183743600Y-112365597D01*
X184161567Y-112282458D01*
X184205732Y-112252948D01*
X184261592Y-112308808D01*
X184385198Y-112391398D01*
X184531000Y-112420401D01*
X184531005Y-112420400D01*
X195072000Y-112420400D01*
X195217803Y-112391398D01*
X195341408Y-112308808D01*
X195864815Y-111785400D01*
X196252700Y-111785400D01*
X196196494Y-111808624D01*
X196035589Y-111969249D01*
X195997230Y-112061628D01*
X194735221Y-113323637D01*
X194715680Y-113310285D01*
X194625000Y-113291922D01*
X194351854Y-113291922D01*
X194342138Y-113240286D01*
X194292072Y-113162482D01*
X194215680Y-113110285D01*
X194125000Y-113091922D01*
X193925000Y-113091922D01*
X193840286Y-113107862D01*
X193762482Y-113157928D01*
X193710285Y-113234320D01*
X193691922Y-113325000D01*
X193691922Y-113468367D01*
X193647829Y-113497829D01*
X193532203Y-113670877D01*
X193491600Y-113875000D01*
X193532203Y-114079123D01*
X193647829Y-114252171D01*
X193691922Y-114281633D01*
X193691922Y-114425000D01*
X193707862Y-114509714D01*
X193757928Y-114587518D01*
X193834320Y-114639715D01*
X193925000Y-114658078D01*
X194125000Y-114658078D01*
X194209714Y-114642138D01*
X194287518Y-114592072D01*
X194339715Y-114515680D01*
X194351380Y-114458078D01*
X194625000Y-114458078D01*
X194709714Y-114442138D01*
X194762144Y-114408400D01*
X198238489Y-114408400D01*
X198284320Y-114439715D01*
X198375000Y-114458078D01*
X198648146Y-114458078D01*
X198657862Y-114509714D01*
X198707928Y-114587518D01*
X198784320Y-114639715D01*
X198875000Y-114658078D01*
X199075000Y-114658078D01*
X199159714Y-114642138D01*
X199237518Y-114592072D01*
X199289715Y-114515680D01*
X199308078Y-114425000D01*
X199308078Y-114281633D01*
X199352171Y-114252171D01*
X199467797Y-114079123D01*
X199508400Y-113875000D01*
X199467797Y-113670877D01*
X199352171Y-113497829D01*
X199308078Y-113468367D01*
X199308078Y-113325000D01*
X199292138Y-113240286D01*
X199242072Y-113162482D01*
X199165680Y-113110285D01*
X199075000Y-113091922D01*
X198875000Y-113091922D01*
X198790286Y-113107862D01*
X198712482Y-113157928D01*
X198660285Y-113234320D01*
X198648620Y-113291922D01*
X198375000Y-113291922D01*
X198290286Y-113307862D01*
X198237856Y-113341600D01*
X196225942Y-113341600D01*
X196751525Y-112816017D01*
X196843106Y-112778176D01*
X197004011Y-112617551D01*
X197091200Y-112407577D01*
X197091399Y-112180220D01*
X197022952Y-112014568D01*
X197291790Y-112283405D01*
X197291792Y-112283408D01*
X197389477Y-112348678D01*
X197415398Y-112365998D01*
X197561200Y-112395001D01*
X197561205Y-112395000D01*
X199110600Y-112395000D01*
X199256403Y-112365998D01*
X199380008Y-112283408D01*
X200269008Y-111394408D01*
X200351598Y-111270802D01*
X200380601Y-111125000D01*
X200380600Y-111124995D01*
X200380600Y-91795605D01*
X200380601Y-91795600D01*
X200351598Y-91649798D01*
X200269008Y-91526192D01*
X200269005Y-91526190D01*
X189372408Y-80629592D01*
X189248803Y-80547002D01*
X189103000Y-80518000D01*
X187960000Y-80518000D01*
X187814198Y-80547002D01*
X187690592Y-80629592D01*
X187690590Y-80629595D01*
X187344984Y-80975200D01*
X186355130Y-80975200D01*
X186488411Y-80842151D01*
X186526770Y-80749772D01*
X187786405Y-79490137D01*
X187875000Y-79508078D01*
X188148146Y-79508078D01*
X188157862Y-79559714D01*
X188207928Y-79637518D01*
X188284320Y-79689715D01*
X188375000Y-79708078D01*
X188575000Y-79708078D01*
X188659714Y-79692138D01*
X188737518Y-79642072D01*
X188789715Y-79565680D01*
X188808078Y-79475000D01*
X188808078Y-79331633D01*
X188852171Y-79302171D01*
X188967797Y-79129123D01*
X189008400Y-78925000D01*
X188967797Y-78720877D01*
X188852171Y-78547829D01*
X188808078Y-78518367D01*
X188808078Y-78375000D01*
X188792138Y-78290286D01*
X188742072Y-78212482D01*
X188665680Y-78160285D01*
X188575000Y-78141922D01*
X188375000Y-78141922D01*
X188290286Y-78157862D01*
X188212482Y-78207928D01*
X188160285Y-78284320D01*
X188148620Y-78341922D01*
X187875000Y-78341922D01*
X187790286Y-78357862D01*
X187737856Y-78391600D01*
X184261511Y-78391600D01*
X184215680Y-78360285D01*
X184125000Y-78341922D01*
X183851854Y-78341922D01*
X183842138Y-78290286D01*
X183792072Y-78212482D01*
X183715680Y-78160285D01*
X183625000Y-78141922D01*
X183425000Y-78141922D01*
X183340286Y-78157862D01*
X183262482Y-78207928D01*
X183210285Y-78284320D01*
X183191922Y-78375000D01*
X183191922Y-78518367D01*
X183147829Y-78547829D01*
X183032203Y-78720877D01*
X182991600Y-78925000D01*
X183032203Y-79129123D01*
X183147829Y-79302171D01*
X183191922Y-79331633D01*
X183191922Y-79475000D01*
X183207862Y-79559714D01*
X183257928Y-79637518D01*
X183334320Y-79689715D01*
X183425000Y-79708078D01*
X183625000Y-79708078D01*
X183709714Y-79692138D01*
X183787518Y-79642072D01*
X183839715Y-79565680D01*
X183851380Y-79508078D01*
X184125000Y-79508078D01*
X184209714Y-79492138D01*
X184262144Y-79458400D01*
X186309458Y-79458400D01*
X185772475Y-79995383D01*
X185680894Y-80033224D01*
X185519989Y-80193849D01*
X185432800Y-80403823D01*
X185432601Y-80631180D01*
X185519424Y-80841306D01*
X185653085Y-80975200D01*
X185273015Y-80975200D01*
X184952808Y-80654992D01*
X184829203Y-80572402D01*
X184683400Y-80543400D01*
X178557382Y-80543400D01*
X178454351Y-80440189D01*
X178244377Y-80353000D01*
X178017020Y-80352801D01*
X177806894Y-80439624D01*
X177645989Y-80600249D01*
X177558800Y-80810223D01*
X177558601Y-81037580D01*
X177645424Y-81247706D01*
X177806049Y-81408611D01*
X178016023Y-81495800D01*
X178243380Y-81495999D01*
X178453506Y-81409176D01*
X178557463Y-81305400D01*
X183353370Y-81305400D01*
X183340286Y-81307862D01*
X183262482Y-81357928D01*
X183210285Y-81434320D01*
X183191922Y-81525000D01*
X183191922Y-81668367D01*
X183153560Y-81694000D01*
X181704000Y-81694000D01*
X181558197Y-81723002D01*
X181508688Y-81756083D01*
X181434592Y-81805592D01*
X181434590Y-81805595D01*
X179140784Y-84099400D01*
X175966582Y-84099400D01*
X175863551Y-83996189D01*
X175653577Y-83909000D01*
X175426220Y-83908801D01*
X175216094Y-83995624D01*
X175055189Y-84156249D01*
X174968000Y-84366223D01*
X174967801Y-84593580D01*
X175054624Y-84803706D01*
X175215249Y-84964611D01*
X175425223Y-85051800D01*
X175652580Y-85051999D01*
X175862706Y-84965176D01*
X175966663Y-84861400D01*
X179298600Y-84861400D01*
X179444403Y-84832398D01*
X179568008Y-84749808D01*
X181861815Y-82456000D01*
X183153560Y-82456000D01*
X183191922Y-82481633D01*
X183191922Y-82625000D01*
X183207862Y-82709714D01*
X183257928Y-82787518D01*
X183334320Y-82839715D01*
X183425000Y-82858078D01*
X183625000Y-82858078D01*
X183709714Y-82842138D01*
X183787518Y-82792072D01*
X183839715Y-82715680D01*
X183851380Y-82658078D01*
X184125000Y-82658078D01*
X184209714Y-82642138D01*
X184262144Y-82608400D01*
X187738489Y-82608400D01*
X187784320Y-82639715D01*
X187875000Y-82658078D01*
X188148146Y-82658078D01*
X188157862Y-82709714D01*
X188207928Y-82787518D01*
X188284320Y-82839715D01*
X188375000Y-82858078D01*
X188575000Y-82858078D01*
X188659714Y-82842138D01*
X188737518Y-82792072D01*
X188789715Y-82715680D01*
X188808078Y-82625000D01*
X188808078Y-82481633D01*
X188852171Y-82452171D01*
X188967797Y-82279123D01*
X189008400Y-82075000D01*
X188967797Y-81870877D01*
X188852171Y-81697829D01*
X188808078Y-81668367D01*
X188808078Y-81525000D01*
X188792138Y-81440286D01*
X188742072Y-81362482D01*
X188665680Y-81310285D01*
X188575000Y-81291922D01*
X188375000Y-81291922D01*
X188290286Y-81307862D01*
X188212482Y-81357928D01*
X188160285Y-81434320D01*
X188148620Y-81491922D01*
X187905894Y-81491922D01*
X188117815Y-81280000D01*
X188945184Y-81280000D01*
X199618600Y-91953415D01*
X199618600Y-110967184D01*
X199307391Y-111278393D01*
X199308078Y-111275000D01*
X199308078Y-111131633D01*
X199352171Y-111102171D01*
X199467797Y-110929123D01*
X199508400Y-110725000D01*
X199467797Y-110520877D01*
X199352171Y-110347829D01*
X199308078Y-110318367D01*
X199308078Y-110175000D01*
X199292138Y-110090286D01*
X199242072Y-110012482D01*
X199165680Y-109960285D01*
X199075000Y-109941922D01*
X198875000Y-109941922D01*
X198790286Y-109957862D01*
X198712482Y-110007928D01*
X198660285Y-110084320D01*
X198648620Y-110141922D01*
X198375000Y-110141922D01*
X198290286Y-110157862D01*
X198212482Y-110207928D01*
X198160285Y-110284320D01*
X198148200Y-110344000D01*
X194852245Y-110344000D01*
X194842138Y-110290286D01*
X194792072Y-110212482D01*
X194715680Y-110160285D01*
X194625000Y-110141922D01*
X194351854Y-110141922D01*
X194342138Y-110090286D01*
X194292072Y-110012482D01*
X194215680Y-109960285D01*
X194132194Y-109943379D01*
X190119000Y-105930184D01*
X190119000Y-103405839D01*
X194112087Y-103405839D01*
X194211382Y-103646151D01*
X194395082Y-103830172D01*
X194635221Y-103929887D01*
X194895239Y-103930113D01*
X195135551Y-103830818D01*
X195319572Y-103647118D01*
X195419287Y-103406979D01*
X195419287Y-103405839D01*
X197112087Y-103405839D01*
X197211382Y-103646151D01*
X197395082Y-103830172D01*
X197635221Y-103929887D01*
X197895239Y-103930113D01*
X198135551Y-103830818D01*
X198319572Y-103647118D01*
X198419287Y-103406979D01*
X198419513Y-103146961D01*
X198320218Y-102906649D01*
X198136518Y-102722628D01*
X197896379Y-102622913D01*
X197636361Y-102622687D01*
X197396049Y-102721982D01*
X197212028Y-102905682D01*
X197112313Y-103145821D01*
X197112087Y-103405839D01*
X195419287Y-103405839D01*
X195419513Y-103146961D01*
X195320218Y-102906649D01*
X195136518Y-102722628D01*
X194896379Y-102622913D01*
X194636361Y-102622687D01*
X194396049Y-102721982D01*
X194212028Y-102905682D01*
X194112313Y-103145821D01*
X194112087Y-103405839D01*
X190119000Y-103405839D01*
X190119000Y-97256600D01*
X190089998Y-97110798D01*
X190007408Y-96987192D01*
X190007405Y-96987190D01*
X187478616Y-94458400D01*
X187738489Y-94458400D01*
X187784320Y-94489715D01*
X187875000Y-94508078D01*
X188148146Y-94508078D01*
X188157862Y-94559714D01*
X188207928Y-94637518D01*
X188284320Y-94689715D01*
X188375000Y-94708078D01*
X188575000Y-94708078D01*
X188659714Y-94692138D01*
X188737518Y-94642072D01*
X188789715Y-94565680D01*
X188808078Y-94475000D01*
X188808078Y-94331633D01*
X188852171Y-94302171D01*
X188967797Y-94129123D01*
X189008400Y-93925000D01*
X188967797Y-93720877D01*
X188852171Y-93547829D01*
X188808078Y-93518367D01*
X188808078Y-93375000D01*
X188792138Y-93290286D01*
X188742072Y-93212482D01*
X188665680Y-93160285D01*
X188575000Y-93141922D01*
X188375000Y-93141922D01*
X188290286Y-93157862D01*
X188212482Y-93207928D01*
X188160285Y-93284320D01*
X188148620Y-93341922D01*
X187875000Y-93341922D01*
X187790286Y-93357862D01*
X187737856Y-93391600D01*
X185548216Y-93391600D01*
X180761808Y-88605192D01*
X180638203Y-88522602D01*
X180492400Y-88493600D01*
X178110215Y-88493600D01*
X177812671Y-88196056D01*
X177812799Y-88050220D01*
X177725976Y-87840094D01*
X177565351Y-87679189D01*
X177355377Y-87592000D01*
X177128020Y-87591801D01*
X176917894Y-87678624D01*
X176756989Y-87839249D01*
X176669800Y-88049223D01*
X176669601Y-88276580D01*
X176756424Y-88486706D01*
X176917049Y-88647611D01*
X177127023Y-88734800D01*
X177273913Y-88734929D01*
X177682990Y-89144005D01*
X177682992Y-89144008D01*
X177806598Y-89226598D01*
X177809127Y-89227101D01*
X177806894Y-89228024D01*
X177645989Y-89388649D01*
X177558800Y-89598623D01*
X177558671Y-89745513D01*
X175838784Y-91465400D01*
X174853600Y-91465400D01*
X174707797Y-91494402D01*
X174660220Y-91526192D01*
X174584192Y-91576992D01*
X174584190Y-91576995D01*
X172769584Y-93391600D01*
X169761511Y-93391600D01*
X169715680Y-93360285D01*
X169625000Y-93341922D01*
X169351854Y-93341922D01*
X169342138Y-93290286D01*
X169292072Y-93212482D01*
X169215680Y-93160285D01*
X169125000Y-93141922D01*
X168925000Y-93141922D01*
X168840286Y-93157862D01*
X168762482Y-93207928D01*
X168710285Y-93284320D01*
X168691922Y-93375000D01*
X168691922Y-93518367D01*
X168647829Y-93547829D01*
X168532203Y-93720877D01*
X168491600Y-93925000D01*
X153238200Y-93925000D01*
X153238200Y-82075000D01*
X168491600Y-82075000D01*
X168532203Y-82279123D01*
X168647829Y-82452171D01*
X168691922Y-82481633D01*
X168691922Y-82625000D01*
X168707862Y-82709714D01*
X168757928Y-82787518D01*
X168834320Y-82839715D01*
X168925000Y-82858078D01*
X169125000Y-82858078D01*
X169209714Y-82842138D01*
X169287518Y-82792072D01*
X169339715Y-82715680D01*
X169351380Y-82658078D01*
X169625000Y-82658078D01*
X169709714Y-82642138D01*
X169762144Y-82608400D01*
X173238489Y-82608400D01*
X173284320Y-82639715D01*
X173375000Y-82658078D01*
X173648146Y-82658078D01*
X173657862Y-82709714D01*
X173707928Y-82787518D01*
X173784320Y-82839715D01*
X173875000Y-82858078D01*
X174075000Y-82858078D01*
X174159714Y-82842138D01*
X174237518Y-82792072D01*
X174289715Y-82715680D01*
X174308078Y-82625000D01*
X174308078Y-82481633D01*
X174352171Y-82452171D01*
X174467797Y-82279123D01*
X174508400Y-82075000D01*
X174467797Y-81870877D01*
X174352171Y-81697829D01*
X174308078Y-81668367D01*
X174308078Y-81525000D01*
X174292138Y-81440286D01*
X174242072Y-81362482D01*
X174165680Y-81310285D01*
X174094644Y-81295900D01*
X174180400Y-81089377D01*
X174180599Y-80862020D01*
X174093776Y-80651894D01*
X173933151Y-80490989D01*
X173723177Y-80403800D01*
X173495820Y-80403601D01*
X173285694Y-80490424D01*
X173124789Y-80651049D01*
X173037600Y-80861023D01*
X173037401Y-81088380D01*
X173124224Y-81298506D01*
X173244000Y-81418491D01*
X173244000Y-81537647D01*
X173237856Y-81541600D01*
X169761511Y-81541600D01*
X169715680Y-81510285D01*
X169625000Y-81491922D01*
X169351854Y-81491922D01*
X169342138Y-81440286D01*
X169292072Y-81362482D01*
X169215680Y-81310285D01*
X169125000Y-81291922D01*
X168925000Y-81291922D01*
X168840286Y-81307862D01*
X168762482Y-81357928D01*
X168710285Y-81434320D01*
X168691922Y-81525000D01*
X168691922Y-81668367D01*
X168647829Y-81697829D01*
X168532203Y-81870877D01*
X168491600Y-82075000D01*
X153238200Y-82075000D01*
X153238200Y-78925000D01*
X168491600Y-78925000D01*
X168532203Y-79129123D01*
X168647829Y-79302171D01*
X168691922Y-79331633D01*
X168691922Y-79475000D01*
X168707862Y-79559714D01*
X168757928Y-79637518D01*
X168834320Y-79689715D01*
X168925000Y-79708078D01*
X169125000Y-79708078D01*
X169209714Y-79692138D01*
X169287518Y-79642072D01*
X169339715Y-79565680D01*
X169351380Y-79508078D01*
X169625000Y-79508078D01*
X169709714Y-79492138D01*
X169731790Y-79477932D01*
X170978183Y-80724325D01*
X171016024Y-80815906D01*
X171176649Y-80976811D01*
X171386623Y-81064000D01*
X171613980Y-81064199D01*
X171824106Y-80977376D01*
X171985011Y-80816751D01*
X172072200Y-80606777D01*
X172072399Y-80379420D01*
X171985576Y-80169294D01*
X171824951Y-80008389D01*
X171732572Y-79970030D01*
X171220942Y-79458400D01*
X173238489Y-79458400D01*
X173284320Y-79489715D01*
X173375000Y-79508078D01*
X173648146Y-79508078D01*
X173657862Y-79559714D01*
X173707928Y-79637518D01*
X173784320Y-79689715D01*
X173875000Y-79708078D01*
X174075000Y-79708078D01*
X174159714Y-79692138D01*
X174237518Y-79642072D01*
X174289715Y-79565680D01*
X174308078Y-79475000D01*
X174308078Y-79331633D01*
X174352171Y-79302171D01*
X174467797Y-79129123D01*
X174508400Y-78925000D01*
X174467797Y-78720877D01*
X174352171Y-78547829D01*
X174308078Y-78518367D01*
X174308078Y-78375000D01*
X174292138Y-78290286D01*
X174242072Y-78212482D01*
X174165680Y-78160285D01*
X174075000Y-78141922D01*
X173875000Y-78141922D01*
X173790286Y-78157862D01*
X173712482Y-78207928D01*
X173660285Y-78284320D01*
X173648620Y-78341922D01*
X173375000Y-78341922D01*
X173290286Y-78357862D01*
X173237856Y-78391600D01*
X169761511Y-78391600D01*
X169715680Y-78360285D01*
X169625000Y-78341922D01*
X169351854Y-78341922D01*
X169342138Y-78290286D01*
X169292072Y-78212482D01*
X169215680Y-78160285D01*
X169125000Y-78141922D01*
X168925000Y-78141922D01*
X168840286Y-78157862D01*
X168762482Y-78207928D01*
X168710285Y-78284320D01*
X168691922Y-78375000D01*
X168691922Y-78518367D01*
X168647829Y-78547829D01*
X168532203Y-78720877D01*
X168491600Y-78925000D01*
X153238200Y-78925000D01*
X153238200Y-75883512D01*
X157789787Y-75883512D01*
X157976436Y-76335237D01*
X158321745Y-76681149D01*
X158773144Y-76868587D01*
X159261912Y-76869013D01*
X159713637Y-76682364D01*
X160059549Y-76337055D01*
X160246987Y-75885656D01*
X160246988Y-75883512D01*
X162789787Y-75883512D01*
X162976436Y-76335237D01*
X163321745Y-76681149D01*
X163773144Y-76868587D01*
X164261912Y-76869013D01*
X164713637Y-76682364D01*
X165059549Y-76337055D01*
X165246987Y-75885656D01*
X165247413Y-75396888D01*
X165060764Y-74945163D01*
X164715455Y-74599251D01*
X164264056Y-74411813D01*
X163775288Y-74411387D01*
X163323563Y-74598036D01*
X162977651Y-74943345D01*
X162790213Y-75394744D01*
X162789787Y-75883512D01*
X160246988Y-75883512D01*
X160247413Y-75396888D01*
X160060764Y-74945163D01*
X159715455Y-74599251D01*
X159264056Y-74411813D01*
X158775288Y-74411387D01*
X158323563Y-74598036D01*
X157977651Y-74943345D01*
X157790213Y-75394744D01*
X157789787Y-75883512D01*
X153238200Y-75883512D01*
X153238200Y-72583512D01*
X160289787Y-72583512D01*
X160476436Y-73035237D01*
X160821745Y-73381149D01*
X161273144Y-73568587D01*
X161761912Y-73569013D01*
X162213637Y-73382364D01*
X162559549Y-73037055D01*
X162746987Y-72585656D01*
X162747413Y-72096888D01*
X162560764Y-71645163D01*
X162215455Y-71299251D01*
X161764056Y-71111813D01*
X161275288Y-71111387D01*
X160823563Y-71298036D01*
X160477651Y-71643345D01*
X160290213Y-72094744D01*
X160289787Y-72583512D01*
X153238200Y-72583512D01*
X153238200Y-65125600D01*
X201345800Y-65125600D01*
X201345800Y-118846600D01*
G36*
X152831800Y-88315800D02*
X143332200Y-88315800D01*
X143332200Y-67336417D01*
X144703800Y-67336417D01*
X144703800Y-67385183D01*
X144798540Y-67861471D01*
X145068335Y-68265248D01*
X145472112Y-68535043D01*
X145948400Y-68629783D01*
X146424688Y-68535043D01*
X146828465Y-68265248D01*
X146888200Y-68175848D01*
X146888200Y-68493005D01*
X146977139Y-68707723D01*
X147141478Y-68872061D01*
X147356196Y-68961000D01*
X148164550Y-68961000D01*
X148310600Y-68814950D01*
X148310600Y-67538600D01*
X148666200Y-67538600D01*
X148666200Y-68814950D01*
X148812250Y-68961000D01*
X149620604Y-68961000D01*
X149835322Y-68872061D01*
X149999661Y-68707723D01*
X150088600Y-68493005D01*
X150088600Y-67684650D01*
X149942550Y-67538600D01*
X148666200Y-67538600D01*
X148310600Y-67538600D01*
X148290600Y-67538600D01*
X148290600Y-67183000D01*
X148310600Y-67183000D01*
X148310600Y-65906650D01*
X148666200Y-65906650D01*
X148666200Y-67183000D01*
X149942550Y-67183000D01*
X150088600Y-67036950D01*
X150088600Y-66228595D01*
X149999661Y-66013877D01*
X149835322Y-65849539D01*
X149620604Y-65760600D01*
X148812250Y-65760600D01*
X148666200Y-65906650D01*
X148310600Y-65906650D01*
X148164550Y-65760600D01*
X147356196Y-65760600D01*
X147141478Y-65849539D01*
X146977139Y-66013877D01*
X146888200Y-66228595D01*
X146888200Y-66545752D01*
X146828465Y-66456352D01*
X146424688Y-66186557D01*
X145948400Y-66091817D01*
X145472112Y-66186557D01*
X145068335Y-66456352D01*
X144798540Y-66860129D01*
X144703800Y-67336417D01*
X143332200Y-67336417D01*
X143332200Y-65125600D01*
X152831800Y-65125600D01*
X152831800Y-88315800D01*
X152831800Y-88315800D01*
G37*
X152831800Y-88315800D02*
X143332200Y-88315800D01*
X143332200Y-67336417D01*
X144703800Y-67336417D01*
X144703800Y-67385183D01*
X144798540Y-67861471D01*
X145068335Y-68265248D01*
X145472112Y-68535043D01*
X145948400Y-68629783D01*
X146424688Y-68535043D01*
X146828465Y-68265248D01*
X146888200Y-68175848D01*
X146888200Y-68493005D01*
X146977139Y-68707723D01*
X147141478Y-68872061D01*
X147356196Y-68961000D01*
X148164550Y-68961000D01*
X148310600Y-68814950D01*
X148310600Y-67538600D01*
X148666200Y-67538600D01*
X148666200Y-68814950D01*
X148812250Y-68961000D01*
X149620604Y-68961000D01*
X149835322Y-68872061D01*
X149999661Y-68707723D01*
X150088600Y-68493005D01*
X150088600Y-67684650D01*
X149942550Y-67538600D01*
X148666200Y-67538600D01*
X148310600Y-67538600D01*
X148290600Y-67538600D01*
X148290600Y-67183000D01*
X148310600Y-67183000D01*
X148310600Y-65906650D01*
X148666200Y-65906650D01*
X148666200Y-67183000D01*
X149942550Y-67183000D01*
X150088600Y-67036950D01*
X150088600Y-66228595D01*
X149999661Y-66013877D01*
X149835322Y-65849539D01*
X149620604Y-65760600D01*
X148812250Y-65760600D01*
X148666200Y-65906650D01*
X148310600Y-65906650D01*
X148164550Y-65760600D01*
X147356196Y-65760600D01*
X147141478Y-65849539D01*
X146977139Y-66013877D01*
X146888200Y-66228595D01*
X146888200Y-66545752D01*
X146828465Y-66456352D01*
X146424688Y-66186557D01*
X145948400Y-66091817D01*
X145472112Y-66186557D01*
X145068335Y-66456352D01*
X144798540Y-66860129D01*
X144703800Y-67336417D01*
X143332200Y-67336417D01*
X143332200Y-65125600D01*
X152831800Y-65125600D01*
X152831800Y-88315800D01*
G36*
X142671800Y-88646000D02*
X142677803Y-88675646D01*
X142694868Y-88700621D01*
X142720305Y-88716989D01*
X142748000Y-88722200D01*
X152831800Y-88722200D01*
X152831800Y-96697800D01*
X142748000Y-96697800D01*
X142718354Y-96703803D01*
X142693379Y-96720868D01*
X142677011Y-96746305D01*
X142671800Y-96774000D01*
X142671800Y-108381800D01*
X111074200Y-108381800D01*
X111074200Y-106139846D01*
X120171601Y-106139846D01*
X120247862Y-106361588D01*
X120759166Y-106520911D01*
X121292520Y-106472439D01*
X121560138Y-106361588D01*
X121636399Y-106139846D01*
X120904000Y-105407447D01*
X120171601Y-106139846D01*
X111074200Y-106139846D01*
X111074200Y-105011166D01*
X119539089Y-105011166D01*
X119587561Y-105544520D01*
X119698412Y-105812138D01*
X119920154Y-105888399D01*
X120652553Y-105156000D01*
X121155447Y-105156000D01*
X121887846Y-105888399D01*
X122109588Y-105812138D01*
X122252912Y-105352178D01*
X122453228Y-105352178D01*
X122603721Y-105716397D01*
X122882138Y-105995300D01*
X123246093Y-106146428D01*
X123640178Y-106146772D01*
X124004397Y-105996279D01*
X124283300Y-105717862D01*
X124434428Y-105353907D01*
X124434429Y-105352178D01*
X124993228Y-105352178D01*
X125143721Y-105716397D01*
X125422138Y-105995300D01*
X125786093Y-106146428D01*
X126180178Y-106146772D01*
X126544397Y-105996279D01*
X126823300Y-105717862D01*
X126974428Y-105353907D01*
X126974429Y-105352178D01*
X127533228Y-105352178D01*
X127683721Y-105716397D01*
X127962138Y-105995300D01*
X128326093Y-106146428D01*
X128720178Y-106146772D01*
X129084397Y-105996279D01*
X129363300Y-105717862D01*
X129514428Y-105353907D01*
X129514429Y-105352178D01*
X130073228Y-105352178D01*
X130223721Y-105716397D01*
X130502138Y-105995300D01*
X130866093Y-106146428D01*
X131260178Y-106146772D01*
X131624397Y-105996279D01*
X131903300Y-105717862D01*
X132054428Y-105353907D01*
X132054429Y-105352178D01*
X132613228Y-105352178D01*
X132763721Y-105716397D01*
X133042138Y-105995300D01*
X133406093Y-106146428D01*
X133800178Y-106146772D01*
X134164397Y-105996279D01*
X134443300Y-105717862D01*
X134594428Y-105353907D01*
X134594772Y-104959822D01*
X134444279Y-104595603D01*
X134165862Y-104316700D01*
X133801907Y-104165572D01*
X133407822Y-104165228D01*
X133043603Y-104315721D01*
X132764700Y-104594138D01*
X132613572Y-104958093D01*
X132613228Y-105352178D01*
X132054429Y-105352178D01*
X132054772Y-104959822D01*
X131904279Y-104595603D01*
X131625862Y-104316700D01*
X131261907Y-104165572D01*
X130867822Y-104165228D01*
X130503603Y-104315721D01*
X130224700Y-104594138D01*
X130073572Y-104958093D01*
X130073228Y-105352178D01*
X129514429Y-105352178D01*
X129514772Y-104959822D01*
X129364279Y-104595603D01*
X129085862Y-104316700D01*
X128721907Y-104165572D01*
X128327822Y-104165228D01*
X127963603Y-104315721D01*
X127684700Y-104594138D01*
X127533572Y-104958093D01*
X127533228Y-105352178D01*
X126974429Y-105352178D01*
X126974772Y-104959822D01*
X126824279Y-104595603D01*
X126545862Y-104316700D01*
X126181907Y-104165572D01*
X125787822Y-104165228D01*
X125423603Y-104315721D01*
X125144700Y-104594138D01*
X124993572Y-104958093D01*
X124993228Y-105352178D01*
X124434429Y-105352178D01*
X124434772Y-104959822D01*
X124284279Y-104595603D01*
X124005862Y-104316700D01*
X123641907Y-104165572D01*
X123247822Y-104165228D01*
X122883603Y-104315721D01*
X122604700Y-104594138D01*
X122453572Y-104958093D01*
X122453228Y-105352178D01*
X122252912Y-105352178D01*
X122268911Y-105300834D01*
X122220439Y-104767480D01*
X122109588Y-104499862D01*
X121887846Y-104423601D01*
X121155447Y-105156000D01*
X120652553Y-105156000D01*
X119920154Y-104423601D01*
X119698412Y-104499862D01*
X119539089Y-105011166D01*
X111074200Y-105011166D01*
X111074200Y-104172154D01*
X120171601Y-104172154D01*
X120904000Y-104904553D01*
X121636399Y-104172154D01*
X121560138Y-103950412D01*
X121048834Y-103791089D01*
X120515480Y-103839561D01*
X120247862Y-103950412D01*
X120171601Y-104172154D01*
X111074200Y-104172154D01*
X111074200Y-75659846D01*
X120171601Y-75659846D01*
X120247862Y-75881588D01*
X120759166Y-76040911D01*
X121292520Y-75992439D01*
X121560138Y-75881588D01*
X121636399Y-75659846D01*
X120904000Y-74927447D01*
X120171601Y-75659846D01*
X111074200Y-75659846D01*
X111074200Y-75122380D01*
X111096665Y-75068278D01*
X111097133Y-74531166D01*
X119539089Y-74531166D01*
X119587561Y-75064520D01*
X119698412Y-75332138D01*
X119920154Y-75408399D01*
X120652553Y-74676000D01*
X121155447Y-74676000D01*
X121887846Y-75408399D01*
X122109588Y-75332138D01*
X122252912Y-74872178D01*
X122453228Y-74872178D01*
X122603721Y-75236397D01*
X122882138Y-75515300D01*
X123246093Y-75666428D01*
X123640178Y-75666772D01*
X124004397Y-75516279D01*
X124283300Y-75237862D01*
X124434428Y-74873907D01*
X124434429Y-74872178D01*
X124993228Y-74872178D01*
X125143721Y-75236397D01*
X125422138Y-75515300D01*
X125786093Y-75666428D01*
X126180178Y-75666772D01*
X126544397Y-75516279D01*
X126823300Y-75237862D01*
X126974428Y-74873907D01*
X126974429Y-74872178D01*
X127533228Y-74872178D01*
X127683721Y-75236397D01*
X127962138Y-75515300D01*
X128326093Y-75666428D01*
X128720178Y-75666772D01*
X129084397Y-75516279D01*
X129363300Y-75237862D01*
X129514428Y-74873907D01*
X129514429Y-74872178D01*
X130073228Y-74872178D01*
X130223721Y-75236397D01*
X130502138Y-75515300D01*
X130866093Y-75666428D01*
X131260178Y-75666772D01*
X131624397Y-75516279D01*
X131903300Y-75237862D01*
X132054428Y-74873907D01*
X132054429Y-74872178D01*
X132613228Y-74872178D01*
X132763721Y-75236397D01*
X133042138Y-75515300D01*
X133406093Y-75666428D01*
X133800178Y-75666772D01*
X134164397Y-75516279D01*
X134443300Y-75237862D01*
X134594428Y-74873907D01*
X134594772Y-74479822D01*
X134444279Y-74115603D01*
X134165862Y-73836700D01*
X133801907Y-73685572D01*
X133407822Y-73685228D01*
X133043603Y-73835721D01*
X132764700Y-74114138D01*
X132613572Y-74478093D01*
X132613228Y-74872178D01*
X132054429Y-74872178D01*
X132054772Y-74479822D01*
X131904279Y-74115603D01*
X131625862Y-73836700D01*
X131261907Y-73685572D01*
X130867822Y-73685228D01*
X130503603Y-73835721D01*
X130224700Y-74114138D01*
X130073572Y-74478093D01*
X130073228Y-74872178D01*
X129514429Y-74872178D01*
X129514772Y-74479822D01*
X129364279Y-74115603D01*
X129085862Y-73836700D01*
X128721907Y-73685572D01*
X128327822Y-73685228D01*
X127963603Y-73835721D01*
X127684700Y-74114138D01*
X127533572Y-74478093D01*
X127533228Y-74872178D01*
X126974429Y-74872178D01*
X126974772Y-74479822D01*
X126824279Y-74115603D01*
X126545862Y-73836700D01*
X126181907Y-73685572D01*
X125787822Y-73685228D01*
X125423603Y-73835721D01*
X125144700Y-74114138D01*
X124993572Y-74478093D01*
X124993228Y-74872178D01*
X124434429Y-74872178D01*
X124434772Y-74479822D01*
X124284279Y-74115603D01*
X124005862Y-73836700D01*
X123641907Y-73685572D01*
X123247822Y-73685228D01*
X122883603Y-73835721D01*
X122604700Y-74114138D01*
X122453572Y-74478093D01*
X122453228Y-74872178D01*
X122252912Y-74872178D01*
X122268911Y-74820834D01*
X122220439Y-74287480D01*
X122109588Y-74019862D01*
X121887846Y-73943601D01*
X121155447Y-74676000D01*
X120652553Y-74676000D01*
X119920154Y-73943601D01*
X119698412Y-74019862D01*
X119539089Y-74531166D01*
X111097133Y-74531166D01*
X111097213Y-74440272D01*
X111074200Y-74384576D01*
X111074200Y-73692154D01*
X120171601Y-73692154D01*
X120904000Y-74424553D01*
X121636399Y-73692154D01*
X121560138Y-73470412D01*
X121048834Y-73311089D01*
X120515480Y-73359561D01*
X120247862Y-73470412D01*
X120171601Y-73692154D01*
X111074200Y-73692154D01*
X111074200Y-72186800D01*
X142671800Y-72186800D01*
X142671800Y-88646000D01*
X142671800Y-88646000D01*
G37*
X142671800Y-88646000D02*
X142677803Y-88675646D01*
X142694868Y-88700621D01*
X142720305Y-88716989D01*
X142748000Y-88722200D01*
X152831800Y-88722200D01*
X152831800Y-96697800D01*
X142748000Y-96697800D01*
X142718354Y-96703803D01*
X142693379Y-96720868D01*
X142677011Y-96746305D01*
X142671800Y-96774000D01*
X142671800Y-108381800D01*
X111074200Y-108381800D01*
X111074200Y-106139846D01*
X120171601Y-106139846D01*
X120247862Y-106361588D01*
X120759166Y-106520911D01*
X121292520Y-106472439D01*
X121560138Y-106361588D01*
X121636399Y-106139846D01*
X120904000Y-105407447D01*
X120171601Y-106139846D01*
X111074200Y-106139846D01*
X111074200Y-105011166D01*
X119539089Y-105011166D01*
X119587561Y-105544520D01*
X119698412Y-105812138D01*
X119920154Y-105888399D01*
X120652553Y-105156000D01*
X121155447Y-105156000D01*
X121887846Y-105888399D01*
X122109588Y-105812138D01*
X122252912Y-105352178D01*
X122453228Y-105352178D01*
X122603721Y-105716397D01*
X122882138Y-105995300D01*
X123246093Y-106146428D01*
X123640178Y-106146772D01*
X124004397Y-105996279D01*
X124283300Y-105717862D01*
X124434428Y-105353907D01*
X124434429Y-105352178D01*
X124993228Y-105352178D01*
X125143721Y-105716397D01*
X125422138Y-105995300D01*
X125786093Y-106146428D01*
X126180178Y-106146772D01*
X126544397Y-105996279D01*
X126823300Y-105717862D01*
X126974428Y-105353907D01*
X126974429Y-105352178D01*
X127533228Y-105352178D01*
X127683721Y-105716397D01*
X127962138Y-105995300D01*
X128326093Y-106146428D01*
X128720178Y-106146772D01*
X129084397Y-105996279D01*
X129363300Y-105717862D01*
X129514428Y-105353907D01*
X129514429Y-105352178D01*
X130073228Y-105352178D01*
X130223721Y-105716397D01*
X130502138Y-105995300D01*
X130866093Y-106146428D01*
X131260178Y-106146772D01*
X131624397Y-105996279D01*
X131903300Y-105717862D01*
X132054428Y-105353907D01*
X132054429Y-105352178D01*
X132613228Y-105352178D01*
X132763721Y-105716397D01*
X133042138Y-105995300D01*
X133406093Y-106146428D01*
X133800178Y-106146772D01*
X134164397Y-105996279D01*
X134443300Y-105717862D01*
X134594428Y-105353907D01*
X134594772Y-104959822D01*
X134444279Y-104595603D01*
X134165862Y-104316700D01*
X133801907Y-104165572D01*
X133407822Y-104165228D01*
X133043603Y-104315721D01*
X132764700Y-104594138D01*
X132613572Y-104958093D01*
X132613228Y-105352178D01*
X132054429Y-105352178D01*
X132054772Y-104959822D01*
X131904279Y-104595603D01*
X131625862Y-104316700D01*
X131261907Y-104165572D01*
X130867822Y-104165228D01*
X130503603Y-104315721D01*
X130224700Y-104594138D01*
X130073572Y-104958093D01*
X130073228Y-105352178D01*
X129514429Y-105352178D01*
X129514772Y-104959822D01*
X129364279Y-104595603D01*
X129085862Y-104316700D01*
X128721907Y-104165572D01*
X128327822Y-104165228D01*
X127963603Y-104315721D01*
X127684700Y-104594138D01*
X127533572Y-104958093D01*
X127533228Y-105352178D01*
X126974429Y-105352178D01*
X126974772Y-104959822D01*
X126824279Y-104595603D01*
X126545862Y-104316700D01*
X126181907Y-104165572D01*
X125787822Y-104165228D01*
X125423603Y-104315721D01*
X125144700Y-104594138D01*
X124993572Y-104958093D01*
X124993228Y-105352178D01*
X124434429Y-105352178D01*
X124434772Y-104959822D01*
X124284279Y-104595603D01*
X124005862Y-104316700D01*
X123641907Y-104165572D01*
X123247822Y-104165228D01*
X122883603Y-104315721D01*
X122604700Y-104594138D01*
X122453572Y-104958093D01*
X122453228Y-105352178D01*
X122252912Y-105352178D01*
X122268911Y-105300834D01*
X122220439Y-104767480D01*
X122109588Y-104499862D01*
X121887846Y-104423601D01*
X121155447Y-105156000D01*
X120652553Y-105156000D01*
X119920154Y-104423601D01*
X119698412Y-104499862D01*
X119539089Y-105011166D01*
X111074200Y-105011166D01*
X111074200Y-104172154D01*
X120171601Y-104172154D01*
X120904000Y-104904553D01*
X121636399Y-104172154D01*
X121560138Y-103950412D01*
X121048834Y-103791089D01*
X120515480Y-103839561D01*
X120247862Y-103950412D01*
X120171601Y-104172154D01*
X111074200Y-104172154D01*
X111074200Y-75659846D01*
X120171601Y-75659846D01*
X120247862Y-75881588D01*
X120759166Y-76040911D01*
X121292520Y-75992439D01*
X121560138Y-75881588D01*
X121636399Y-75659846D01*
X120904000Y-74927447D01*
X120171601Y-75659846D01*
X111074200Y-75659846D01*
X111074200Y-75122380D01*
X111096665Y-75068278D01*
X111097133Y-74531166D01*
X119539089Y-74531166D01*
X119587561Y-75064520D01*
X119698412Y-75332138D01*
X119920154Y-75408399D01*
X120652553Y-74676000D01*
X121155447Y-74676000D01*
X121887846Y-75408399D01*
X122109588Y-75332138D01*
X122252912Y-74872178D01*
X122453228Y-74872178D01*
X122603721Y-75236397D01*
X122882138Y-75515300D01*
X123246093Y-75666428D01*
X123640178Y-75666772D01*
X124004397Y-75516279D01*
X124283300Y-75237862D01*
X124434428Y-74873907D01*
X124434429Y-74872178D01*
X124993228Y-74872178D01*
X125143721Y-75236397D01*
X125422138Y-75515300D01*
X125786093Y-75666428D01*
X126180178Y-75666772D01*
X126544397Y-75516279D01*
X126823300Y-75237862D01*
X126974428Y-74873907D01*
X126974429Y-74872178D01*
X127533228Y-74872178D01*
X127683721Y-75236397D01*
X127962138Y-75515300D01*
X128326093Y-75666428D01*
X128720178Y-75666772D01*
X129084397Y-75516279D01*
X129363300Y-75237862D01*
X129514428Y-74873907D01*
X129514429Y-74872178D01*
X130073228Y-74872178D01*
X130223721Y-75236397D01*
X130502138Y-75515300D01*
X130866093Y-75666428D01*
X131260178Y-75666772D01*
X131624397Y-75516279D01*
X131903300Y-75237862D01*
X132054428Y-74873907D01*
X132054429Y-74872178D01*
X132613228Y-74872178D01*
X132763721Y-75236397D01*
X133042138Y-75515300D01*
X133406093Y-75666428D01*
X133800178Y-75666772D01*
X134164397Y-75516279D01*
X134443300Y-75237862D01*
X134594428Y-74873907D01*
X134594772Y-74479822D01*
X134444279Y-74115603D01*
X134165862Y-73836700D01*
X133801907Y-73685572D01*
X133407822Y-73685228D01*
X133043603Y-73835721D01*
X132764700Y-74114138D01*
X132613572Y-74478093D01*
X132613228Y-74872178D01*
X132054429Y-74872178D01*
X132054772Y-74479822D01*
X131904279Y-74115603D01*
X131625862Y-73836700D01*
X131261907Y-73685572D01*
X130867822Y-73685228D01*
X130503603Y-73835721D01*
X130224700Y-74114138D01*
X130073572Y-74478093D01*
X130073228Y-74872178D01*
X129514429Y-74872178D01*
X129514772Y-74479822D01*
X129364279Y-74115603D01*
X129085862Y-73836700D01*
X128721907Y-73685572D01*
X128327822Y-73685228D01*
X127963603Y-73835721D01*
X127684700Y-74114138D01*
X127533572Y-74478093D01*
X127533228Y-74872178D01*
X126974429Y-74872178D01*
X126974772Y-74479822D01*
X126824279Y-74115603D01*
X126545862Y-73836700D01*
X126181907Y-73685572D01*
X125787822Y-73685228D01*
X125423603Y-73835721D01*
X125144700Y-74114138D01*
X124993572Y-74478093D01*
X124993228Y-74872178D01*
X124434429Y-74872178D01*
X124434772Y-74479822D01*
X124284279Y-74115603D01*
X124005862Y-73836700D01*
X123641907Y-73685572D01*
X123247822Y-73685228D01*
X122883603Y-73835721D01*
X122604700Y-74114138D01*
X122453572Y-74478093D01*
X122453228Y-74872178D01*
X122252912Y-74872178D01*
X122268911Y-74820834D01*
X122220439Y-74287480D01*
X122109588Y-74019862D01*
X121887846Y-73943601D01*
X121155447Y-74676000D01*
X120652553Y-74676000D01*
X119920154Y-73943601D01*
X119698412Y-74019862D01*
X119539089Y-74531166D01*
X111097133Y-74531166D01*
X111097213Y-74440272D01*
X111074200Y-74384576D01*
X111074200Y-73692154D01*
X120171601Y-73692154D01*
X120904000Y-74424553D01*
X121636399Y-73692154D01*
X121560138Y-73470412D01*
X121048834Y-73311089D01*
X120515480Y-73359561D01*
X120247862Y-73470412D01*
X120171601Y-73692154D01*
X111074200Y-73692154D01*
X111074200Y-72186800D01*
X142671800Y-72186800D01*
X142671800Y-88646000D01*
M02*
