G04 #@! TF.FileFunction,Paste,Top*
%FSLAX46Y46*%
G04 Gerber Fmt 4.6, Leading zero omitted, Abs format (unit mm)*
G04 Created by KiCad (PCBNEW 0.201508140901+6091~28~ubuntu14.04.1-product) date Tue 27 Oct 2015 09:22:58 PM CET*
%MOMM*%
G01*
G04 APERTURE LIST*
%ADD10C,0.100000*%
%ADD11R,1.300800X1.550800*%
%ADD12R,1.550800X1.300800*%
%ADD13R,1.250800X0.650800*%
%ADD14R,0.650800X1.250800*%
%ADD15R,0.950800X0.850800*%
%ADD16R,1.350800X1.550800*%
%ADD17R,1.050800X1.200800*%
%ADD18R,1.050800X0.650800*%
G04 APERTURE END LIST*
D10*
D11*
X151638000Y-84602000D03*
X151638000Y-87102000D03*
X149606000Y-78252000D03*
X149606000Y-80752000D03*
D12*
X154412000Y-82296000D03*
X151912000Y-82296000D03*
X149840000Y-91694000D03*
X147340000Y-91694000D03*
D11*
X185420000Y-88372000D03*
X185420000Y-85872000D03*
D13*
X174312000Y-84068000D03*
X174312000Y-84868000D03*
X174312000Y-85668000D03*
X174312000Y-86468000D03*
X174312000Y-87268000D03*
X174312000Y-88068000D03*
X174312000Y-88868000D03*
X174312000Y-89668000D03*
D14*
X175762000Y-91118000D03*
X176562000Y-91118000D03*
X177362000Y-91118000D03*
X178162000Y-91118000D03*
X178962000Y-91118000D03*
X179762000Y-91118000D03*
X180562000Y-91118000D03*
X181362000Y-91118000D03*
D13*
X182812000Y-89668000D03*
X182812000Y-88868000D03*
X182812000Y-88068000D03*
X182812000Y-87268000D03*
X182812000Y-86468000D03*
X182812000Y-85668000D03*
X182812000Y-84868000D03*
X182812000Y-84068000D03*
D14*
X181362000Y-82618000D03*
X180562000Y-82618000D03*
X179762000Y-82618000D03*
X178962000Y-82618000D03*
X178162000Y-82618000D03*
X177362000Y-82618000D03*
X176562000Y-82618000D03*
X175762000Y-82618000D03*
D15*
X134381240Y-78171000D03*
X134381240Y-80071000D03*
X136380220Y-79121000D03*
X134381240Y-85410000D03*
X134381240Y-87310000D03*
X136380220Y-86360000D03*
X119872760Y-79994800D03*
X119872760Y-78094800D03*
X117873780Y-79044800D03*
X119796560Y-94726800D03*
X119796560Y-92826800D03*
X117797580Y-93776800D03*
X119923560Y-101965800D03*
X119923560Y-100065800D03*
X117924580Y-101015800D03*
X119923560Y-87310000D03*
X119923560Y-85410000D03*
X117924580Y-86360000D03*
X134381240Y-92903000D03*
X134381240Y-94803000D03*
X136380220Y-93853000D03*
X134381240Y-100142000D03*
X134381240Y-102042000D03*
X136380220Y-101092000D03*
D16*
X146304000Y-87202000D03*
X146304000Y-84502000D03*
X132080000Y-77771000D03*
X132080000Y-80471000D03*
X138938000Y-77771000D03*
X138938000Y-80471000D03*
X132080000Y-85010000D03*
X132080000Y-87710000D03*
X138938000Y-85010000D03*
X138938000Y-87710000D03*
X123139200Y-80394800D03*
X123139200Y-77694800D03*
X115417600Y-80344000D03*
X115417600Y-77644000D03*
X123012200Y-95076000D03*
X123012200Y-92376000D03*
X115341400Y-95025200D03*
X115341400Y-92325200D03*
X123139200Y-102365800D03*
X123139200Y-99665800D03*
X115417600Y-102365800D03*
X115417600Y-99665800D03*
X123139200Y-87710000D03*
X123139200Y-85010000D03*
X115417600Y-87710000D03*
X115417600Y-85010000D03*
X132080000Y-92376000D03*
X132080000Y-95076000D03*
X138938000Y-92503000D03*
X138938000Y-95203000D03*
X131826000Y-99742000D03*
X131826000Y-102442000D03*
X138684000Y-99488000D03*
X138684000Y-102188000D03*
X178054000Y-75612000D03*
X178054000Y-78312000D03*
D17*
X164084000Y-100045000D03*
X164084000Y-105695000D03*
X161584000Y-100045000D03*
X166584000Y-100045000D03*
X161584000Y-105695000D03*
X166584000Y-105695000D03*
D18*
X154385000Y-80198000D03*
X154385000Y-78298000D03*
X151685000Y-79248000D03*
D14*
X150048000Y-87242000D03*
X149098000Y-87242000D03*
X148148000Y-87242000D03*
X148148000Y-89542000D03*
X150048000Y-89542000D03*
M02*
