M48
;DRILL file {KiCad 4.0.0-2.201512072331+6194~38~ubuntu14.04.1-stable} date Sun 31 Jul 2016 09:51:57 AM CEST
;FORMAT={2:4/ absolute / inch / suppress leading zeros}
FMAT,2
INCH,TZ
T1C0.013
T2C0.039
T3C0.040
T4C0.106
T5C0.157
%
G90
G05
M72
T1
X45350Y-44400
X45500Y-32450
X46140Y-34320
X46150Y-29650
X46280Y-40200
X46475Y-37721
X47700Y-31100
X47750Y-34000
X47750Y-36950
X47750Y-39850
X52450Y-39800
X52500Y-31150
X52500Y-32500
X52500Y-34000
X52550Y-36950
X56800Y-34100
X57160Y-39740
X57800Y-30700
X58120Y-39200
X58720Y-37270
X59100Y-33300
X59550Y-27100
X60840Y-40420
X61525Y-31500
X61800Y-26550
X67490Y-37610
X67520Y-31690
X67950Y-34500
X68000Y-33100
X68050Y-35000
X68350Y-31880
X68950Y-30450
X69110Y-33260
X69200Y-34300
X69300Y-31100
X69300Y-38340
X69780Y-34710
X70100Y-35000
X70460Y-36640
X70780Y-30860
X73230Y-31700
X73255Y-37598
X73700Y-34800
X77370Y-44210
T2
X61616Y-29700
X62600Y-28400
X63584Y-29700
T3
X47600Y-29400
X47600Y-41400
X48600Y-29400
X48600Y-41400
X49600Y-29400
X49600Y-41400
X50600Y-29400
X50600Y-41400
X51600Y-29400
X51600Y-41400
X52600Y-29400
X52600Y-41400
X57460Y-26520
X57680Y-41260
X58460Y-26520
X58680Y-41260
X59680Y-41260
X60680Y-41260
X61680Y-41260
X62680Y-41260
X63550Y-34050
X63550Y-35050
X63680Y-41260
X65050Y-34050
X65050Y-35050
X76180Y-35140
X76180Y-36140
X76180Y-37140
X77180Y-35140
X77180Y-36140
X77180Y-37140
T4
X39180Y-29430
X39180Y-44285
X43117Y-44285
X43117Y-29430
T5
X58653Y-29150
T0
M30
