M48
;DRILL file {KiCad 0.201508140901+6091~28~ubuntu14.04.1-product} date Tue 22 Sep 2015 11:40:46 PM CEST
;FORMAT={2:4/ absolute / inch / suppress trailing zeros}
FMAT,2
INCH,LZ
T1C0.013
T2C0.030
T3C0.033
T4C0.039
T5C0.040
T6C0.106
%
G90
G05
M72
T1
X0453Y-0437
X0474Y-0322
X0475Y-0352
X0476Y-0381
X0534Y-03
X0534Y-033
X0534Y-0359
X0534Y-0388
X0568Y-0341
X05736Y-03905
X0578Y-0307
X05872Y-03727
X0591Y-0333
X0611Y-0306
X06749Y-03761
X06752Y-03169
X06835Y-03188
X06856Y-04407
X0691Y-0348
X06911Y-03326
X06918Y-03663
X069275Y-034025
X06978Y-03471
X0701Y-0289
X07013Y-03186
X07013Y-03532
X07046Y-0379
X07086Y-03775
X07135Y-03792
X07166Y-03776
X0729Y-03879
X07323Y-0317
X07323Y-0376
X0737Y-0348
X07737Y-04421
T2
X0476Y-0294
X0476Y-0414
X0486Y-0294
X0486Y-0414
X0496Y-0294
X0496Y-0414
X0506Y-0294
X0506Y-0414
X0516Y-0294
X0516Y-0414
X0526Y-0294
X0526Y-0414
T3
X076679Y-04066
X077861Y-04066
T4
X062606Y-02978
X06359Y-02848
X064574Y-02978
T5
X05746Y-02652
X05846Y-02652
X06685Y-04136
X06785Y-04136
X06938Y-04572
X07034Y-0428
X07034Y-0438
X07038Y-04572
X07134Y-0428
X07134Y-0438
X07138Y-04572
X07234Y-0428
X07234Y-0438
X07238Y-04572
X07338Y-04572
T6
X03918Y-02943
X03918Y-044285
X043117Y-044285
X043117Y-02943
T0
M30
