G04 #@! TF.FileFunction,Legend,Bot*
%FSLAX46Y46*%
G04 Gerber Fmt 4.6, Leading zero omitted, Abs format (unit mm)*
G04 Created by KiCad (PCBNEW 0.201508140901+6091~28~ubuntu14.04.1-product) date Tue 22 Sep 2015 11:40:43 PM CEST*
%MOMM*%
G01*
G04 APERTURE LIST*
%ADD10C,0.100000*%
%ADD11C,0.127000*%
%ADD12C,0.150000*%
%ADD13R,2.032000X2.032000*%
%ADD14O,2.032000X2.032000*%
%ADD15R,1.727200X1.727200*%
%ADD16O,1.727200X1.727200*%
%ADD17R,0.500000X0.700000*%
%ADD18R,0.200000X1.100000*%
%ADD19C,0.850000*%
%ADD20C,2.000000*%
%ADD21C,1.524000*%
%ADD22R,1.727200X2.032000*%
%ADD23O,1.727200X2.032000*%
G04 APERTURE END LIST*
D10*
D11*
X199738343Y-116437229D02*
X199629486Y-116473514D01*
X199448057Y-116473514D01*
X199375486Y-116437229D01*
X199339200Y-116400943D01*
X199302915Y-116328371D01*
X199302915Y-116255800D01*
X199339200Y-116183229D01*
X199375486Y-116146943D01*
X199448057Y-116110657D01*
X199593200Y-116074371D01*
X199665772Y-116038086D01*
X199702057Y-116001800D01*
X199738343Y-115929229D01*
X199738343Y-115856657D01*
X199702057Y-115784086D01*
X199665772Y-115747800D01*
X199593200Y-115711514D01*
X199411772Y-115711514D01*
X199302915Y-115747800D01*
X198867486Y-116473514D02*
X198940058Y-116437229D01*
X198976343Y-116364657D01*
X198976343Y-115711514D01*
X198286915Y-116437229D02*
X198359486Y-116473514D01*
X198504629Y-116473514D01*
X198577200Y-116437229D01*
X198613486Y-116364657D01*
X198613486Y-116074371D01*
X198577200Y-116001800D01*
X198504629Y-115965514D01*
X198359486Y-115965514D01*
X198286915Y-116001800D01*
X198250629Y-116074371D01*
X198250629Y-116146943D01*
X198613486Y-116219514D01*
X197633772Y-116437229D02*
X197706343Y-116473514D01*
X197851486Y-116473514D01*
X197924057Y-116437229D01*
X197960343Y-116364657D01*
X197960343Y-116074371D01*
X197924057Y-116001800D01*
X197851486Y-115965514D01*
X197706343Y-115965514D01*
X197633772Y-116001800D01*
X197597486Y-116074371D01*
X197597486Y-116146943D01*
X197960343Y-116219514D01*
X197270914Y-115965514D02*
X197270914Y-116727514D01*
X197270914Y-116001800D02*
X197198343Y-115965514D01*
X197053200Y-115965514D01*
X196980629Y-116001800D01*
X196944343Y-116038086D01*
X196908057Y-116110657D01*
X196908057Y-116328371D01*
X196944343Y-116400943D01*
X196980629Y-116437229D01*
X197053200Y-116473514D01*
X197198343Y-116473514D01*
X197270914Y-116437229D01*
X189121143Y-99673229D02*
X189012286Y-99709514D01*
X188830857Y-99709514D01*
X188758286Y-99673229D01*
X188722000Y-99636943D01*
X188685715Y-99564371D01*
X188685715Y-99491800D01*
X188722000Y-99419229D01*
X188758286Y-99382943D01*
X188830857Y-99346657D01*
X188976000Y-99310371D01*
X189048572Y-99274086D01*
X189084857Y-99237800D01*
X189121143Y-99165229D01*
X189121143Y-99092657D01*
X189084857Y-99020086D01*
X189048572Y-98983800D01*
X188976000Y-98947514D01*
X188794572Y-98947514D01*
X188685715Y-98983800D01*
X188250286Y-99709514D02*
X188322858Y-99673229D01*
X188359143Y-99600657D01*
X188359143Y-98947514D01*
X187851143Y-99709514D02*
X187923715Y-99673229D01*
X187960000Y-99636943D01*
X187996286Y-99564371D01*
X187996286Y-99346657D01*
X187960000Y-99274086D01*
X187923715Y-99237800D01*
X187851143Y-99201514D01*
X187742286Y-99201514D01*
X187669715Y-99237800D01*
X187633429Y-99274086D01*
X187597143Y-99346657D01*
X187597143Y-99564371D01*
X187633429Y-99636943D01*
X187669715Y-99673229D01*
X187742286Y-99709514D01*
X187851143Y-99709514D01*
X187343143Y-99201514D02*
X187198000Y-99709514D01*
X187052857Y-99346657D01*
X186907714Y-99709514D01*
X186762571Y-99201514D01*
X174595971Y-99339400D02*
X174233114Y-99339400D01*
X174668543Y-99557114D02*
X174414543Y-98795114D01*
X174160543Y-99557114D01*
X173797685Y-99557114D02*
X173870257Y-99520829D01*
X173906542Y-99448257D01*
X173906542Y-98795114D01*
X173180828Y-99557114D02*
X173180828Y-99157971D01*
X173217114Y-99085400D01*
X173289685Y-99049114D01*
X173434828Y-99049114D01*
X173507399Y-99085400D01*
X173180828Y-99520829D02*
X173253399Y-99557114D01*
X173434828Y-99557114D01*
X173507399Y-99520829D01*
X173543685Y-99448257D01*
X173543685Y-99375686D01*
X173507399Y-99303114D01*
X173434828Y-99266829D01*
X173253399Y-99266829D01*
X173180828Y-99230543D01*
X172817970Y-99557114D02*
X172817970Y-99049114D01*
X172817970Y-99194257D02*
X172781685Y-99121686D01*
X172745399Y-99085400D01*
X172672828Y-99049114D01*
X172600256Y-99049114D01*
X172346256Y-99557114D02*
X172346256Y-99049114D01*
X172346256Y-99121686D02*
X172309971Y-99085400D01*
X172237399Y-99049114D01*
X172128542Y-99049114D01*
X172055971Y-99085400D01*
X172019685Y-99157971D01*
X172019685Y-99557114D01*
X172019685Y-99157971D02*
X171983399Y-99085400D01*
X171910828Y-99049114D01*
X171801971Y-99049114D01*
X171729399Y-99085400D01*
X171693114Y-99157971D01*
X171693114Y-99557114D01*
X170785971Y-99520829D02*
X170713400Y-99557114D01*
X170568257Y-99557114D01*
X170495685Y-99520829D01*
X170459400Y-99448257D01*
X170459400Y-99411971D01*
X170495685Y-99339400D01*
X170568257Y-99303114D01*
X170677114Y-99303114D01*
X170749685Y-99266829D01*
X170785971Y-99194257D01*
X170785971Y-99157971D01*
X170749685Y-99085400D01*
X170677114Y-99049114D01*
X170568257Y-99049114D01*
X170495685Y-99085400D01*
X169842543Y-99520829D02*
X169915114Y-99557114D01*
X170060257Y-99557114D01*
X170132828Y-99520829D01*
X170169114Y-99448257D01*
X170169114Y-99157971D01*
X170132828Y-99085400D01*
X170060257Y-99049114D01*
X169915114Y-99049114D01*
X169842543Y-99085400D01*
X169806257Y-99157971D01*
X169806257Y-99230543D01*
X170169114Y-99303114D01*
X169588543Y-99049114D02*
X169298257Y-99049114D01*
X169479685Y-98795114D02*
X169479685Y-99448257D01*
X169443400Y-99520829D01*
X169370828Y-99557114D01*
X169298257Y-99557114D01*
X174537914Y-83961514D02*
X174102485Y-83961514D01*
X174320199Y-84723514D02*
X174320199Y-83961514D01*
X173848485Y-84723514D02*
X173848485Y-84215514D01*
X173848485Y-83961514D02*
X173884771Y-83997800D01*
X173848485Y-84034086D01*
X173812200Y-83997800D01*
X173848485Y-83961514D01*
X173848485Y-84034086D01*
X173485628Y-84723514D02*
X173485628Y-84215514D01*
X173485628Y-84288086D02*
X173449343Y-84251800D01*
X173376771Y-84215514D01*
X173267914Y-84215514D01*
X173195343Y-84251800D01*
X173159057Y-84324371D01*
X173159057Y-84723514D01*
X173159057Y-84324371D02*
X173122771Y-84251800D01*
X173050200Y-84215514D01*
X172941343Y-84215514D01*
X172868771Y-84251800D01*
X172832486Y-84324371D01*
X172832486Y-84723514D01*
X172179343Y-84687229D02*
X172251914Y-84723514D01*
X172397057Y-84723514D01*
X172469628Y-84687229D01*
X172505914Y-84614657D01*
X172505914Y-84324371D01*
X172469628Y-84251800D01*
X172397057Y-84215514D01*
X172251914Y-84215514D01*
X172179343Y-84251800D01*
X172143057Y-84324371D01*
X172143057Y-84396943D01*
X172505914Y-84469514D01*
X171272200Y-84687229D02*
X171199629Y-84723514D01*
X171054486Y-84723514D01*
X170981914Y-84687229D01*
X170945629Y-84614657D01*
X170945629Y-84578371D01*
X170981914Y-84505800D01*
X171054486Y-84469514D01*
X171163343Y-84469514D01*
X171235914Y-84433229D01*
X171272200Y-84360657D01*
X171272200Y-84324371D01*
X171235914Y-84251800D01*
X171163343Y-84215514D01*
X171054486Y-84215514D01*
X170981914Y-84251800D01*
X170328772Y-84687229D02*
X170401343Y-84723514D01*
X170546486Y-84723514D01*
X170619057Y-84687229D01*
X170655343Y-84614657D01*
X170655343Y-84324371D01*
X170619057Y-84251800D01*
X170546486Y-84215514D01*
X170401343Y-84215514D01*
X170328772Y-84251800D01*
X170292486Y-84324371D01*
X170292486Y-84396943D01*
X170655343Y-84469514D01*
X170074772Y-84215514D02*
X169784486Y-84215514D01*
X169965914Y-83961514D02*
X169965914Y-84614657D01*
X169929629Y-84687229D01*
X169857057Y-84723514D01*
X169784486Y-84723514D01*
X188798200Y-84502171D02*
X189052200Y-84502171D01*
X189052200Y-84901314D02*
X189052200Y-84139314D01*
X188689343Y-84139314D01*
X188072486Y-84901314D02*
X188072486Y-84502171D01*
X188108772Y-84429600D01*
X188181343Y-84393314D01*
X188326486Y-84393314D01*
X188399057Y-84429600D01*
X188072486Y-84865029D02*
X188145057Y-84901314D01*
X188326486Y-84901314D01*
X188399057Y-84865029D01*
X188435343Y-84792457D01*
X188435343Y-84719886D01*
X188399057Y-84647314D01*
X188326486Y-84611029D01*
X188145057Y-84611029D01*
X188072486Y-84574743D01*
X187745914Y-84865029D02*
X187673343Y-84901314D01*
X187528200Y-84901314D01*
X187455628Y-84865029D01*
X187419343Y-84792457D01*
X187419343Y-84756171D01*
X187455628Y-84683600D01*
X187528200Y-84647314D01*
X187637057Y-84647314D01*
X187709628Y-84611029D01*
X187745914Y-84538457D01*
X187745914Y-84502171D01*
X187709628Y-84429600D01*
X187637057Y-84393314D01*
X187528200Y-84393314D01*
X187455628Y-84429600D01*
X187201629Y-84393314D02*
X186911343Y-84393314D01*
X187092771Y-84139314D02*
X187092771Y-84792457D01*
X187056486Y-84865029D01*
X186983914Y-84901314D01*
X186911343Y-84901314D01*
D12*
X171000000Y-84000000D02*
X168000000Y-84000000D01*
X168000000Y-84000000D02*
X168000000Y-81000000D01*
X168500000Y-83500000D02*
X174500000Y-83500000D01*
X174500000Y-83500000D02*
X174500000Y-77500000D01*
X174500000Y-77500000D02*
X168500000Y-77500000D01*
X168500000Y-77500000D02*
X168500000Y-83500000D01*
X185500000Y-84000000D02*
X182500000Y-84000000D01*
X182500000Y-84000000D02*
X182500000Y-81000000D01*
X183000000Y-83500000D02*
X189000000Y-83500000D01*
X189000000Y-83500000D02*
X189000000Y-77500000D01*
X189000000Y-77500000D02*
X183000000Y-77500000D01*
X183000000Y-77500000D02*
X183000000Y-83500000D01*
X172000000Y-92000000D02*
X175000000Y-92000000D01*
X175000000Y-92000000D02*
X175000000Y-95000000D01*
X174500000Y-92500000D02*
X168500000Y-92500000D01*
X168500000Y-92500000D02*
X168500000Y-98500000D01*
X168500000Y-98500000D02*
X174500000Y-98500000D01*
X174500000Y-98500000D02*
X174500000Y-92500000D01*
X186500000Y-92000000D02*
X189500000Y-92000000D01*
X189500000Y-92000000D02*
X189500000Y-95000000D01*
X189000000Y-92500000D02*
X183000000Y-92500000D01*
X183000000Y-92500000D02*
X183000000Y-98500000D01*
X183000000Y-98500000D02*
X189000000Y-98500000D01*
X189000000Y-98500000D02*
X189000000Y-92500000D01*
X197000000Y-108800000D02*
X200000000Y-108800000D01*
X200000000Y-108800000D02*
X200000000Y-111800000D01*
X199500000Y-109300000D02*
X193500000Y-109300000D01*
X193500000Y-109300000D02*
X193500000Y-115300000D01*
X193500000Y-115300000D02*
X199500000Y-115300000D01*
X199500000Y-115300000D02*
X199500000Y-109300000D01*
D11*
X174512513Y-77041829D02*
X174403656Y-77078114D01*
X174222227Y-77078114D01*
X174149656Y-77041829D01*
X174113370Y-77005543D01*
X174077085Y-76932971D01*
X174077085Y-76860400D01*
X174113370Y-76787829D01*
X174149656Y-76751543D01*
X174222227Y-76715257D01*
X174367370Y-76678971D01*
X174439942Y-76642686D01*
X174476227Y-76606400D01*
X174512513Y-76533829D01*
X174512513Y-76461257D01*
X174476227Y-76388686D01*
X174439942Y-76352400D01*
X174367370Y-76316114D01*
X174185942Y-76316114D01*
X174077085Y-76352400D01*
X173823085Y-76316114D02*
X173641656Y-77078114D01*
X173496513Y-76533829D01*
X173351371Y-77078114D01*
X173169942Y-76316114D01*
X172516799Y-76316114D02*
X172879656Y-76316114D01*
X172915942Y-76678971D01*
X172879656Y-76642686D01*
X172807085Y-76606400D01*
X172625656Y-76606400D01*
X172553085Y-76642686D01*
X172516799Y-76678971D01*
X172480514Y-76751543D01*
X172480514Y-76932971D01*
X172516799Y-77005543D01*
X172553085Y-77041829D01*
X172625656Y-77078114D01*
X172807085Y-77078114D01*
X172879656Y-77041829D01*
X172915942Y-77005543D01*
X172008800Y-76316114D02*
X171936228Y-76316114D01*
X171863657Y-76352400D01*
X171827371Y-76388686D01*
X171791085Y-76461257D01*
X171754800Y-76606400D01*
X171754800Y-76787829D01*
X171791085Y-76932971D01*
X171827371Y-77005543D01*
X171863657Y-77041829D01*
X171936228Y-77078114D01*
X172008800Y-77078114D01*
X172081371Y-77041829D01*
X172117657Y-77005543D01*
X172153942Y-76932971D01*
X172190228Y-76787829D01*
X172190228Y-76606400D01*
X172153942Y-76461257D01*
X172117657Y-76388686D01*
X172081371Y-76352400D01*
X172008800Y-76316114D01*
X171029086Y-77078114D02*
X171464514Y-77078114D01*
X171246800Y-77078114D02*
X171246800Y-76316114D01*
X171319371Y-76424971D01*
X171391943Y-76497543D01*
X171464514Y-76533829D01*
X188761913Y-77092629D02*
X188653056Y-77128914D01*
X188471627Y-77128914D01*
X188399056Y-77092629D01*
X188362770Y-77056343D01*
X188326485Y-76983771D01*
X188326485Y-76911200D01*
X188362770Y-76838629D01*
X188399056Y-76802343D01*
X188471627Y-76766057D01*
X188616770Y-76729771D01*
X188689342Y-76693486D01*
X188725627Y-76657200D01*
X188761913Y-76584629D01*
X188761913Y-76512057D01*
X188725627Y-76439486D01*
X188689342Y-76403200D01*
X188616770Y-76366914D01*
X188435342Y-76366914D01*
X188326485Y-76403200D01*
X188072485Y-76366914D02*
X187891056Y-77128914D01*
X187745913Y-76584629D01*
X187600771Y-77128914D01*
X187419342Y-76366914D01*
X186766199Y-76366914D02*
X187129056Y-76366914D01*
X187165342Y-76729771D01*
X187129056Y-76693486D01*
X187056485Y-76657200D01*
X186875056Y-76657200D01*
X186802485Y-76693486D01*
X186766199Y-76729771D01*
X186729914Y-76802343D01*
X186729914Y-76983771D01*
X186766199Y-77056343D01*
X186802485Y-77092629D01*
X186875056Y-77128914D01*
X187056485Y-77128914D01*
X187129056Y-77092629D01*
X187165342Y-77056343D01*
X186258200Y-76366914D02*
X186185628Y-76366914D01*
X186113057Y-76403200D01*
X186076771Y-76439486D01*
X186040485Y-76512057D01*
X186004200Y-76657200D01*
X186004200Y-76838629D01*
X186040485Y-76983771D01*
X186076771Y-77056343D01*
X186113057Y-77092629D01*
X186185628Y-77128914D01*
X186258200Y-77128914D01*
X186330771Y-77092629D01*
X186367057Y-77056343D01*
X186403342Y-76983771D01*
X186439628Y-76838629D01*
X186439628Y-76657200D01*
X186403342Y-76512057D01*
X186367057Y-76439486D01*
X186330771Y-76403200D01*
X186258200Y-76366914D01*
X185713914Y-76439486D02*
X185677628Y-76403200D01*
X185605057Y-76366914D01*
X185423628Y-76366914D01*
X185351057Y-76403200D01*
X185314771Y-76439486D01*
X185278486Y-76512057D01*
X185278486Y-76584629D01*
X185314771Y-76693486D01*
X185750200Y-77128914D01*
X185278486Y-77128914D01*
X174791913Y-91646829D02*
X174683056Y-91683114D01*
X174501627Y-91683114D01*
X174429056Y-91646829D01*
X174392770Y-91610543D01*
X174356485Y-91537971D01*
X174356485Y-91465400D01*
X174392770Y-91392829D01*
X174429056Y-91356543D01*
X174501627Y-91320257D01*
X174646770Y-91283971D01*
X174719342Y-91247686D01*
X174755627Y-91211400D01*
X174791913Y-91138829D01*
X174791913Y-91066257D01*
X174755627Y-90993686D01*
X174719342Y-90957400D01*
X174646770Y-90921114D01*
X174465342Y-90921114D01*
X174356485Y-90957400D01*
X174102485Y-90921114D02*
X173921056Y-91683114D01*
X173775913Y-91138829D01*
X173630771Y-91683114D01*
X173449342Y-90921114D01*
X172796199Y-90921114D02*
X173159056Y-90921114D01*
X173195342Y-91283971D01*
X173159056Y-91247686D01*
X173086485Y-91211400D01*
X172905056Y-91211400D01*
X172832485Y-91247686D01*
X172796199Y-91283971D01*
X172759914Y-91356543D01*
X172759914Y-91537971D01*
X172796199Y-91610543D01*
X172832485Y-91646829D01*
X172905056Y-91683114D01*
X173086485Y-91683114D01*
X173159056Y-91646829D01*
X173195342Y-91610543D01*
X172288200Y-90921114D02*
X172215628Y-90921114D01*
X172143057Y-90957400D01*
X172106771Y-90993686D01*
X172070485Y-91066257D01*
X172034200Y-91211400D01*
X172034200Y-91392829D01*
X172070485Y-91537971D01*
X172106771Y-91610543D01*
X172143057Y-91646829D01*
X172215628Y-91683114D01*
X172288200Y-91683114D01*
X172360771Y-91646829D01*
X172397057Y-91610543D01*
X172433342Y-91537971D01*
X172469628Y-91392829D01*
X172469628Y-91211400D01*
X172433342Y-91066257D01*
X172397057Y-90993686D01*
X172360771Y-90957400D01*
X172288200Y-90921114D01*
X171780200Y-90921114D02*
X171308486Y-90921114D01*
X171562486Y-91211400D01*
X171453628Y-91211400D01*
X171381057Y-91247686D01*
X171344771Y-91283971D01*
X171308486Y-91356543D01*
X171308486Y-91537971D01*
X171344771Y-91610543D01*
X171381057Y-91646829D01*
X171453628Y-91683114D01*
X171671343Y-91683114D01*
X171743914Y-91646829D01*
X171780200Y-91610543D01*
X189396913Y-91672229D02*
X189288056Y-91708514D01*
X189106627Y-91708514D01*
X189034056Y-91672229D01*
X188997770Y-91635943D01*
X188961485Y-91563371D01*
X188961485Y-91490800D01*
X188997770Y-91418229D01*
X189034056Y-91381943D01*
X189106627Y-91345657D01*
X189251770Y-91309371D01*
X189324342Y-91273086D01*
X189360627Y-91236800D01*
X189396913Y-91164229D01*
X189396913Y-91091657D01*
X189360627Y-91019086D01*
X189324342Y-90982800D01*
X189251770Y-90946514D01*
X189070342Y-90946514D01*
X188961485Y-90982800D01*
X188707485Y-90946514D02*
X188526056Y-91708514D01*
X188380913Y-91164229D01*
X188235771Y-91708514D01*
X188054342Y-90946514D01*
X187401199Y-90946514D02*
X187764056Y-90946514D01*
X187800342Y-91309371D01*
X187764056Y-91273086D01*
X187691485Y-91236800D01*
X187510056Y-91236800D01*
X187437485Y-91273086D01*
X187401199Y-91309371D01*
X187364914Y-91381943D01*
X187364914Y-91563371D01*
X187401199Y-91635943D01*
X187437485Y-91672229D01*
X187510056Y-91708514D01*
X187691485Y-91708514D01*
X187764056Y-91672229D01*
X187800342Y-91635943D01*
X186893200Y-90946514D02*
X186820628Y-90946514D01*
X186748057Y-90982800D01*
X186711771Y-91019086D01*
X186675485Y-91091657D01*
X186639200Y-91236800D01*
X186639200Y-91418229D01*
X186675485Y-91563371D01*
X186711771Y-91635943D01*
X186748057Y-91672229D01*
X186820628Y-91708514D01*
X186893200Y-91708514D01*
X186965771Y-91672229D01*
X187002057Y-91635943D01*
X187038342Y-91563371D01*
X187074628Y-91418229D01*
X187074628Y-91236800D01*
X187038342Y-91091657D01*
X187002057Y-91019086D01*
X186965771Y-90982800D01*
X186893200Y-90946514D01*
X185986057Y-91200514D02*
X185986057Y-91708514D01*
X186167486Y-90910229D02*
X186348914Y-91454514D01*
X185877200Y-91454514D01*
X199226713Y-108334629D02*
X199117856Y-108370914D01*
X198936427Y-108370914D01*
X198863856Y-108334629D01*
X198827570Y-108298343D01*
X198791285Y-108225771D01*
X198791285Y-108153200D01*
X198827570Y-108080629D01*
X198863856Y-108044343D01*
X198936427Y-108008057D01*
X199081570Y-107971771D01*
X199154142Y-107935486D01*
X199190427Y-107899200D01*
X199226713Y-107826629D01*
X199226713Y-107754057D01*
X199190427Y-107681486D01*
X199154142Y-107645200D01*
X199081570Y-107608914D01*
X198900142Y-107608914D01*
X198791285Y-107645200D01*
X198537285Y-107608914D02*
X198355856Y-108370914D01*
X198210713Y-107826629D01*
X198065571Y-108370914D01*
X197884142Y-107608914D01*
X197230999Y-107608914D02*
X197593856Y-107608914D01*
X197630142Y-107971771D01*
X197593856Y-107935486D01*
X197521285Y-107899200D01*
X197339856Y-107899200D01*
X197267285Y-107935486D01*
X197230999Y-107971771D01*
X197194714Y-108044343D01*
X197194714Y-108225771D01*
X197230999Y-108298343D01*
X197267285Y-108334629D01*
X197339856Y-108370914D01*
X197521285Y-108370914D01*
X197593856Y-108334629D01*
X197630142Y-108298343D01*
X196723000Y-107608914D02*
X196650428Y-107608914D01*
X196577857Y-107645200D01*
X196541571Y-107681486D01*
X196505285Y-107754057D01*
X196469000Y-107899200D01*
X196469000Y-108080629D01*
X196505285Y-108225771D01*
X196541571Y-108298343D01*
X196577857Y-108334629D01*
X196650428Y-108370914D01*
X196723000Y-108370914D01*
X196795571Y-108334629D01*
X196831857Y-108298343D01*
X196868142Y-108225771D01*
X196904428Y-108080629D01*
X196904428Y-107899200D01*
X196868142Y-107754057D01*
X196831857Y-107681486D01*
X196795571Y-107645200D01*
X196723000Y-107608914D01*
X195815857Y-107608914D02*
X195961000Y-107608914D01*
X196033571Y-107645200D01*
X196069857Y-107681486D01*
X196142428Y-107790343D01*
X196178714Y-107935486D01*
X196178714Y-108225771D01*
X196142428Y-108298343D01*
X196106143Y-108334629D01*
X196033571Y-108370914D01*
X195888428Y-108370914D01*
X195815857Y-108334629D01*
X195779571Y-108298343D01*
X195743286Y-108225771D01*
X195743286Y-108044343D01*
X195779571Y-107971771D01*
X195815857Y-107935486D01*
X195888428Y-107899200D01*
X196033571Y-107899200D01*
X196106143Y-107935486D01*
X196142428Y-107971771D01*
X196178714Y-108044343D01*
%LPC*%
D13*
X148488400Y-67360800D03*
D14*
X145948400Y-67360800D03*
D15*
X178663600Y-111252000D03*
D16*
X178663600Y-108712000D03*
X181203600Y-111252000D03*
X181203600Y-108712000D03*
X183743600Y-111252000D03*
X183743600Y-108712000D03*
D17*
X169375000Y-82075000D03*
X173625000Y-82075000D03*
X169375000Y-78925000D03*
X173625000Y-78925000D03*
D18*
X173975000Y-82075000D03*
X169025000Y-82075000D03*
X169025000Y-78925000D03*
X173975000Y-78925000D03*
D17*
X183875000Y-82075000D03*
X188125000Y-82075000D03*
X183875000Y-78925000D03*
X188125000Y-78925000D03*
D18*
X188475000Y-82075000D03*
X183525000Y-82075000D03*
X183525000Y-78925000D03*
X188475000Y-78925000D03*
D17*
X173625000Y-93925000D03*
X169375000Y-93925000D03*
X173625000Y-97075000D03*
X169375000Y-97075000D03*
D18*
X169025000Y-93925000D03*
X173975000Y-93925000D03*
X173975000Y-97075000D03*
X169025000Y-97075000D03*
D17*
X188125000Y-93925000D03*
X183875000Y-93925000D03*
X188125000Y-97075000D03*
X183875000Y-97075000D03*
D18*
X183525000Y-93925000D03*
X188475000Y-93925000D03*
X188475000Y-97075000D03*
X183525000Y-97075000D03*
D19*
X194765800Y-103276400D03*
X197765800Y-103276400D03*
D17*
X198625000Y-110725000D03*
X194375000Y-110725000D03*
X198625000Y-113875000D03*
X194375000Y-113875000D03*
D18*
X194025000Y-110725000D03*
X198975000Y-110725000D03*
X198975000Y-113875000D03*
X194025000Y-113875000D03*
D13*
X172339000Y-105054400D03*
D14*
X169799000Y-105054400D03*
D20*
X161518600Y-72340200D03*
X159018600Y-75640200D03*
X164018600Y-75640200D03*
D21*
X133604000Y-105156000D03*
X131064000Y-105156000D03*
X128524000Y-105156000D03*
X125984000Y-105156000D03*
X123444000Y-105156000D03*
X120904000Y-105156000D03*
X120904000Y-74676000D03*
X123444000Y-74676000D03*
X125984000Y-74676000D03*
X128524000Y-74676000D03*
X131064000Y-74676000D03*
X133604000Y-74676000D03*
D22*
X176225200Y-116128800D03*
D23*
X178765200Y-116128800D03*
X181305200Y-116128800D03*
X183845200Y-116128800D03*
X186385200Y-116128800D03*
M02*
