G04 #@! TF.FileFunction,Legend,Top*
%FSLAX46Y46*%
G04 Gerber Fmt 4.6, Leading zero omitted, Abs format (unit mm)*
G04 Created by KiCad (PCBNEW 0.201508140901+6091~28~ubuntu14.04.1-product) date Tue 27 Oct 2015 09:22:58 PM CET*
%MOMM*%
G01*
G04 APERTURE LIST*
%ADD10C,0.100000*%
%ADD11C,0.127000*%
%ADD12C,0.076200*%
%ADD13C,0.150000*%
%ADD14C,0.010000*%
%ADD15R,1.250000X1.500000*%
%ADD16R,1.500000X1.250000*%
%ADD17R,1.200000X0.600000*%
%ADD18R,0.600000X1.200000*%
%ADD19R,2.032000X2.032000*%
%ADD20O,2.032000X2.032000*%
%ADD21R,1.727200X1.727200*%
%ADD22O,1.727200X1.727200*%
%ADD23R,0.900000X0.800000*%
%ADD24R,1.300000X1.500000*%
%ADD25R,1.000000X1.150000*%
%ADD26C,0.850000*%
%ADD27C,2.000000*%
%ADD28R,1.000000X0.600000*%
%ADD29R,1.727200X2.032000*%
%ADD30O,1.727200X2.032000*%
%ADD31C,2.032000*%
G04 APERTURE END LIST*
D10*
D11*
X174247629Y-82945514D02*
X173812201Y-82945514D01*
X174029915Y-82945514D02*
X174029915Y-82183514D01*
X173957344Y-82292371D01*
X173884772Y-82364943D01*
X173812201Y-82401229D01*
X174683058Y-82183514D02*
X174683058Y-82364943D01*
X174501629Y-82292371D02*
X174683058Y-82364943D01*
X174864486Y-82292371D01*
X174574201Y-82510086D02*
X174683058Y-82364943D01*
X174791915Y-82510086D01*
X142318014Y-104513743D02*
X141955157Y-104767743D01*
X142318014Y-104949171D02*
X141556014Y-104949171D01*
X141556014Y-104658886D01*
X141592300Y-104586314D01*
X141628586Y-104550029D01*
X141701157Y-104513743D01*
X141810014Y-104513743D01*
X141882586Y-104550029D01*
X141918871Y-104586314D01*
X141955157Y-104658886D01*
X141955157Y-104949171D01*
X141556014Y-104296029D02*
X141556014Y-103860600D01*
X142318014Y-104078314D02*
X141556014Y-104078314D01*
X142245443Y-103171172D02*
X142281729Y-103207458D01*
X142318014Y-103316315D01*
X142318014Y-103388886D01*
X142281729Y-103497743D01*
X142209157Y-103570315D01*
X142136586Y-103606600D01*
X141991443Y-103642886D01*
X141882586Y-103642886D01*
X141737443Y-103606600D01*
X141664871Y-103570315D01*
X141592300Y-103497743D01*
X141556014Y-103388886D01*
X141556014Y-103316315D01*
X141592300Y-103207458D01*
X141628586Y-103171172D01*
X142027729Y-102844600D02*
X142027729Y-102264029D01*
X142318014Y-101901171D02*
X141556014Y-101901171D01*
X141556014Y-101719743D01*
X141592300Y-101610886D01*
X141664871Y-101538314D01*
X141737443Y-101502029D01*
X141882586Y-101465743D01*
X141991443Y-101465743D01*
X142136586Y-101502029D01*
X142209157Y-101538314D01*
X142281729Y-101610886D01*
X142318014Y-101719743D01*
X142318014Y-101901171D01*
X142245443Y-100703743D02*
X142281729Y-100740029D01*
X142318014Y-100848886D01*
X142318014Y-100921457D01*
X142281729Y-101030314D01*
X142209157Y-101102886D01*
X142136586Y-101139171D01*
X141991443Y-101175457D01*
X141882586Y-101175457D01*
X141737443Y-101139171D01*
X141664871Y-101102886D01*
X141592300Y-101030314D01*
X141556014Y-100921457D01*
X141556014Y-100848886D01*
X141592300Y-100740029D01*
X141628586Y-100703743D01*
X141918871Y-100123171D02*
X141918871Y-100377171D01*
X142318014Y-100377171D02*
X141556014Y-100377171D01*
X141556014Y-100014314D01*
X143511814Y-104550029D02*
X143511814Y-104985457D01*
X143511814Y-104767743D02*
X142749814Y-104767743D01*
X142858671Y-104840314D01*
X142931243Y-104912886D01*
X142967529Y-104985457D01*
X142749814Y-104296029D02*
X142749814Y-103824315D01*
X143040100Y-104078315D01*
X143040100Y-103969457D01*
X143076386Y-103896886D01*
X143112671Y-103860600D01*
X143185243Y-103824315D01*
X143366671Y-103824315D01*
X143439243Y-103860600D01*
X143475529Y-103896886D01*
X143511814Y-103969457D01*
X143511814Y-104187172D01*
X143475529Y-104259743D01*
X143439243Y-104296029D01*
X142749814Y-103352601D02*
X142749814Y-103280029D01*
X142786100Y-103207458D01*
X142822386Y-103171172D01*
X142894957Y-103134886D01*
X143040100Y-103098601D01*
X143221529Y-103098601D01*
X143366671Y-103134886D01*
X143439243Y-103171172D01*
X143475529Y-103207458D01*
X143511814Y-103280029D01*
X143511814Y-103352601D01*
X143475529Y-103425172D01*
X143439243Y-103461458D01*
X143366671Y-103497743D01*
X143221529Y-103534029D01*
X143040100Y-103534029D01*
X142894957Y-103497743D01*
X142822386Y-103461458D01*
X142786100Y-103425172D01*
X142749814Y-103352601D01*
X142749814Y-102409172D02*
X142749814Y-102772029D01*
X143112671Y-102808315D01*
X143076386Y-102772029D01*
X143040100Y-102699458D01*
X143040100Y-102518029D01*
X143076386Y-102445458D01*
X143112671Y-102409172D01*
X143185243Y-102372887D01*
X143366671Y-102372887D01*
X143439243Y-102409172D01*
X143475529Y-102445458D01*
X143511814Y-102518029D01*
X143511814Y-102699458D01*
X143475529Y-102772029D01*
X143439243Y-102808315D01*
X143003814Y-101719744D02*
X143511814Y-101719744D01*
X142713529Y-101901173D02*
X143257814Y-102082601D01*
X143257814Y-101610887D01*
X143511814Y-100921459D02*
X143511814Y-101356887D01*
X143511814Y-101139173D02*
X142749814Y-101139173D01*
X142858671Y-101211744D01*
X142931243Y-101284316D01*
X142967529Y-101356887D01*
X143511814Y-99615174D02*
X143511814Y-100050602D01*
X143511814Y-99832888D02*
X142749814Y-99832888D01*
X142858671Y-99905459D01*
X142931243Y-99978031D01*
X142967529Y-100050602D01*
X143439243Y-99288602D02*
X143475529Y-99252317D01*
X143511814Y-99288602D01*
X143475529Y-99324888D01*
X143439243Y-99288602D01*
X143511814Y-99288602D01*
X142749814Y-98780603D02*
X142749814Y-98708031D01*
X142786100Y-98635460D01*
X142822386Y-98599174D01*
X142894957Y-98562888D01*
X143040100Y-98526603D01*
X143221529Y-98526603D01*
X143366671Y-98562888D01*
X143439243Y-98599174D01*
X143475529Y-98635460D01*
X143511814Y-98708031D01*
X143511814Y-98780603D01*
X143475529Y-98853174D01*
X143439243Y-98889460D01*
X143366671Y-98925745D01*
X143221529Y-98962031D01*
X143040100Y-98962031D01*
X142894957Y-98925745D01*
X142822386Y-98889460D01*
X142786100Y-98853174D01*
X142749814Y-98780603D01*
X143294100Y-97655746D02*
X143294100Y-97292889D01*
X143511814Y-97728318D02*
X142749814Y-97474318D01*
X143511814Y-97220318D01*
X143003814Y-96966317D02*
X143765814Y-96966317D01*
X143040100Y-96966317D02*
X143003814Y-96893746D01*
X143003814Y-96748603D01*
X143040100Y-96676032D01*
X143076386Y-96639746D01*
X143148957Y-96603460D01*
X143366671Y-96603460D01*
X143439243Y-96639746D01*
X143475529Y-96676032D01*
X143511814Y-96748603D01*
X143511814Y-96893746D01*
X143475529Y-96966317D01*
X143511814Y-96276888D02*
X143003814Y-96276888D01*
X143148957Y-96276888D02*
X143076386Y-96240603D01*
X143040100Y-96204317D01*
X143003814Y-96131746D01*
X143003814Y-96059174D01*
X143511814Y-95805174D02*
X143003814Y-95805174D01*
X142749814Y-95805174D02*
X142786100Y-95841460D01*
X142822386Y-95805174D01*
X142786100Y-95768889D01*
X142749814Y-95805174D01*
X142822386Y-95805174D01*
X143511814Y-95333460D02*
X143475529Y-95406032D01*
X143402957Y-95442317D01*
X142749814Y-95442317D01*
X142822386Y-94498889D02*
X142786100Y-94462603D01*
X142749814Y-94390032D01*
X142749814Y-94208603D01*
X142786100Y-94136032D01*
X142822386Y-94099746D01*
X142894957Y-94063461D01*
X142967529Y-94063461D01*
X143076386Y-94099746D01*
X143511814Y-94535175D01*
X143511814Y-94063461D01*
X142749814Y-93591747D02*
X142749814Y-93519175D01*
X142786100Y-93446604D01*
X142822386Y-93410318D01*
X142894957Y-93374032D01*
X143040100Y-93337747D01*
X143221529Y-93337747D01*
X143366671Y-93374032D01*
X143439243Y-93410318D01*
X143475529Y-93446604D01*
X143511814Y-93519175D01*
X143511814Y-93591747D01*
X143475529Y-93664318D01*
X143439243Y-93700604D01*
X143366671Y-93736889D01*
X143221529Y-93773175D01*
X143040100Y-93773175D01*
X142894957Y-93736889D01*
X142822386Y-93700604D01*
X142786100Y-93664318D01*
X142749814Y-93591747D01*
X143511814Y-92612033D02*
X143511814Y-93047461D01*
X143511814Y-92829747D02*
X142749814Y-92829747D01*
X142858671Y-92902318D01*
X142931243Y-92974890D01*
X142967529Y-93047461D01*
X142749814Y-92358033D02*
X142749814Y-91886319D01*
X143040100Y-92140319D01*
X143040100Y-92031461D01*
X143076386Y-91958890D01*
X143112671Y-91922604D01*
X143185243Y-91886319D01*
X143366671Y-91886319D01*
X143439243Y-91922604D01*
X143475529Y-91958890D01*
X143511814Y-92031461D01*
X143511814Y-92249176D01*
X143475529Y-92321747D01*
X143439243Y-92358033D01*
X104732667Y-98376619D02*
X104732667Y-97771857D01*
X105095524Y-98497572D02*
X103825524Y-98074238D01*
X105095524Y-97650905D01*
X104248857Y-97227572D02*
X105095524Y-97227572D01*
X104369810Y-97227572D02*
X104309333Y-97167096D01*
X104248857Y-97046143D01*
X104248857Y-96864715D01*
X104309333Y-96743763D01*
X104430286Y-96683286D01*
X105095524Y-96683286D01*
X104248857Y-96259953D02*
X104248857Y-95776143D01*
X103825524Y-96078524D02*
X104914095Y-96078524D01*
X105035048Y-96018048D01*
X105095524Y-95897095D01*
X105095524Y-95776143D01*
X105035048Y-94869001D02*
X105095524Y-94989953D01*
X105095524Y-95231858D01*
X105035048Y-95352810D01*
X104914095Y-95413286D01*
X104430286Y-95413286D01*
X104309333Y-95352810D01*
X104248857Y-95231858D01*
X104248857Y-94989953D01*
X104309333Y-94869001D01*
X104430286Y-94808524D01*
X104551238Y-94808524D01*
X104672190Y-95413286D01*
X104248857Y-94264239D02*
X105095524Y-94264239D01*
X104369810Y-94264239D02*
X104309333Y-94203763D01*
X104248857Y-94082810D01*
X104248857Y-93901382D01*
X104309333Y-93780430D01*
X104430286Y-93719953D01*
X105095524Y-93719953D01*
X104248857Y-93115191D02*
X105095524Y-93115191D01*
X104369810Y-93115191D02*
X104309333Y-93054715D01*
X104248857Y-92933762D01*
X104248857Y-92752334D01*
X104309333Y-92631382D01*
X104430286Y-92570905D01*
X105095524Y-92570905D01*
X105095524Y-91421857D02*
X104430286Y-91421857D01*
X104309333Y-91482334D01*
X104248857Y-91603286D01*
X104248857Y-91845191D01*
X104309333Y-91966143D01*
X105035048Y-91421857D02*
X105095524Y-91542810D01*
X105095524Y-91845191D01*
X105035048Y-91966143D01*
X104914095Y-92026619D01*
X104793143Y-92026619D01*
X104672190Y-91966143D01*
X104611714Y-91845191D01*
X104611714Y-91542810D01*
X104551238Y-91421857D01*
X145215428Y-69469000D02*
X145142857Y-69432714D01*
X145034000Y-69432714D01*
X144925143Y-69469000D01*
X144852571Y-69541571D01*
X144816286Y-69614143D01*
X144780000Y-69759286D01*
X144780000Y-69868143D01*
X144816286Y-70013286D01*
X144852571Y-70085857D01*
X144925143Y-70158429D01*
X145034000Y-70194714D01*
X145106571Y-70194714D01*
X145215428Y-70158429D01*
X145251714Y-70122143D01*
X145251714Y-69868143D01*
X145106571Y-69868143D01*
X145578286Y-70194714D02*
X145578286Y-69432714D01*
X146013714Y-70194714D01*
X146013714Y-69432714D01*
X146376572Y-70194714D02*
X146376572Y-69432714D01*
X146558000Y-69432714D01*
X146666857Y-69469000D01*
X146739429Y-69541571D01*
X146775714Y-69614143D01*
X146812000Y-69759286D01*
X146812000Y-69868143D01*
X146775714Y-70013286D01*
X146739429Y-70085857D01*
X146666857Y-70158429D01*
X146558000Y-70194714D01*
X146376572Y-70194714D01*
X120069428Y-76200000D02*
X119996857Y-76163714D01*
X119888000Y-76163714D01*
X119779143Y-76200000D01*
X119706571Y-76272571D01*
X119670286Y-76345143D01*
X119634000Y-76490286D01*
X119634000Y-76599143D01*
X119670286Y-76744286D01*
X119706571Y-76816857D01*
X119779143Y-76889429D01*
X119888000Y-76925714D01*
X119960571Y-76925714D01*
X120069428Y-76889429D01*
X120105714Y-76853143D01*
X120105714Y-76599143D01*
X119960571Y-76599143D01*
X120432286Y-76925714D02*
X120432286Y-76163714D01*
X120867714Y-76925714D01*
X120867714Y-76163714D01*
X121230572Y-76925714D02*
X121230572Y-76163714D01*
X121412000Y-76163714D01*
X121520857Y-76200000D01*
X121593429Y-76272571D01*
X121629714Y-76345143D01*
X121666000Y-76490286D01*
X121666000Y-76599143D01*
X121629714Y-76744286D01*
X121593429Y-76816857D01*
X121520857Y-76889429D01*
X121412000Y-76925714D01*
X121230572Y-76925714D01*
X121974429Y-73025000D02*
X122337286Y-73025000D01*
X121901857Y-73242714D02*
X122155857Y-72480714D01*
X122409857Y-73242714D01*
X122772715Y-73242714D02*
X122700143Y-73206429D01*
X122663858Y-73133857D01*
X122663858Y-72480714D01*
X123389572Y-73242714D02*
X123389572Y-72843571D01*
X123353286Y-72771000D01*
X123280715Y-72734714D01*
X123135572Y-72734714D01*
X123063001Y-72771000D01*
X123389572Y-73206429D02*
X123317001Y-73242714D01*
X123135572Y-73242714D01*
X123063001Y-73206429D01*
X123026715Y-73133857D01*
X123026715Y-73061286D01*
X123063001Y-72988714D01*
X123135572Y-72952429D01*
X123317001Y-72952429D01*
X123389572Y-72916143D01*
X123752430Y-73242714D02*
X123752430Y-72734714D01*
X123752430Y-72879857D02*
X123788715Y-72807286D01*
X123825001Y-72771000D01*
X123897572Y-72734714D01*
X123970144Y-72734714D01*
X124224144Y-73242714D02*
X124224144Y-72734714D01*
X124224144Y-72807286D02*
X124260429Y-72771000D01*
X124333001Y-72734714D01*
X124441858Y-72734714D01*
X124514429Y-72771000D01*
X124550715Y-72843571D01*
X124550715Y-73242714D01*
X124550715Y-72843571D02*
X124587001Y-72771000D01*
X124659572Y-72734714D01*
X124768429Y-72734714D01*
X124841001Y-72771000D01*
X124877286Y-72843571D01*
X124877286Y-73242714D01*
X127489858Y-73369714D02*
X127489858Y-72607714D01*
X127671286Y-72607714D01*
X127780143Y-72644000D01*
X127852715Y-72716571D01*
X127889000Y-72789143D01*
X127925286Y-72934286D01*
X127925286Y-73043143D01*
X127889000Y-73188286D01*
X127852715Y-73260857D01*
X127780143Y-73333429D01*
X127671286Y-73369714D01*
X127489858Y-73369714D01*
X128687286Y-73297143D02*
X128651000Y-73333429D01*
X128542143Y-73369714D01*
X128469572Y-73369714D01*
X128360715Y-73333429D01*
X128288143Y-73260857D01*
X128251858Y-73188286D01*
X128215572Y-73043143D01*
X128215572Y-72934286D01*
X128251858Y-72789143D01*
X128288143Y-72716571D01*
X128360715Y-72644000D01*
X128469572Y-72607714D01*
X128542143Y-72607714D01*
X128651000Y-72644000D01*
X128687286Y-72680286D01*
X129267858Y-72970571D02*
X129013858Y-72970571D01*
X129013858Y-73369714D02*
X129013858Y-72607714D01*
X129376715Y-72607714D01*
X130392715Y-73369714D02*
X130392715Y-72607714D01*
X130683000Y-72607714D01*
X130755572Y-72644000D01*
X130791857Y-72680286D01*
X130828143Y-72752857D01*
X130828143Y-72861714D01*
X130791857Y-72934286D01*
X130755572Y-72970571D01*
X130683000Y-73006857D01*
X130392715Y-73006857D01*
X131481286Y-73369714D02*
X131481286Y-72607714D01*
X131481286Y-73333429D02*
X131408715Y-73369714D01*
X131263572Y-73369714D01*
X131191000Y-73333429D01*
X131154715Y-73297143D01*
X131118429Y-73224571D01*
X131118429Y-73006857D01*
X131154715Y-72934286D01*
X131191000Y-72898000D01*
X131263572Y-72861714D01*
X131408715Y-72861714D01*
X131481286Y-72898000D01*
X132660571Y-76036714D02*
X132914571Y-76798714D01*
X133168571Y-76036714D01*
X133422572Y-76798714D02*
X133422572Y-76036714D01*
X133422572Y-76327000D02*
X133495143Y-76290714D01*
X133640286Y-76290714D01*
X133712857Y-76327000D01*
X133749143Y-76363286D01*
X133785429Y-76435857D01*
X133785429Y-76653571D01*
X133749143Y-76726143D01*
X133712857Y-76762429D01*
X133640286Y-76798714D01*
X133495143Y-76798714D01*
X133422572Y-76762429D01*
X134112001Y-76798714D02*
X134112001Y-76036714D01*
X134112001Y-76327000D02*
X134184572Y-76290714D01*
X134329715Y-76290714D01*
X134402286Y-76327000D01*
X134438572Y-76363286D01*
X134474858Y-76435857D01*
X134474858Y-76653571D01*
X134438572Y-76726143D01*
X134402286Y-76762429D01*
X134329715Y-76798714D01*
X134184572Y-76798714D01*
X134112001Y-76762429D01*
X120586500Y-109737072D02*
X120550214Y-109809643D01*
X120550214Y-109918500D01*
X120586500Y-110027357D01*
X120659071Y-110099929D01*
X120731643Y-110136214D01*
X120876786Y-110172500D01*
X120985643Y-110172500D01*
X121130786Y-110136214D01*
X121203357Y-110099929D01*
X121275929Y-110027357D01*
X121312214Y-109918500D01*
X121312214Y-109845929D01*
X121275929Y-109737072D01*
X121239643Y-109700786D01*
X120985643Y-109700786D01*
X120985643Y-109845929D01*
X121312214Y-109374214D02*
X120550214Y-109374214D01*
X121312214Y-108938786D01*
X120550214Y-108938786D01*
X121312214Y-108575928D02*
X120550214Y-108575928D01*
X120550214Y-108394500D01*
X120586500Y-108285643D01*
X120659071Y-108213071D01*
X120731643Y-108176786D01*
X120876786Y-108140500D01*
X120985643Y-108140500D01*
X121130786Y-108176786D01*
X121203357Y-108213071D01*
X121275929Y-108285643D01*
X121312214Y-108394500D01*
X121312214Y-108575928D01*
X123661714Y-110544428D02*
X122899714Y-110544428D01*
X123444000Y-110290428D01*
X122899714Y-110036428D01*
X123661714Y-110036428D01*
X123661714Y-109673571D02*
X122899714Y-109673571D01*
X123625429Y-109347000D02*
X123661714Y-109238143D01*
X123661714Y-109056714D01*
X123625429Y-108984143D01*
X123589143Y-108947857D01*
X123516571Y-108911572D01*
X123444000Y-108911572D01*
X123371429Y-108947857D01*
X123335143Y-108984143D01*
X123298857Y-109056714D01*
X123262571Y-109201857D01*
X123226286Y-109274429D01*
X123190000Y-109310714D01*
X123117429Y-109347000D01*
X123044857Y-109347000D01*
X122972286Y-109310714D01*
X122936000Y-109274429D01*
X122899714Y-109201857D01*
X122899714Y-109020429D01*
X122936000Y-108911572D01*
X122899714Y-108439858D02*
X122899714Y-108294715D01*
X122936000Y-108222143D01*
X123008571Y-108149572D01*
X123153714Y-108113286D01*
X123407714Y-108113286D01*
X123552857Y-108149572D01*
X123625429Y-108222143D01*
X123661714Y-108294715D01*
X123661714Y-108439858D01*
X123625429Y-108512429D01*
X123552857Y-108585000D01*
X123407714Y-108621286D01*
X123153714Y-108621286D01*
X123008571Y-108585000D01*
X122936000Y-108512429D01*
X122899714Y-108439858D01*
X126455714Y-110544428D02*
X125693714Y-110544428D01*
X126238000Y-110290428D01*
X125693714Y-110036428D01*
X126455714Y-110036428D01*
X125693714Y-109528429D02*
X125693714Y-109383286D01*
X125730000Y-109310714D01*
X125802571Y-109238143D01*
X125947714Y-109201857D01*
X126201714Y-109201857D01*
X126346857Y-109238143D01*
X126419429Y-109310714D01*
X126455714Y-109383286D01*
X126455714Y-109528429D01*
X126419429Y-109601000D01*
X126346857Y-109673571D01*
X126201714Y-109709857D01*
X125947714Y-109709857D01*
X125802571Y-109673571D01*
X125730000Y-109601000D01*
X125693714Y-109528429D01*
X126419429Y-108911571D02*
X126455714Y-108802714D01*
X126455714Y-108621285D01*
X126419429Y-108548714D01*
X126383143Y-108512428D01*
X126310571Y-108476143D01*
X126238000Y-108476143D01*
X126165429Y-108512428D01*
X126129143Y-108548714D01*
X126092857Y-108621285D01*
X126056571Y-108766428D01*
X126020286Y-108839000D01*
X125984000Y-108875285D01*
X125911429Y-108911571D01*
X125838857Y-108911571D01*
X125766286Y-108875285D01*
X125730000Y-108839000D01*
X125693714Y-108766428D01*
X125693714Y-108585000D01*
X125730000Y-108476143D01*
X126455714Y-108149571D02*
X125693714Y-108149571D01*
X128959429Y-110009214D02*
X128995714Y-109900357D01*
X128995714Y-109718928D01*
X128959429Y-109646357D01*
X128923143Y-109610071D01*
X128850571Y-109573786D01*
X128778000Y-109573786D01*
X128705429Y-109610071D01*
X128669143Y-109646357D01*
X128632857Y-109718928D01*
X128596571Y-109864071D01*
X128560286Y-109936643D01*
X128524000Y-109972928D01*
X128451429Y-110009214D01*
X128378857Y-110009214D01*
X128306286Y-109972928D01*
X128270000Y-109936643D01*
X128233714Y-109864071D01*
X128233714Y-109682643D01*
X128270000Y-109573786D01*
X128923143Y-108811786D02*
X128959429Y-108848072D01*
X128995714Y-108956929D01*
X128995714Y-109029500D01*
X128959429Y-109138357D01*
X128886857Y-109210929D01*
X128814286Y-109247214D01*
X128669143Y-109283500D01*
X128560286Y-109283500D01*
X128415143Y-109247214D01*
X128342571Y-109210929D01*
X128270000Y-109138357D01*
X128233714Y-109029500D01*
X128233714Y-108956929D01*
X128270000Y-108848072D01*
X128306286Y-108811786D01*
X128995714Y-108485214D02*
X128233714Y-108485214D01*
X128995714Y-108049786D02*
X128560286Y-108376357D01*
X128233714Y-108049786D02*
X128669143Y-108485214D01*
X131689929Y-109292571D02*
X131726214Y-109183714D01*
X131726214Y-109002285D01*
X131689929Y-108929714D01*
X131653643Y-108893428D01*
X131581071Y-108857143D01*
X131508500Y-108857143D01*
X131435929Y-108893428D01*
X131399643Y-108929714D01*
X131363357Y-109002285D01*
X131327071Y-109147428D01*
X131290786Y-109220000D01*
X131254500Y-109256285D01*
X131181929Y-109292571D01*
X131109357Y-109292571D01*
X131036786Y-109256285D01*
X131000500Y-109220000D01*
X130964214Y-109147428D01*
X130964214Y-108966000D01*
X131000500Y-108857143D01*
X131689929Y-108566857D02*
X131726214Y-108458000D01*
X131726214Y-108276571D01*
X131689929Y-108204000D01*
X131653643Y-108167714D01*
X131581071Y-108131429D01*
X131508500Y-108131429D01*
X131435929Y-108167714D01*
X131399643Y-108204000D01*
X131363357Y-108276571D01*
X131327071Y-108421714D01*
X131290786Y-108494286D01*
X131254500Y-108530571D01*
X131181929Y-108566857D01*
X131109357Y-108566857D01*
X131036786Y-108530571D01*
X131000500Y-108494286D01*
X130964214Y-108421714D01*
X130964214Y-108240286D01*
X131000500Y-108131429D01*
X130832860Y-109437714D02*
X130832860Y-107986286D01*
X133313714Y-109845929D02*
X134075714Y-109591929D01*
X133313714Y-109337929D01*
X134075714Y-109083928D02*
X133313714Y-109083928D01*
X133604000Y-109083928D02*
X133567714Y-109011357D01*
X133567714Y-108866214D01*
X133604000Y-108793643D01*
X133640286Y-108757357D01*
X133712857Y-108721071D01*
X133930571Y-108721071D01*
X134003143Y-108757357D01*
X134039429Y-108793643D01*
X134075714Y-108866214D01*
X134075714Y-109011357D01*
X134039429Y-109083928D01*
X134075714Y-108394499D02*
X133313714Y-108394499D01*
X133604000Y-108394499D02*
X133567714Y-108321928D01*
X133567714Y-108176785D01*
X133604000Y-108104214D01*
X133640286Y-108067928D01*
X133712857Y-108031642D01*
X133930571Y-108031642D01*
X134003143Y-108067928D01*
X134039429Y-108104214D01*
X134075714Y-108176785D01*
X134075714Y-108321928D01*
X134039429Y-108394499D01*
X161289999Y-107823000D02*
X161652856Y-107823000D01*
X161217427Y-108040714D02*
X161471427Y-107278714D01*
X161725427Y-108040714D01*
X162305999Y-107532714D02*
X162305999Y-108040714D01*
X161979428Y-107532714D02*
X161979428Y-107931857D01*
X162015713Y-108004429D01*
X162088285Y-108040714D01*
X162197142Y-108040714D01*
X162269713Y-108004429D01*
X162305999Y-107968143D01*
X162559999Y-107532714D02*
X162850285Y-107532714D01*
X162668857Y-107278714D02*
X162668857Y-107931857D01*
X162705142Y-108004429D01*
X162777714Y-108040714D01*
X162850285Y-108040714D01*
X163213143Y-108040714D02*
X163140571Y-108004429D01*
X163104286Y-107968143D01*
X163068000Y-107895571D01*
X163068000Y-107677857D01*
X163104286Y-107605286D01*
X163140571Y-107569000D01*
X163213143Y-107532714D01*
X163322000Y-107532714D01*
X163394571Y-107569000D01*
X163430857Y-107605286D01*
X163467143Y-107677857D01*
X163467143Y-107895571D01*
X163430857Y-107968143D01*
X163394571Y-108004429D01*
X163322000Y-108040714D01*
X163213143Y-108040714D01*
X163793715Y-107750429D02*
X164374286Y-107750429D01*
X164628286Y-107532714D02*
X164918572Y-107532714D01*
X164737144Y-107278714D02*
X164737144Y-107931857D01*
X164773429Y-108004429D01*
X164846001Y-108040714D01*
X164918572Y-108040714D01*
X165172573Y-108040714D02*
X165172573Y-107532714D01*
X165172573Y-107278714D02*
X165136287Y-107315000D01*
X165172573Y-107351286D01*
X165208858Y-107315000D01*
X165172573Y-107278714D01*
X165172573Y-107351286D01*
X165535430Y-108040714D02*
X165535430Y-107532714D01*
X165535430Y-107605286D02*
X165571715Y-107569000D01*
X165644287Y-107532714D01*
X165753144Y-107532714D01*
X165825715Y-107569000D01*
X165862001Y-107641571D01*
X165862001Y-108040714D01*
X165862001Y-107641571D02*
X165898287Y-107569000D01*
X165970858Y-107532714D01*
X166079715Y-107532714D01*
X166152287Y-107569000D01*
X166188572Y-107641571D01*
X166188572Y-108040714D01*
X166841715Y-108004429D02*
X166769144Y-108040714D01*
X166624001Y-108040714D01*
X166551430Y-108004429D01*
X166515144Y-107931857D01*
X166515144Y-107641571D01*
X166551430Y-107569000D01*
X166624001Y-107532714D01*
X166769144Y-107532714D01*
X166841715Y-107569000D01*
X166878001Y-107641571D01*
X166878001Y-107714143D01*
X166515144Y-107786714D01*
X155466142Y-69977000D02*
X155828999Y-69977000D01*
X155393570Y-70194714D02*
X155647570Y-69432714D01*
X155901570Y-70194714D01*
X156264428Y-70194714D02*
X156191856Y-70158429D01*
X156155571Y-70085857D01*
X156155571Y-69432714D01*
X156881285Y-70194714D02*
X156881285Y-69795571D01*
X156844999Y-69723000D01*
X156772428Y-69686714D01*
X156627285Y-69686714D01*
X156554714Y-69723000D01*
X156881285Y-70158429D02*
X156808714Y-70194714D01*
X156627285Y-70194714D01*
X156554714Y-70158429D01*
X156518428Y-70085857D01*
X156518428Y-70013286D01*
X156554714Y-69940714D01*
X156627285Y-69904429D01*
X156808714Y-69904429D01*
X156881285Y-69868143D01*
X157244143Y-70194714D02*
X157244143Y-69686714D01*
X157244143Y-69831857D02*
X157280428Y-69759286D01*
X157316714Y-69723000D01*
X157389285Y-69686714D01*
X157461857Y-69686714D01*
X157715857Y-70194714D02*
X157715857Y-69686714D01*
X157715857Y-69759286D02*
X157752142Y-69723000D01*
X157824714Y-69686714D01*
X157933571Y-69686714D01*
X158006142Y-69723000D01*
X158042428Y-69795571D01*
X158042428Y-70194714D01*
X158042428Y-69795571D02*
X158078714Y-69723000D01*
X158151285Y-69686714D01*
X158260142Y-69686714D01*
X158332714Y-69723000D01*
X158368999Y-69795571D01*
X158368999Y-70194714D01*
X159312428Y-69795571D02*
X159566428Y-69795571D01*
X159675285Y-70194714D02*
X159312428Y-70194714D01*
X159312428Y-69432714D01*
X159675285Y-69432714D01*
X160001857Y-69686714D02*
X160001857Y-70194714D01*
X160001857Y-69759286D02*
X160038142Y-69723000D01*
X160110714Y-69686714D01*
X160219571Y-69686714D01*
X160292142Y-69723000D01*
X160328428Y-69795571D01*
X160328428Y-70194714D01*
X161017857Y-70194714D02*
X161017857Y-69795571D01*
X160981571Y-69723000D01*
X160909000Y-69686714D01*
X160763857Y-69686714D01*
X160691286Y-69723000D01*
X161017857Y-70158429D02*
X160945286Y-70194714D01*
X160763857Y-70194714D01*
X160691286Y-70158429D01*
X160655000Y-70085857D01*
X160655000Y-70013286D01*
X160691286Y-69940714D01*
X160763857Y-69904429D01*
X160945286Y-69904429D01*
X161017857Y-69868143D01*
X161380715Y-70194714D02*
X161380715Y-69432714D01*
X161380715Y-69723000D02*
X161453286Y-69686714D01*
X161598429Y-69686714D01*
X161671000Y-69723000D01*
X161707286Y-69759286D01*
X161743572Y-69831857D01*
X161743572Y-70049571D01*
X161707286Y-70122143D01*
X161671000Y-70158429D01*
X161598429Y-70194714D01*
X161453286Y-70194714D01*
X161380715Y-70158429D01*
X162179001Y-70194714D02*
X162106429Y-70158429D01*
X162070144Y-70085857D01*
X162070144Y-69432714D01*
X162759572Y-70158429D02*
X162687001Y-70194714D01*
X162541858Y-70194714D01*
X162469287Y-70158429D01*
X162433001Y-70085857D01*
X162433001Y-69795571D01*
X162469287Y-69723000D01*
X162541858Y-69686714D01*
X162687001Y-69686714D01*
X162759572Y-69723000D01*
X162795858Y-69795571D01*
X162795858Y-69868143D01*
X162433001Y-69940714D01*
X196566971Y-66728824D02*
X197292686Y-66728824D01*
X196929829Y-67998824D02*
X196929829Y-66728824D01*
X197534590Y-67152157D02*
X198018400Y-67152157D01*
X197716019Y-67998824D02*
X197716019Y-66910252D01*
X197776495Y-66789300D01*
X197897448Y-66728824D01*
X198018400Y-66728824D01*
X198986019Y-67998824D02*
X198986019Y-67333586D01*
X198925542Y-67212633D01*
X198804590Y-67152157D01*
X198562685Y-67152157D01*
X198441733Y-67212633D01*
X198986019Y-67938348D02*
X198865066Y-67998824D01*
X198562685Y-67998824D01*
X198441733Y-67938348D01*
X198381257Y-67817395D01*
X198381257Y-67696443D01*
X198441733Y-67575490D01*
X198562685Y-67515014D01*
X198865066Y-67515014D01*
X198986019Y-67454538D01*
X200316495Y-67877871D02*
X200256019Y-67938348D01*
X200074590Y-67998824D01*
X199953638Y-67998824D01*
X199772210Y-67938348D01*
X199651257Y-67817395D01*
X199590781Y-67696443D01*
X199530305Y-67454538D01*
X199530305Y-67273110D01*
X199590781Y-67031205D01*
X199651257Y-66910252D01*
X199772210Y-66789300D01*
X199953638Y-66728824D01*
X200074590Y-66728824D01*
X200256019Y-66789300D01*
X200316495Y-66849776D01*
X184713637Y-69903824D02*
X184290304Y-69299062D01*
X183987923Y-69903824D02*
X183987923Y-68633824D01*
X184471732Y-68633824D01*
X184592685Y-68694300D01*
X184653161Y-68754776D01*
X184713637Y-68875729D01*
X184713637Y-69057157D01*
X184653161Y-69178110D01*
X184592685Y-69238586D01*
X184471732Y-69299062D01*
X183987923Y-69299062D01*
X185741732Y-69843348D02*
X185620780Y-69903824D01*
X185378875Y-69903824D01*
X185257923Y-69843348D01*
X185197447Y-69722395D01*
X185197447Y-69238586D01*
X185257923Y-69117633D01*
X185378875Y-69057157D01*
X185620780Y-69057157D01*
X185741732Y-69117633D01*
X185802209Y-69238586D01*
X185802209Y-69359538D01*
X185197447Y-69480490D01*
X186225542Y-69057157D02*
X186527923Y-69903824D01*
X186830303Y-69057157D01*
X188221256Y-68754776D02*
X188281732Y-68694300D01*
X188402684Y-68633824D01*
X188705065Y-68633824D01*
X188826018Y-68694300D01*
X188886494Y-68754776D01*
X188946970Y-68875729D01*
X188946970Y-68996681D01*
X188886494Y-69178110D01*
X188160780Y-69903824D01*
X188946970Y-69903824D01*
X190096018Y-69903824D02*
X189491256Y-69903824D01*
X189491256Y-68633824D01*
X190519351Y-69782871D02*
X190579827Y-69843348D01*
X190519351Y-69903824D01*
X190458875Y-69843348D01*
X190519351Y-69782871D01*
X190519351Y-69903824D01*
X191063637Y-68754776D02*
X191124113Y-68694300D01*
X191245065Y-68633824D01*
X191547446Y-68633824D01*
X191668399Y-68694300D01*
X191728875Y-68754776D01*
X191789351Y-68875729D01*
X191789351Y-68996681D01*
X191728875Y-69178110D01*
X191003161Y-69903824D01*
X191789351Y-69903824D01*
X192333637Y-69782871D02*
X192394113Y-69843348D01*
X192333637Y-69903824D01*
X192273161Y-69843348D01*
X192333637Y-69782871D01*
X192333637Y-69903824D01*
X193482685Y-69903824D02*
X193482685Y-69238586D01*
X193422208Y-69117633D01*
X193301256Y-69057157D01*
X193059351Y-69057157D01*
X192938399Y-69117633D01*
X193482685Y-69843348D02*
X193361732Y-69903824D01*
X193059351Y-69903824D01*
X192938399Y-69843348D01*
X192877923Y-69722395D01*
X192877923Y-69601443D01*
X192938399Y-69480490D01*
X193059351Y-69420014D01*
X193361732Y-69420014D01*
X193482685Y-69359538D01*
X194026971Y-68754776D02*
X194087447Y-68694300D01*
X194208399Y-68633824D01*
X194510780Y-68633824D01*
X194631733Y-68694300D01*
X194692209Y-68754776D01*
X194752685Y-68875729D01*
X194752685Y-68996681D01*
X194692209Y-69178110D01*
X193966495Y-69903824D01*
X194752685Y-69903824D01*
X195115542Y-69057157D02*
X195599352Y-69057157D01*
X195296971Y-69903824D02*
X195296971Y-68815252D01*
X195357447Y-68694300D01*
X195478400Y-68633824D01*
X195599352Y-68633824D01*
X196264590Y-68633824D02*
X196385542Y-68633824D01*
X196506494Y-68694300D01*
X196566971Y-68754776D01*
X196627447Y-68875729D01*
X196687923Y-69117633D01*
X196687923Y-69420014D01*
X196627447Y-69661919D01*
X196566971Y-69782871D01*
X196506494Y-69843348D01*
X196385542Y-69903824D01*
X196264590Y-69903824D01*
X196143637Y-69843348D01*
X196083161Y-69782871D01*
X196022685Y-69661919D01*
X195962209Y-69420014D01*
X195962209Y-69117633D01*
X196022685Y-68875729D01*
X196083161Y-68754776D01*
X196143637Y-68694300D01*
X196264590Y-68633824D01*
X197171733Y-68754776D02*
X197232209Y-68694300D01*
X197353161Y-68633824D01*
X197655542Y-68633824D01*
X197776495Y-68694300D01*
X197836971Y-68754776D01*
X197897447Y-68875729D01*
X197897447Y-68996681D01*
X197836971Y-69178110D01*
X197111257Y-69903824D01*
X197897447Y-69903824D01*
X198986019Y-69057157D02*
X198986019Y-69903824D01*
X198683638Y-68573348D02*
X198381257Y-69480490D01*
X199167447Y-69480490D01*
X200256019Y-68633824D02*
X199651257Y-68633824D01*
X199590781Y-69238586D01*
X199651257Y-69178110D01*
X199772209Y-69117633D01*
X200074590Y-69117633D01*
X200195543Y-69178110D01*
X200256019Y-69238586D01*
X200316495Y-69359538D01*
X200316495Y-69661919D01*
X200256019Y-69782871D01*
X200195543Y-69843348D01*
X200074590Y-69903824D01*
X199772209Y-69903824D01*
X199651257Y-69843348D01*
X199590781Y-69782871D01*
X147465142Y-69432714D02*
X147719142Y-70194714D01*
X147973142Y-69432714D01*
X148227143Y-70194714D02*
X148227143Y-69686714D01*
X148227143Y-69432714D02*
X148190857Y-69469000D01*
X148227143Y-69505286D01*
X148263428Y-69469000D01*
X148227143Y-69432714D01*
X148227143Y-69505286D01*
X148590000Y-69686714D02*
X148590000Y-70194714D01*
X148590000Y-69759286D02*
X148626285Y-69723000D01*
X148698857Y-69686714D01*
X148807714Y-69686714D01*
X148880285Y-69723000D01*
X148916571Y-69795571D01*
X148916571Y-70194714D01*
X149279429Y-69904429D02*
X149860000Y-69904429D01*
X149569714Y-70194714D02*
X149569714Y-69614143D01*
X185347428Y-116713000D02*
X185274857Y-116676714D01*
X185166000Y-116676714D01*
X185057143Y-116713000D01*
X184984571Y-116785571D01*
X184948286Y-116858143D01*
X184912000Y-117003286D01*
X184912000Y-117112143D01*
X184948286Y-117257286D01*
X184984571Y-117329857D01*
X185057143Y-117402429D01*
X185166000Y-117438714D01*
X185238571Y-117438714D01*
X185347428Y-117402429D01*
X185383714Y-117366143D01*
X185383714Y-117112143D01*
X185238571Y-117112143D01*
X185710286Y-117438714D02*
X185710286Y-116676714D01*
X186145714Y-117438714D01*
X186145714Y-116676714D01*
X186508572Y-117438714D02*
X186508572Y-116676714D01*
X186690000Y-116676714D01*
X186798857Y-116713000D01*
X186871429Y-116785571D01*
X186907714Y-116858143D01*
X186944000Y-117003286D01*
X186944000Y-117112143D01*
X186907714Y-117257286D01*
X186871429Y-117329857D01*
X186798857Y-117402429D01*
X186690000Y-117438714D01*
X186508572Y-117438714D01*
X182985229Y-117478629D02*
X183094086Y-117514914D01*
X183275515Y-117514914D01*
X183348086Y-117478629D01*
X183384372Y-117442343D01*
X183420657Y-117369771D01*
X183420657Y-117297200D01*
X183384372Y-117224629D01*
X183348086Y-117188343D01*
X183275515Y-117152057D01*
X183130372Y-117115771D01*
X183057800Y-117079486D01*
X183021515Y-117043200D01*
X182985229Y-116970629D01*
X182985229Y-116898057D01*
X183021515Y-116825486D01*
X183057800Y-116789200D01*
X183130372Y-116752914D01*
X183311800Y-116752914D01*
X183420657Y-116789200D01*
X183710943Y-117478629D02*
X183819800Y-117514914D01*
X184001229Y-117514914D01*
X184073800Y-117478629D01*
X184110086Y-117442343D01*
X184146371Y-117369771D01*
X184146371Y-117297200D01*
X184110086Y-117224629D01*
X184073800Y-117188343D01*
X184001229Y-117152057D01*
X183856086Y-117115771D01*
X183783514Y-117079486D01*
X183747229Y-117043200D01*
X183710943Y-116970629D01*
X183710943Y-116898057D01*
X183747229Y-116825486D01*
X183783514Y-116789200D01*
X183856086Y-116752914D01*
X184037514Y-116752914D01*
X184146371Y-116789200D01*
X182840086Y-116621560D02*
X184291514Y-116621560D01*
X180147686Y-117453229D02*
X180256543Y-117489514D01*
X180437972Y-117489514D01*
X180510543Y-117453229D01*
X180546829Y-117416943D01*
X180583114Y-117344371D01*
X180583114Y-117271800D01*
X180546829Y-117199229D01*
X180510543Y-117162943D01*
X180437972Y-117126657D01*
X180292829Y-117090371D01*
X180220257Y-117054086D01*
X180183972Y-117017800D01*
X180147686Y-116945229D01*
X180147686Y-116872657D01*
X180183972Y-116800086D01*
X180220257Y-116763800D01*
X180292829Y-116727514D01*
X180474257Y-116727514D01*
X180583114Y-116763800D01*
X181345114Y-117416943D02*
X181308828Y-117453229D01*
X181199971Y-117489514D01*
X181127400Y-117489514D01*
X181018543Y-117453229D01*
X180945971Y-117380657D01*
X180909686Y-117308086D01*
X180873400Y-117162943D01*
X180873400Y-117054086D01*
X180909686Y-116908943D01*
X180945971Y-116836371D01*
X181018543Y-116763800D01*
X181127400Y-116727514D01*
X181199971Y-116727514D01*
X181308828Y-116763800D01*
X181345114Y-116800086D01*
X181671686Y-117489514D02*
X181671686Y-116727514D01*
X182107114Y-117489514D02*
X181780543Y-117054086D01*
X182107114Y-116727514D02*
X181671686Y-117162943D01*
X177364572Y-117514914D02*
X177364572Y-116752914D01*
X177618572Y-117297200D01*
X177872572Y-116752914D01*
X177872572Y-117514914D01*
X178235429Y-117514914D02*
X178235429Y-116752914D01*
X178562000Y-117478629D02*
X178670857Y-117514914D01*
X178852286Y-117514914D01*
X178924857Y-117478629D01*
X178961143Y-117442343D01*
X178997428Y-117369771D01*
X178997428Y-117297200D01*
X178961143Y-117224629D01*
X178924857Y-117188343D01*
X178852286Y-117152057D01*
X178707143Y-117115771D01*
X178634571Y-117079486D01*
X178598286Y-117043200D01*
X178562000Y-116970629D01*
X178562000Y-116898057D01*
X178598286Y-116825486D01*
X178634571Y-116789200D01*
X178707143Y-116752914D01*
X178888571Y-116752914D01*
X178997428Y-116789200D01*
X179469142Y-116752914D02*
X179614285Y-116752914D01*
X179686857Y-116789200D01*
X179759428Y-116861771D01*
X179795714Y-117006914D01*
X179795714Y-117260914D01*
X179759428Y-117406057D01*
X179686857Y-117478629D01*
X179614285Y-117514914D01*
X179469142Y-117514914D01*
X179396571Y-117478629D01*
X179324000Y-117406057D01*
X179287714Y-117260914D01*
X179287714Y-117006914D01*
X179324000Y-116861771D01*
X179396571Y-116789200D01*
X179469142Y-116752914D01*
X174987857Y-116727514D02*
X175241857Y-117489514D01*
X175495857Y-116727514D01*
X176076429Y-117453229D02*
X176003858Y-117489514D01*
X175858715Y-117489514D01*
X175786143Y-117453229D01*
X175749858Y-117416943D01*
X175713572Y-117344371D01*
X175713572Y-117126657D01*
X175749858Y-117054086D01*
X175786143Y-117017800D01*
X175858715Y-116981514D01*
X176003858Y-116981514D01*
X176076429Y-117017800D01*
X176729572Y-117453229D02*
X176657001Y-117489514D01*
X176511858Y-117489514D01*
X176439286Y-117453229D01*
X176403001Y-117416943D01*
X176366715Y-117344371D01*
X176366715Y-117126657D01*
X176403001Y-117054086D01*
X176439286Y-117017800D01*
X176511858Y-116981514D01*
X176657001Y-116981514D01*
X176729572Y-117017800D01*
X174897144Y-110199714D02*
X174897144Y-109437714D01*
X175223715Y-110163429D02*
X175332572Y-110199714D01*
X175514001Y-110199714D01*
X175586572Y-110163429D01*
X175622858Y-110127143D01*
X175659143Y-110054571D01*
X175659143Y-109982000D01*
X175622858Y-109909429D01*
X175586572Y-109873143D01*
X175514001Y-109836857D01*
X175368858Y-109800571D01*
X175296286Y-109764286D01*
X175260001Y-109728000D01*
X175223715Y-109655429D01*
X175223715Y-109582857D01*
X175260001Y-109510286D01*
X175296286Y-109474000D01*
X175368858Y-109437714D01*
X175550286Y-109437714D01*
X175659143Y-109474000D01*
X175985715Y-110199714D02*
X175985715Y-109437714D01*
X176276000Y-109437714D01*
X176348572Y-109474000D01*
X176384857Y-109510286D01*
X176421143Y-109582857D01*
X176421143Y-109691714D01*
X176384857Y-109764286D01*
X176348572Y-109800571D01*
X176276000Y-109836857D01*
X175985715Y-109836857D01*
D12*
X100651018Y-68654471D02*
X108651019Y-68654470D01*
X100651018Y-118654471D02*
X100651018Y-68654471D01*
X108651019Y-118654470D02*
X100651018Y-118654471D01*
X108651019Y-68654470D02*
X108651019Y-118654470D01*
D13*
X152488000Y-86352000D02*
X152488000Y-85352000D01*
X150788000Y-85352000D02*
X150788000Y-86352000D01*
X150456000Y-80002000D02*
X150456000Y-79002000D01*
X148756000Y-79002000D02*
X148756000Y-80002000D01*
X152662000Y-83146000D02*
X153662000Y-83146000D01*
X153662000Y-81446000D02*
X152662000Y-81446000D01*
X148090000Y-92544000D02*
X149090000Y-92544000D01*
X149090000Y-90844000D02*
X148090000Y-90844000D01*
X184570000Y-86622000D02*
X184570000Y-87622000D01*
X186270000Y-87622000D02*
X186270000Y-86622000D01*
X174937000Y-83243000D02*
X174937000Y-83543000D01*
X182187000Y-83243000D02*
X182187000Y-83543000D01*
X182187000Y-90493000D02*
X182187000Y-90193000D01*
X174937000Y-90493000D02*
X174937000Y-90193000D01*
X174937000Y-83243000D02*
X175237000Y-83243000D01*
X174937000Y-90493000D02*
X175237000Y-90493000D01*
X182187000Y-90493000D02*
X181887000Y-90493000D01*
X182187000Y-83243000D02*
X181887000Y-83243000D01*
X174937000Y-83543000D02*
X173712000Y-83543000D01*
X147218400Y-68630800D02*
X144678400Y-68630800D01*
X150038400Y-68910800D02*
X148488400Y-68910800D01*
X147218400Y-68630800D02*
X147218400Y-66090800D01*
X148488400Y-65810800D02*
X150038400Y-65810800D01*
X150038400Y-65810800D02*
X150038400Y-68910800D01*
X147218400Y-66090800D02*
X144678400Y-66090800D01*
X144678400Y-66090800D02*
X144678400Y-68630800D01*
X179705000Y-106045000D02*
X174625000Y-106045000D01*
X182525000Y-105765000D02*
X182525000Y-107315000D01*
X182245000Y-108585000D02*
X179705000Y-108585000D01*
X179705000Y-108585000D02*
X179705000Y-106045000D01*
X174625000Y-106045000D02*
X174625000Y-111125000D01*
X174625000Y-111125000D02*
X179705000Y-111125000D01*
X182525000Y-105765000D02*
X180975000Y-105765000D01*
X182245000Y-111125000D02*
X182245000Y-108585000D01*
X179705000Y-111125000D02*
X182245000Y-111125000D01*
X136032240Y-80420160D02*
X136032240Y-80371900D01*
X135331200Y-77621180D02*
X136032240Y-77621180D01*
X136032240Y-77621180D02*
X136032240Y-77870100D01*
X136032240Y-80420160D02*
X136032240Y-80620820D01*
X136032240Y-80620820D02*
X135331200Y-80620820D01*
X136032240Y-87659160D02*
X136032240Y-87610900D01*
X135331200Y-84860180D02*
X136032240Y-84860180D01*
X136032240Y-84860180D02*
X136032240Y-85109100D01*
X136032240Y-87659160D02*
X136032240Y-87859820D01*
X136032240Y-87859820D02*
X135331200Y-87859820D01*
X118221760Y-77745640D02*
X118221760Y-77793900D01*
X118922800Y-80544620D02*
X118221760Y-80544620D01*
X118221760Y-80544620D02*
X118221760Y-80295700D01*
X118221760Y-77745640D02*
X118221760Y-77544980D01*
X118221760Y-77544980D02*
X118922800Y-77544980D01*
X118145560Y-92477640D02*
X118145560Y-92525900D01*
X118846600Y-95276620D02*
X118145560Y-95276620D01*
X118145560Y-95276620D02*
X118145560Y-95027700D01*
X118145560Y-92477640D02*
X118145560Y-92276980D01*
X118145560Y-92276980D02*
X118846600Y-92276980D01*
X118272560Y-99716640D02*
X118272560Y-99764900D01*
X118973600Y-102515620D02*
X118272560Y-102515620D01*
X118272560Y-102515620D02*
X118272560Y-102266700D01*
X118272560Y-99716640D02*
X118272560Y-99515980D01*
X118272560Y-99515980D02*
X118973600Y-99515980D01*
X118272560Y-85060840D02*
X118272560Y-85109100D01*
X118973600Y-87859820D02*
X118272560Y-87859820D01*
X118272560Y-87859820D02*
X118272560Y-87610900D01*
X118272560Y-85060840D02*
X118272560Y-84860180D01*
X118272560Y-84860180D02*
X118973600Y-84860180D01*
X136032240Y-95152160D02*
X136032240Y-95103900D01*
X135331200Y-92353180D02*
X136032240Y-92353180D01*
X136032240Y-92353180D02*
X136032240Y-92602100D01*
X136032240Y-95152160D02*
X136032240Y-95352820D01*
X136032240Y-95352820D02*
X135331200Y-95352820D01*
X136032240Y-102391160D02*
X136032240Y-102342900D01*
X135331200Y-99592180D02*
X136032240Y-99592180D01*
X136032240Y-99592180D02*
X136032240Y-99841100D01*
X136032240Y-102391160D02*
X136032240Y-102591820D01*
X136032240Y-102591820D02*
X135331200Y-102591820D01*
X147179000Y-85252000D02*
X147179000Y-86452000D01*
X145429000Y-86452000D02*
X145429000Y-85252000D01*
X131205000Y-79721000D02*
X131205000Y-78521000D01*
X132955000Y-78521000D02*
X132955000Y-79721000D01*
X138063000Y-79721000D02*
X138063000Y-78521000D01*
X139813000Y-78521000D02*
X139813000Y-79721000D01*
X131205000Y-86960000D02*
X131205000Y-85760000D01*
X132955000Y-85760000D02*
X132955000Y-86960000D01*
X138063000Y-86960000D02*
X138063000Y-85760000D01*
X139813000Y-85760000D02*
X139813000Y-86960000D01*
X124014200Y-78444800D02*
X124014200Y-79644800D01*
X122264200Y-79644800D02*
X122264200Y-78444800D01*
X116292600Y-78394000D02*
X116292600Y-79594000D01*
X114542600Y-79594000D02*
X114542600Y-78394000D01*
X123887200Y-93126000D02*
X123887200Y-94326000D01*
X122137200Y-94326000D02*
X122137200Y-93126000D01*
X116216400Y-93075200D02*
X116216400Y-94275200D01*
X114466400Y-94275200D02*
X114466400Y-93075200D01*
X124014200Y-100415800D02*
X124014200Y-101615800D01*
X122264200Y-101615800D02*
X122264200Y-100415800D01*
X116292600Y-100415800D02*
X116292600Y-101615800D01*
X114542600Y-101615800D02*
X114542600Y-100415800D01*
X124014200Y-85760000D02*
X124014200Y-86960000D01*
X122264200Y-86960000D02*
X122264200Y-85760000D01*
X116292600Y-85760000D02*
X116292600Y-86960000D01*
X114542600Y-86960000D02*
X114542600Y-85760000D01*
X131205000Y-94326000D02*
X131205000Y-93126000D01*
X132955000Y-93126000D02*
X132955000Y-94326000D01*
X138063000Y-94453000D02*
X138063000Y-93253000D01*
X139813000Y-93253000D02*
X139813000Y-94453000D01*
X130951000Y-101692000D02*
X130951000Y-100492000D01*
X132701000Y-100492000D02*
X132701000Y-101692000D01*
X137809000Y-101438000D02*
X137809000Y-100238000D01*
X139559000Y-100238000D02*
X139559000Y-101438000D01*
X177179000Y-77562000D02*
X177179000Y-76362000D01*
X178929000Y-76362000D02*
X178929000Y-77562000D01*
D11*
X162584000Y-98370000D02*
X160084000Y-98370000D01*
X160084000Y-98370000D02*
X160084000Y-100870000D01*
X160584000Y-98870000D02*
X167584000Y-98870000D01*
X167584000Y-98870000D02*
X167584000Y-106870000D01*
X167584000Y-106870000D02*
X160584000Y-106870000D01*
X160584000Y-106870000D02*
X160584000Y-98870000D01*
D13*
X162687000Y-87122000D02*
X160147000Y-87122000D01*
X165507000Y-87402000D02*
X163957000Y-87402000D01*
X162687000Y-87122000D02*
X162687000Y-84582000D01*
X163957000Y-84302000D02*
X165507000Y-84302000D01*
X165507000Y-84302000D02*
X165507000Y-87402000D01*
X162687000Y-84582000D02*
X160147000Y-84582000D01*
X160147000Y-84582000D02*
X160147000Y-87122000D01*
D11*
X155504000Y-76287000D02*
G75*
G03X155504000Y-76287000I-300000J0D01*
G01*
X154754000Y-70787000D02*
X163254000Y-70787000D01*
X163254000Y-70787000D02*
X163254000Y-76787000D01*
X163254000Y-76787000D02*
X154754000Y-76787000D01*
X154754000Y-76787000D02*
X154754000Y-70787000D01*
D13*
X153085800Y-80747820D02*
X152384760Y-80747820D01*
X152384760Y-80747820D02*
X152384760Y-80498900D01*
X152384760Y-77948840D02*
X152384760Y-77748180D01*
X152384760Y-77748180D02*
X153085800Y-77748180D01*
X150148000Y-86142000D02*
G75*
G03X150148000Y-86142000I-100000J0D01*
G01*
X150548000Y-88642000D02*
X150548000Y-88142000D01*
X147648000Y-88642000D02*
X150548000Y-88642000D01*
X147648000Y-88142000D02*
X147648000Y-88642000D01*
X150548000Y-88142000D02*
X147648000Y-88142000D01*
X175768000Y-116231000D02*
X174218000Y-116231000D01*
X174218000Y-116231000D02*
X174218000Y-113131000D01*
X174218000Y-113131000D02*
X175768000Y-113131000D01*
X177038000Y-113411000D02*
X187198000Y-113411000D01*
X187198000Y-113411000D02*
X187198000Y-115951000D01*
X187198000Y-115951000D02*
X177038000Y-115951000D01*
X177038000Y-113411000D02*
X177038000Y-115951000D01*
D11*
X134331214Y-72754000D02*
G75*
G03X134331214Y-72754000I-447214J0D01*
G01*
D13*
X141224000Y-107696000D02*
X113284000Y-107696000D01*
X113284000Y-107696000D02*
X113284000Y-72136000D01*
X113284000Y-72136000D02*
X141224000Y-72136000D01*
X141224000Y-72136000D02*
X141224000Y-107696000D01*
D14*
G36*
X180991768Y-65917854D02*
X181714009Y-65979638D01*
X182180577Y-66040676D01*
X182448524Y-66083310D01*
X182676401Y-66125806D01*
X182866464Y-66168784D01*
X183020970Y-66212865D01*
X183142174Y-66258669D01*
X183232332Y-66306818D01*
X183278823Y-66342848D01*
X183298125Y-66360503D01*
X183315010Y-66376933D01*
X183329639Y-66394931D01*
X183342175Y-66417293D01*
X183352778Y-66446814D01*
X183361609Y-66486287D01*
X183368831Y-66538509D01*
X183374605Y-66606273D01*
X183379091Y-66692374D01*
X183382451Y-66799607D01*
X183384848Y-66930767D01*
X183386441Y-67088649D01*
X183387392Y-67276047D01*
X183387864Y-67495755D01*
X183388016Y-67750569D01*
X183388011Y-68043284D01*
X183388000Y-68233599D01*
X183387983Y-68544458D01*
X183387885Y-68815831D01*
X183387639Y-69050568D01*
X183387173Y-69251518D01*
X183386419Y-69421528D01*
X183385308Y-69563447D01*
X183383769Y-69680125D01*
X183381735Y-69774408D01*
X183379134Y-69849146D01*
X183375898Y-69907187D01*
X183371958Y-69951380D01*
X183367244Y-69984574D01*
X183361686Y-70009616D01*
X183355216Y-70029355D01*
X183347764Y-70046640D01*
X183343633Y-70055283D01*
X183279851Y-70143992D01*
X183182675Y-70213297D01*
X183049734Y-70264654D01*
X182972269Y-70283410D01*
X182803513Y-70314971D01*
X182600120Y-70347660D01*
X182369740Y-70380565D01*
X182120021Y-70412774D01*
X181858610Y-70443376D01*
X181593157Y-70471458D01*
X181331310Y-70496110D01*
X181080716Y-70516419D01*
X180932666Y-70526536D01*
X180839002Y-70530994D01*
X180713311Y-70534883D01*
X180562104Y-70538177D01*
X180391891Y-70540845D01*
X180209182Y-70542860D01*
X180020489Y-70544193D01*
X179832322Y-70544815D01*
X179651190Y-70544698D01*
X179483606Y-70543812D01*
X179336078Y-70542130D01*
X179215118Y-70539623D01*
X179127237Y-70536261D01*
X179101750Y-70534587D01*
X178897823Y-70517901D01*
X178727310Y-70503121D01*
X178581382Y-70489328D01*
X178451213Y-70475603D01*
X178327977Y-70461026D01*
X178202847Y-70444679D01*
X178097654Y-70430023D01*
X177947431Y-70407323D01*
X177783606Y-70380351D01*
X177622466Y-70351922D01*
X177480299Y-70324855D01*
X177430904Y-70314726D01*
X177279773Y-70279928D01*
X177163437Y-70245378D01*
X177074521Y-70207606D01*
X177005652Y-70163141D01*
X176949456Y-70108514D01*
X176923578Y-70076000D01*
X176915540Y-70064555D01*
X176908527Y-70051455D01*
X176902455Y-70033874D01*
X176897243Y-70008985D01*
X176892810Y-69973961D01*
X176889075Y-69925975D01*
X176885955Y-69862203D01*
X176883369Y-69779816D01*
X176881236Y-69675988D01*
X176879474Y-69547893D01*
X176878002Y-69392704D01*
X176876739Y-69207594D01*
X176875601Y-68989738D01*
X176874509Y-68736308D01*
X176873381Y-68444478D01*
X176872912Y-68319167D01*
X176872670Y-68241333D01*
X177249666Y-68241333D01*
X177249708Y-68544844D01*
X177249876Y-68808795D01*
X177250230Y-69035959D01*
X177250834Y-69229108D01*
X177251749Y-69391016D01*
X177253036Y-69524456D01*
X177254759Y-69632201D01*
X177256978Y-69717024D01*
X177259756Y-69781697D01*
X177263154Y-69828995D01*
X177267235Y-69861689D01*
X177272060Y-69882553D01*
X177277691Y-69894360D01*
X177284190Y-69899883D01*
X177286708Y-69900852D01*
X177348015Y-69916549D01*
X177442865Y-69937002D01*
X177562929Y-69960714D01*
X177699882Y-69986187D01*
X177845395Y-70011927D01*
X177991143Y-70036434D01*
X178128797Y-70058214D01*
X178250032Y-70075770D01*
X178286833Y-70080612D01*
X178983303Y-70149599D01*
X179692744Y-70180864D01*
X180418163Y-70174521D01*
X180594000Y-70167460D01*
X181194267Y-70130932D01*
X181770485Y-70078034D01*
X182096833Y-70039274D01*
X182233730Y-70020855D01*
X182377815Y-70000291D01*
X182521658Y-69978763D01*
X182657825Y-69957450D01*
X182778887Y-69937532D01*
X182877410Y-69920190D01*
X182945963Y-69906602D01*
X182969958Y-69900642D01*
X182976779Y-69896717D01*
X182982711Y-69887487D01*
X182987814Y-69870177D01*
X182992151Y-69842015D01*
X182995783Y-69800229D01*
X182998773Y-69742046D01*
X183001183Y-69664692D01*
X183003074Y-69565394D01*
X183004508Y-69441381D01*
X183005547Y-69289879D01*
X183006254Y-69108115D01*
X183006689Y-68893316D01*
X183006916Y-68642711D01*
X183006995Y-68353524D01*
X183007000Y-68241548D01*
X183007000Y-66593616D01*
X182938208Y-66571109D01*
X182870422Y-66552477D01*
X182769079Y-66529217D01*
X182642491Y-66502939D01*
X182498972Y-66475253D01*
X182346837Y-66447769D01*
X182194398Y-66422095D01*
X182065083Y-66402055D01*
X181565216Y-66340775D01*
X181038217Y-66299367D01*
X180494401Y-66277962D01*
X179944083Y-66276690D01*
X179397577Y-66295680D01*
X178865200Y-66335062D01*
X178638204Y-66358871D01*
X178455414Y-66381336D01*
X178262840Y-66407574D01*
X178067660Y-66436400D01*
X177877050Y-66466624D01*
X177698189Y-66497059D01*
X177538254Y-66526518D01*
X177404423Y-66553812D01*
X177303872Y-66577754D01*
X177286708Y-66582517D01*
X177279887Y-66586348D01*
X177273956Y-66595490D01*
X177268853Y-66612715D01*
X177264516Y-66640795D01*
X177260884Y-66682503D01*
X177257894Y-66740609D01*
X177255484Y-66817886D01*
X177253593Y-66917105D01*
X177252159Y-67041039D01*
X177251119Y-67192458D01*
X177250412Y-67374136D01*
X177249977Y-67588844D01*
X177249750Y-67839353D01*
X177249671Y-68128435D01*
X177249666Y-68241333D01*
X176872670Y-68241333D01*
X176872082Y-68052560D01*
X176871608Y-67796558D01*
X176871476Y-67554558D01*
X176871673Y-67329956D01*
X176872187Y-67126149D01*
X176873004Y-66946533D01*
X176874111Y-66794504D01*
X176875495Y-66673459D01*
X176877144Y-66586795D01*
X176879044Y-66537908D01*
X176879747Y-66530477D01*
X176912777Y-66434826D01*
X176977935Y-66345532D01*
X177065322Y-66274019D01*
X177129304Y-66242502D01*
X177207279Y-66218877D01*
X177321163Y-66191611D01*
X177464789Y-66161735D01*
X177631992Y-66130281D01*
X177816604Y-66098280D01*
X178012461Y-66066766D01*
X178213395Y-66036769D01*
X178413241Y-66009321D01*
X178605833Y-65985455D01*
X178773666Y-65967316D01*
X179525020Y-65911767D01*
X180263246Y-65895255D01*
X180991768Y-65917854D01*
X180991768Y-65917854D01*
G37*
X180991768Y-65917854D02*
X181714009Y-65979638D01*
X182180577Y-66040676D01*
X182448524Y-66083310D01*
X182676401Y-66125806D01*
X182866464Y-66168784D01*
X183020970Y-66212865D01*
X183142174Y-66258669D01*
X183232332Y-66306818D01*
X183278823Y-66342848D01*
X183298125Y-66360503D01*
X183315010Y-66376933D01*
X183329639Y-66394931D01*
X183342175Y-66417293D01*
X183352778Y-66446814D01*
X183361609Y-66486287D01*
X183368831Y-66538509D01*
X183374605Y-66606273D01*
X183379091Y-66692374D01*
X183382451Y-66799607D01*
X183384848Y-66930767D01*
X183386441Y-67088649D01*
X183387392Y-67276047D01*
X183387864Y-67495755D01*
X183388016Y-67750569D01*
X183388011Y-68043284D01*
X183388000Y-68233599D01*
X183387983Y-68544458D01*
X183387885Y-68815831D01*
X183387639Y-69050568D01*
X183387173Y-69251518D01*
X183386419Y-69421528D01*
X183385308Y-69563447D01*
X183383769Y-69680125D01*
X183381735Y-69774408D01*
X183379134Y-69849146D01*
X183375898Y-69907187D01*
X183371958Y-69951380D01*
X183367244Y-69984574D01*
X183361686Y-70009616D01*
X183355216Y-70029355D01*
X183347764Y-70046640D01*
X183343633Y-70055283D01*
X183279851Y-70143992D01*
X183182675Y-70213297D01*
X183049734Y-70264654D01*
X182972269Y-70283410D01*
X182803513Y-70314971D01*
X182600120Y-70347660D01*
X182369740Y-70380565D01*
X182120021Y-70412774D01*
X181858610Y-70443376D01*
X181593157Y-70471458D01*
X181331310Y-70496110D01*
X181080716Y-70516419D01*
X180932666Y-70526536D01*
X180839002Y-70530994D01*
X180713311Y-70534883D01*
X180562104Y-70538177D01*
X180391891Y-70540845D01*
X180209182Y-70542860D01*
X180020489Y-70544193D01*
X179832322Y-70544815D01*
X179651190Y-70544698D01*
X179483606Y-70543812D01*
X179336078Y-70542130D01*
X179215118Y-70539623D01*
X179127237Y-70536261D01*
X179101750Y-70534587D01*
X178897823Y-70517901D01*
X178727310Y-70503121D01*
X178581382Y-70489328D01*
X178451213Y-70475603D01*
X178327977Y-70461026D01*
X178202847Y-70444679D01*
X178097654Y-70430023D01*
X177947431Y-70407323D01*
X177783606Y-70380351D01*
X177622466Y-70351922D01*
X177480299Y-70324855D01*
X177430904Y-70314726D01*
X177279773Y-70279928D01*
X177163437Y-70245378D01*
X177074521Y-70207606D01*
X177005652Y-70163141D01*
X176949456Y-70108514D01*
X176923578Y-70076000D01*
X176915540Y-70064555D01*
X176908527Y-70051455D01*
X176902455Y-70033874D01*
X176897243Y-70008985D01*
X176892810Y-69973961D01*
X176889075Y-69925975D01*
X176885955Y-69862203D01*
X176883369Y-69779816D01*
X176881236Y-69675988D01*
X176879474Y-69547893D01*
X176878002Y-69392704D01*
X176876739Y-69207594D01*
X176875601Y-68989738D01*
X176874509Y-68736308D01*
X176873381Y-68444478D01*
X176872912Y-68319167D01*
X176872670Y-68241333D01*
X177249666Y-68241333D01*
X177249708Y-68544844D01*
X177249876Y-68808795D01*
X177250230Y-69035959D01*
X177250834Y-69229108D01*
X177251749Y-69391016D01*
X177253036Y-69524456D01*
X177254759Y-69632201D01*
X177256978Y-69717024D01*
X177259756Y-69781697D01*
X177263154Y-69828995D01*
X177267235Y-69861689D01*
X177272060Y-69882553D01*
X177277691Y-69894360D01*
X177284190Y-69899883D01*
X177286708Y-69900852D01*
X177348015Y-69916549D01*
X177442865Y-69937002D01*
X177562929Y-69960714D01*
X177699882Y-69986187D01*
X177845395Y-70011927D01*
X177991143Y-70036434D01*
X178128797Y-70058214D01*
X178250032Y-70075770D01*
X178286833Y-70080612D01*
X178983303Y-70149599D01*
X179692744Y-70180864D01*
X180418163Y-70174521D01*
X180594000Y-70167460D01*
X181194267Y-70130932D01*
X181770485Y-70078034D01*
X182096833Y-70039274D01*
X182233730Y-70020855D01*
X182377815Y-70000291D01*
X182521658Y-69978763D01*
X182657825Y-69957450D01*
X182778887Y-69937532D01*
X182877410Y-69920190D01*
X182945963Y-69906602D01*
X182969958Y-69900642D01*
X182976779Y-69896717D01*
X182982711Y-69887487D01*
X182987814Y-69870177D01*
X182992151Y-69842015D01*
X182995783Y-69800229D01*
X182998773Y-69742046D01*
X183001183Y-69664692D01*
X183003074Y-69565394D01*
X183004508Y-69441381D01*
X183005547Y-69289879D01*
X183006254Y-69108115D01*
X183006689Y-68893316D01*
X183006916Y-68642711D01*
X183006995Y-68353524D01*
X183007000Y-68241548D01*
X183007000Y-66593616D01*
X182938208Y-66571109D01*
X182870422Y-66552477D01*
X182769079Y-66529217D01*
X182642491Y-66502939D01*
X182498972Y-66475253D01*
X182346837Y-66447769D01*
X182194398Y-66422095D01*
X182065083Y-66402055D01*
X181565216Y-66340775D01*
X181038217Y-66299367D01*
X180494401Y-66277962D01*
X179944083Y-66276690D01*
X179397577Y-66295680D01*
X178865200Y-66335062D01*
X178638204Y-66358871D01*
X178455414Y-66381336D01*
X178262840Y-66407574D01*
X178067660Y-66436400D01*
X177877050Y-66466624D01*
X177698189Y-66497059D01*
X177538254Y-66526518D01*
X177404423Y-66553812D01*
X177303872Y-66577754D01*
X177286708Y-66582517D01*
X177279887Y-66586348D01*
X177273956Y-66595490D01*
X177268853Y-66612715D01*
X177264516Y-66640795D01*
X177260884Y-66682503D01*
X177257894Y-66740609D01*
X177255484Y-66817886D01*
X177253593Y-66917105D01*
X177252159Y-67041039D01*
X177251119Y-67192458D01*
X177250412Y-67374136D01*
X177249977Y-67588844D01*
X177249750Y-67839353D01*
X177249671Y-68128435D01*
X177249666Y-68241333D01*
X176872670Y-68241333D01*
X176872082Y-68052560D01*
X176871608Y-67796558D01*
X176871476Y-67554558D01*
X176871673Y-67329956D01*
X176872187Y-67126149D01*
X176873004Y-66946533D01*
X176874111Y-66794504D01*
X176875495Y-66673459D01*
X176877144Y-66586795D01*
X176879044Y-66537908D01*
X176879747Y-66530477D01*
X176912777Y-66434826D01*
X176977935Y-66345532D01*
X177065322Y-66274019D01*
X177129304Y-66242502D01*
X177207279Y-66218877D01*
X177321163Y-66191611D01*
X177464789Y-66161735D01*
X177631992Y-66130281D01*
X177816604Y-66098280D01*
X178012461Y-66066766D01*
X178213395Y-66036769D01*
X178413241Y-66009321D01*
X178605833Y-65985455D01*
X178773666Y-65967316D01*
X179525020Y-65911767D01*
X180263246Y-65895255D01*
X180991768Y-65917854D01*
G36*
X179280560Y-67517569D02*
X179401685Y-67522814D01*
X179501359Y-67532823D01*
X179586525Y-67548513D01*
X179664129Y-67570805D01*
X179741115Y-67600618D01*
X179810166Y-67632041D01*
X179950860Y-67718036D01*
X180088444Y-67837544D01*
X180226931Y-68002920D01*
X180328096Y-68181800D01*
X180392940Y-68369702D01*
X180422462Y-68562143D01*
X180417664Y-68754639D01*
X180379546Y-68942708D01*
X180309107Y-69121868D01*
X180207348Y-69287635D01*
X180075270Y-69435527D01*
X179913872Y-69561061D01*
X179724156Y-69659753D01*
X179677822Y-69677746D01*
X179525083Y-69733583D01*
X178646666Y-69738194D01*
X178456491Y-69738760D01*
X178278447Y-69738460D01*
X178117222Y-69737363D01*
X177977500Y-69735537D01*
X177863968Y-69733053D01*
X177781310Y-69729979D01*
X177734213Y-69726383D01*
X177725916Y-69724634D01*
X177653435Y-69673147D01*
X177598562Y-69595797D01*
X177574193Y-69518705D01*
X177582189Y-69428592D01*
X177624690Y-69346402D01*
X177694056Y-69284079D01*
X177737232Y-69263820D01*
X177775619Y-69256397D01*
X177845095Y-69250286D01*
X177947673Y-69245426D01*
X178085367Y-69241757D01*
X178260192Y-69239217D01*
X178474161Y-69237747D01*
X178616437Y-69237361D01*
X178839258Y-69236869D01*
X179024160Y-69235684D01*
X179175556Y-69233165D01*
X179297859Y-69228666D01*
X179395484Y-69221546D01*
X179472845Y-69211162D01*
X179534354Y-69196869D01*
X179584426Y-69178025D01*
X179627474Y-69153987D01*
X179667912Y-69124112D01*
X179710155Y-69087756D01*
X179723169Y-69076092D01*
X179823664Y-68959729D01*
X179888863Y-68828006D01*
X179919688Y-68687483D01*
X179917060Y-68544719D01*
X179881899Y-68406271D01*
X179815129Y-68278700D01*
X179717670Y-68168564D01*
X179590443Y-68082421D01*
X179583055Y-68078733D01*
X179538882Y-68057866D01*
X179498581Y-68042313D01*
X179454742Y-68031080D01*
X179399951Y-68023172D01*
X179326798Y-68017597D01*
X179227871Y-68013359D01*
X179095758Y-68009464D01*
X179059416Y-68008500D01*
X178886643Y-68002456D01*
X178754507Y-67994507D01*
X178663536Y-67984697D01*
X178614259Y-67973069D01*
X178610710Y-67971294D01*
X178540527Y-67908760D01*
X178504135Y-67820754D01*
X178498500Y-67758257D01*
X178504438Y-67692059D01*
X178528367Y-67641215D01*
X178570466Y-67593633D01*
X178642433Y-67521667D01*
X178946174Y-67517692D01*
X179131038Y-67516168D01*
X179280560Y-67517569D01*
X179280560Y-67517569D01*
G37*
X179280560Y-67517569D02*
X179401685Y-67522814D01*
X179501359Y-67532823D01*
X179586525Y-67548513D01*
X179664129Y-67570805D01*
X179741115Y-67600618D01*
X179810166Y-67632041D01*
X179950860Y-67718036D01*
X180088444Y-67837544D01*
X180226931Y-68002920D01*
X180328096Y-68181800D01*
X180392940Y-68369702D01*
X180422462Y-68562143D01*
X180417664Y-68754639D01*
X180379546Y-68942708D01*
X180309107Y-69121868D01*
X180207348Y-69287635D01*
X180075270Y-69435527D01*
X179913872Y-69561061D01*
X179724156Y-69659753D01*
X179677822Y-69677746D01*
X179525083Y-69733583D01*
X178646666Y-69738194D01*
X178456491Y-69738760D01*
X178278447Y-69738460D01*
X178117222Y-69737363D01*
X177977500Y-69735537D01*
X177863968Y-69733053D01*
X177781310Y-69729979D01*
X177734213Y-69726383D01*
X177725916Y-69724634D01*
X177653435Y-69673147D01*
X177598562Y-69595797D01*
X177574193Y-69518705D01*
X177582189Y-69428592D01*
X177624690Y-69346402D01*
X177694056Y-69284079D01*
X177737232Y-69263820D01*
X177775619Y-69256397D01*
X177845095Y-69250286D01*
X177947673Y-69245426D01*
X178085367Y-69241757D01*
X178260192Y-69239217D01*
X178474161Y-69237747D01*
X178616437Y-69237361D01*
X178839258Y-69236869D01*
X179024160Y-69235684D01*
X179175556Y-69233165D01*
X179297859Y-69228666D01*
X179395484Y-69221546D01*
X179472845Y-69211162D01*
X179534354Y-69196869D01*
X179584426Y-69178025D01*
X179627474Y-69153987D01*
X179667912Y-69124112D01*
X179710155Y-69087756D01*
X179723169Y-69076092D01*
X179823664Y-68959729D01*
X179888863Y-68828006D01*
X179919688Y-68687483D01*
X179917060Y-68544719D01*
X179881899Y-68406271D01*
X179815129Y-68278700D01*
X179717670Y-68168564D01*
X179590443Y-68082421D01*
X179583055Y-68078733D01*
X179538882Y-68057866D01*
X179498581Y-68042313D01*
X179454742Y-68031080D01*
X179399951Y-68023172D01*
X179326798Y-68017597D01*
X179227871Y-68013359D01*
X179095758Y-68009464D01*
X179059416Y-68008500D01*
X178886643Y-68002456D01*
X178754507Y-67994507D01*
X178663536Y-67984697D01*
X178614259Y-67973069D01*
X178610710Y-67971294D01*
X178540527Y-67908760D01*
X178504135Y-67820754D01*
X178498500Y-67758257D01*
X178504438Y-67692059D01*
X178528367Y-67641215D01*
X178570466Y-67593633D01*
X178642433Y-67521667D01*
X178946174Y-67517692D01*
X179131038Y-67516168D01*
X179280560Y-67517569D01*
G36*
X181671184Y-66674301D02*
X181866013Y-66733732D01*
X182045714Y-66829164D01*
X182205666Y-66957638D01*
X182341244Y-67116192D01*
X182434788Y-67274282D01*
X182485360Y-67391732D01*
X182523743Y-67508293D01*
X182540831Y-67585167D01*
X182545477Y-67636369D01*
X182549766Y-67724849D01*
X182553593Y-67845549D01*
X182556855Y-67993415D01*
X182559450Y-68163389D01*
X182561274Y-68350417D01*
X182562225Y-68549443D01*
X182562340Y-68640234D01*
X182562334Y-68872294D01*
X182561901Y-69065795D01*
X182560549Y-69224513D01*
X182557786Y-69352222D01*
X182553120Y-69452697D01*
X182546058Y-69529713D01*
X182536110Y-69587045D01*
X182522782Y-69628467D01*
X182505584Y-69657755D01*
X182484022Y-69678684D01*
X182457605Y-69695027D01*
X182425842Y-69710560D01*
X182422647Y-69712074D01*
X182347593Y-69738727D01*
X182279842Y-69737455D01*
X182209555Y-69713282D01*
X182179982Y-69700283D01*
X182155253Y-69686805D01*
X182134898Y-69669172D01*
X182118447Y-69643704D01*
X182105430Y-69606725D01*
X182095377Y-69554557D01*
X182087817Y-69483521D01*
X182082281Y-69389940D01*
X182078299Y-69270137D01*
X182075400Y-69120434D01*
X182073114Y-68937152D01*
X182070971Y-68716615D01*
X182070096Y-68622333D01*
X182067780Y-68380754D01*
X182065345Y-68177515D01*
X182062238Y-68008625D01*
X182057905Y-67870091D01*
X182051793Y-67757922D01*
X182043349Y-67668128D01*
X182032018Y-67596716D01*
X182017248Y-67539695D01*
X181998486Y-67493074D01*
X181975177Y-67452861D01*
X181946769Y-67415066D01*
X181912707Y-67375695D01*
X181894425Y-67355330D01*
X181782003Y-67256833D01*
X181647041Y-67188638D01*
X181484159Y-67148194D01*
X181447049Y-67143125D01*
X181365617Y-67130593D01*
X181311832Y-67113005D01*
X181271021Y-67084202D01*
X181246711Y-67059034D01*
X181205063Y-67000330D01*
X181188348Y-66936132D01*
X181186666Y-66894799D01*
X181192039Y-66826861D01*
X181214281Y-66776409D01*
X181258633Y-66725800D01*
X181301880Y-66686100D01*
X181340944Y-66664502D01*
X181391497Y-66655561D01*
X181465852Y-66653833D01*
X181671184Y-66674301D01*
X181671184Y-66674301D01*
G37*
X181671184Y-66674301D02*
X181866013Y-66733732D01*
X182045714Y-66829164D01*
X182205666Y-66957638D01*
X182341244Y-67116192D01*
X182434788Y-67274282D01*
X182485360Y-67391732D01*
X182523743Y-67508293D01*
X182540831Y-67585167D01*
X182545477Y-67636369D01*
X182549766Y-67724849D01*
X182553593Y-67845549D01*
X182556855Y-67993415D01*
X182559450Y-68163389D01*
X182561274Y-68350417D01*
X182562225Y-68549443D01*
X182562340Y-68640234D01*
X182562334Y-68872294D01*
X182561901Y-69065795D01*
X182560549Y-69224513D01*
X182557786Y-69352222D01*
X182553120Y-69452697D01*
X182546058Y-69529713D01*
X182536110Y-69587045D01*
X182522782Y-69628467D01*
X182505584Y-69657755D01*
X182484022Y-69678684D01*
X182457605Y-69695027D01*
X182425842Y-69710560D01*
X182422647Y-69712074D01*
X182347593Y-69738727D01*
X182279842Y-69737455D01*
X182209555Y-69713282D01*
X182179982Y-69700283D01*
X182155253Y-69686805D01*
X182134898Y-69669172D01*
X182118447Y-69643704D01*
X182105430Y-69606725D01*
X182095377Y-69554557D01*
X182087817Y-69483521D01*
X182082281Y-69389940D01*
X182078299Y-69270137D01*
X182075400Y-69120434D01*
X182073114Y-68937152D01*
X182070971Y-68716615D01*
X182070096Y-68622333D01*
X182067780Y-68380754D01*
X182065345Y-68177515D01*
X182062238Y-68008625D01*
X182057905Y-67870091D01*
X182051793Y-67757922D01*
X182043349Y-67668128D01*
X182032018Y-67596716D01*
X182017248Y-67539695D01*
X181998486Y-67493074D01*
X181975177Y-67452861D01*
X181946769Y-67415066D01*
X181912707Y-67375695D01*
X181894425Y-67355330D01*
X181782003Y-67256833D01*
X181647041Y-67188638D01*
X181484159Y-67148194D01*
X181447049Y-67143125D01*
X181365617Y-67130593D01*
X181311832Y-67113005D01*
X181271021Y-67084202D01*
X181246711Y-67059034D01*
X181205063Y-67000330D01*
X181188348Y-66936132D01*
X181186666Y-66894799D01*
X181192039Y-66826861D01*
X181214281Y-66776409D01*
X181258633Y-66725800D01*
X181301880Y-66686100D01*
X181340944Y-66664502D01*
X181391497Y-66655561D01*
X181465852Y-66653833D01*
X181671184Y-66674301D01*
G36*
X179515759Y-66632498D02*
X179697508Y-66634416D01*
X179870548Y-66637524D01*
X180028671Y-66641789D01*
X180165670Y-66647180D01*
X180275339Y-66653665D01*
X180351470Y-66661212D01*
X180371750Y-66664648D01*
X180577890Y-66728879D01*
X180763964Y-66828450D01*
X180926267Y-66959655D01*
X181061095Y-67118790D01*
X181164742Y-67302150D01*
X181233504Y-67506030D01*
X181239352Y-67532250D01*
X181251076Y-67604890D01*
X181259859Y-67700145D01*
X181265930Y-67822828D01*
X181269523Y-67977752D01*
X181270868Y-68169729D01*
X181270886Y-68188417D01*
X181270761Y-68349329D01*
X181269900Y-68473630D01*
X181267883Y-68567036D01*
X181264290Y-68635269D01*
X181258702Y-68684047D01*
X181250698Y-68719090D01*
X181239860Y-68746117D01*
X181228457Y-68766482D01*
X181178883Y-68821624D01*
X181110318Y-68867654D01*
X181040235Y-68894029D01*
X181012721Y-68896671D01*
X180975732Y-68888106D01*
X180922576Y-68868416D01*
X180918389Y-68866615D01*
X180878298Y-68847667D01*
X180846375Y-68826342D01*
X180821582Y-68797827D01*
X180802881Y-68757303D01*
X180789235Y-68699957D01*
X180779606Y-68620971D01*
X180772956Y-68515531D01*
X180768247Y-68378820D01*
X180764441Y-68206023D01*
X180763333Y-68147107D01*
X180759982Y-67975334D01*
X180756715Y-67840429D01*
X180753056Y-67736928D01*
X180748533Y-67659370D01*
X180742672Y-67602291D01*
X180734999Y-67560230D01*
X180725041Y-67527724D01*
X180712324Y-67499310D01*
X180706136Y-67487451D01*
X180632667Y-67371352D01*
X180548030Y-67284058D01*
X180442292Y-67213775D01*
X180329416Y-67151250D01*
X179464463Y-67145058D01*
X179232018Y-67143473D01*
X179037698Y-67142775D01*
X178877296Y-67143613D01*
X178746604Y-67146639D01*
X178641415Y-67152503D01*
X178557522Y-67161856D01*
X178490717Y-67175349D01*
X178436793Y-67193632D01*
X178391542Y-67217358D01*
X178350757Y-67247175D01*
X178310231Y-67283736D01*
X178265755Y-67327690D01*
X178262465Y-67330981D01*
X178159471Y-67457692D01*
X178097721Y-67591938D01*
X178076542Y-67736405D01*
X178095261Y-67893783D01*
X178108798Y-67944733D01*
X178138574Y-68021043D01*
X178184266Y-68091684D01*
X178255052Y-68170545D01*
X178263973Y-68179527D01*
X178329400Y-68240786D01*
X178391969Y-68287345D01*
X178458902Y-68321165D01*
X178537421Y-68344205D01*
X178634747Y-68358426D01*
X178758101Y-68365789D01*
X178914706Y-68368253D01*
X178959517Y-68368333D01*
X179111789Y-68369684D01*
X179228045Y-68374772D01*
X179314547Y-68385154D01*
X179377559Y-68402385D01*
X179423340Y-68428022D01*
X179458154Y-68463620D01*
X179480881Y-68497869D01*
X179507247Y-68577958D01*
X179505534Y-68667560D01*
X179477242Y-68748422D01*
X179458085Y-68775064D01*
X179418281Y-68812173D01*
X179370127Y-68839275D01*
X179306733Y-68857797D01*
X179221211Y-68869166D01*
X179106672Y-68874810D01*
X178970138Y-68876173D01*
X178792192Y-68874058D01*
X178647716Y-68866930D01*
X178527992Y-68853319D01*
X178424303Y-68831751D01*
X178327935Y-68800752D01*
X178230169Y-68758851D01*
X178205426Y-68746959D01*
X178023747Y-68635858D01*
X177867763Y-68494737D01*
X177741703Y-68328665D01*
X177649798Y-68142709D01*
X177617757Y-68043036D01*
X177599605Y-67939742D01*
X177590793Y-67812519D01*
X177591339Y-67678298D01*
X177601263Y-67554010D01*
X177617106Y-67468750D01*
X177690631Y-67272957D01*
X177799197Y-67095949D01*
X177938088Y-66941972D01*
X178102589Y-66815270D01*
X178287981Y-66720090D01*
X178489548Y-66660676D01*
X178521054Y-66655084D01*
X178589969Y-66647775D01*
X178693624Y-66641880D01*
X178825812Y-66637367D01*
X178980327Y-66634205D01*
X179150961Y-66632360D01*
X179331508Y-66631802D01*
X179515759Y-66632498D01*
X179515759Y-66632498D01*
G37*
X179515759Y-66632498D02*
X179697508Y-66634416D01*
X179870548Y-66637524D01*
X180028671Y-66641789D01*
X180165670Y-66647180D01*
X180275339Y-66653665D01*
X180351470Y-66661212D01*
X180371750Y-66664648D01*
X180577890Y-66728879D01*
X180763964Y-66828450D01*
X180926267Y-66959655D01*
X181061095Y-67118790D01*
X181164742Y-67302150D01*
X181233504Y-67506030D01*
X181239352Y-67532250D01*
X181251076Y-67604890D01*
X181259859Y-67700145D01*
X181265930Y-67822828D01*
X181269523Y-67977752D01*
X181270868Y-68169729D01*
X181270886Y-68188417D01*
X181270761Y-68349329D01*
X181269900Y-68473630D01*
X181267883Y-68567036D01*
X181264290Y-68635269D01*
X181258702Y-68684047D01*
X181250698Y-68719090D01*
X181239860Y-68746117D01*
X181228457Y-68766482D01*
X181178883Y-68821624D01*
X181110318Y-68867654D01*
X181040235Y-68894029D01*
X181012721Y-68896671D01*
X180975732Y-68888106D01*
X180922576Y-68868416D01*
X180918389Y-68866615D01*
X180878298Y-68847667D01*
X180846375Y-68826342D01*
X180821582Y-68797827D01*
X180802881Y-68757303D01*
X180789235Y-68699957D01*
X180779606Y-68620971D01*
X180772956Y-68515531D01*
X180768247Y-68378820D01*
X180764441Y-68206023D01*
X180763333Y-68147107D01*
X180759982Y-67975334D01*
X180756715Y-67840429D01*
X180753056Y-67736928D01*
X180748533Y-67659370D01*
X180742672Y-67602291D01*
X180734999Y-67560230D01*
X180725041Y-67527724D01*
X180712324Y-67499310D01*
X180706136Y-67487451D01*
X180632667Y-67371352D01*
X180548030Y-67284058D01*
X180442292Y-67213775D01*
X180329416Y-67151250D01*
X179464463Y-67145058D01*
X179232018Y-67143473D01*
X179037698Y-67142775D01*
X178877296Y-67143613D01*
X178746604Y-67146639D01*
X178641415Y-67152503D01*
X178557522Y-67161856D01*
X178490717Y-67175349D01*
X178436793Y-67193632D01*
X178391542Y-67217358D01*
X178350757Y-67247175D01*
X178310231Y-67283736D01*
X178265755Y-67327690D01*
X178262465Y-67330981D01*
X178159471Y-67457692D01*
X178097721Y-67591938D01*
X178076542Y-67736405D01*
X178095261Y-67893783D01*
X178108798Y-67944733D01*
X178138574Y-68021043D01*
X178184266Y-68091684D01*
X178255052Y-68170545D01*
X178263973Y-68179527D01*
X178329400Y-68240786D01*
X178391969Y-68287345D01*
X178458902Y-68321165D01*
X178537421Y-68344205D01*
X178634747Y-68358426D01*
X178758101Y-68365789D01*
X178914706Y-68368253D01*
X178959517Y-68368333D01*
X179111789Y-68369684D01*
X179228045Y-68374772D01*
X179314547Y-68385154D01*
X179377559Y-68402385D01*
X179423340Y-68428022D01*
X179458154Y-68463620D01*
X179480881Y-68497869D01*
X179507247Y-68577958D01*
X179505534Y-68667560D01*
X179477242Y-68748422D01*
X179458085Y-68775064D01*
X179418281Y-68812173D01*
X179370127Y-68839275D01*
X179306733Y-68857797D01*
X179221211Y-68869166D01*
X179106672Y-68874810D01*
X178970138Y-68876173D01*
X178792192Y-68874058D01*
X178647716Y-68866930D01*
X178527992Y-68853319D01*
X178424303Y-68831751D01*
X178327935Y-68800752D01*
X178230169Y-68758851D01*
X178205426Y-68746959D01*
X178023747Y-68635858D01*
X177867763Y-68494737D01*
X177741703Y-68328665D01*
X177649798Y-68142709D01*
X177617757Y-68043036D01*
X177599605Y-67939742D01*
X177590793Y-67812519D01*
X177591339Y-67678298D01*
X177601263Y-67554010D01*
X177617106Y-67468750D01*
X177690631Y-67272957D01*
X177799197Y-67095949D01*
X177938088Y-66941972D01*
X178102589Y-66815270D01*
X178287981Y-66720090D01*
X178489548Y-66660676D01*
X178521054Y-66655084D01*
X178589969Y-66647775D01*
X178693624Y-66641880D01*
X178825812Y-66637367D01*
X178980327Y-66634205D01*
X179150961Y-66632360D01*
X179331508Y-66631802D01*
X179515759Y-66632498D01*
D11*
X151783143Y-90895714D02*
X151819429Y-90932000D01*
X151855714Y-91040857D01*
X151855714Y-91113428D01*
X151819429Y-91222285D01*
X151746857Y-91294857D01*
X151674286Y-91331142D01*
X151529143Y-91367428D01*
X151420286Y-91367428D01*
X151275143Y-91331142D01*
X151202571Y-91294857D01*
X151130000Y-91222285D01*
X151093714Y-91113428D01*
X151093714Y-91040857D01*
X151130000Y-90932000D01*
X151166286Y-90895714D01*
X151166286Y-90605428D02*
X151130000Y-90569142D01*
X151093714Y-90496571D01*
X151093714Y-90315142D01*
X151130000Y-90242571D01*
X151166286Y-90206285D01*
X151238857Y-90170000D01*
X151311429Y-90170000D01*
X151420286Y-90206285D01*
X151855714Y-90641714D01*
X151855714Y-90170000D01*
X151093714Y-89698286D02*
X151093714Y-89625714D01*
X151130000Y-89553143D01*
X151166286Y-89516857D01*
X151238857Y-89480571D01*
X151384000Y-89444286D01*
X151565429Y-89444286D01*
X151710571Y-89480571D01*
X151783143Y-89516857D01*
X151819429Y-89553143D01*
X151855714Y-89625714D01*
X151855714Y-89698286D01*
X151819429Y-89770857D01*
X151783143Y-89807143D01*
X151710571Y-89843428D01*
X151565429Y-89879714D01*
X151384000Y-89879714D01*
X151238857Y-89843428D01*
X151166286Y-89807143D01*
X151130000Y-89770857D01*
X151093714Y-89698286D01*
X151855714Y-88718572D02*
X151855714Y-89154000D01*
X151855714Y-88936286D02*
X151093714Y-88936286D01*
X151202571Y-89008857D01*
X151275143Y-89081429D01*
X151311429Y-89154000D01*
X148100143Y-80354714D02*
X148136429Y-80391000D01*
X148172714Y-80499857D01*
X148172714Y-80572428D01*
X148136429Y-80681285D01*
X148063857Y-80753857D01*
X147991286Y-80790142D01*
X147846143Y-80826428D01*
X147737286Y-80826428D01*
X147592143Y-80790142D01*
X147519571Y-80753857D01*
X147447000Y-80681285D01*
X147410714Y-80572428D01*
X147410714Y-80499857D01*
X147447000Y-80391000D01*
X147483286Y-80354714D01*
X147483286Y-80064428D02*
X147447000Y-80028142D01*
X147410714Y-79955571D01*
X147410714Y-79774142D01*
X147447000Y-79701571D01*
X147483286Y-79665285D01*
X147555857Y-79629000D01*
X147628429Y-79629000D01*
X147737286Y-79665285D01*
X148172714Y-80100714D01*
X148172714Y-79629000D01*
X147410714Y-79157286D02*
X147410714Y-79084714D01*
X147447000Y-79012143D01*
X147483286Y-78975857D01*
X147555857Y-78939571D01*
X147701000Y-78903286D01*
X147882429Y-78903286D01*
X148027571Y-78939571D01*
X148100143Y-78975857D01*
X148136429Y-79012143D01*
X148172714Y-79084714D01*
X148172714Y-79157286D01*
X148136429Y-79229857D01*
X148100143Y-79266143D01*
X148027571Y-79302428D01*
X147882429Y-79338714D01*
X147701000Y-79338714D01*
X147555857Y-79302428D01*
X147483286Y-79266143D01*
X147447000Y-79229857D01*
X147410714Y-79157286D01*
X147483286Y-78613000D02*
X147447000Y-78576714D01*
X147410714Y-78504143D01*
X147410714Y-78322714D01*
X147447000Y-78250143D01*
X147483286Y-78213857D01*
X147555857Y-78177572D01*
X147628429Y-78177572D01*
X147737286Y-78213857D01*
X148172714Y-78649286D01*
X148172714Y-78177572D01*
X156398686Y-83203143D02*
X156362400Y-83239429D01*
X156253543Y-83275714D01*
X156180972Y-83275714D01*
X156072115Y-83239429D01*
X155999543Y-83166857D01*
X155963258Y-83094286D01*
X155926972Y-82949143D01*
X155926972Y-82840286D01*
X155963258Y-82695143D01*
X155999543Y-82622571D01*
X156072115Y-82550000D01*
X156180972Y-82513714D01*
X156253543Y-82513714D01*
X156362400Y-82550000D01*
X156398686Y-82586286D01*
X156688972Y-82586286D02*
X156725258Y-82550000D01*
X156797829Y-82513714D01*
X156979258Y-82513714D01*
X157051829Y-82550000D01*
X157088115Y-82586286D01*
X157124400Y-82658857D01*
X157124400Y-82731429D01*
X157088115Y-82840286D01*
X156652686Y-83275714D01*
X157124400Y-83275714D01*
X157596114Y-82513714D02*
X157668686Y-82513714D01*
X157741257Y-82550000D01*
X157777543Y-82586286D01*
X157813829Y-82658857D01*
X157850114Y-82804000D01*
X157850114Y-82985429D01*
X157813829Y-83130571D01*
X157777543Y-83203143D01*
X157741257Y-83239429D01*
X157668686Y-83275714D01*
X157596114Y-83275714D01*
X157523543Y-83239429D01*
X157487257Y-83203143D01*
X157450972Y-83130571D01*
X157414686Y-82985429D01*
X157414686Y-82804000D01*
X157450972Y-82658857D01*
X157487257Y-82586286D01*
X157523543Y-82550000D01*
X157596114Y-82513714D01*
X158104114Y-82513714D02*
X158575828Y-82513714D01*
X158321828Y-82804000D01*
X158430686Y-82804000D01*
X158503257Y-82840286D01*
X158539543Y-82876571D01*
X158575828Y-82949143D01*
X158575828Y-83130571D01*
X158539543Y-83203143D01*
X158503257Y-83239429D01*
X158430686Y-83275714D01*
X158212971Y-83275714D01*
X158140400Y-83239429D01*
X158104114Y-83203143D01*
X146619686Y-93820343D02*
X146583400Y-93856629D01*
X146474543Y-93892914D01*
X146401972Y-93892914D01*
X146293115Y-93856629D01*
X146220543Y-93784057D01*
X146184258Y-93711486D01*
X146147972Y-93566343D01*
X146147972Y-93457486D01*
X146184258Y-93312343D01*
X146220543Y-93239771D01*
X146293115Y-93167200D01*
X146401972Y-93130914D01*
X146474543Y-93130914D01*
X146583400Y-93167200D01*
X146619686Y-93203486D01*
X146909972Y-93203486D02*
X146946258Y-93167200D01*
X147018829Y-93130914D01*
X147200258Y-93130914D01*
X147272829Y-93167200D01*
X147309115Y-93203486D01*
X147345400Y-93276057D01*
X147345400Y-93348629D01*
X147309115Y-93457486D01*
X146873686Y-93892914D01*
X147345400Y-93892914D01*
X147817114Y-93130914D02*
X147889686Y-93130914D01*
X147962257Y-93167200D01*
X147998543Y-93203486D01*
X148034829Y-93276057D01*
X148071114Y-93421200D01*
X148071114Y-93602629D01*
X148034829Y-93747771D01*
X147998543Y-93820343D01*
X147962257Y-93856629D01*
X147889686Y-93892914D01*
X147817114Y-93892914D01*
X147744543Y-93856629D01*
X147708257Y-93820343D01*
X147671972Y-93747771D01*
X147635686Y-93602629D01*
X147635686Y-93421200D01*
X147671972Y-93276057D01*
X147708257Y-93203486D01*
X147744543Y-93167200D01*
X147817114Y-93130914D01*
X148724257Y-93384914D02*
X148724257Y-93892914D01*
X148542828Y-93094629D02*
X148361400Y-93638914D01*
X148833114Y-93638914D01*
X187343143Y-87695314D02*
X187379429Y-87731600D01*
X187415714Y-87840457D01*
X187415714Y-87913028D01*
X187379429Y-88021885D01*
X187306857Y-88094457D01*
X187234286Y-88130742D01*
X187089143Y-88167028D01*
X186980286Y-88167028D01*
X186835143Y-88130742D01*
X186762571Y-88094457D01*
X186690000Y-88021885D01*
X186653714Y-87913028D01*
X186653714Y-87840457D01*
X186690000Y-87731600D01*
X186726286Y-87695314D01*
X186653714Y-87005885D02*
X186653714Y-87368742D01*
X187016571Y-87405028D01*
X186980286Y-87368742D01*
X186944000Y-87296171D01*
X186944000Y-87114742D01*
X186980286Y-87042171D01*
X187016571Y-87005885D01*
X187089143Y-86969600D01*
X187270571Y-86969600D01*
X187343143Y-87005885D01*
X187379429Y-87042171D01*
X187415714Y-87114742D01*
X187415714Y-87296171D01*
X187379429Y-87368742D01*
X187343143Y-87405028D01*
X186653714Y-86497886D02*
X186653714Y-86425314D01*
X186690000Y-86352743D01*
X186726286Y-86316457D01*
X186798857Y-86280171D01*
X186944000Y-86243886D01*
X187125429Y-86243886D01*
X187270571Y-86280171D01*
X187343143Y-86316457D01*
X187379429Y-86352743D01*
X187415714Y-86425314D01*
X187415714Y-86497886D01*
X187379429Y-86570457D01*
X187343143Y-86606743D01*
X187270571Y-86643028D01*
X187125429Y-86679314D01*
X186944000Y-86679314D01*
X186798857Y-86643028D01*
X186726286Y-86606743D01*
X186690000Y-86570457D01*
X186653714Y-86497886D01*
X187415714Y-85518172D02*
X187415714Y-85953600D01*
X187415714Y-85735886D02*
X186653714Y-85735886D01*
X186762571Y-85808457D01*
X186835143Y-85881029D01*
X186871429Y-85953600D01*
X181004030Y-92927714D02*
X181004030Y-92165714D01*
X181802315Y-92855143D02*
X181766029Y-92891429D01*
X181657172Y-92927714D01*
X181584601Y-92927714D01*
X181475744Y-92891429D01*
X181403172Y-92818857D01*
X181366887Y-92746286D01*
X181330601Y-92601143D01*
X181330601Y-92492286D01*
X181366887Y-92347143D01*
X181403172Y-92274571D01*
X181475744Y-92202000D01*
X181584601Y-92165714D01*
X181657172Y-92165714D01*
X181766029Y-92202000D01*
X181802315Y-92238286D01*
X182491744Y-92165714D02*
X182128887Y-92165714D01*
X182092601Y-92528571D01*
X182128887Y-92492286D01*
X182201458Y-92456000D01*
X182382887Y-92456000D01*
X182455458Y-92492286D01*
X182491744Y-92528571D01*
X182528029Y-92601143D01*
X182528029Y-92782571D01*
X182491744Y-92855143D01*
X182455458Y-92891429D01*
X182382887Y-92927714D01*
X182201458Y-92927714D01*
X182128887Y-92891429D01*
X182092601Y-92855143D01*
X182999743Y-92165714D02*
X183072315Y-92165714D01*
X183144886Y-92202000D01*
X183181172Y-92238286D01*
X183217458Y-92310857D01*
X183253743Y-92456000D01*
X183253743Y-92637429D01*
X183217458Y-92782571D01*
X183181172Y-92855143D01*
X183144886Y-92891429D01*
X183072315Y-92927714D01*
X182999743Y-92927714D01*
X182927172Y-92891429D01*
X182890886Y-92855143D01*
X182854601Y-92782571D01*
X182818315Y-92637429D01*
X182818315Y-92456000D01*
X182854601Y-92310857D01*
X182890886Y-92238286D01*
X182927172Y-92202000D01*
X182999743Y-92165714D01*
X183979457Y-92927714D02*
X183544029Y-92927714D01*
X183761743Y-92927714D02*
X183761743Y-92165714D01*
X183689172Y-92274571D01*
X183616600Y-92347143D01*
X183544029Y-92383429D01*
X150527658Y-69077114D02*
X150527658Y-68315114D01*
X150817943Y-68315114D01*
X150890515Y-68351400D01*
X150926800Y-68387686D01*
X150963086Y-68460257D01*
X150963086Y-68569114D01*
X150926800Y-68641686D01*
X150890515Y-68677971D01*
X150817943Y-68714257D01*
X150527658Y-68714257D01*
X151688800Y-69077114D02*
X151253372Y-69077114D01*
X151471086Y-69077114D02*
X151471086Y-68315114D01*
X151398515Y-68423971D01*
X151325943Y-68496543D01*
X151253372Y-68532829D01*
X152160514Y-68315114D02*
X152233086Y-68315114D01*
X152305657Y-68351400D01*
X152341943Y-68387686D01*
X152378229Y-68460257D01*
X152414514Y-68605400D01*
X152414514Y-68786829D01*
X152378229Y-68931971D01*
X152341943Y-69004543D01*
X152305657Y-69040829D01*
X152233086Y-69077114D01*
X152160514Y-69077114D01*
X152087943Y-69040829D01*
X152051657Y-69004543D01*
X152015372Y-68931971D01*
X151979086Y-68786829D01*
X151979086Y-68605400D01*
X152015372Y-68460257D01*
X152051657Y-68387686D01*
X152087943Y-68351400D01*
X152160514Y-68315114D01*
X153140228Y-69077114D02*
X152704800Y-69077114D01*
X152922514Y-69077114D02*
X152922514Y-68315114D01*
X152849943Y-68423971D01*
X152777371Y-68496543D01*
X152704800Y-68532829D01*
X180194858Y-112688914D02*
X180194858Y-111926914D01*
X180485143Y-111926914D01*
X180557715Y-111963200D01*
X180594000Y-111999486D01*
X180630286Y-112072057D01*
X180630286Y-112180914D01*
X180594000Y-112253486D01*
X180557715Y-112289771D01*
X180485143Y-112326057D01*
X180194858Y-112326057D01*
X181319715Y-111926914D02*
X180956858Y-111926914D01*
X180920572Y-112289771D01*
X180956858Y-112253486D01*
X181029429Y-112217200D01*
X181210858Y-112217200D01*
X181283429Y-112253486D01*
X181319715Y-112289771D01*
X181356000Y-112362343D01*
X181356000Y-112543771D01*
X181319715Y-112616343D01*
X181283429Y-112652629D01*
X181210858Y-112688914D01*
X181029429Y-112688914D01*
X180956858Y-112652629D01*
X180920572Y-112616343D01*
X181827714Y-111926914D02*
X181900286Y-111926914D01*
X181972857Y-111963200D01*
X182009143Y-111999486D01*
X182045429Y-112072057D01*
X182081714Y-112217200D01*
X182081714Y-112398629D01*
X182045429Y-112543771D01*
X182009143Y-112616343D01*
X181972857Y-112652629D01*
X181900286Y-112688914D01*
X181827714Y-112688914D01*
X181755143Y-112652629D01*
X181718857Y-112616343D01*
X181682572Y-112543771D01*
X181646286Y-112398629D01*
X181646286Y-112217200D01*
X181682572Y-112072057D01*
X181718857Y-111999486D01*
X181755143Y-111963200D01*
X181827714Y-111926914D01*
X182807428Y-112688914D02*
X182372000Y-112688914D01*
X182589714Y-112688914D02*
X182589714Y-111926914D01*
X182517143Y-112035771D01*
X182444571Y-112108343D01*
X182372000Y-112144629D01*
X134583715Y-81824286D02*
X134511143Y-81788000D01*
X134438572Y-81715429D01*
X134329715Y-81606571D01*
X134257143Y-81570286D01*
X134184572Y-81570286D01*
X134220857Y-81751714D02*
X134148286Y-81715429D01*
X134075715Y-81642857D01*
X134039429Y-81497714D01*
X134039429Y-81243714D01*
X134075715Y-81098571D01*
X134148286Y-81026000D01*
X134220857Y-80989714D01*
X134366000Y-80989714D01*
X134438572Y-81026000D01*
X134511143Y-81098571D01*
X134547429Y-81243714D01*
X134547429Y-81497714D01*
X134511143Y-81642857D01*
X134438572Y-81715429D01*
X134366000Y-81751714D01*
X134220857Y-81751714D01*
X135200572Y-81243714D02*
X135200572Y-81751714D01*
X135019143Y-80953429D02*
X134837715Y-81497714D01*
X135309429Y-81497714D01*
X135744857Y-80989714D02*
X135817429Y-80989714D01*
X135890000Y-81026000D01*
X135926286Y-81062286D01*
X135962572Y-81134857D01*
X135998857Y-81280000D01*
X135998857Y-81461429D01*
X135962572Y-81606571D01*
X135926286Y-81679143D01*
X135890000Y-81715429D01*
X135817429Y-81751714D01*
X135744857Y-81751714D01*
X135672286Y-81715429D01*
X135636000Y-81679143D01*
X135599715Y-81606571D01*
X135563429Y-81461429D01*
X135563429Y-81280000D01*
X135599715Y-81134857D01*
X135636000Y-81062286D01*
X135672286Y-81026000D01*
X135744857Y-80989714D01*
X136724571Y-81751714D02*
X136289143Y-81751714D01*
X136506857Y-81751714D02*
X136506857Y-80989714D01*
X136434286Y-81098571D01*
X136361714Y-81171143D01*
X136289143Y-81207429D01*
X134583715Y-89190286D02*
X134511143Y-89154000D01*
X134438572Y-89081429D01*
X134329715Y-88972571D01*
X134257143Y-88936286D01*
X134184572Y-88936286D01*
X134220857Y-89117714D02*
X134148286Y-89081429D01*
X134075715Y-89008857D01*
X134039429Y-88863714D01*
X134039429Y-88609714D01*
X134075715Y-88464571D01*
X134148286Y-88392000D01*
X134220857Y-88355714D01*
X134366000Y-88355714D01*
X134438572Y-88392000D01*
X134511143Y-88464571D01*
X134547429Y-88609714D01*
X134547429Y-88863714D01*
X134511143Y-89008857D01*
X134438572Y-89081429D01*
X134366000Y-89117714D01*
X134220857Y-89117714D01*
X135200572Y-88609714D02*
X135200572Y-89117714D01*
X135019143Y-88319429D02*
X134837715Y-88863714D01*
X135309429Y-88863714D01*
X135744857Y-88355714D02*
X135817429Y-88355714D01*
X135890000Y-88392000D01*
X135926286Y-88428286D01*
X135962572Y-88500857D01*
X135998857Y-88646000D01*
X135998857Y-88827429D01*
X135962572Y-88972571D01*
X135926286Y-89045143D01*
X135890000Y-89081429D01*
X135817429Y-89117714D01*
X135744857Y-89117714D01*
X135672286Y-89081429D01*
X135636000Y-89045143D01*
X135599715Y-88972571D01*
X135563429Y-88827429D01*
X135563429Y-88646000D01*
X135599715Y-88500857D01*
X135636000Y-88428286D01*
X135672286Y-88392000D01*
X135744857Y-88355714D01*
X136289143Y-88428286D02*
X136325429Y-88392000D01*
X136398000Y-88355714D01*
X136579429Y-88355714D01*
X136652000Y-88392000D01*
X136688286Y-88428286D01*
X136724571Y-88500857D01*
X136724571Y-88573429D01*
X136688286Y-88682286D01*
X136252857Y-89117714D01*
X136724571Y-89117714D01*
X118073715Y-81962086D02*
X118001143Y-81925800D01*
X117928572Y-81853229D01*
X117819715Y-81744371D01*
X117747143Y-81708086D01*
X117674572Y-81708086D01*
X117710857Y-81889514D02*
X117638286Y-81853229D01*
X117565715Y-81780657D01*
X117529429Y-81635514D01*
X117529429Y-81381514D01*
X117565715Y-81236371D01*
X117638286Y-81163800D01*
X117710857Y-81127514D01*
X117856000Y-81127514D01*
X117928572Y-81163800D01*
X118001143Y-81236371D01*
X118037429Y-81381514D01*
X118037429Y-81635514D01*
X118001143Y-81780657D01*
X117928572Y-81853229D01*
X117856000Y-81889514D01*
X117710857Y-81889514D01*
X118690572Y-81381514D02*
X118690572Y-81889514D01*
X118509143Y-81091229D02*
X118327715Y-81635514D01*
X118799429Y-81635514D01*
X119234857Y-81127514D02*
X119307429Y-81127514D01*
X119380000Y-81163800D01*
X119416286Y-81200086D01*
X119452572Y-81272657D01*
X119488857Y-81417800D01*
X119488857Y-81599229D01*
X119452572Y-81744371D01*
X119416286Y-81816943D01*
X119380000Y-81853229D01*
X119307429Y-81889514D01*
X119234857Y-81889514D01*
X119162286Y-81853229D01*
X119126000Y-81816943D01*
X119089715Y-81744371D01*
X119053429Y-81599229D01*
X119053429Y-81417800D01*
X119089715Y-81272657D01*
X119126000Y-81200086D01*
X119162286Y-81163800D01*
X119234857Y-81127514D01*
X119742857Y-81127514D02*
X120214571Y-81127514D01*
X119960571Y-81417800D01*
X120069429Y-81417800D01*
X120142000Y-81454086D01*
X120178286Y-81490371D01*
X120214571Y-81562943D01*
X120214571Y-81744371D01*
X120178286Y-81816943D01*
X120142000Y-81853229D01*
X120069429Y-81889514D01*
X119851714Y-81889514D01*
X119779143Y-81853229D01*
X119742857Y-81816943D01*
X117997515Y-96607086D02*
X117924943Y-96570800D01*
X117852372Y-96498229D01*
X117743515Y-96389371D01*
X117670943Y-96353086D01*
X117598372Y-96353086D01*
X117634657Y-96534514D02*
X117562086Y-96498229D01*
X117489515Y-96425657D01*
X117453229Y-96280514D01*
X117453229Y-96026514D01*
X117489515Y-95881371D01*
X117562086Y-95808800D01*
X117634657Y-95772514D01*
X117779800Y-95772514D01*
X117852372Y-95808800D01*
X117924943Y-95881371D01*
X117961229Y-96026514D01*
X117961229Y-96280514D01*
X117924943Y-96425657D01*
X117852372Y-96498229D01*
X117779800Y-96534514D01*
X117634657Y-96534514D01*
X118614372Y-96026514D02*
X118614372Y-96534514D01*
X118432943Y-95736229D02*
X118251515Y-96280514D01*
X118723229Y-96280514D01*
X119158657Y-95772514D02*
X119231229Y-95772514D01*
X119303800Y-95808800D01*
X119340086Y-95845086D01*
X119376372Y-95917657D01*
X119412657Y-96062800D01*
X119412657Y-96244229D01*
X119376372Y-96389371D01*
X119340086Y-96461943D01*
X119303800Y-96498229D01*
X119231229Y-96534514D01*
X119158657Y-96534514D01*
X119086086Y-96498229D01*
X119049800Y-96461943D01*
X119013515Y-96389371D01*
X118977229Y-96244229D01*
X118977229Y-96062800D01*
X119013515Y-95917657D01*
X119049800Y-95845086D01*
X119086086Y-95808800D01*
X119158657Y-95772514D01*
X120065800Y-96026514D02*
X120065800Y-96534514D01*
X119884371Y-95736229D02*
X119702943Y-96280514D01*
X120174657Y-96280514D01*
X118124515Y-103846086D02*
X118051943Y-103809800D01*
X117979372Y-103737229D01*
X117870515Y-103628371D01*
X117797943Y-103592086D01*
X117725372Y-103592086D01*
X117761657Y-103773514D02*
X117689086Y-103737229D01*
X117616515Y-103664657D01*
X117580229Y-103519514D01*
X117580229Y-103265514D01*
X117616515Y-103120371D01*
X117689086Y-103047800D01*
X117761657Y-103011514D01*
X117906800Y-103011514D01*
X117979372Y-103047800D01*
X118051943Y-103120371D01*
X118088229Y-103265514D01*
X118088229Y-103519514D01*
X118051943Y-103664657D01*
X117979372Y-103737229D01*
X117906800Y-103773514D01*
X117761657Y-103773514D01*
X118741372Y-103265514D02*
X118741372Y-103773514D01*
X118559943Y-102975229D02*
X118378515Y-103519514D01*
X118850229Y-103519514D01*
X119285657Y-103011514D02*
X119358229Y-103011514D01*
X119430800Y-103047800D01*
X119467086Y-103084086D01*
X119503372Y-103156657D01*
X119539657Y-103301800D01*
X119539657Y-103483229D01*
X119503372Y-103628371D01*
X119467086Y-103700943D01*
X119430800Y-103737229D01*
X119358229Y-103773514D01*
X119285657Y-103773514D01*
X119213086Y-103737229D01*
X119176800Y-103700943D01*
X119140515Y-103628371D01*
X119104229Y-103483229D01*
X119104229Y-103301800D01*
X119140515Y-103156657D01*
X119176800Y-103084086D01*
X119213086Y-103047800D01*
X119285657Y-103011514D01*
X120229086Y-103011514D02*
X119866229Y-103011514D01*
X119829943Y-103374371D01*
X119866229Y-103338086D01*
X119938800Y-103301800D01*
X120120229Y-103301800D01*
X120192800Y-103338086D01*
X120229086Y-103374371D01*
X120265371Y-103446943D01*
X120265371Y-103628371D01*
X120229086Y-103700943D01*
X120192800Y-103737229D01*
X120120229Y-103773514D01*
X119938800Y-103773514D01*
X119866229Y-103737229D01*
X119829943Y-103700943D01*
X117870515Y-89190286D02*
X117797943Y-89154000D01*
X117725372Y-89081429D01*
X117616515Y-88972571D01*
X117543943Y-88936286D01*
X117471372Y-88936286D01*
X117507657Y-89117714D02*
X117435086Y-89081429D01*
X117362515Y-89008857D01*
X117326229Y-88863714D01*
X117326229Y-88609714D01*
X117362515Y-88464571D01*
X117435086Y-88392000D01*
X117507657Y-88355714D01*
X117652800Y-88355714D01*
X117725372Y-88392000D01*
X117797943Y-88464571D01*
X117834229Y-88609714D01*
X117834229Y-88863714D01*
X117797943Y-89008857D01*
X117725372Y-89081429D01*
X117652800Y-89117714D01*
X117507657Y-89117714D01*
X118487372Y-88609714D02*
X118487372Y-89117714D01*
X118305943Y-88319429D02*
X118124515Y-88863714D01*
X118596229Y-88863714D01*
X119031657Y-88355714D02*
X119104229Y-88355714D01*
X119176800Y-88392000D01*
X119213086Y-88428286D01*
X119249372Y-88500857D01*
X119285657Y-88646000D01*
X119285657Y-88827429D01*
X119249372Y-88972571D01*
X119213086Y-89045143D01*
X119176800Y-89081429D01*
X119104229Y-89117714D01*
X119031657Y-89117714D01*
X118959086Y-89081429D01*
X118922800Y-89045143D01*
X118886515Y-88972571D01*
X118850229Y-88827429D01*
X118850229Y-88646000D01*
X118886515Y-88500857D01*
X118922800Y-88428286D01*
X118959086Y-88392000D01*
X119031657Y-88355714D01*
X119938800Y-88355714D02*
X119793657Y-88355714D01*
X119721086Y-88392000D01*
X119684800Y-88428286D01*
X119612229Y-88537143D01*
X119575943Y-88682286D01*
X119575943Y-88972571D01*
X119612229Y-89045143D01*
X119648514Y-89081429D01*
X119721086Y-89117714D01*
X119866229Y-89117714D01*
X119938800Y-89081429D01*
X119975086Y-89045143D01*
X120011371Y-88972571D01*
X120011371Y-88791143D01*
X119975086Y-88718571D01*
X119938800Y-88682286D01*
X119866229Y-88646000D01*
X119721086Y-88646000D01*
X119648514Y-88682286D01*
X119612229Y-88718571D01*
X119575943Y-88791143D01*
X134583715Y-96683286D02*
X134511143Y-96647000D01*
X134438572Y-96574429D01*
X134329715Y-96465571D01*
X134257143Y-96429286D01*
X134184572Y-96429286D01*
X134220857Y-96610714D02*
X134148286Y-96574429D01*
X134075715Y-96501857D01*
X134039429Y-96356714D01*
X134039429Y-96102714D01*
X134075715Y-95957571D01*
X134148286Y-95885000D01*
X134220857Y-95848714D01*
X134366000Y-95848714D01*
X134438572Y-95885000D01*
X134511143Y-95957571D01*
X134547429Y-96102714D01*
X134547429Y-96356714D01*
X134511143Y-96501857D01*
X134438572Y-96574429D01*
X134366000Y-96610714D01*
X134220857Y-96610714D01*
X135200572Y-96102714D02*
X135200572Y-96610714D01*
X135019143Y-95812429D02*
X134837715Y-96356714D01*
X135309429Y-96356714D01*
X135744857Y-95848714D02*
X135817429Y-95848714D01*
X135890000Y-95885000D01*
X135926286Y-95921286D01*
X135962572Y-95993857D01*
X135998857Y-96139000D01*
X135998857Y-96320429D01*
X135962572Y-96465571D01*
X135926286Y-96538143D01*
X135890000Y-96574429D01*
X135817429Y-96610714D01*
X135744857Y-96610714D01*
X135672286Y-96574429D01*
X135636000Y-96538143D01*
X135599715Y-96465571D01*
X135563429Y-96320429D01*
X135563429Y-96139000D01*
X135599715Y-95993857D01*
X135636000Y-95921286D01*
X135672286Y-95885000D01*
X135744857Y-95848714D01*
X136252857Y-95848714D02*
X136760857Y-95848714D01*
X136434286Y-96610714D01*
X134451715Y-104022286D02*
X134379143Y-103986000D01*
X134306572Y-103913429D01*
X134197715Y-103804571D01*
X134125143Y-103768286D01*
X134052572Y-103768286D01*
X134088857Y-103949714D02*
X134016286Y-103913429D01*
X133943715Y-103840857D01*
X133907429Y-103695714D01*
X133907429Y-103441714D01*
X133943715Y-103296571D01*
X134016286Y-103224000D01*
X134088857Y-103187714D01*
X134234000Y-103187714D01*
X134306572Y-103224000D01*
X134379143Y-103296571D01*
X134415429Y-103441714D01*
X134415429Y-103695714D01*
X134379143Y-103840857D01*
X134306572Y-103913429D01*
X134234000Y-103949714D01*
X134088857Y-103949714D01*
X135068572Y-103441714D02*
X135068572Y-103949714D01*
X134887143Y-103151429D02*
X134705715Y-103695714D01*
X135177429Y-103695714D01*
X135612857Y-103187714D02*
X135685429Y-103187714D01*
X135758000Y-103224000D01*
X135794286Y-103260286D01*
X135830572Y-103332857D01*
X135866857Y-103478000D01*
X135866857Y-103659429D01*
X135830572Y-103804571D01*
X135794286Y-103877143D01*
X135758000Y-103913429D01*
X135685429Y-103949714D01*
X135612857Y-103949714D01*
X135540286Y-103913429D01*
X135504000Y-103877143D01*
X135467715Y-103804571D01*
X135431429Y-103659429D01*
X135431429Y-103478000D01*
X135467715Y-103332857D01*
X135504000Y-103260286D01*
X135540286Y-103224000D01*
X135612857Y-103187714D01*
X136302286Y-103514286D02*
X136229714Y-103478000D01*
X136193429Y-103441714D01*
X136157143Y-103369143D01*
X136157143Y-103332857D01*
X136193429Y-103260286D01*
X136229714Y-103224000D01*
X136302286Y-103187714D01*
X136447429Y-103187714D01*
X136520000Y-103224000D01*
X136556286Y-103260286D01*
X136592571Y-103332857D01*
X136592571Y-103369143D01*
X136556286Y-103441714D01*
X136520000Y-103478000D01*
X136447429Y-103514286D01*
X136302286Y-103514286D01*
X136229714Y-103550571D01*
X136193429Y-103586857D01*
X136157143Y-103659429D01*
X136157143Y-103804571D01*
X136193429Y-103877143D01*
X136229714Y-103913429D01*
X136302286Y-103949714D01*
X136447429Y-103949714D01*
X136520000Y-103913429D01*
X136556286Y-103877143D01*
X136592571Y-103804571D01*
X136592571Y-103659429D01*
X136556286Y-103586857D01*
X136520000Y-103550571D01*
X136447429Y-103514286D01*
X144896114Y-85612514D02*
X144533257Y-85866514D01*
X144896114Y-86047942D02*
X144134114Y-86047942D01*
X144134114Y-85757657D01*
X144170400Y-85685085D01*
X144206686Y-85648800D01*
X144279257Y-85612514D01*
X144388114Y-85612514D01*
X144460686Y-85648800D01*
X144496971Y-85685085D01*
X144533257Y-85757657D01*
X144533257Y-86047942D01*
X144206686Y-85322228D02*
X144170400Y-85285942D01*
X144134114Y-85213371D01*
X144134114Y-85031942D01*
X144170400Y-84959371D01*
X144206686Y-84923085D01*
X144279257Y-84886800D01*
X144351829Y-84886800D01*
X144460686Y-84923085D01*
X144896114Y-85358514D01*
X144896114Y-84886800D01*
X144134114Y-84415086D02*
X144134114Y-84342514D01*
X144170400Y-84269943D01*
X144206686Y-84233657D01*
X144279257Y-84197371D01*
X144424400Y-84161086D01*
X144605829Y-84161086D01*
X144750971Y-84197371D01*
X144823543Y-84233657D01*
X144859829Y-84269943D01*
X144896114Y-84342514D01*
X144896114Y-84415086D01*
X144859829Y-84487657D01*
X144823543Y-84523943D01*
X144750971Y-84560228D01*
X144605829Y-84596514D01*
X144424400Y-84596514D01*
X144279257Y-84560228D01*
X144206686Y-84523943D01*
X144170400Y-84487657D01*
X144134114Y-84415086D01*
X144896114Y-83435372D02*
X144896114Y-83870800D01*
X144896114Y-83653086D02*
X144134114Y-83653086D01*
X144242971Y-83725657D01*
X144315543Y-83798229D01*
X144351829Y-83870800D01*
X130646714Y-79973714D02*
X130283857Y-80227714D01*
X130646714Y-80409142D02*
X129884714Y-80409142D01*
X129884714Y-80118857D01*
X129921000Y-80046285D01*
X129957286Y-80010000D01*
X130029857Y-79973714D01*
X130138714Y-79973714D01*
X130211286Y-80010000D01*
X130247571Y-80046285D01*
X130283857Y-80118857D01*
X130283857Y-80409142D01*
X130138714Y-79320571D02*
X130646714Y-79320571D01*
X129848429Y-79502000D02*
X130392714Y-79683428D01*
X130392714Y-79211714D01*
X129884714Y-78776286D02*
X129884714Y-78703714D01*
X129921000Y-78631143D01*
X129957286Y-78594857D01*
X130029857Y-78558571D01*
X130175000Y-78522286D01*
X130356429Y-78522286D01*
X130501571Y-78558571D01*
X130574143Y-78594857D01*
X130610429Y-78631143D01*
X130646714Y-78703714D01*
X130646714Y-78776286D01*
X130610429Y-78848857D01*
X130574143Y-78885143D01*
X130501571Y-78921428D01*
X130356429Y-78957714D01*
X130175000Y-78957714D01*
X130029857Y-78921428D01*
X129957286Y-78885143D01*
X129921000Y-78848857D01*
X129884714Y-78776286D01*
X130646714Y-77796572D02*
X130646714Y-78232000D01*
X130646714Y-78014286D02*
X129884714Y-78014286D01*
X129993571Y-78086857D01*
X130066143Y-78159429D01*
X130102429Y-78232000D01*
X141060714Y-79846714D02*
X140697857Y-80100714D01*
X141060714Y-80282142D02*
X140298714Y-80282142D01*
X140298714Y-79991857D01*
X140335000Y-79919285D01*
X140371286Y-79883000D01*
X140443857Y-79846714D01*
X140552714Y-79846714D01*
X140625286Y-79883000D01*
X140661571Y-79919285D01*
X140697857Y-79991857D01*
X140697857Y-80282142D01*
X140552714Y-79193571D02*
X141060714Y-79193571D01*
X140262429Y-79375000D02*
X140806714Y-79556428D01*
X140806714Y-79084714D01*
X140298714Y-78649286D02*
X140298714Y-78576714D01*
X140335000Y-78504143D01*
X140371286Y-78467857D01*
X140443857Y-78431571D01*
X140589000Y-78395286D01*
X140770429Y-78395286D01*
X140915571Y-78431571D01*
X140988143Y-78467857D01*
X141024429Y-78504143D01*
X141060714Y-78576714D01*
X141060714Y-78649286D01*
X141024429Y-78721857D01*
X140988143Y-78758143D01*
X140915571Y-78794428D01*
X140770429Y-78830714D01*
X140589000Y-78830714D01*
X140443857Y-78794428D01*
X140371286Y-78758143D01*
X140335000Y-78721857D01*
X140298714Y-78649286D01*
X140371286Y-78105000D02*
X140335000Y-78068714D01*
X140298714Y-77996143D01*
X140298714Y-77814714D01*
X140335000Y-77742143D01*
X140371286Y-77705857D01*
X140443857Y-77669572D01*
X140516429Y-77669572D01*
X140625286Y-77705857D01*
X141060714Y-78141286D01*
X141060714Y-77669572D01*
X130646714Y-87212714D02*
X130283857Y-87466714D01*
X130646714Y-87648142D02*
X129884714Y-87648142D01*
X129884714Y-87357857D01*
X129921000Y-87285285D01*
X129957286Y-87249000D01*
X130029857Y-87212714D01*
X130138714Y-87212714D01*
X130211286Y-87249000D01*
X130247571Y-87285285D01*
X130283857Y-87357857D01*
X130283857Y-87648142D01*
X130138714Y-86559571D02*
X130646714Y-86559571D01*
X129848429Y-86741000D02*
X130392714Y-86922428D01*
X130392714Y-86450714D01*
X129884714Y-86015286D02*
X129884714Y-85942714D01*
X129921000Y-85870143D01*
X129957286Y-85833857D01*
X130029857Y-85797571D01*
X130175000Y-85761286D01*
X130356429Y-85761286D01*
X130501571Y-85797571D01*
X130574143Y-85833857D01*
X130610429Y-85870143D01*
X130646714Y-85942714D01*
X130646714Y-86015286D01*
X130610429Y-86087857D01*
X130574143Y-86124143D01*
X130501571Y-86160428D01*
X130356429Y-86196714D01*
X130175000Y-86196714D01*
X130029857Y-86160428D01*
X129957286Y-86124143D01*
X129921000Y-86087857D01*
X129884714Y-86015286D01*
X129884714Y-85507286D02*
X129884714Y-85035572D01*
X130175000Y-85289572D01*
X130175000Y-85180714D01*
X130211286Y-85108143D01*
X130247571Y-85071857D01*
X130320143Y-85035572D01*
X130501571Y-85035572D01*
X130574143Y-85071857D01*
X130610429Y-85108143D01*
X130646714Y-85180714D01*
X130646714Y-85398429D01*
X130610429Y-85471000D01*
X130574143Y-85507286D01*
X140933714Y-87085714D02*
X140570857Y-87339714D01*
X140933714Y-87521142D02*
X140171714Y-87521142D01*
X140171714Y-87230857D01*
X140208000Y-87158285D01*
X140244286Y-87122000D01*
X140316857Y-87085714D01*
X140425714Y-87085714D01*
X140498286Y-87122000D01*
X140534571Y-87158285D01*
X140570857Y-87230857D01*
X140570857Y-87521142D01*
X140425714Y-86432571D02*
X140933714Y-86432571D01*
X140135429Y-86614000D02*
X140679714Y-86795428D01*
X140679714Y-86323714D01*
X140171714Y-85888286D02*
X140171714Y-85815714D01*
X140208000Y-85743143D01*
X140244286Y-85706857D01*
X140316857Y-85670571D01*
X140462000Y-85634286D01*
X140643429Y-85634286D01*
X140788571Y-85670571D01*
X140861143Y-85706857D01*
X140897429Y-85743143D01*
X140933714Y-85815714D01*
X140933714Y-85888286D01*
X140897429Y-85960857D01*
X140861143Y-85997143D01*
X140788571Y-86033428D01*
X140643429Y-86069714D01*
X140462000Y-86069714D01*
X140316857Y-86033428D01*
X140244286Y-85997143D01*
X140208000Y-85960857D01*
X140171714Y-85888286D01*
X140425714Y-84981143D02*
X140933714Y-84981143D01*
X140135429Y-85162572D02*
X140679714Y-85344000D01*
X140679714Y-84872286D01*
X121918818Y-79782343D02*
X121555961Y-80036343D01*
X121918818Y-80217771D02*
X121156818Y-80217771D01*
X121156818Y-79927486D01*
X121193104Y-79854914D01*
X121229390Y-79818629D01*
X121301961Y-79782343D01*
X121410818Y-79782343D01*
X121483390Y-79818629D01*
X121519675Y-79854914D01*
X121555961Y-79927486D01*
X121555961Y-80217771D01*
X121410818Y-79129200D02*
X121918818Y-79129200D01*
X121120533Y-79310629D02*
X121664818Y-79492057D01*
X121664818Y-79020343D01*
X121156818Y-78584915D02*
X121156818Y-78512343D01*
X121193104Y-78439772D01*
X121229390Y-78403486D01*
X121301961Y-78367200D01*
X121447104Y-78330915D01*
X121628533Y-78330915D01*
X121773675Y-78367200D01*
X121846247Y-78403486D01*
X121882533Y-78439772D01*
X121918818Y-78512343D01*
X121918818Y-78584915D01*
X121882533Y-78657486D01*
X121846247Y-78693772D01*
X121773675Y-78730057D01*
X121628533Y-78766343D01*
X121447104Y-78766343D01*
X121301961Y-78730057D01*
X121229390Y-78693772D01*
X121193104Y-78657486D01*
X121156818Y-78584915D01*
X121156818Y-77641486D02*
X121156818Y-78004343D01*
X121519675Y-78040629D01*
X121483390Y-78004343D01*
X121447104Y-77931772D01*
X121447104Y-77750343D01*
X121483390Y-77677772D01*
X121519675Y-77641486D01*
X121592247Y-77605201D01*
X121773675Y-77605201D01*
X121846247Y-77641486D01*
X121882533Y-77677772D01*
X121918818Y-77750343D01*
X121918818Y-77931772D01*
X121882533Y-78004343D01*
X121846247Y-78040629D01*
X114289114Y-79897514D02*
X113926257Y-80151514D01*
X114289114Y-80332942D02*
X113527114Y-80332942D01*
X113527114Y-80042657D01*
X113563400Y-79970085D01*
X113599686Y-79933800D01*
X113672257Y-79897514D01*
X113781114Y-79897514D01*
X113853686Y-79933800D01*
X113889971Y-79970085D01*
X113926257Y-80042657D01*
X113926257Y-80332942D01*
X113781114Y-79244371D02*
X114289114Y-79244371D01*
X113490829Y-79425800D02*
X114035114Y-79607228D01*
X114035114Y-79135514D01*
X113527114Y-78700086D02*
X113527114Y-78627514D01*
X113563400Y-78554943D01*
X113599686Y-78518657D01*
X113672257Y-78482371D01*
X113817400Y-78446086D01*
X113998829Y-78446086D01*
X114143971Y-78482371D01*
X114216543Y-78518657D01*
X114252829Y-78554943D01*
X114289114Y-78627514D01*
X114289114Y-78700086D01*
X114252829Y-78772657D01*
X114216543Y-78808943D01*
X114143971Y-78845228D01*
X113998829Y-78881514D01*
X113817400Y-78881514D01*
X113672257Y-78845228D01*
X113599686Y-78808943D01*
X113563400Y-78772657D01*
X113527114Y-78700086D01*
X113527114Y-77792943D02*
X113527114Y-77938086D01*
X113563400Y-78010657D01*
X113599686Y-78046943D01*
X113708543Y-78119514D01*
X113853686Y-78155800D01*
X114143971Y-78155800D01*
X114216543Y-78119514D01*
X114252829Y-78083229D01*
X114289114Y-78010657D01*
X114289114Y-77865514D01*
X114252829Y-77792943D01*
X114216543Y-77756657D01*
X114143971Y-77720372D01*
X113962543Y-77720372D01*
X113889971Y-77756657D01*
X113853686Y-77792943D01*
X113817400Y-77865514D01*
X113817400Y-78010657D01*
X113853686Y-78083229D01*
X113889971Y-78119514D01*
X113962543Y-78155800D01*
X121766419Y-94603245D02*
X121403562Y-94857245D01*
X121766419Y-95038673D02*
X121004419Y-95038673D01*
X121004419Y-94748388D01*
X121040705Y-94675816D01*
X121076991Y-94639531D01*
X121149562Y-94603245D01*
X121258419Y-94603245D01*
X121330991Y-94639531D01*
X121367276Y-94675816D01*
X121403562Y-94748388D01*
X121403562Y-95038673D01*
X121258419Y-93950102D02*
X121766419Y-93950102D01*
X120968134Y-94131531D02*
X121512419Y-94312959D01*
X121512419Y-93841245D01*
X121004419Y-93405817D02*
X121004419Y-93333245D01*
X121040705Y-93260674D01*
X121076991Y-93224388D01*
X121149562Y-93188102D01*
X121294705Y-93151817D01*
X121476134Y-93151817D01*
X121621276Y-93188102D01*
X121693848Y-93224388D01*
X121730134Y-93260674D01*
X121766419Y-93333245D01*
X121766419Y-93405817D01*
X121730134Y-93478388D01*
X121693848Y-93514674D01*
X121621276Y-93550959D01*
X121476134Y-93587245D01*
X121294705Y-93587245D01*
X121149562Y-93550959D01*
X121076991Y-93514674D01*
X121040705Y-93478388D01*
X121004419Y-93405817D01*
X121004419Y-92897817D02*
X121004419Y-92389817D01*
X121766419Y-92716388D01*
X117245217Y-94552444D02*
X116882360Y-94806444D01*
X117245217Y-94987872D02*
X116483217Y-94987872D01*
X116483217Y-94697587D01*
X116519503Y-94625015D01*
X116555789Y-94588730D01*
X116628360Y-94552444D01*
X116737217Y-94552444D01*
X116809789Y-94588730D01*
X116846074Y-94625015D01*
X116882360Y-94697587D01*
X116882360Y-94987872D01*
X116737217Y-93899301D02*
X117245217Y-93899301D01*
X116446932Y-94080730D02*
X116991217Y-94262158D01*
X116991217Y-93790444D01*
X116483217Y-93355016D02*
X116483217Y-93282444D01*
X116519503Y-93209873D01*
X116555789Y-93173587D01*
X116628360Y-93137301D01*
X116773503Y-93101016D01*
X116954932Y-93101016D01*
X117100074Y-93137301D01*
X117172646Y-93173587D01*
X117208932Y-93209873D01*
X117245217Y-93282444D01*
X117245217Y-93355016D01*
X117208932Y-93427587D01*
X117172646Y-93463873D01*
X117100074Y-93500158D01*
X116954932Y-93536444D01*
X116773503Y-93536444D01*
X116628360Y-93500158D01*
X116555789Y-93463873D01*
X116519503Y-93427587D01*
X116483217Y-93355016D01*
X116809789Y-92665587D02*
X116773503Y-92738159D01*
X116737217Y-92774444D01*
X116664646Y-92810730D01*
X116628360Y-92810730D01*
X116555789Y-92774444D01*
X116519503Y-92738159D01*
X116483217Y-92665587D01*
X116483217Y-92520444D01*
X116519503Y-92447873D01*
X116555789Y-92411587D01*
X116628360Y-92375302D01*
X116664646Y-92375302D01*
X116737217Y-92411587D01*
X116773503Y-92447873D01*
X116809789Y-92520444D01*
X116809789Y-92665587D01*
X116846074Y-92738159D01*
X116882360Y-92774444D01*
X116954932Y-92810730D01*
X117100074Y-92810730D01*
X117172646Y-92774444D01*
X117208932Y-92738159D01*
X117245217Y-92665587D01*
X117245217Y-92520444D01*
X117208932Y-92447873D01*
X117172646Y-92411587D01*
X117100074Y-92375302D01*
X116954932Y-92375302D01*
X116882360Y-92411587D01*
X116846074Y-92447873D01*
X116809789Y-92520444D01*
X125160314Y-102020914D02*
X124797457Y-102274914D01*
X125160314Y-102456342D02*
X124398314Y-102456342D01*
X124398314Y-102166057D01*
X124434600Y-102093485D01*
X124470886Y-102057200D01*
X124543457Y-102020914D01*
X124652314Y-102020914D01*
X124724886Y-102057200D01*
X124761171Y-102093485D01*
X124797457Y-102166057D01*
X124797457Y-102456342D01*
X124652314Y-101367771D02*
X125160314Y-101367771D01*
X124362029Y-101549200D02*
X124906314Y-101730628D01*
X124906314Y-101258914D01*
X124398314Y-100823486D02*
X124398314Y-100750914D01*
X124434600Y-100678343D01*
X124470886Y-100642057D01*
X124543457Y-100605771D01*
X124688600Y-100569486D01*
X124870029Y-100569486D01*
X125015171Y-100605771D01*
X125087743Y-100642057D01*
X125124029Y-100678343D01*
X125160314Y-100750914D01*
X125160314Y-100823486D01*
X125124029Y-100896057D01*
X125087743Y-100932343D01*
X125015171Y-100968628D01*
X124870029Y-101004914D01*
X124688600Y-101004914D01*
X124543457Y-100968628D01*
X124470886Y-100932343D01*
X124434600Y-100896057D01*
X124398314Y-100823486D01*
X125160314Y-100206629D02*
X125160314Y-100061486D01*
X125124029Y-99988914D01*
X125087743Y-99952629D01*
X124978886Y-99880057D01*
X124833743Y-99843772D01*
X124543457Y-99843772D01*
X124470886Y-99880057D01*
X124434600Y-99916343D01*
X124398314Y-99988914D01*
X124398314Y-100134057D01*
X124434600Y-100206629D01*
X124470886Y-100242914D01*
X124543457Y-100279200D01*
X124724886Y-100279200D01*
X124797457Y-100242914D01*
X124833743Y-100206629D01*
X124870029Y-100134057D01*
X124870029Y-99988914D01*
X124833743Y-99916343D01*
X124797457Y-99880057D01*
X124724886Y-99843772D01*
X117368639Y-101958316D02*
X117005782Y-102212316D01*
X117368639Y-102393744D02*
X116606639Y-102393744D01*
X116606639Y-102103459D01*
X116642925Y-102030887D01*
X116679211Y-101994602D01*
X116751782Y-101958316D01*
X116860639Y-101958316D01*
X116933211Y-101994602D01*
X116969496Y-102030887D01*
X117005782Y-102103459D01*
X117005782Y-102393744D01*
X116860639Y-101305173D02*
X117368639Y-101305173D01*
X116570354Y-101486602D02*
X117114639Y-101668030D01*
X117114639Y-101196316D01*
X117368639Y-100506888D02*
X117368639Y-100942316D01*
X117368639Y-100724602D02*
X116606639Y-100724602D01*
X116715496Y-100797173D01*
X116788068Y-100869745D01*
X116824354Y-100942316D01*
X116606639Y-100035174D02*
X116606639Y-99962602D01*
X116642925Y-99890031D01*
X116679211Y-99853745D01*
X116751782Y-99817459D01*
X116896925Y-99781174D01*
X117078354Y-99781174D01*
X117223496Y-99817459D01*
X117296068Y-99853745D01*
X117332354Y-99890031D01*
X117368639Y-99962602D01*
X117368639Y-100035174D01*
X117332354Y-100107745D01*
X117296068Y-100144031D01*
X117223496Y-100180316D01*
X117078354Y-100216602D01*
X116896925Y-100216602D01*
X116751782Y-100180316D01*
X116679211Y-100144031D01*
X116642925Y-100107745D01*
X116606639Y-100035174D01*
X121842617Y-87034043D02*
X121479760Y-87288043D01*
X121842617Y-87469471D02*
X121080617Y-87469471D01*
X121080617Y-87179186D01*
X121116903Y-87106614D01*
X121153189Y-87070329D01*
X121225760Y-87034043D01*
X121334617Y-87034043D01*
X121407189Y-87070329D01*
X121443474Y-87106614D01*
X121479760Y-87179186D01*
X121479760Y-87469471D01*
X121334617Y-86380900D02*
X121842617Y-86380900D01*
X121044332Y-86562329D02*
X121588617Y-86743757D01*
X121588617Y-86272043D01*
X121842617Y-85582615D02*
X121842617Y-86018043D01*
X121842617Y-85800329D02*
X121080617Y-85800329D01*
X121189474Y-85872900D01*
X121262046Y-85945472D01*
X121298332Y-86018043D01*
X121842617Y-84856901D02*
X121842617Y-85292329D01*
X121842617Y-85074615D02*
X121080617Y-85074615D01*
X121189474Y-85147186D01*
X121262046Y-85219758D01*
X121298332Y-85292329D01*
X114187514Y-87161914D02*
X113824657Y-87415914D01*
X114187514Y-87597342D02*
X113425514Y-87597342D01*
X113425514Y-87307057D01*
X113461800Y-87234485D01*
X113498086Y-87198200D01*
X113570657Y-87161914D01*
X113679514Y-87161914D01*
X113752086Y-87198200D01*
X113788371Y-87234485D01*
X113824657Y-87307057D01*
X113824657Y-87597342D01*
X113679514Y-86508771D02*
X114187514Y-86508771D01*
X113389229Y-86690200D02*
X113933514Y-86871628D01*
X113933514Y-86399914D01*
X114187514Y-85710486D02*
X114187514Y-86145914D01*
X114187514Y-85928200D02*
X113425514Y-85928200D01*
X113534371Y-86000771D01*
X113606943Y-86073343D01*
X113643229Y-86145914D01*
X113498086Y-85420200D02*
X113461800Y-85383914D01*
X113425514Y-85311343D01*
X113425514Y-85129914D01*
X113461800Y-85057343D01*
X113498086Y-85021057D01*
X113570657Y-84984772D01*
X113643229Y-84984772D01*
X113752086Y-85021057D01*
X114187514Y-85456486D01*
X114187514Y-84984772D01*
X130646714Y-94578714D02*
X130283857Y-94832714D01*
X130646714Y-95014142D02*
X129884714Y-95014142D01*
X129884714Y-94723857D01*
X129921000Y-94651285D01*
X129957286Y-94615000D01*
X130029857Y-94578714D01*
X130138714Y-94578714D01*
X130211286Y-94615000D01*
X130247571Y-94651285D01*
X130283857Y-94723857D01*
X130283857Y-95014142D01*
X130138714Y-93925571D02*
X130646714Y-93925571D01*
X129848429Y-94107000D02*
X130392714Y-94288428D01*
X130392714Y-93816714D01*
X130646714Y-93127286D02*
X130646714Y-93562714D01*
X130646714Y-93345000D02*
X129884714Y-93345000D01*
X129993571Y-93417571D01*
X130066143Y-93490143D01*
X130102429Y-93562714D01*
X129884714Y-92873286D02*
X129884714Y-92401572D01*
X130175000Y-92655572D01*
X130175000Y-92546714D01*
X130211286Y-92474143D01*
X130247571Y-92437857D01*
X130320143Y-92401572D01*
X130501571Y-92401572D01*
X130574143Y-92437857D01*
X130610429Y-92474143D01*
X130646714Y-92546714D01*
X130646714Y-92764429D01*
X130610429Y-92837000D01*
X130574143Y-92873286D01*
X141060714Y-94705714D02*
X140697857Y-94959714D01*
X141060714Y-95141142D02*
X140298714Y-95141142D01*
X140298714Y-94850857D01*
X140335000Y-94778285D01*
X140371286Y-94742000D01*
X140443857Y-94705714D01*
X140552714Y-94705714D01*
X140625286Y-94742000D01*
X140661571Y-94778285D01*
X140697857Y-94850857D01*
X140697857Y-95141142D01*
X140552714Y-94052571D02*
X141060714Y-94052571D01*
X140262429Y-94234000D02*
X140806714Y-94415428D01*
X140806714Y-93943714D01*
X141060714Y-93254286D02*
X141060714Y-93689714D01*
X141060714Y-93472000D02*
X140298714Y-93472000D01*
X140407571Y-93544571D01*
X140480143Y-93617143D01*
X140516429Y-93689714D01*
X140552714Y-92601143D02*
X141060714Y-92601143D01*
X140262429Y-92782572D02*
X140806714Y-92964000D01*
X140806714Y-92492286D01*
X130392714Y-101944714D02*
X130029857Y-102198714D01*
X130392714Y-102380142D02*
X129630714Y-102380142D01*
X129630714Y-102089857D01*
X129667000Y-102017285D01*
X129703286Y-101981000D01*
X129775857Y-101944714D01*
X129884714Y-101944714D01*
X129957286Y-101981000D01*
X129993571Y-102017285D01*
X130029857Y-102089857D01*
X130029857Y-102380142D01*
X129884714Y-101291571D02*
X130392714Y-101291571D01*
X129594429Y-101473000D02*
X130138714Y-101654428D01*
X130138714Y-101182714D01*
X130392714Y-100493286D02*
X130392714Y-100928714D01*
X130392714Y-100711000D02*
X129630714Y-100711000D01*
X129739571Y-100783571D01*
X129812143Y-100856143D01*
X129848429Y-100928714D01*
X129630714Y-99803857D02*
X129630714Y-100166714D01*
X129993571Y-100203000D01*
X129957286Y-100166714D01*
X129921000Y-100094143D01*
X129921000Y-99912714D01*
X129957286Y-99840143D01*
X129993571Y-99803857D01*
X130066143Y-99767572D01*
X130247571Y-99767572D01*
X130320143Y-99803857D01*
X130356429Y-99840143D01*
X130392714Y-99912714D01*
X130392714Y-100094143D01*
X130356429Y-100166714D01*
X130320143Y-100203000D01*
X140679714Y-101563714D02*
X140316857Y-101817714D01*
X140679714Y-101999142D02*
X139917714Y-101999142D01*
X139917714Y-101708857D01*
X139954000Y-101636285D01*
X139990286Y-101600000D01*
X140062857Y-101563714D01*
X140171714Y-101563714D01*
X140244286Y-101600000D01*
X140280571Y-101636285D01*
X140316857Y-101708857D01*
X140316857Y-101999142D01*
X140171714Y-100910571D02*
X140679714Y-100910571D01*
X139881429Y-101092000D02*
X140425714Y-101273428D01*
X140425714Y-100801714D01*
X140679714Y-100112286D02*
X140679714Y-100547714D01*
X140679714Y-100330000D02*
X139917714Y-100330000D01*
X140026571Y-100402571D01*
X140099143Y-100475143D01*
X140135429Y-100547714D01*
X139917714Y-99459143D02*
X139917714Y-99604286D01*
X139954000Y-99676857D01*
X139990286Y-99713143D01*
X140099143Y-99785714D01*
X140244286Y-99822000D01*
X140534571Y-99822000D01*
X140607143Y-99785714D01*
X140643429Y-99749429D01*
X140679714Y-99676857D01*
X140679714Y-99531714D01*
X140643429Y-99459143D01*
X140607143Y-99422857D01*
X140534571Y-99386572D01*
X140353143Y-99386572D01*
X140280571Y-99422857D01*
X140244286Y-99459143D01*
X140208000Y-99531714D01*
X140208000Y-99676857D01*
X140244286Y-99749429D01*
X140280571Y-99785714D01*
X140353143Y-99822000D01*
X176823914Y-77662314D02*
X176461057Y-77916314D01*
X176823914Y-78097742D02*
X176061914Y-78097742D01*
X176061914Y-77807457D01*
X176098200Y-77734885D01*
X176134486Y-77698600D01*
X176207057Y-77662314D01*
X176315914Y-77662314D01*
X176388486Y-77698600D01*
X176424771Y-77734885D01*
X176461057Y-77807457D01*
X176461057Y-78097742D01*
X176061914Y-76972885D02*
X176061914Y-77335742D01*
X176424771Y-77372028D01*
X176388486Y-77335742D01*
X176352200Y-77263171D01*
X176352200Y-77081742D01*
X176388486Y-77009171D01*
X176424771Y-76972885D01*
X176497343Y-76936600D01*
X176678771Y-76936600D01*
X176751343Y-76972885D01*
X176787629Y-77009171D01*
X176823914Y-77081742D01*
X176823914Y-77263171D01*
X176787629Y-77335742D01*
X176751343Y-77372028D01*
X176061914Y-76464886D02*
X176061914Y-76392314D01*
X176098200Y-76319743D01*
X176134486Y-76283457D01*
X176207057Y-76247171D01*
X176352200Y-76210886D01*
X176533629Y-76210886D01*
X176678771Y-76247171D01*
X176751343Y-76283457D01*
X176787629Y-76319743D01*
X176823914Y-76392314D01*
X176823914Y-76464886D01*
X176787629Y-76537457D01*
X176751343Y-76573743D01*
X176678771Y-76610028D01*
X176533629Y-76646314D01*
X176352200Y-76646314D01*
X176207057Y-76610028D01*
X176134486Y-76573743D01*
X176098200Y-76537457D01*
X176061914Y-76464886D01*
X176823914Y-75485172D02*
X176823914Y-75920600D01*
X176823914Y-75702886D02*
X176061914Y-75702886D01*
X176170771Y-75775457D01*
X176243343Y-75848029D01*
X176279629Y-75920600D01*
X162132287Y-97930429D02*
X162241144Y-97966714D01*
X162422573Y-97966714D01*
X162495144Y-97930429D01*
X162531430Y-97894143D01*
X162567715Y-97821571D01*
X162567715Y-97749000D01*
X162531430Y-97676429D01*
X162495144Y-97640143D01*
X162422573Y-97603857D01*
X162277430Y-97567571D01*
X162204858Y-97531286D01*
X162168573Y-97495000D01*
X162132287Y-97422429D01*
X162132287Y-97349857D01*
X162168573Y-97277286D01*
X162204858Y-97241000D01*
X162277430Y-97204714D01*
X162458858Y-97204714D01*
X162567715Y-97241000D01*
X162821715Y-97204714D02*
X163003144Y-97966714D01*
X163148287Y-97422429D01*
X163293429Y-97966714D01*
X163474858Y-97204714D01*
X164128001Y-97204714D02*
X163765144Y-97204714D01*
X163728858Y-97567571D01*
X163765144Y-97531286D01*
X163837715Y-97495000D01*
X164019144Y-97495000D01*
X164091715Y-97531286D01*
X164128001Y-97567571D01*
X164164286Y-97640143D01*
X164164286Y-97821571D01*
X164128001Y-97894143D01*
X164091715Y-97930429D01*
X164019144Y-97966714D01*
X163837715Y-97966714D01*
X163765144Y-97930429D01*
X163728858Y-97894143D01*
X164636000Y-97204714D02*
X164708572Y-97204714D01*
X164781143Y-97241000D01*
X164817429Y-97277286D01*
X164853715Y-97349857D01*
X164890000Y-97495000D01*
X164890000Y-97676429D01*
X164853715Y-97821571D01*
X164817429Y-97894143D01*
X164781143Y-97930429D01*
X164708572Y-97966714D01*
X164636000Y-97966714D01*
X164563429Y-97930429D01*
X164527143Y-97894143D01*
X164490858Y-97821571D01*
X164454572Y-97676429D01*
X164454572Y-97495000D01*
X164490858Y-97349857D01*
X164527143Y-97277286D01*
X164563429Y-97241000D01*
X164636000Y-97204714D01*
X165579429Y-97204714D02*
X165216572Y-97204714D01*
X165180286Y-97567571D01*
X165216572Y-97531286D01*
X165289143Y-97495000D01*
X165470572Y-97495000D01*
X165543143Y-97531286D01*
X165579429Y-97567571D01*
X165615714Y-97640143D01*
X165615714Y-97821571D01*
X165579429Y-97894143D01*
X165543143Y-97930429D01*
X165470572Y-97966714D01*
X165289143Y-97966714D01*
X165216572Y-97930429D01*
X165180286Y-97894143D01*
X162139087Y-88573429D02*
X162247944Y-88609714D01*
X162429373Y-88609714D01*
X162501944Y-88573429D01*
X162538230Y-88537143D01*
X162574515Y-88464571D01*
X162574515Y-88392000D01*
X162538230Y-88319429D01*
X162501944Y-88283143D01*
X162429373Y-88246857D01*
X162284230Y-88210571D01*
X162211658Y-88174286D01*
X162175373Y-88138000D01*
X162139087Y-88065429D01*
X162139087Y-87992857D01*
X162175373Y-87920286D01*
X162211658Y-87884000D01*
X162284230Y-87847714D01*
X162465658Y-87847714D01*
X162574515Y-87884000D01*
X162828515Y-87847714D02*
X163009944Y-88609714D01*
X163155087Y-88065429D01*
X163300229Y-88609714D01*
X163481658Y-87847714D01*
X164134801Y-87847714D02*
X163771944Y-87847714D01*
X163735658Y-88210571D01*
X163771944Y-88174286D01*
X163844515Y-88138000D01*
X164025944Y-88138000D01*
X164098515Y-88174286D01*
X164134801Y-88210571D01*
X164171086Y-88283143D01*
X164171086Y-88464571D01*
X164134801Y-88537143D01*
X164098515Y-88573429D01*
X164025944Y-88609714D01*
X163844515Y-88609714D01*
X163771944Y-88573429D01*
X163735658Y-88537143D01*
X164642800Y-87847714D02*
X164715372Y-87847714D01*
X164787943Y-87884000D01*
X164824229Y-87920286D01*
X164860515Y-87992857D01*
X164896800Y-88138000D01*
X164896800Y-88319429D01*
X164860515Y-88464571D01*
X164824229Y-88537143D01*
X164787943Y-88573429D01*
X164715372Y-88609714D01*
X164642800Y-88609714D01*
X164570229Y-88573429D01*
X164533943Y-88537143D01*
X164497658Y-88464571D01*
X164461372Y-88319429D01*
X164461372Y-88138000D01*
X164497658Y-87992857D01*
X164533943Y-87920286D01*
X164570229Y-87884000D01*
X164642800Y-87847714D01*
X165150800Y-87847714D02*
X165658800Y-87847714D01*
X165332229Y-88609714D01*
X159751487Y-77829229D02*
X159860344Y-77865514D01*
X160041773Y-77865514D01*
X160114344Y-77829229D01*
X160150630Y-77792943D01*
X160186915Y-77720371D01*
X160186915Y-77647800D01*
X160150630Y-77575229D01*
X160114344Y-77538943D01*
X160041773Y-77502657D01*
X159896630Y-77466371D01*
X159824058Y-77430086D01*
X159787773Y-77393800D01*
X159751487Y-77321229D01*
X159751487Y-77248657D01*
X159787773Y-77176086D01*
X159824058Y-77139800D01*
X159896630Y-77103514D01*
X160078058Y-77103514D01*
X160186915Y-77139800D01*
X160440915Y-77103514D02*
X160622344Y-77865514D01*
X160767487Y-77321229D01*
X160912629Y-77865514D01*
X161094058Y-77103514D01*
X161747201Y-77103514D02*
X161384344Y-77103514D01*
X161348058Y-77466371D01*
X161384344Y-77430086D01*
X161456915Y-77393800D01*
X161638344Y-77393800D01*
X161710915Y-77430086D01*
X161747201Y-77466371D01*
X161783486Y-77538943D01*
X161783486Y-77720371D01*
X161747201Y-77792943D01*
X161710915Y-77829229D01*
X161638344Y-77865514D01*
X161456915Y-77865514D01*
X161384344Y-77829229D01*
X161348058Y-77792943D01*
X162255200Y-77103514D02*
X162327772Y-77103514D01*
X162400343Y-77139800D01*
X162436629Y-77176086D01*
X162472915Y-77248657D01*
X162509200Y-77393800D01*
X162509200Y-77575229D01*
X162472915Y-77720371D01*
X162436629Y-77792943D01*
X162400343Y-77829229D01*
X162327772Y-77865514D01*
X162255200Y-77865514D01*
X162182629Y-77829229D01*
X162146343Y-77792943D01*
X162110058Y-77720371D01*
X162073772Y-77575229D01*
X162073772Y-77393800D01*
X162110058Y-77248657D01*
X162146343Y-77176086D01*
X162182629Y-77139800D01*
X162255200Y-77103514D01*
X162944629Y-77430086D02*
X162872057Y-77393800D01*
X162835772Y-77357514D01*
X162799486Y-77284943D01*
X162799486Y-77248657D01*
X162835772Y-77176086D01*
X162872057Y-77139800D01*
X162944629Y-77103514D01*
X163089772Y-77103514D01*
X163162343Y-77139800D01*
X163198629Y-77176086D01*
X163234914Y-77248657D01*
X163234914Y-77284943D01*
X163198629Y-77357514D01*
X163162343Y-77393800D01*
X163089772Y-77430086D01*
X162944629Y-77430086D01*
X162872057Y-77466371D01*
X162835772Y-77502657D01*
X162799486Y-77575229D01*
X162799486Y-77720371D01*
X162835772Y-77792943D01*
X162872057Y-77829229D01*
X162944629Y-77865514D01*
X163089772Y-77865514D01*
X163162343Y-77829229D01*
X163198629Y-77792943D01*
X163234914Y-77720371D01*
X163234914Y-77575229D01*
X163198629Y-77502657D01*
X163162343Y-77466371D01*
X163089772Y-77430086D01*
X151931915Y-80989714D02*
X151931915Y-81606571D01*
X151968200Y-81679143D01*
X152004486Y-81715429D01*
X152077057Y-81751714D01*
X152222200Y-81751714D01*
X152294772Y-81715429D01*
X152331057Y-81679143D01*
X152367343Y-81606571D01*
X152367343Y-80989714D01*
X152693915Y-81062286D02*
X152730201Y-81026000D01*
X152802772Y-80989714D01*
X152984201Y-80989714D01*
X153056772Y-81026000D01*
X153093058Y-81062286D01*
X153129343Y-81134857D01*
X153129343Y-81207429D01*
X153093058Y-81316286D01*
X152657629Y-81751714D01*
X153129343Y-81751714D01*
X153601057Y-80989714D02*
X153673629Y-80989714D01*
X153746200Y-81026000D01*
X153782486Y-81062286D01*
X153818772Y-81134857D01*
X153855057Y-81280000D01*
X153855057Y-81461429D01*
X153818772Y-81606571D01*
X153782486Y-81679143D01*
X153746200Y-81715429D01*
X153673629Y-81751714D01*
X153601057Y-81751714D01*
X153528486Y-81715429D01*
X153492200Y-81679143D01*
X153455915Y-81606571D01*
X153419629Y-81461429D01*
X153419629Y-81280000D01*
X153455915Y-81134857D01*
X153492200Y-81062286D01*
X153528486Y-81026000D01*
X153601057Y-80989714D01*
X154580771Y-81751714D02*
X154145343Y-81751714D01*
X154363057Y-81751714D02*
X154363057Y-80989714D01*
X154290486Y-81098571D01*
X154217914Y-81171143D01*
X154145343Y-81207429D01*
X147664715Y-85104514D02*
X147664715Y-85721371D01*
X147701000Y-85793943D01*
X147737286Y-85830229D01*
X147809857Y-85866514D01*
X147955000Y-85866514D01*
X148027572Y-85830229D01*
X148063857Y-85793943D01*
X148100143Y-85721371D01*
X148100143Y-85104514D01*
X148426715Y-85177086D02*
X148463001Y-85140800D01*
X148535572Y-85104514D01*
X148717001Y-85104514D01*
X148789572Y-85140800D01*
X148825858Y-85177086D01*
X148862143Y-85249657D01*
X148862143Y-85322229D01*
X148825858Y-85431086D01*
X148390429Y-85866514D01*
X148862143Y-85866514D01*
X149333857Y-85104514D02*
X149406429Y-85104514D01*
X149479000Y-85140800D01*
X149515286Y-85177086D01*
X149551572Y-85249657D01*
X149587857Y-85394800D01*
X149587857Y-85576229D01*
X149551572Y-85721371D01*
X149515286Y-85793943D01*
X149479000Y-85830229D01*
X149406429Y-85866514D01*
X149333857Y-85866514D01*
X149261286Y-85830229D01*
X149225000Y-85793943D01*
X149188715Y-85721371D01*
X149152429Y-85576229D01*
X149152429Y-85394800D01*
X149188715Y-85249657D01*
X149225000Y-85177086D01*
X149261286Y-85140800D01*
X149333857Y-85104514D01*
X149878143Y-85177086D02*
X149914429Y-85140800D01*
X149987000Y-85104514D01*
X150168429Y-85104514D01*
X150241000Y-85140800D01*
X150277286Y-85177086D01*
X150313571Y-85249657D01*
X150313571Y-85322229D01*
X150277286Y-85431086D01*
X149841857Y-85866514D01*
X150313571Y-85866514D01*
D13*
X170043695Y-116377981D02*
X170043695Y-115377981D01*
X170377029Y-116092267D01*
X170710362Y-115377981D01*
X170710362Y-116377981D01*
X171091314Y-115377981D02*
X171710362Y-115377981D01*
X171377028Y-115758933D01*
X171519886Y-115758933D01*
X171615124Y-115806552D01*
X171662743Y-115854171D01*
X171710362Y-115949410D01*
X171710362Y-116187505D01*
X171662743Y-116282743D01*
X171615124Y-116330362D01*
X171519886Y-116377981D01*
X171234171Y-116377981D01*
X171138933Y-116330362D01*
X171091314Y-116282743D01*
X172329409Y-115377981D02*
X172424648Y-115377981D01*
X172519886Y-115425600D01*
X172567505Y-115473219D01*
X172615124Y-115568457D01*
X172662743Y-115758933D01*
X172662743Y-115997029D01*
X172615124Y-116187505D01*
X172567505Y-116282743D01*
X172519886Y-116330362D01*
X172424648Y-116377981D01*
X172329409Y-116377981D01*
X172234171Y-116330362D01*
X172186552Y-116282743D01*
X172138933Y-116187505D01*
X172091314Y-115997029D01*
X172091314Y-115758933D01*
X172138933Y-115568457D01*
X172186552Y-115473219D01*
X172234171Y-115425600D01*
X172329409Y-115377981D01*
X173615124Y-116377981D02*
X173043695Y-116377981D01*
X173329409Y-116377981D02*
X173329409Y-115377981D01*
X173234171Y-115520838D01*
X173138933Y-115616076D01*
X173043695Y-115663695D01*
X138239714Y-108037381D02*
X138239714Y-108846905D01*
X138287333Y-108942143D01*
X138334952Y-108989762D01*
X138430190Y-109037381D01*
X138620667Y-109037381D01*
X138715905Y-108989762D01*
X138763524Y-108942143D01*
X138811143Y-108846905D01*
X138811143Y-108037381D01*
X139715905Y-108370714D02*
X139715905Y-109037381D01*
X139477809Y-107989762D02*
X139239714Y-108704048D01*
X139858762Y-108704048D01*
X140430190Y-108037381D02*
X140525429Y-108037381D01*
X140620667Y-108085000D01*
X140668286Y-108132619D01*
X140715905Y-108227857D01*
X140763524Y-108418333D01*
X140763524Y-108656429D01*
X140715905Y-108846905D01*
X140668286Y-108942143D01*
X140620667Y-108989762D01*
X140525429Y-109037381D01*
X140430190Y-109037381D01*
X140334952Y-108989762D01*
X140287333Y-108942143D01*
X140239714Y-108846905D01*
X140192095Y-108656429D01*
X140192095Y-108418333D01*
X140239714Y-108227857D01*
X140287333Y-108132619D01*
X140334952Y-108085000D01*
X140430190Y-108037381D01*
X141715905Y-109037381D02*
X141144476Y-109037381D01*
X141430190Y-109037381D02*
X141430190Y-108037381D01*
X141334952Y-108180238D01*
X141239714Y-108275476D01*
X141144476Y-108323095D01*
X135167809Y-105560762D02*
X135263047Y-105608381D01*
X135453523Y-105608381D01*
X135548762Y-105560762D01*
X135596381Y-105465524D01*
X135596381Y-105417905D01*
X135548762Y-105322667D01*
X135453523Y-105275048D01*
X135310666Y-105275048D01*
X135215428Y-105227429D01*
X135167809Y-105132190D01*
X135167809Y-105084571D01*
X135215428Y-104989333D01*
X135310666Y-104941714D01*
X135453523Y-104941714D01*
X135548762Y-104989333D01*
X135882095Y-104941714D02*
X136263047Y-104941714D01*
X136024952Y-104608381D02*
X136024952Y-105465524D01*
X136072571Y-105560762D01*
X136167809Y-105608381D01*
X136263047Y-105608381D01*
X137024953Y-104608381D02*
X136834476Y-104608381D01*
X136739238Y-104656000D01*
X136691619Y-104703619D01*
X136596381Y-104846476D01*
X136548762Y-105036952D01*
X136548762Y-105417905D01*
X136596381Y-105513143D01*
X136644000Y-105560762D01*
X136739238Y-105608381D01*
X136929715Y-105608381D01*
X137024953Y-105560762D01*
X137072572Y-105513143D01*
X137120191Y-105417905D01*
X137120191Y-105179810D01*
X137072572Y-105084571D01*
X137024953Y-105036952D01*
X136929715Y-104989333D01*
X136739238Y-104989333D01*
X136644000Y-105036952D01*
X136596381Y-105084571D01*
X136548762Y-105179810D01*
X135167809Y-74826762D02*
X135263047Y-74874381D01*
X135453523Y-74874381D01*
X135548762Y-74826762D01*
X135596381Y-74731524D01*
X135596381Y-74683905D01*
X135548762Y-74588667D01*
X135453523Y-74541048D01*
X135310666Y-74541048D01*
X135215428Y-74493429D01*
X135167809Y-74398190D01*
X135167809Y-74350571D01*
X135215428Y-74255333D01*
X135310666Y-74207714D01*
X135453523Y-74207714D01*
X135548762Y-74255333D01*
X135882095Y-74207714D02*
X136263047Y-74207714D01*
X136024952Y-73874381D02*
X136024952Y-74731524D01*
X136072571Y-74826762D01*
X136167809Y-74874381D01*
X136263047Y-74874381D01*
X137072572Y-73874381D02*
X136596381Y-73874381D01*
X136548762Y-74350571D01*
X136596381Y-74302952D01*
X136691619Y-74255333D01*
X136929715Y-74255333D01*
X137024953Y-74302952D01*
X137072572Y-74350571D01*
X137120191Y-74445810D01*
X137120191Y-74683905D01*
X137072572Y-74779143D01*
X137024953Y-74826762D01*
X136929715Y-74874381D01*
X136691619Y-74874381D01*
X136596381Y-74826762D01*
X136548762Y-74779143D01*
%LPC*%
D15*
X151638000Y-84602000D03*
X151638000Y-87102000D03*
X149606000Y-78252000D03*
X149606000Y-80752000D03*
D16*
X154412000Y-82296000D03*
X151912000Y-82296000D03*
X149840000Y-91694000D03*
X147340000Y-91694000D03*
D15*
X185420000Y-88372000D03*
X185420000Y-85872000D03*
D17*
X174312000Y-84068000D03*
X174312000Y-84868000D03*
X174312000Y-85668000D03*
X174312000Y-86468000D03*
X174312000Y-87268000D03*
X174312000Y-88068000D03*
X174312000Y-88868000D03*
X174312000Y-89668000D03*
D18*
X175762000Y-91118000D03*
X176562000Y-91118000D03*
X177362000Y-91118000D03*
X178162000Y-91118000D03*
X178962000Y-91118000D03*
X179762000Y-91118000D03*
X180562000Y-91118000D03*
X181362000Y-91118000D03*
D17*
X182812000Y-89668000D03*
X182812000Y-88868000D03*
X182812000Y-88068000D03*
X182812000Y-87268000D03*
X182812000Y-86468000D03*
X182812000Y-85668000D03*
X182812000Y-84868000D03*
X182812000Y-84068000D03*
D18*
X181362000Y-82618000D03*
X180562000Y-82618000D03*
X179762000Y-82618000D03*
X178962000Y-82618000D03*
X178162000Y-82618000D03*
X177362000Y-82618000D03*
X176562000Y-82618000D03*
X175762000Y-82618000D03*
D19*
X148488400Y-67360800D03*
D20*
X145948400Y-67360800D03*
D21*
X180975000Y-107315000D03*
D22*
X180975000Y-109855000D03*
X178435000Y-107315000D03*
X178435000Y-109855000D03*
X175895000Y-107315000D03*
X175895000Y-109855000D03*
D23*
X134381240Y-78171000D03*
X134381240Y-80071000D03*
X136380220Y-79121000D03*
X134381240Y-85410000D03*
X134381240Y-87310000D03*
X136380220Y-86360000D03*
X119872760Y-79994800D03*
X119872760Y-78094800D03*
X117873780Y-79044800D03*
X119796560Y-94726800D03*
X119796560Y-92826800D03*
X117797580Y-93776800D03*
X119923560Y-101965800D03*
X119923560Y-100065800D03*
X117924580Y-101015800D03*
X119923560Y-87310000D03*
X119923560Y-85410000D03*
X117924580Y-86360000D03*
X134381240Y-92903000D03*
X134381240Y-94803000D03*
X136380220Y-93853000D03*
X134381240Y-100142000D03*
X134381240Y-102042000D03*
X136380220Y-101092000D03*
D24*
X146304000Y-87202000D03*
X146304000Y-84502000D03*
X132080000Y-77771000D03*
X132080000Y-80471000D03*
X138938000Y-77771000D03*
X138938000Y-80471000D03*
X132080000Y-85010000D03*
X132080000Y-87710000D03*
X138938000Y-85010000D03*
X138938000Y-87710000D03*
X123139200Y-80394800D03*
X123139200Y-77694800D03*
X115417600Y-80344000D03*
X115417600Y-77644000D03*
X123012200Y-95076000D03*
X123012200Y-92376000D03*
X115341400Y-95025200D03*
X115341400Y-92325200D03*
X123139200Y-102365800D03*
X123139200Y-99665800D03*
X115417600Y-102365800D03*
X115417600Y-99665800D03*
X123139200Y-87710000D03*
X123139200Y-85010000D03*
X115417600Y-87710000D03*
X115417600Y-85010000D03*
X132080000Y-92376000D03*
X132080000Y-95076000D03*
X138938000Y-92503000D03*
X138938000Y-95203000D03*
X131826000Y-99742000D03*
X131826000Y-102442000D03*
X138684000Y-99488000D03*
X138684000Y-102188000D03*
X178054000Y-75612000D03*
X178054000Y-78312000D03*
D25*
X164084000Y-100045000D03*
X164084000Y-105695000D03*
X161584000Y-100045000D03*
X166584000Y-100045000D03*
X161584000Y-105695000D03*
X166584000Y-105695000D03*
D26*
X162584000Y-102870000D03*
X165584000Y-102870000D03*
D19*
X163957000Y-85852000D03*
D20*
X161417000Y-85852000D03*
D27*
X159004000Y-72137000D03*
X156504000Y-75437000D03*
X161504000Y-75437000D03*
D28*
X154385000Y-80198000D03*
X154385000Y-78298000D03*
X151685000Y-79248000D03*
D18*
X150048000Y-87242000D03*
X149098000Y-87242000D03*
X148148000Y-87242000D03*
X148148000Y-89542000D03*
X150048000Y-89542000D03*
D29*
X175768000Y-114681000D03*
D30*
X178308000Y-114681000D03*
X180848000Y-114681000D03*
X183388000Y-114681000D03*
X185928000Y-114681000D03*
D31*
X120904000Y-74676000D03*
X123444000Y-74676000D03*
X125984000Y-74676000D03*
X128524000Y-74676000D03*
X131064000Y-74676000D03*
D19*
X133604000Y-74676000D03*
D31*
X133604000Y-105156000D03*
X131064000Y-105156000D03*
X128524000Y-105156000D03*
X125984000Y-105156000D03*
X123444000Y-105156000D03*
X120904000Y-105156000D03*
M02*
