G04 #@! TF.FileFunction,Soldermask,Top*
%FSLAX46Y46*%
G04 Gerber Fmt 4.6, Leading zero omitted, Abs format (unit mm)*
G04 Created by KiCad (PCBNEW 4.0.0-2.201512072331+6194~38~ubuntu14.04.1-stable) date Sun 31 Jul 2016 10:05:07 AM CEST*
%MOMM*%
G01*
G04 APERTURE LIST*
%ADD10C,0.100000*%
%ADD11R,1.727200X1.727200*%
%ADD12O,1.727200X1.727200*%
%ADD13R,1.250000X1.500000*%
%ADD14R,1.500000X1.250000*%
%ADD15R,1.200000X0.600000*%
%ADD16R,0.600000X1.200000*%
%ADD17R,2.032000X2.032000*%
%ADD18O,2.032000X2.032000*%
%ADD19R,0.900000X0.800000*%
%ADD20R,1.300000X1.500000*%
%ADD21C,2.000000*%
%ADD22R,1.000000X0.600000*%
%ADD23C,2.032000*%
%ADD24R,1.198880X1.198880*%
%ADD25R,1.600000X1.000000*%
%ADD26C,1.500000*%
%ADD27R,1.727200X2.032000*%
%ADD28O,1.727200X2.032000*%
G04 APERTURE END LIST*
D10*
D11*
X196037200Y-94335600D03*
D12*
X193497200Y-94335600D03*
X196037200Y-91795600D03*
X193497200Y-91795600D03*
X196037200Y-89255600D03*
X193497200Y-89255600D03*
D13*
X151638000Y-84602000D03*
X151638000Y-87102000D03*
X149606000Y-78252000D03*
X149606000Y-80752000D03*
D14*
X154412000Y-82296000D03*
X151912000Y-82296000D03*
X149840000Y-91694000D03*
X147340000Y-91694000D03*
D13*
X185420000Y-88372000D03*
X185420000Y-85872000D03*
D15*
X174312000Y-84068000D03*
X174312000Y-84868000D03*
X174312000Y-85668000D03*
X174312000Y-86468000D03*
X174312000Y-87268000D03*
X174312000Y-88068000D03*
X174312000Y-88868000D03*
X174312000Y-89668000D03*
D16*
X175762000Y-91118000D03*
X176562000Y-91118000D03*
X177362000Y-91118000D03*
X178162000Y-91118000D03*
X178962000Y-91118000D03*
X179762000Y-91118000D03*
X180562000Y-91118000D03*
X181362000Y-91118000D03*
D15*
X182812000Y-89668000D03*
X182812000Y-88868000D03*
X182812000Y-88068000D03*
X182812000Y-87268000D03*
X182812000Y-86468000D03*
X182812000Y-85668000D03*
X182812000Y-84868000D03*
X182812000Y-84068000D03*
D16*
X181362000Y-82618000D03*
X180562000Y-82618000D03*
X179762000Y-82618000D03*
X178962000Y-82618000D03*
X178162000Y-82618000D03*
X177362000Y-82618000D03*
X176562000Y-82618000D03*
X175762000Y-82618000D03*
D17*
X148488400Y-67360800D03*
D18*
X145948400Y-67360800D03*
D19*
X134381240Y-78171000D03*
X134381240Y-80071000D03*
X136380220Y-79121000D03*
X134381240Y-85410000D03*
X134381240Y-87310000D03*
X136380220Y-86360000D03*
X119872760Y-79994800D03*
X119872760Y-78094800D03*
X117873780Y-79044800D03*
X119796560Y-94726800D03*
X119796560Y-92826800D03*
X117797580Y-93776800D03*
X119923560Y-101965800D03*
X119923560Y-100065800D03*
X117924580Y-101015800D03*
X119923560Y-87310000D03*
X119923560Y-85410000D03*
X117924580Y-86360000D03*
X134381240Y-92903000D03*
X134381240Y-94803000D03*
X136380220Y-93853000D03*
X134381240Y-100142000D03*
X134381240Y-102042000D03*
X136380220Y-101092000D03*
D20*
X146304000Y-87202000D03*
X146304000Y-84502000D03*
X132080000Y-77771000D03*
X132080000Y-80471000D03*
X138938000Y-77771000D03*
X138938000Y-80471000D03*
X132080000Y-85010000D03*
X132080000Y-87710000D03*
X138938000Y-85010000D03*
X138938000Y-87710000D03*
X123139200Y-80394800D03*
X123139200Y-77694800D03*
X115417600Y-80344000D03*
X115417600Y-77644000D03*
X123012200Y-95076000D03*
X123012200Y-92376000D03*
X115341400Y-95025200D03*
X115341400Y-92325200D03*
X123139200Y-102365800D03*
X123139200Y-99665800D03*
X115417600Y-102365800D03*
X115417600Y-99665800D03*
X123139200Y-87710000D03*
X123139200Y-85010000D03*
X115417600Y-87710000D03*
X115417600Y-85010000D03*
X132080000Y-92376000D03*
X132080000Y-95076000D03*
X138938000Y-92503000D03*
X138938000Y-95203000D03*
X131826000Y-99742000D03*
X131826000Y-102442000D03*
X138684000Y-99488000D03*
X138684000Y-102188000D03*
X178054000Y-77136000D03*
X178054000Y-79836000D03*
D17*
X165227000Y-89027000D03*
D18*
X165227000Y-86487000D03*
D21*
X159004000Y-72137000D03*
X156504000Y-75437000D03*
X161504000Y-75437000D03*
D22*
X154385000Y-80198000D03*
X154385000Y-78298000D03*
X151685000Y-79248000D03*
D16*
X150048000Y-87242000D03*
X149098000Y-87242000D03*
X148148000Y-87242000D03*
X148148000Y-89542000D03*
X150048000Y-89542000D03*
D23*
X120904000Y-74676000D03*
X123444000Y-74676000D03*
X125984000Y-74676000D03*
X128524000Y-74676000D03*
X131064000Y-74676000D03*
D17*
X133604000Y-74676000D03*
D23*
X133604000Y-105156000D03*
X131064000Y-105156000D03*
X128524000Y-105156000D03*
X125984000Y-105156000D03*
X123444000Y-105156000D03*
X120904000Y-105156000D03*
D24*
X154940000Y-84675980D03*
X154940000Y-86774020D03*
X146812000Y-95470980D03*
X146812000Y-97569020D03*
X173101000Y-75979020D03*
X173101000Y-73880980D03*
D20*
X155067000Y-89201000D03*
X155067000Y-91901000D03*
X149987000Y-97583000D03*
X149987000Y-100283000D03*
X169672000Y-76661000D03*
X169672000Y-73961000D03*
D25*
X174853200Y-98775600D03*
X168453200Y-98775600D03*
X174853200Y-94975600D03*
X168453200Y-94975600D03*
D26*
X155000000Y-67000000D03*
X143459200Y-92100400D03*
D27*
X146507200Y-104800400D03*
D28*
X149047200Y-104800400D03*
X151587200Y-104800400D03*
X154127200Y-104800400D03*
X156667200Y-104800400D03*
X159207200Y-104800400D03*
X161747200Y-104800400D03*
D17*
X161417000Y-89027000D03*
D18*
X161417000Y-86487000D03*
M02*
