G04 #@! TF.FileFunction,Copper,L1,Top,Signal*
%FSLAX46Y46*%
G04 Gerber Fmt 4.6, Leading zero omitted, Abs format (unit mm)*
G04 Created by KiCad (PCBNEW 0.201508140901+6091~28~ubuntu14.04.1-product) date Tue 22 Sep 2015 11:40:43 PM CEST*
%MOMM*%
G01*
G04 APERTURE LIST*
%ADD10C,0.100000*%
%ADD11R,1.250000X1.500000*%
%ADD12R,1.500000X1.250000*%
%ADD13R,1.200000X0.600000*%
%ADD14R,0.600000X1.200000*%
%ADD15R,2.032000X2.032000*%
%ADD16O,2.032000X2.032000*%
%ADD17R,1.727200X1.727200*%
%ADD18O,1.727200X1.727200*%
%ADD19R,0.900000X0.800000*%
%ADD20R,1.300000X1.500000*%
%ADD21R,1.000000X1.150000*%
%ADD22C,2.000000*%
%ADD23R,1.000000X0.600000*%
%ADD24C,1.524000*%
%ADD25R,1.727200X2.032000*%
%ADD26O,1.727200X2.032000*%
%ADD27C,0.685800*%
%ADD28C,0.609600*%
%ADD29C,1.219200*%
%ADD30C,0.304800*%
%ADD31C,0.152400*%
G04 APERTURE END LIST*
D10*
D11*
X151638000Y-84602000D03*
X151638000Y-87102000D03*
X149606000Y-78252000D03*
X149606000Y-80752000D03*
D12*
X154412000Y-82296000D03*
X151912000Y-82296000D03*
X149840000Y-91694000D03*
X147340000Y-91694000D03*
D11*
X185420000Y-88372000D03*
X185420000Y-85872000D03*
D13*
X174312000Y-84068000D03*
X174312000Y-84868000D03*
X174312000Y-85668000D03*
X174312000Y-86468000D03*
X174312000Y-87268000D03*
X174312000Y-88068000D03*
X174312000Y-88868000D03*
X174312000Y-89668000D03*
D14*
X175762000Y-91118000D03*
X176562000Y-91118000D03*
X177362000Y-91118000D03*
X178162000Y-91118000D03*
X178962000Y-91118000D03*
X179762000Y-91118000D03*
X180562000Y-91118000D03*
X181362000Y-91118000D03*
D13*
X182812000Y-89668000D03*
X182812000Y-88868000D03*
X182812000Y-88068000D03*
X182812000Y-87268000D03*
X182812000Y-86468000D03*
X182812000Y-85668000D03*
X182812000Y-84868000D03*
X182812000Y-84068000D03*
D14*
X181362000Y-82618000D03*
X180562000Y-82618000D03*
X179762000Y-82618000D03*
X178962000Y-82618000D03*
X178162000Y-82618000D03*
X177362000Y-82618000D03*
X176562000Y-82618000D03*
X175762000Y-82618000D03*
D15*
X148488400Y-67360800D03*
D16*
X145948400Y-67360800D03*
D17*
X178663600Y-111252000D03*
D18*
X178663600Y-108712000D03*
X181203600Y-111252000D03*
X181203600Y-108712000D03*
X183743600Y-111252000D03*
X183743600Y-108712000D03*
D19*
X134381240Y-100142000D03*
X134381240Y-102042000D03*
X136380220Y-101092000D03*
X134381240Y-92776000D03*
X134381240Y-94676000D03*
X136380220Y-93726000D03*
X120014085Y-102102804D03*
X120014085Y-100202804D03*
X118015105Y-101152804D03*
X120014086Y-87370803D03*
X120014086Y-85470803D03*
X118015106Y-86420803D03*
X120014086Y-79877803D03*
X120014086Y-77977803D03*
X118015106Y-78927803D03*
X120014086Y-94736802D03*
X120014086Y-92836802D03*
X118015106Y-93786802D03*
X134381240Y-85410000D03*
X134381240Y-87310000D03*
X136380220Y-86360000D03*
X134635240Y-78044000D03*
X134635240Y-79944000D03*
X136634220Y-78994000D03*
D20*
X146304000Y-87202000D03*
X146304000Y-84502000D03*
X132080000Y-99742000D03*
X132080000Y-102442000D03*
X138938000Y-99742000D03*
X138938000Y-102442000D03*
X132080000Y-92376000D03*
X132080000Y-95076000D03*
X138938000Y-92376000D03*
X138938000Y-95076000D03*
X122383326Y-102531802D03*
X122383326Y-99831802D03*
X114763325Y-102531802D03*
X114763325Y-99831802D03*
X122383326Y-87799804D03*
X122383326Y-85099804D03*
X114763325Y-87799803D03*
X114763325Y-85099803D03*
X122383326Y-80433802D03*
X122383326Y-77733802D03*
X114763325Y-80179802D03*
X114763325Y-77479802D03*
X122383325Y-95165802D03*
X122383325Y-92465802D03*
X114763326Y-95419802D03*
X114763326Y-92719802D03*
X132080000Y-85010000D03*
X132080000Y-87710000D03*
X138938000Y-85010000D03*
X138938000Y-87710000D03*
X132080000Y-77644000D03*
X132080000Y-80344000D03*
X138938000Y-77390000D03*
X138938000Y-80090000D03*
X178054000Y-75612000D03*
X178054000Y-78312000D03*
D21*
X196265800Y-100451400D03*
X196265800Y-106101400D03*
X193765800Y-100451400D03*
X198765800Y-100451400D03*
X193765800Y-106101400D03*
X198765800Y-106101400D03*
D15*
X172339000Y-105054400D03*
D16*
X169799000Y-105054400D03*
D22*
X161518600Y-72340200D03*
X159018600Y-75640200D03*
X164018600Y-75640200D03*
D23*
X151812000Y-78552000D03*
X151812000Y-80452000D03*
X154512000Y-79502000D03*
D14*
X150048000Y-87242000D03*
X149098000Y-87242000D03*
X148148000Y-87242000D03*
X148148000Y-89542000D03*
X150048000Y-89542000D03*
D24*
X133604000Y-105156000D03*
X131064000Y-105156000D03*
X128524000Y-105156000D03*
X125984000Y-105156000D03*
X123444000Y-105156000D03*
X120904000Y-105156000D03*
X120904000Y-74676000D03*
X123444000Y-74676000D03*
X125984000Y-74676000D03*
X128524000Y-74676000D03*
X131064000Y-74676000D03*
X133604000Y-74676000D03*
D25*
X176225200Y-116128800D03*
D26*
X178765200Y-116128800D03*
X181305200Y-116128800D03*
X183845200Y-116128800D03*
X186385200Y-116128800D03*
D27*
X150114000Y-84582000D03*
X144272000Y-86614000D03*
X146812000Y-77978000D03*
X171500800Y-80492600D03*
X196519800Y-112293400D03*
X186004200Y-95504000D03*
X186004200Y-80518000D03*
X171424600Y-95529400D03*
X178130200Y-80924400D03*
X149148800Y-94665800D03*
X120904000Y-96774000D03*
X135636000Y-98552000D03*
X135636000Y-91186000D03*
X135636000Y-83820000D03*
X135636000Y-76200000D03*
X120650000Y-89408000D03*
X120396000Y-81788000D03*
X175539400Y-84480400D03*
X175717200Y-93040200D03*
X179984400Y-95885000D03*
X173609000Y-80975200D03*
X178130200Y-89712800D03*
X177241200Y-88163400D03*
X178968400Y-96266000D03*
X174142400Y-111937800D03*
X181229000Y-96316800D03*
X182016400Y-95910400D03*
X185166000Y-98526600D03*
X145694400Y-99187000D03*
X175959307Y-86422693D03*
X115062000Y-110998000D03*
X175514000Y-88392000D03*
X187198000Y-88392000D03*
X178054000Y-73406000D03*
X155194000Y-77724000D03*
D28*
X151618000Y-84582000D02*
X150114000Y-84582000D01*
X150048000Y-84648000D02*
X150048000Y-87242000D01*
X150048000Y-84648000D02*
X150114000Y-84582000D01*
X151618000Y-84582000D02*
X151638000Y-84602000D01*
X146304000Y-87202000D02*
X144860000Y-87202000D01*
X144860000Y-87202000D02*
X144272000Y-86614000D01*
D29*
X149606000Y-78252000D02*
X147086000Y-78252000D01*
X147086000Y-78252000D02*
X146812000Y-77978000D01*
D28*
X149606000Y-78252000D02*
X151512000Y-78252000D01*
X151512000Y-78252000D02*
X151812000Y-78552000D01*
D30*
X178130200Y-78388200D02*
X178130200Y-80924400D01*
X178162000Y-80956200D02*
X178130200Y-80924400D01*
X178162000Y-80956200D02*
X178162000Y-82618000D01*
X178130200Y-78388200D02*
X178054000Y-78312000D01*
X178054000Y-82510000D02*
X178162000Y-82618000D01*
D31*
X178134000Y-82590000D02*
X178162000Y-82618000D01*
D28*
X149840000Y-91694000D02*
X149840000Y-93974600D01*
X149840000Y-93974600D02*
X149148800Y-94665800D01*
X150048000Y-89542000D02*
X150048000Y-91486000D01*
X150048000Y-91486000D02*
X149840000Y-91694000D01*
X120014086Y-87370803D02*
X120014086Y-88772086D01*
X120014086Y-88772086D02*
X120650000Y-89408000D01*
X120014086Y-94736802D02*
X120014086Y-95884086D01*
X120014086Y-95884086D02*
X120904000Y-96774000D01*
X134381240Y-100142000D02*
X134381240Y-99806760D01*
X134381240Y-99806760D02*
X135636000Y-98552000D01*
X134381240Y-92776000D02*
X134381240Y-92440760D01*
X134381240Y-92440760D02*
X135636000Y-91186000D01*
X134381240Y-85410000D02*
X134381240Y-85074760D01*
X134381240Y-85074760D02*
X135636000Y-83820000D01*
X134635240Y-78044000D02*
X134635240Y-77200760D01*
X134635240Y-77200760D02*
X135636000Y-76200000D01*
X132080000Y-99742000D02*
X133981240Y-99742000D01*
X133981240Y-99742000D02*
X134381240Y-100142000D01*
X132080000Y-92376000D02*
X133981240Y-92376000D01*
X133981240Y-92376000D02*
X134381240Y-92776000D01*
X132080000Y-85010000D02*
X133981240Y-85010000D01*
X133981240Y-85010000D02*
X134381240Y-85410000D01*
X132080000Y-77644000D02*
X134235240Y-77644000D01*
X134235240Y-77644000D02*
X134635240Y-78044000D01*
X150048000Y-91486000D02*
X149840000Y-91694000D01*
X120014085Y-102102804D02*
X120014085Y-104266085D01*
X120014085Y-104266085D02*
X120904000Y-105156000D01*
X120014086Y-79877803D02*
X120014086Y-81406086D01*
X120014086Y-81406086D02*
X120396000Y-81788000D01*
X120014085Y-102102804D02*
X121954328Y-102102804D01*
X121954328Y-102102804D02*
X122383326Y-102531802D01*
X120014086Y-94736802D02*
X121954325Y-94736802D01*
X121954325Y-94736802D02*
X122383325Y-95165802D01*
X120014086Y-87370803D02*
X121954325Y-87370803D01*
X121954325Y-87370803D02*
X122383326Y-87799804D01*
X120014086Y-79877803D02*
X121827327Y-79877803D01*
X121827327Y-79877803D02*
X122383326Y-80433802D01*
D30*
X165938200Y-84068000D02*
X165144800Y-84068000D01*
X161518600Y-80441800D02*
X161518600Y-72340200D01*
X165144800Y-84068000D02*
X161518600Y-80441800D01*
X165856000Y-84068000D02*
X165938200Y-84068000D01*
X165938200Y-84068000D02*
X174312000Y-84068000D01*
X175151800Y-84868000D02*
X174312000Y-84868000D01*
X175539400Y-84480400D02*
X175151800Y-84868000D01*
X175762000Y-91118000D02*
X175762000Y-92995400D01*
X175762000Y-92995400D02*
X175717200Y-93040200D01*
X175762000Y-92995400D02*
X175762000Y-92958000D01*
X175717200Y-93040200D02*
X175762000Y-92995400D01*
X172339000Y-105054400D02*
X172720000Y-105054400D01*
X172720000Y-105054400D02*
X176562000Y-101212400D01*
X176562000Y-101212400D02*
X176562000Y-91118000D01*
X176562000Y-91118000D02*
X176562000Y-90576421D01*
X183093801Y-101331201D02*
X177362000Y-95599400D01*
X177362000Y-95599400D02*
X177362000Y-91118000D01*
X196265800Y-100451400D02*
X195461000Y-100451400D01*
X195461000Y-100451400D02*
X194581199Y-101331201D01*
X194581199Y-101331201D02*
X183093801Y-101331201D01*
X179762000Y-93198800D02*
X179762000Y-91118000D01*
X179762000Y-95662600D02*
X179762000Y-93198800D01*
X179984400Y-95885000D02*
X179762000Y-95662600D01*
X177362000Y-81934200D02*
X177362000Y-82618000D01*
X176403000Y-80975200D02*
X177362000Y-81934200D01*
X173609000Y-80975200D02*
X176403000Y-80975200D01*
X176562000Y-82618000D02*
X176562000Y-83369400D01*
X178130200Y-84937600D02*
X178130200Y-89712800D01*
X176562000Y-83369400D02*
X178130200Y-84937600D01*
X175762000Y-82618000D02*
X175762000Y-83763200D01*
X177266600Y-88138000D02*
X177241200Y-88163400D01*
X177266600Y-85267800D02*
X177266600Y-88138000D01*
X175762000Y-83763200D02*
X177266600Y-85267800D01*
D28*
X136380220Y-86360000D02*
X137588000Y-86360000D01*
X137588000Y-86360000D02*
X138938000Y-87710000D01*
X146304000Y-84502000D02*
X147240000Y-84502000D01*
X148148000Y-85410000D02*
X148148000Y-87242000D01*
X147240000Y-84502000D02*
X148148000Y-85410000D01*
D30*
X136634220Y-77597000D02*
X136634220Y-77081380D01*
X143941800Y-75057000D02*
X148336000Y-70662800D01*
X138658600Y-75057000D02*
X143941800Y-75057000D01*
X136634220Y-77081380D02*
X138658600Y-75057000D01*
X136634220Y-77724000D02*
X136634220Y-77597000D01*
X136634220Y-77597000D02*
X136634220Y-77563980D01*
X177977800Y-70662800D02*
X181362000Y-74047000D01*
X181362000Y-81713200D02*
X181362000Y-82618000D01*
X181362000Y-74047000D02*
X181362000Y-81713200D01*
X148336000Y-70662800D02*
X177977800Y-70662800D01*
X136634220Y-78994000D02*
X136634220Y-77724000D01*
X136634220Y-77724000D02*
X136634220Y-77745138D01*
D28*
X136634220Y-78994000D02*
X137842000Y-78994000D01*
X137842000Y-78994000D02*
X138938000Y-80090000D01*
D30*
X135879419Y-77724000D02*
X135879419Y-77175781D01*
X143256000Y-74574400D02*
X147701000Y-70129400D01*
X138480800Y-74574400D02*
X143256000Y-74574400D01*
X135879419Y-77175781D02*
X138480800Y-74574400D01*
X135879419Y-77724000D02*
X135879419Y-77632981D01*
X178130200Y-70129400D02*
X182812000Y-74811200D01*
X182812000Y-74811200D02*
X182812000Y-84068000D01*
X147701000Y-70129400D02*
X178130200Y-70129400D01*
X136448800Y-84429600D02*
X136448800Y-80207222D01*
X136448800Y-80207222D02*
X135879419Y-79637841D01*
X135879419Y-79637841D02*
X135879419Y-77724000D01*
X135625419Y-85252981D02*
X136448800Y-84429600D01*
X136380220Y-93726000D02*
X136380220Y-87758642D01*
X136380220Y-87758642D02*
X135625419Y-87003841D01*
X135625419Y-87003841D02*
X135625419Y-85252981D01*
D28*
X136380220Y-93726000D02*
X137588000Y-93726000D01*
X137588000Y-93726000D02*
X138938000Y-95076000D01*
D30*
X118015105Y-108337705D02*
X118015105Y-101152804D01*
X178962000Y-96259600D02*
X178962000Y-93122800D01*
X178968400Y-96266000D02*
X178962000Y-96259600D01*
X173507400Y-111302800D02*
X174142400Y-111937800D01*
X120980200Y-111302800D02*
X173507400Y-111302800D01*
X118015105Y-108337705D02*
X120980200Y-111302800D01*
X178962000Y-91118000D02*
X178962000Y-93065600D01*
X178962000Y-93065600D02*
X178962000Y-93364000D01*
D28*
X118015105Y-101152804D02*
X117916804Y-101152804D01*
X117916804Y-101152804D02*
X116595802Y-99831802D01*
X116595802Y-99831802D02*
X114763325Y-99831802D01*
X115110000Y-100298000D02*
X114554000Y-99742000D01*
D30*
X180562000Y-93160600D02*
X180562000Y-91118000D01*
X180562000Y-94684600D02*
X180562000Y-93160600D01*
X181229000Y-95351600D02*
X180562000Y-94684600D01*
X181229000Y-96316800D02*
X181229000Y-95351600D01*
X124637800Y-108458000D02*
X124637802Y-108458000D01*
X123139200Y-98777001D02*
X123897601Y-98777001D01*
X179857400Y-110058200D02*
X181203600Y-108712000D01*
X179857400Y-112852200D02*
X179857400Y-110058200D01*
X179324000Y-113385600D02*
X179857400Y-112852200D01*
X177800000Y-113385600D02*
X179324000Y-113385600D01*
X124637800Y-99517200D02*
X124637800Y-108000800D01*
X123897601Y-98777001D02*
X124637800Y-99517200D01*
X124637800Y-108000800D02*
X124637800Y-108458000D01*
X174752000Y-110337600D02*
X177800000Y-113385600D01*
X126517402Y-110337600D02*
X174752000Y-110337600D01*
X124637802Y-108458000D02*
X126517402Y-110337600D01*
X119024400Y-97104200D02*
X120697201Y-98777001D01*
X118015106Y-89400898D02*
X119024400Y-90410192D01*
X119024400Y-90410192D02*
X119024400Y-97104200D01*
X118015106Y-86420803D02*
X118015106Y-89400898D01*
X120697201Y-98777001D02*
X123139200Y-98777001D01*
X123139200Y-98777001D02*
X123163217Y-98777001D01*
D28*
X118015106Y-86420803D02*
X117408803Y-86420803D01*
X116087803Y-85099803D02*
X114763325Y-85099803D01*
X117408803Y-86420803D02*
X116087803Y-85099803D01*
X114983000Y-85439000D02*
X114554000Y-85010000D01*
D30*
X181362000Y-92958000D02*
X181362000Y-91118000D01*
X181362000Y-94519400D02*
X181362000Y-92958000D01*
X182016400Y-95173800D02*
X181362000Y-94519400D01*
X182016400Y-95910400D02*
X182016400Y-95173800D01*
X174421800Y-109829600D02*
X174890582Y-109829600D01*
X176312982Y-111252000D02*
X178663600Y-111252000D01*
X174890582Y-109829600D02*
X176312982Y-111252000D01*
X127228600Y-108559600D02*
X127228600Y-109042198D01*
X127228600Y-106832400D02*
X127228600Y-107848400D01*
X122899765Y-91033600D02*
X123266200Y-91033600D01*
X119259285Y-83597685D02*
X119259285Y-89998485D01*
X119259285Y-89998485D02*
X120294400Y-91033600D01*
X118015106Y-78927803D02*
X118015106Y-82353506D01*
X120294400Y-91033600D02*
X122899765Y-91033600D01*
X118015106Y-82353506D02*
X119259285Y-83597685D01*
X127228600Y-95427800D02*
X127228600Y-106832400D01*
X124688600Y-92887800D02*
X127228600Y-95427800D01*
X124688600Y-92456000D02*
X124688600Y-92887800D01*
X123266200Y-91033600D02*
X124688600Y-92456000D01*
X127228600Y-107848400D02*
X127228600Y-108559600D01*
X128016002Y-109829600D02*
X174421800Y-109829600D01*
X127228600Y-109042198D02*
X128016002Y-109829600D01*
D28*
X118015106Y-78927803D02*
X118015106Y-78899106D01*
X118015106Y-78899106D02*
X116595802Y-77479802D01*
X116595802Y-77479802D02*
X114763325Y-77479802D01*
X114983000Y-78073000D02*
X114554000Y-77644000D01*
D30*
X118922800Y-108280200D02*
X118922800Y-108559600D01*
X118922800Y-99771200D02*
X118922800Y-108280200D01*
X174244000Y-110820200D02*
X177495200Y-114071400D01*
X121183400Y-110820200D02*
X174244000Y-110820200D01*
X118922800Y-108559600D02*
X121183400Y-110820200D01*
X179247800Y-114071400D02*
X181305200Y-116128800D01*
X177495200Y-114071400D02*
X179247800Y-114071400D01*
X177419000Y-114071400D02*
X177495200Y-114071400D01*
X118015106Y-93786802D02*
X118015106Y-98863506D01*
X118015106Y-98863506D02*
X118922800Y-99771200D01*
X118922800Y-99771200D02*
X118948200Y-99796600D01*
X185216800Y-98475800D02*
X185216800Y-90525600D01*
X185166000Y-98526600D02*
X185216800Y-98475800D01*
X182812000Y-89668000D02*
X184359200Y-89668000D01*
X184359200Y-89668000D02*
X185216800Y-90525600D01*
D28*
X118015106Y-93786802D02*
X117408802Y-93786802D01*
X116341802Y-92719802D02*
X114763326Y-92719802D01*
X117408802Y-93786802D02*
X116341802Y-92719802D01*
X114983000Y-92805000D02*
X114554000Y-92376000D01*
D30*
X138938000Y-105918000D02*
X138938000Y-108051600D01*
X181762400Y-102031800D02*
X196977000Y-102031800D01*
X196977000Y-102031800D02*
X197434200Y-101574600D01*
X197434200Y-101574600D02*
X197434200Y-92659200D01*
X197434200Y-92659200D02*
X189128400Y-84353400D01*
X189128400Y-84353400D02*
X184327800Y-84353400D01*
X184327800Y-84353400D02*
X183813200Y-84868000D01*
X183813200Y-84868000D02*
X182812000Y-84868000D01*
X174421802Y-109372398D02*
X181762400Y-102031800D01*
X140258798Y-109372398D02*
X174421802Y-109372398D01*
X138938000Y-108051600D02*
X140258798Y-109372398D01*
X138938000Y-102442000D02*
X138938000Y-105918000D01*
X138938000Y-105918000D02*
X138938000Y-105968800D01*
D28*
X136380220Y-101092000D02*
X137588000Y-101092000D01*
X137588000Y-101092000D02*
X138938000Y-102442000D01*
D30*
X127254028Y-78486028D02*
X124205999Y-75437999D01*
X132080000Y-102342000D02*
X128828829Y-99090829D01*
X132080000Y-102442000D02*
X132080000Y-102342000D01*
X128828829Y-95022888D02*
X127254028Y-93448087D01*
X128828829Y-99090829D02*
X128828829Y-95022888D01*
X127254028Y-93448087D02*
X127254028Y-78486028D01*
X124205999Y-75437999D02*
X123444000Y-74676000D01*
D28*
X134381240Y-102042000D02*
X132480000Y-102042000D01*
X132480000Y-102042000D02*
X132080000Y-102442000D01*
D30*
X132080000Y-95076000D02*
X130636000Y-95076000D01*
X128270000Y-76962000D02*
X125984000Y-74676000D01*
X128270000Y-92710000D02*
X128270000Y-76962000D01*
X130636000Y-95076000D02*
X128270000Y-92710000D01*
D28*
X134381240Y-94676000D02*
X132480000Y-94676000D01*
X132480000Y-94676000D02*
X132080000Y-95076000D01*
D30*
X122691802Y-100018978D02*
X123444000Y-100771176D01*
X123444000Y-104078370D02*
X123444000Y-105156000D01*
X122691802Y-99831802D02*
X122691802Y-100018978D01*
X123444000Y-100771176D02*
X123444000Y-104078370D01*
D28*
X122383326Y-99831802D02*
X122691802Y-99831802D01*
X120014085Y-100202804D02*
X122012324Y-100202804D01*
X122012324Y-100202804D02*
X122383326Y-99831802D01*
D30*
X127914409Y-103454200D02*
X127914409Y-104546409D01*
X127914409Y-104546409D02*
X128524000Y-105156000D01*
X125222000Y-92709243D02*
X127914409Y-95401652D01*
X127914409Y-95401652D02*
X127914409Y-103454200D01*
X127914409Y-103454200D02*
X127914409Y-103468779D01*
X125222000Y-88038478D02*
X125222000Y-92709243D01*
X122383326Y-85199804D02*
X125222000Y-88038478D01*
X122383326Y-85099804D02*
X122383326Y-85199804D01*
D28*
X120014086Y-85470803D02*
X122012327Y-85470803D01*
X122012327Y-85470803D02*
X122383326Y-85099804D01*
D30*
X122383326Y-77733802D02*
X122383326Y-77833802D01*
X128371619Y-95212270D02*
X128371619Y-102463619D01*
X126238000Y-81688476D02*
X126238000Y-93078651D01*
X126238000Y-93078651D02*
X128371619Y-95212270D01*
X122383326Y-77833802D02*
X126238000Y-81688476D01*
X130302001Y-104394001D02*
X131064000Y-105156000D01*
X128371619Y-102463619D02*
X130302001Y-104394001D01*
D28*
X120014086Y-77977803D02*
X122139325Y-77977803D01*
X122139325Y-77977803D02*
X122383326Y-77733802D01*
D30*
X125831590Y-103886000D02*
X125831590Y-105003590D01*
X125831590Y-105003590D02*
X125984000Y-105156000D01*
X122383325Y-92565802D02*
X125831590Y-96014067D01*
X125831590Y-96014067D02*
X125831590Y-103886000D01*
X125831590Y-103886000D02*
X125831590Y-103925960D01*
X122383325Y-92465802D02*
X122383325Y-92565802D01*
D28*
X120014086Y-92836802D02*
X122012325Y-92836802D01*
X122012325Y-92836802D02*
X122383325Y-92465802D01*
D30*
X132080000Y-87710000D02*
X130890000Y-87710000D01*
X129286000Y-75438000D02*
X128524000Y-74676000D01*
X129286000Y-86106000D02*
X129286000Y-75438000D01*
X130890000Y-87710000D02*
X129286000Y-86106000D01*
D28*
X134381240Y-87310000D02*
X132480000Y-87310000D01*
X132480000Y-87310000D02*
X132080000Y-87710000D01*
D30*
X132080000Y-80344000D02*
X130890000Y-80344000D01*
X130302000Y-75438000D02*
X131064000Y-74676000D01*
X130302000Y-79756000D02*
X130302000Y-75438000D01*
X130890000Y-80344000D02*
X130302000Y-79756000D01*
D28*
X134635240Y-79944000D02*
X132480000Y-79944000D01*
X132480000Y-79944000D02*
X132080000Y-80344000D01*
X143611600Y-97318200D02*
X143825600Y-97318200D01*
X143825600Y-97318200D02*
X145694400Y-99187000D01*
X141361800Y-97318200D02*
X143611600Y-97318200D01*
X143611600Y-97318200D02*
X143698600Y-97318200D01*
X138938000Y-85010000D02*
X139747000Y-85010000D01*
X141478000Y-86741000D02*
X141478000Y-93218000D01*
X139747000Y-85010000D02*
X141478000Y-86741000D01*
D30*
X175914000Y-86468000D02*
X175959307Y-86422693D01*
X174312000Y-86468000D02*
X175914000Y-86468000D01*
D28*
X112268000Y-101346000D02*
X112268000Y-108204000D01*
X112268000Y-108204000D02*
X115062000Y-110998000D01*
X138938000Y-92376000D02*
X140636000Y-92376000D01*
X140636000Y-92376000D02*
X141478000Y-93218000D01*
X141478000Y-97202000D02*
X141361800Y-97318200D01*
X141361800Y-97318200D02*
X140422000Y-98258000D01*
X141478000Y-93218000D02*
X141478000Y-97202000D01*
X140422000Y-98258000D02*
X138938000Y-99742000D01*
D30*
X174312000Y-88068000D02*
X175190000Y-88068000D01*
X175190000Y-88068000D02*
X175514000Y-88392000D01*
D28*
X185420000Y-88372000D02*
X187178000Y-88372000D01*
X187178000Y-88372000D02*
X187198000Y-88392000D01*
D30*
X182812000Y-88868000D02*
X184924000Y-88868000D01*
X184924000Y-88868000D02*
X185420000Y-88372000D01*
D28*
X178054000Y-75612000D02*
X178054000Y-73406000D01*
X182824000Y-88880000D02*
X182812000Y-88868000D01*
X138938000Y-77390000D02*
X140636000Y-77390000D01*
X141478000Y-82470000D02*
X138938000Y-85010000D01*
X141478000Y-78232000D02*
X141478000Y-82470000D01*
X140636000Y-77390000D02*
X141478000Y-78232000D01*
X114763325Y-87799803D02*
X114638197Y-87799803D01*
X114638197Y-87799803D02*
X112268000Y-90170000D01*
X114763326Y-95419802D02*
X114469802Y-95419802D01*
X114469802Y-95419802D02*
X112268000Y-93218000D01*
X114763325Y-102531802D02*
X113453802Y-102531802D01*
X112268000Y-82675127D02*
X114763325Y-80179802D01*
X112268000Y-101346000D02*
X112268000Y-93218000D01*
X112268000Y-93218000D02*
X112268000Y-90170000D01*
X112268000Y-90170000D02*
X112268000Y-82675127D01*
X113453802Y-102531802D02*
X112268000Y-101346000D01*
X154412000Y-82296000D02*
X154412000Y-79602000D01*
X154412000Y-79602000D02*
X154512000Y-79502000D01*
X154512000Y-79502000D02*
X154512000Y-78406000D01*
X154512000Y-78406000D02*
X155194000Y-77724000D01*
D31*
G36*
X110413800Y-72110600D02*
X110419803Y-72140246D01*
X110436868Y-72165221D01*
X110462305Y-72181589D01*
X110490000Y-72186800D01*
X133731000Y-72186800D01*
X133733211Y-72186768D01*
X141607211Y-71958168D01*
X141636671Y-71951307D01*
X141661140Y-71933525D01*
X141676763Y-71907624D01*
X141681200Y-71882000D01*
X141681200Y-67785189D01*
X144405489Y-67785189D01*
X144685343Y-68343331D01*
X145157486Y-68751891D01*
X145524013Y-68903699D01*
X145770600Y-68804039D01*
X145770600Y-67538600D01*
X144504146Y-67538600D01*
X144405489Y-67785189D01*
X141681200Y-67785189D01*
X141681200Y-66936411D01*
X144405489Y-66936411D01*
X144504146Y-67183000D01*
X145770600Y-67183000D01*
X145770600Y-65917561D01*
X146126200Y-65917561D01*
X146126200Y-67183000D01*
X146146200Y-67183000D01*
X146146200Y-67538600D01*
X146126200Y-67538600D01*
X146126200Y-68804039D01*
X146372787Y-68903699D01*
X146739314Y-68751891D01*
X147211457Y-68343331D01*
X147239322Y-68287757D01*
X147239322Y-68376800D01*
X147255262Y-68461514D01*
X147305328Y-68539318D01*
X147381720Y-68591515D01*
X147472400Y-68609878D01*
X149504400Y-68609878D01*
X149589114Y-68593938D01*
X149666918Y-68543872D01*
X149719115Y-68467480D01*
X149737478Y-68376800D01*
X149737478Y-66344800D01*
X149721538Y-66260086D01*
X149671472Y-66182282D01*
X149595080Y-66130085D01*
X149504400Y-66111722D01*
X147472400Y-66111722D01*
X147387686Y-66127662D01*
X147309882Y-66177728D01*
X147257685Y-66254120D01*
X147239322Y-66344800D01*
X147239322Y-66433843D01*
X147211457Y-66378269D01*
X146739314Y-65969709D01*
X146372787Y-65817901D01*
X146126200Y-65917561D01*
X145770600Y-65917561D01*
X145524013Y-65817901D01*
X145157486Y-65969709D01*
X144685343Y-66378269D01*
X144405489Y-66936411D01*
X141681200Y-66936411D01*
X141681200Y-65176400D01*
X201345800Y-65176400D01*
X201345800Y-118795800D01*
X96596200Y-118795800D01*
X96596200Y-115112800D01*
X175128522Y-115112800D01*
X175128522Y-117144800D01*
X175144462Y-117229514D01*
X175194528Y-117307318D01*
X175270920Y-117359515D01*
X175361600Y-117377878D01*
X177088800Y-117377878D01*
X177173514Y-117361938D01*
X177251318Y-117311872D01*
X177303515Y-117235480D01*
X177321878Y-117144800D01*
X177321878Y-115952017D01*
X177673000Y-115952017D01*
X177673000Y-116305583D01*
X177756139Y-116723550D01*
X177992898Y-117077885D01*
X178347233Y-117314644D01*
X178765200Y-117397783D01*
X179183167Y-117314644D01*
X179537502Y-117077885D01*
X179774261Y-116723550D01*
X179857400Y-116305583D01*
X179857400Y-115952017D01*
X179774261Y-115534050D01*
X179537502Y-115179715D01*
X179183167Y-114942956D01*
X178765200Y-114859817D01*
X178347233Y-114942956D01*
X177992898Y-115179715D01*
X177756139Y-115534050D01*
X177673000Y-115952017D01*
X177321878Y-115952017D01*
X177321878Y-115112800D01*
X177305938Y-115028086D01*
X177255872Y-114950282D01*
X177179480Y-114898085D01*
X177088800Y-114879722D01*
X175361600Y-114879722D01*
X175276886Y-114895662D01*
X175199082Y-114945728D01*
X175146885Y-115022120D01*
X175128522Y-115112800D01*
X96596200Y-115112800D01*
X96596200Y-112795523D01*
X97939464Y-112795523D01*
X98179285Y-113375935D01*
X98622965Y-113820390D01*
X99202957Y-114061224D01*
X99830963Y-114061772D01*
X100411375Y-113821951D01*
X100855830Y-113378271D01*
X101096664Y-112798279D01*
X101096666Y-112795522D01*
X107939464Y-112795522D01*
X108179285Y-113375934D01*
X108622965Y-113820389D01*
X109202957Y-114061223D01*
X109830963Y-114061771D01*
X110411375Y-113821950D01*
X110855830Y-113378270D01*
X111096664Y-112798278D01*
X111097212Y-112170272D01*
X110857391Y-111589860D01*
X110413711Y-111145405D01*
X109833719Y-110904571D01*
X109205713Y-110904023D01*
X108625301Y-111143844D01*
X108180846Y-111587524D01*
X107940012Y-112167516D01*
X107939464Y-112795522D01*
X101096666Y-112795522D01*
X101097212Y-112170273D01*
X100857391Y-111589861D01*
X100413711Y-111145406D01*
X99833719Y-110904572D01*
X99205713Y-110904024D01*
X98625301Y-111143845D01*
X98180846Y-111587525D01*
X97940012Y-112167517D01*
X97939464Y-112795523D01*
X96596200Y-112795523D01*
X96596200Y-82675127D01*
X111734600Y-82675127D01*
X111734600Y-108204000D01*
X111775203Y-108408123D01*
X111890829Y-108581171D01*
X114539383Y-111229725D01*
X114577224Y-111321306D01*
X114737849Y-111482211D01*
X114947823Y-111569400D01*
X115175180Y-111569599D01*
X115385306Y-111482776D01*
X115546211Y-111322151D01*
X115633400Y-111112177D01*
X115633599Y-110884820D01*
X115546776Y-110674694D01*
X115386151Y-110513789D01*
X115293772Y-110475430D01*
X112801400Y-107983058D01*
X112801400Y-102633742D01*
X113076631Y-102908973D01*
X113249678Y-103024599D01*
X113453802Y-103065202D01*
X113880247Y-103065202D01*
X113880247Y-103281802D01*
X113896187Y-103366516D01*
X113946253Y-103444320D01*
X114022645Y-103496517D01*
X114113325Y-103514880D01*
X115413325Y-103514880D01*
X115498039Y-103498940D01*
X115575843Y-103448874D01*
X115628040Y-103372482D01*
X115646403Y-103281802D01*
X115646403Y-101781802D01*
X115630463Y-101697088D01*
X115580397Y-101619284D01*
X115504005Y-101567087D01*
X115413325Y-101548724D01*
X114113325Y-101548724D01*
X114028611Y-101564664D01*
X113950807Y-101614730D01*
X113898610Y-101691122D01*
X113880247Y-101781802D01*
X113880247Y-101998402D01*
X113674744Y-101998402D01*
X112801400Y-101125058D01*
X112801400Y-94505742D01*
X113880248Y-95584590D01*
X113880248Y-96169802D01*
X113896188Y-96254516D01*
X113946254Y-96332320D01*
X114022646Y-96384517D01*
X114113326Y-96402880D01*
X115413326Y-96402880D01*
X115498040Y-96386940D01*
X115575844Y-96336874D01*
X115628041Y-96260482D01*
X115646404Y-96169802D01*
X115646404Y-94669802D01*
X115630464Y-94585088D01*
X115580398Y-94507284D01*
X115504006Y-94455087D01*
X115413326Y-94436724D01*
X114241066Y-94436724D01*
X112801400Y-92997058D01*
X112801400Y-90390942D01*
X114409461Y-88782881D01*
X115413325Y-88782881D01*
X115498039Y-88766941D01*
X115575843Y-88716875D01*
X115628040Y-88640483D01*
X115646403Y-88549803D01*
X115646403Y-87049803D01*
X115630463Y-86965089D01*
X115580397Y-86887285D01*
X115504005Y-86835088D01*
X115413325Y-86816725D01*
X114113325Y-86816725D01*
X114028611Y-86832665D01*
X113950807Y-86882731D01*
X113898610Y-86959123D01*
X113880247Y-87049803D01*
X113880247Y-87803411D01*
X112801400Y-88882258D01*
X112801400Y-82896069D01*
X114534588Y-81162880D01*
X115413325Y-81162880D01*
X115498039Y-81146940D01*
X115575843Y-81096874D01*
X115628040Y-81020482D01*
X115646403Y-80929802D01*
X115646403Y-79429802D01*
X115630463Y-79345088D01*
X115580397Y-79267284D01*
X115504005Y-79215087D01*
X115413325Y-79196724D01*
X114113325Y-79196724D01*
X114028611Y-79212664D01*
X113950807Y-79262730D01*
X113898610Y-79339122D01*
X113880247Y-79429802D01*
X113880247Y-80308539D01*
X111890829Y-82297956D01*
X111775203Y-82471004D01*
X111734600Y-82675127D01*
X96596200Y-82675127D01*
X96596200Y-76729802D01*
X113880247Y-76729802D01*
X113880247Y-78229802D01*
X113896187Y-78314516D01*
X113946253Y-78392320D01*
X114022645Y-78444517D01*
X114113325Y-78462880D01*
X114624850Y-78462880D01*
X114778877Y-78565797D01*
X114983000Y-78606401D01*
X115187124Y-78565797D01*
X115341151Y-78462880D01*
X115413325Y-78462880D01*
X115498039Y-78446940D01*
X115575843Y-78396874D01*
X115628040Y-78320482D01*
X115646403Y-78229802D01*
X115646403Y-78013202D01*
X116374860Y-78013202D01*
X117332028Y-78970370D01*
X117332028Y-79327803D01*
X117347968Y-79412517D01*
X117398034Y-79490321D01*
X117474426Y-79542518D01*
X117565106Y-79560881D01*
X117634106Y-79560881D01*
X117634106Y-82353506D01*
X117663108Y-82499309D01*
X117745698Y-82622914D01*
X118878285Y-83755501D01*
X118878285Y-89725262D01*
X118396106Y-89243082D01*
X118396106Y-87053881D01*
X118465106Y-87053881D01*
X118549820Y-87037941D01*
X118627624Y-86987875D01*
X118679821Y-86911483D01*
X118698184Y-86820803D01*
X118698184Y-86020803D01*
X118682244Y-85936089D01*
X118632178Y-85858285D01*
X118555786Y-85806088D01*
X118465106Y-85787725D01*
X117565106Y-85787725D01*
X117535616Y-85793274D01*
X116464974Y-84722632D01*
X116291926Y-84607006D01*
X116087803Y-84566403D01*
X115646403Y-84566403D01*
X115646403Y-84349803D01*
X115630463Y-84265089D01*
X115580397Y-84187285D01*
X115504005Y-84135088D01*
X115413325Y-84116725D01*
X114113325Y-84116725D01*
X114028611Y-84132665D01*
X113950807Y-84182731D01*
X113898610Y-84259123D01*
X113880247Y-84349803D01*
X113880247Y-85849803D01*
X113896187Y-85934517D01*
X113946253Y-86012321D01*
X114022645Y-86064518D01*
X114113325Y-86082881D01*
X115413325Y-86082881D01*
X115498039Y-86066941D01*
X115575843Y-86016875D01*
X115628040Y-85940483D01*
X115646403Y-85849803D01*
X115646403Y-85633203D01*
X115866861Y-85633203D01*
X117031632Y-86797974D01*
X117204680Y-86913600D01*
X117374966Y-86947472D01*
X117398034Y-86983321D01*
X117474426Y-87035518D01*
X117565106Y-87053881D01*
X117634106Y-87053881D01*
X117634106Y-89400898D01*
X117663108Y-89546701D01*
X117745698Y-89670306D01*
X118643400Y-90568007D01*
X118643400Y-93241723D01*
X118632178Y-93224284D01*
X118555786Y-93172087D01*
X118465106Y-93153724D01*
X117565106Y-93153724D01*
X117535615Y-93159273D01*
X116718973Y-92342631D01*
X116545925Y-92227005D01*
X116341802Y-92186402D01*
X115646404Y-92186402D01*
X115646404Y-91969802D01*
X115630464Y-91885088D01*
X115580398Y-91807284D01*
X115504006Y-91755087D01*
X115413326Y-91736724D01*
X114113326Y-91736724D01*
X114028612Y-91752664D01*
X113950808Y-91802730D01*
X113898611Y-91879122D01*
X113880248Y-91969802D01*
X113880248Y-93469802D01*
X113896188Y-93554516D01*
X113946254Y-93632320D01*
X114022646Y-93684517D01*
X114113326Y-93702880D01*
X115413326Y-93702880D01*
X115498040Y-93686940D01*
X115575844Y-93636874D01*
X115628041Y-93560482D01*
X115646404Y-93469802D01*
X115646404Y-93253202D01*
X116120860Y-93253202D01*
X117031631Y-94163973D01*
X117204679Y-94279599D01*
X117374966Y-94313472D01*
X117398034Y-94349320D01*
X117474426Y-94401517D01*
X117565106Y-94419880D01*
X117634106Y-94419880D01*
X117634106Y-98863506D01*
X117663108Y-99009309D01*
X117745698Y-99132914D01*
X118541800Y-99929016D01*
X118541800Y-100535257D01*
X118465105Y-100519726D01*
X118038068Y-100519726D01*
X116972973Y-99454631D01*
X116799925Y-99339005D01*
X116595802Y-99298402D01*
X115646403Y-99298402D01*
X115646403Y-99081802D01*
X115630463Y-98997088D01*
X115580397Y-98919284D01*
X115504005Y-98867087D01*
X115413325Y-98848724D01*
X114113325Y-98848724D01*
X114028611Y-98864664D01*
X113950807Y-98914730D01*
X113898610Y-98991122D01*
X113880247Y-99081802D01*
X113880247Y-100581802D01*
X113896187Y-100666516D01*
X113946253Y-100744320D01*
X114022645Y-100796517D01*
X114113325Y-100814880D01*
X115026946Y-100814880D01*
X115110000Y-100831401D01*
X115193054Y-100814880D01*
X115413325Y-100814880D01*
X115498039Y-100798940D01*
X115575843Y-100748874D01*
X115628040Y-100672482D01*
X115646403Y-100581802D01*
X115646403Y-100365202D01*
X116374860Y-100365202D01*
X117332027Y-101322369D01*
X117332027Y-101552804D01*
X117347967Y-101637518D01*
X117398033Y-101715322D01*
X117474425Y-101767519D01*
X117565105Y-101785882D01*
X117634105Y-101785882D01*
X117634105Y-108337705D01*
X117663107Y-108483508D01*
X117745697Y-108607113D01*
X120710790Y-111572205D01*
X120710792Y-111572208D01*
X120801775Y-111633000D01*
X120834398Y-111654798D01*
X120980200Y-111683801D01*
X120980205Y-111683800D01*
X173349584Y-111683800D01*
X173570929Y-111905144D01*
X173570801Y-112050980D01*
X173657624Y-112261106D01*
X173818249Y-112422011D01*
X174028223Y-112509200D01*
X174255580Y-112509399D01*
X174465706Y-112422576D01*
X174626611Y-112261951D01*
X174713800Y-112051977D01*
X174713995Y-111829011D01*
X177058266Y-114173282D01*
X177067002Y-114217202D01*
X177149592Y-114340808D01*
X177273198Y-114423398D01*
X177419000Y-114452400D01*
X179089984Y-114452400D01*
X180275482Y-115637898D01*
X180213000Y-115952017D01*
X180213000Y-116305583D01*
X180296139Y-116723550D01*
X180532898Y-117077885D01*
X180887233Y-117314644D01*
X181305200Y-117397783D01*
X181723167Y-117314644D01*
X182077502Y-117077885D01*
X182314261Y-116723550D01*
X182397400Y-116305583D01*
X182397400Y-115952017D01*
X182753000Y-115952017D01*
X182753000Y-116305583D01*
X182836139Y-116723550D01*
X183072898Y-117077885D01*
X183427233Y-117314644D01*
X183845200Y-117397783D01*
X184263167Y-117314644D01*
X184617502Y-117077885D01*
X184854261Y-116723550D01*
X184892257Y-116532529D01*
X184960738Y-116532529D01*
X185165348Y-117058516D01*
X185555670Y-117466163D01*
X185984818Y-117672537D01*
X186207400Y-117570750D01*
X186207400Y-116306600D01*
X186563000Y-116306600D01*
X186563000Y-117570750D01*
X186785582Y-117672537D01*
X187214730Y-117466163D01*
X187605052Y-117058516D01*
X187809662Y-116532529D01*
X187685391Y-116306600D01*
X186563000Y-116306600D01*
X186207400Y-116306600D01*
X185085009Y-116306600D01*
X184960738Y-116532529D01*
X184892257Y-116532529D01*
X184937400Y-116305583D01*
X184937400Y-115952017D01*
X184892258Y-115725071D01*
X184960738Y-115725071D01*
X185085009Y-115951000D01*
X186207400Y-115951000D01*
X186207400Y-114686850D01*
X186563000Y-114686850D01*
X186563000Y-115951000D01*
X187685391Y-115951000D01*
X187809662Y-115725071D01*
X187605052Y-115199084D01*
X187214730Y-114791437D01*
X186785582Y-114585063D01*
X186563000Y-114686850D01*
X186207400Y-114686850D01*
X185984818Y-114585063D01*
X185555670Y-114791437D01*
X185165348Y-115199084D01*
X184960738Y-115725071D01*
X184892258Y-115725071D01*
X184854261Y-115534050D01*
X184617502Y-115179715D01*
X184263167Y-114942956D01*
X183845200Y-114859817D01*
X183427233Y-114942956D01*
X183072898Y-115179715D01*
X182836139Y-115534050D01*
X182753000Y-115952017D01*
X182397400Y-115952017D01*
X182314261Y-115534050D01*
X182077502Y-115179715D01*
X181723167Y-114942956D01*
X181305200Y-114859817D01*
X180887233Y-114942956D01*
X180749921Y-115034705D01*
X179517208Y-113801992D01*
X179432069Y-113745104D01*
X179469803Y-113737598D01*
X179593408Y-113655008D01*
X180126805Y-113121610D01*
X180126808Y-113121608D01*
X180209398Y-112998002D01*
X180238401Y-112852200D01*
X180238400Y-112852195D01*
X180238400Y-111757007D01*
X180431298Y-112045699D01*
X180785633Y-112282458D01*
X181203600Y-112365597D01*
X181621567Y-112282458D01*
X181975902Y-112045699D01*
X182212661Y-111691364D01*
X182295800Y-111273397D01*
X182295800Y-111230603D01*
X182212661Y-110812636D01*
X181975902Y-110458301D01*
X181621567Y-110221542D01*
X181203600Y-110138403D01*
X180785633Y-110221542D01*
X180431298Y-110458301D01*
X180238400Y-110746993D01*
X180238400Y-110216016D01*
X180741468Y-109712948D01*
X180785633Y-109742458D01*
X181203600Y-109825597D01*
X181621567Y-109742458D01*
X181975902Y-109505699D01*
X182212661Y-109151364D01*
X182220414Y-109112385D01*
X182352249Y-109112385D01*
X182611380Y-109614354D01*
X183042881Y-109978948D01*
X183343218Y-110103337D01*
X183565798Y-110001551D01*
X183565798Y-110159800D01*
X183636030Y-110159800D01*
X183325633Y-110221542D01*
X182971298Y-110458301D01*
X182734539Y-110812636D01*
X182651400Y-111230603D01*
X182651400Y-111273397D01*
X182734539Y-111691364D01*
X182971298Y-112045699D01*
X183325633Y-112282458D01*
X183743600Y-112365597D01*
X184161567Y-112282458D01*
X184515902Y-112045699D01*
X184752661Y-111691364D01*
X184835800Y-111273397D01*
X184835800Y-111230603D01*
X184752661Y-110812636D01*
X184515902Y-110458301D01*
X184161567Y-110221542D01*
X183851170Y-110159800D01*
X183921402Y-110159800D01*
X183921402Y-110001551D01*
X184143982Y-110103337D01*
X184444319Y-109978948D01*
X184875820Y-109614354D01*
X185134951Y-109112385D01*
X185034405Y-108889800D01*
X183921400Y-108889800D01*
X183921400Y-108909800D01*
X183565800Y-108909800D01*
X183565800Y-108889800D01*
X182452795Y-108889800D01*
X182352249Y-109112385D01*
X182220414Y-109112385D01*
X182295800Y-108733397D01*
X182295800Y-108690603D01*
X182220415Y-108311615D01*
X182352249Y-108311615D01*
X182452795Y-108534200D01*
X183565800Y-108534200D01*
X183565800Y-107422450D01*
X183921400Y-107422450D01*
X183921400Y-108534200D01*
X185034405Y-108534200D01*
X185134951Y-108311615D01*
X184875820Y-107809646D01*
X184444319Y-107445052D01*
X184143982Y-107320663D01*
X183921400Y-107422450D01*
X183565800Y-107422450D01*
X183343218Y-107320663D01*
X183042881Y-107445052D01*
X182611380Y-107809646D01*
X182352249Y-108311615D01*
X182220415Y-108311615D01*
X182212661Y-108272636D01*
X181975902Y-107918301D01*
X181621567Y-107681542D01*
X181203600Y-107598403D01*
X180785633Y-107681542D01*
X180431298Y-107918301D01*
X180194539Y-108272636D01*
X180111400Y-108690603D01*
X180111400Y-108733397D01*
X180194539Y-109151364D01*
X180206908Y-109169876D01*
X179587992Y-109788792D01*
X179505402Y-109912397D01*
X179492870Y-109975402D01*
X179476400Y-110058200D01*
X179476400Y-110155322D01*
X177800000Y-110155322D01*
X177715286Y-110171262D01*
X177637482Y-110221328D01*
X177585285Y-110297720D01*
X177566922Y-110388400D01*
X177566922Y-110871000D01*
X176470797Y-110871000D01*
X175159990Y-109560192D01*
X175036385Y-109477602D01*
X174890582Y-109448600D01*
X174884416Y-109448600D01*
X175642413Y-108690603D01*
X177571400Y-108690603D01*
X177571400Y-108733397D01*
X177654539Y-109151364D01*
X177891298Y-109505699D01*
X178245633Y-109742458D01*
X178663600Y-109825597D01*
X179081567Y-109742458D01*
X179435902Y-109505699D01*
X179672661Y-109151364D01*
X179755800Y-108733397D01*
X179755800Y-108690603D01*
X179672661Y-108272636D01*
X179435902Y-107918301D01*
X179081567Y-107681542D01*
X178663600Y-107598403D01*
X178245633Y-107681542D01*
X177891298Y-107918301D01*
X177654539Y-108272636D01*
X177571400Y-108690603D01*
X175642413Y-108690603D01*
X178806616Y-105526400D01*
X193032722Y-105526400D01*
X193032722Y-106676400D01*
X193048662Y-106761114D01*
X193098728Y-106838918D01*
X193175120Y-106891115D01*
X193265800Y-106909478D01*
X194265800Y-106909478D01*
X194350514Y-106893538D01*
X194428318Y-106843472D01*
X194480515Y-106767080D01*
X194498878Y-106676400D01*
X194498878Y-105526400D01*
X195532722Y-105526400D01*
X195532722Y-106676400D01*
X195548662Y-106761114D01*
X195598728Y-106838918D01*
X195675120Y-106891115D01*
X195765800Y-106909478D01*
X196765800Y-106909478D01*
X196850514Y-106893538D01*
X196928318Y-106843472D01*
X196980515Y-106767080D01*
X196998878Y-106676400D01*
X196998878Y-105526400D01*
X198032722Y-105526400D01*
X198032722Y-106676400D01*
X198048662Y-106761114D01*
X198098728Y-106838918D01*
X198175120Y-106891115D01*
X198265800Y-106909478D01*
X199265800Y-106909478D01*
X199350514Y-106893538D01*
X199428318Y-106843472D01*
X199480515Y-106767080D01*
X199498878Y-106676400D01*
X199498878Y-105526400D01*
X199482938Y-105441686D01*
X199432872Y-105363882D01*
X199356480Y-105311685D01*
X199265800Y-105293322D01*
X198265800Y-105293322D01*
X198181086Y-105309262D01*
X198103282Y-105359328D01*
X198051085Y-105435720D01*
X198032722Y-105526400D01*
X196998878Y-105526400D01*
X196982938Y-105441686D01*
X196932872Y-105363882D01*
X196856480Y-105311685D01*
X196765800Y-105293322D01*
X195765800Y-105293322D01*
X195681086Y-105309262D01*
X195603282Y-105359328D01*
X195551085Y-105435720D01*
X195532722Y-105526400D01*
X194498878Y-105526400D01*
X194482938Y-105441686D01*
X194432872Y-105363882D01*
X194356480Y-105311685D01*
X194265800Y-105293322D01*
X193265800Y-105293322D01*
X193181086Y-105309262D01*
X193103282Y-105359328D01*
X193051085Y-105435720D01*
X193032722Y-105526400D01*
X178806616Y-105526400D01*
X180927177Y-103405839D01*
X194112087Y-103405839D01*
X194211382Y-103646151D01*
X194395082Y-103830172D01*
X194635221Y-103929887D01*
X194895239Y-103930113D01*
X195135551Y-103830818D01*
X195319572Y-103647118D01*
X195419287Y-103406979D01*
X195419287Y-103405839D01*
X197112087Y-103405839D01*
X197211382Y-103646151D01*
X197395082Y-103830172D01*
X197635221Y-103929887D01*
X197895239Y-103930113D01*
X198135551Y-103830818D01*
X198319572Y-103647118D01*
X198419287Y-103406979D01*
X198419513Y-103146961D01*
X198320218Y-102906649D01*
X198136518Y-102722628D01*
X197896379Y-102622913D01*
X197636361Y-102622687D01*
X197396049Y-102721982D01*
X197212028Y-102905682D01*
X197112313Y-103145821D01*
X197112087Y-103405839D01*
X195419287Y-103405839D01*
X195419513Y-103146961D01*
X195320218Y-102906649D01*
X195136518Y-102722628D01*
X194896379Y-102622913D01*
X194636361Y-102622687D01*
X194396049Y-102721982D01*
X194212028Y-102905682D01*
X194112313Y-103145821D01*
X194112087Y-103405839D01*
X180927177Y-103405839D01*
X181920216Y-102412800D01*
X196977000Y-102412800D01*
X197122803Y-102383798D01*
X197246408Y-102301208D01*
X197703605Y-101844010D01*
X197703608Y-101844008D01*
X197786198Y-101720402D01*
X197815200Y-101574600D01*
X197815200Y-101401983D01*
X197934877Y-101521661D01*
X198149595Y-101610600D01*
X198441950Y-101610600D01*
X198588000Y-101464550D01*
X198588000Y-100629200D01*
X198943600Y-100629200D01*
X198943600Y-101464550D01*
X199089650Y-101610600D01*
X199382005Y-101610600D01*
X199596723Y-101521661D01*
X199761061Y-101357322D01*
X199850000Y-101142604D01*
X199850000Y-100775250D01*
X199703950Y-100629200D01*
X198943600Y-100629200D01*
X198588000Y-100629200D01*
X198568000Y-100629200D01*
X198568000Y-100273600D01*
X198588000Y-100273600D01*
X198588000Y-99438250D01*
X198943600Y-99438250D01*
X198943600Y-100273600D01*
X199703950Y-100273600D01*
X199850000Y-100127550D01*
X199850000Y-99760196D01*
X199761061Y-99545478D01*
X199596723Y-99381139D01*
X199382005Y-99292200D01*
X199089650Y-99292200D01*
X198943600Y-99438250D01*
X198588000Y-99438250D01*
X198441950Y-99292200D01*
X198149595Y-99292200D01*
X197934877Y-99381139D01*
X197815200Y-99500817D01*
X197815200Y-92659200D01*
X197807083Y-92618392D01*
X197786198Y-92513397D01*
X197703608Y-92389792D01*
X189397808Y-84083992D01*
X189274203Y-84001402D01*
X189128400Y-83972400D01*
X184327800Y-83972400D01*
X184181997Y-84001402D01*
X184147993Y-84024123D01*
X184058392Y-84083992D01*
X184058390Y-84083995D01*
X183655384Y-84487000D01*
X183629837Y-84487000D01*
X183629138Y-84483286D01*
X183619809Y-84468788D01*
X183626715Y-84458680D01*
X183645078Y-84368000D01*
X183645078Y-83768000D01*
X183629138Y-83683286D01*
X183579072Y-83605482D01*
X183502680Y-83553285D01*
X183412000Y-83534922D01*
X183193000Y-83534922D01*
X183193000Y-74811200D01*
X183177781Y-74734688D01*
X183163998Y-74665397D01*
X183081408Y-74541792D01*
X178399608Y-69859992D01*
X178276003Y-69777402D01*
X178130200Y-69748400D01*
X147701000Y-69748400D01*
X147555197Y-69777402D01*
X147505688Y-69810483D01*
X147431592Y-69859992D01*
X147431590Y-69859995D01*
X143098184Y-74193400D01*
X138480800Y-74193400D01*
X138334997Y-74222402D01*
X138313331Y-74236879D01*
X138211392Y-74304992D01*
X138211390Y-74304995D01*
X136207405Y-76308980D01*
X136207599Y-76086820D01*
X136120776Y-75876694D01*
X135960151Y-75715789D01*
X135750177Y-75628600D01*
X135522820Y-75628401D01*
X135312694Y-75715224D01*
X135151789Y-75875849D01*
X135113429Y-75968230D01*
X134258069Y-76823589D01*
X134142443Y-76996637D01*
X134119774Y-77110600D01*
X132963078Y-77110600D01*
X132963078Y-76894000D01*
X132947138Y-76809286D01*
X132897072Y-76731482D01*
X132820680Y-76679285D01*
X132730000Y-76660922D01*
X131430000Y-76660922D01*
X131345286Y-76676862D01*
X131267482Y-76726928D01*
X131215285Y-76803320D01*
X131196922Y-76894000D01*
X131196922Y-78394000D01*
X131212862Y-78478714D01*
X131262928Y-78556518D01*
X131339320Y-78608715D01*
X131430000Y-78627078D01*
X132730000Y-78627078D01*
X132814714Y-78611138D01*
X132892518Y-78561072D01*
X132944715Y-78484680D01*
X132963078Y-78394000D01*
X132963078Y-78177400D01*
X133952162Y-78177400D01*
X133952162Y-78444000D01*
X133968102Y-78528714D01*
X134018168Y-78606518D01*
X134094560Y-78658715D01*
X134185240Y-78677078D01*
X135085240Y-78677078D01*
X135169954Y-78661138D01*
X135247758Y-78611072D01*
X135299955Y-78534680D01*
X135318318Y-78444000D01*
X135318318Y-77644000D01*
X135302378Y-77559286D01*
X135252312Y-77481482D01*
X135175920Y-77429285D01*
X135168640Y-77427811D01*
X135168640Y-77421702D01*
X135519241Y-77071100D01*
X135511941Y-77107802D01*
X135498419Y-77175781D01*
X135498419Y-79637841D01*
X135527421Y-79783644D01*
X135610011Y-79907249D01*
X136067800Y-80365037D01*
X136067800Y-83443626D01*
X135960151Y-83335789D01*
X135750177Y-83248600D01*
X135522820Y-83248401D01*
X135312694Y-83335224D01*
X135151789Y-83495849D01*
X135113429Y-83588230D01*
X134184606Y-84517052D01*
X133981240Y-84476600D01*
X132963078Y-84476600D01*
X132963078Y-84260000D01*
X132947138Y-84175286D01*
X132897072Y-84097482D01*
X132820680Y-84045285D01*
X132730000Y-84026922D01*
X131430000Y-84026922D01*
X131345286Y-84042862D01*
X131267482Y-84092928D01*
X131215285Y-84169320D01*
X131196922Y-84260000D01*
X131196922Y-85760000D01*
X131212862Y-85844714D01*
X131262928Y-85922518D01*
X131339320Y-85974715D01*
X131430000Y-85993078D01*
X132730000Y-85993078D01*
X132814714Y-85977138D01*
X132892518Y-85927072D01*
X132944715Y-85850680D01*
X132963078Y-85760000D01*
X132963078Y-85543400D01*
X133698162Y-85543400D01*
X133698162Y-85810000D01*
X133714102Y-85894714D01*
X133764168Y-85972518D01*
X133840560Y-86024715D01*
X133931240Y-86043078D01*
X134831240Y-86043078D01*
X134915954Y-86027138D01*
X134993758Y-85977072D01*
X135045955Y-85900680D01*
X135064318Y-85810000D01*
X135064318Y-85146024D01*
X135867724Y-84342617D01*
X135959306Y-84304776D01*
X136067800Y-84196471D01*
X136067800Y-84271785D01*
X135356011Y-84983573D01*
X135273421Y-85107178D01*
X135267807Y-85135400D01*
X135244419Y-85252981D01*
X135244419Y-87003841D01*
X135273421Y-87149644D01*
X135356011Y-87273249D01*
X135999220Y-87916458D01*
X135999220Y-90740926D01*
X135960151Y-90701789D01*
X135750177Y-90614600D01*
X135522820Y-90614401D01*
X135312694Y-90701224D01*
X135151789Y-90861849D01*
X135113429Y-90954230D01*
X134184606Y-91883052D01*
X133981240Y-91842600D01*
X132963078Y-91842600D01*
X132963078Y-91626000D01*
X132947138Y-91541286D01*
X132897072Y-91463482D01*
X132820680Y-91411285D01*
X132730000Y-91392922D01*
X131430000Y-91392922D01*
X131345286Y-91408862D01*
X131267482Y-91458928D01*
X131215285Y-91535320D01*
X131196922Y-91626000D01*
X131196922Y-93126000D01*
X131212862Y-93210714D01*
X131262928Y-93288518D01*
X131339320Y-93340715D01*
X131430000Y-93359078D01*
X132730000Y-93359078D01*
X132814714Y-93343138D01*
X132892518Y-93293072D01*
X132944715Y-93216680D01*
X132963078Y-93126000D01*
X132963078Y-92909400D01*
X133698162Y-92909400D01*
X133698162Y-93176000D01*
X133714102Y-93260714D01*
X133764168Y-93338518D01*
X133840560Y-93390715D01*
X133931240Y-93409078D01*
X134831240Y-93409078D01*
X134915954Y-93393138D01*
X134993758Y-93343072D01*
X135045955Y-93266680D01*
X135064318Y-93176000D01*
X135064318Y-92512024D01*
X135867724Y-91708617D01*
X135959306Y-91670776D01*
X135999220Y-91630931D01*
X135999220Y-93092922D01*
X135930220Y-93092922D01*
X135845506Y-93108862D01*
X135767702Y-93158928D01*
X135715505Y-93235320D01*
X135697142Y-93326000D01*
X135697142Y-94126000D01*
X135713082Y-94210714D01*
X135763148Y-94288518D01*
X135839540Y-94340715D01*
X135930220Y-94359078D01*
X136830220Y-94359078D01*
X136914934Y-94343138D01*
X136992738Y-94293072D01*
X137015745Y-94259400D01*
X137367058Y-94259400D01*
X138054922Y-94947264D01*
X138054922Y-95826000D01*
X138070862Y-95910714D01*
X138120928Y-95988518D01*
X138197320Y-96040715D01*
X138288000Y-96059078D01*
X139588000Y-96059078D01*
X139672714Y-96043138D01*
X139750518Y-95993072D01*
X139802715Y-95916680D01*
X139821078Y-95826000D01*
X139821078Y-94326000D01*
X139805138Y-94241286D01*
X139755072Y-94163482D01*
X139678680Y-94111285D01*
X139588000Y-94092922D01*
X138709264Y-94092922D01*
X137965171Y-93348829D01*
X137792123Y-93233203D01*
X137588000Y-93192600D01*
X137016029Y-93192600D01*
X136997292Y-93163482D01*
X136920900Y-93111285D01*
X136830220Y-93092922D01*
X136761220Y-93092922D01*
X136761220Y-87758647D01*
X136761221Y-87758642D01*
X136732218Y-87612840D01*
X136649628Y-87489234D01*
X136153472Y-86993078D01*
X136830220Y-86993078D01*
X136914934Y-86977138D01*
X136992738Y-86927072D01*
X137015745Y-86893400D01*
X137367058Y-86893400D01*
X138054922Y-87581264D01*
X138054922Y-88460000D01*
X138070862Y-88544714D01*
X138120928Y-88622518D01*
X138197320Y-88674715D01*
X138288000Y-88693078D01*
X139588000Y-88693078D01*
X139672714Y-88677138D01*
X139750518Y-88627072D01*
X139802715Y-88550680D01*
X139821078Y-88460000D01*
X139821078Y-86960000D01*
X139805138Y-86875286D01*
X139755072Y-86797482D01*
X139678680Y-86745285D01*
X139588000Y-86726922D01*
X138709264Y-86726922D01*
X137965171Y-85982829D01*
X137792123Y-85867203D01*
X137588000Y-85826600D01*
X137016029Y-85826600D01*
X136997292Y-85797482D01*
X136920900Y-85745285D01*
X136830220Y-85726922D01*
X136006419Y-85726922D01*
X136006419Y-85410797D01*
X136718205Y-84699010D01*
X136718208Y-84699008D01*
X136800798Y-84575402D01*
X136804538Y-84556600D01*
X136829801Y-84429600D01*
X136829800Y-84429595D01*
X136829800Y-80207222D01*
X136800798Y-80061420D01*
X136800798Y-80061419D01*
X136754415Y-79992002D01*
X136718208Y-79937814D01*
X136718205Y-79937812D01*
X136407472Y-79627078D01*
X137084220Y-79627078D01*
X137168934Y-79611138D01*
X137246738Y-79561072D01*
X137269745Y-79527400D01*
X137621058Y-79527400D01*
X138054922Y-79961264D01*
X138054922Y-80840000D01*
X138070862Y-80924714D01*
X138120928Y-81002518D01*
X138197320Y-81054715D01*
X138288000Y-81073078D01*
X139588000Y-81073078D01*
X139672714Y-81057138D01*
X139750518Y-81007072D01*
X139802715Y-80930680D01*
X139821078Y-80840000D01*
X139821078Y-79340000D01*
X139805138Y-79255286D01*
X139755072Y-79177482D01*
X139678680Y-79125285D01*
X139588000Y-79106922D01*
X138709264Y-79106922D01*
X138219171Y-78616829D01*
X138046123Y-78501203D01*
X137842000Y-78460600D01*
X137270029Y-78460600D01*
X137251292Y-78431482D01*
X137174900Y-78379285D01*
X137084220Y-78360922D01*
X137015220Y-78360922D01*
X137015220Y-77239196D01*
X137614415Y-76640000D01*
X138054922Y-76640000D01*
X138054922Y-78140000D01*
X138070862Y-78224714D01*
X138120928Y-78302518D01*
X138197320Y-78354715D01*
X138288000Y-78373078D01*
X139588000Y-78373078D01*
X139672714Y-78357138D01*
X139750518Y-78307072D01*
X139802715Y-78230680D01*
X139821078Y-78140000D01*
X139821078Y-77923400D01*
X140415058Y-77923400D01*
X140944600Y-78452942D01*
X140944600Y-82249059D01*
X139166736Y-84026922D01*
X138288000Y-84026922D01*
X138203286Y-84042862D01*
X138125482Y-84092928D01*
X138073285Y-84169320D01*
X138054922Y-84260000D01*
X138054922Y-85760000D01*
X138070862Y-85844714D01*
X138120928Y-85922518D01*
X138197320Y-85974715D01*
X138288000Y-85993078D01*
X139588000Y-85993078D01*
X139672714Y-85977138D01*
X139750518Y-85927072D01*
X139802715Y-85850680D01*
X139807872Y-85825214D01*
X140944600Y-86961942D01*
X140944600Y-91953012D01*
X140840123Y-91883203D01*
X140636000Y-91842600D01*
X139821078Y-91842600D01*
X139821078Y-91626000D01*
X139805138Y-91541286D01*
X139755072Y-91463482D01*
X139678680Y-91411285D01*
X139588000Y-91392922D01*
X138288000Y-91392922D01*
X138203286Y-91408862D01*
X138125482Y-91458928D01*
X138073285Y-91535320D01*
X138054922Y-91626000D01*
X138054922Y-93126000D01*
X138070862Y-93210714D01*
X138120928Y-93288518D01*
X138197320Y-93340715D01*
X138288000Y-93359078D01*
X139588000Y-93359078D01*
X139672714Y-93343138D01*
X139750518Y-93293072D01*
X139802715Y-93216680D01*
X139821078Y-93126000D01*
X139821078Y-92909400D01*
X140415058Y-92909400D01*
X140944600Y-93438942D01*
X140944600Y-96981058D01*
X139166736Y-98758922D01*
X138288000Y-98758922D01*
X138203286Y-98774862D01*
X138125482Y-98824928D01*
X138073285Y-98901320D01*
X138054922Y-98992000D01*
X138054922Y-100492000D01*
X138070862Y-100576714D01*
X138120928Y-100654518D01*
X138197320Y-100706715D01*
X138288000Y-100725078D01*
X139588000Y-100725078D01*
X139672714Y-100709138D01*
X139750518Y-100659072D01*
X139802715Y-100582680D01*
X139821078Y-100492000D01*
X139821078Y-99613264D01*
X141582742Y-97851600D01*
X143604658Y-97851600D01*
X145171783Y-99418725D01*
X145209624Y-99510306D01*
X145370249Y-99671211D01*
X145580223Y-99758400D01*
X145807580Y-99758599D01*
X146017706Y-99671776D01*
X146178611Y-99511151D01*
X146265800Y-99301177D01*
X146265999Y-99073820D01*
X146179176Y-98863694D01*
X146018551Y-98702789D01*
X145926172Y-98664430D01*
X144202771Y-96941029D01*
X144029723Y-96825403D01*
X143825600Y-96784800D01*
X142011400Y-96784800D01*
X142011400Y-94778980D01*
X148577201Y-94778980D01*
X148664024Y-94989106D01*
X148824649Y-95150011D01*
X149034623Y-95237200D01*
X149261980Y-95237399D01*
X149472106Y-95150576D01*
X149633011Y-94989951D01*
X149671370Y-94897571D01*
X150217168Y-94351773D01*
X150217171Y-94351771D01*
X150290994Y-94241286D01*
X150332797Y-94178724D01*
X150373400Y-93974600D01*
X150373400Y-92552078D01*
X150590000Y-92552078D01*
X150674714Y-92536138D01*
X150752518Y-92486072D01*
X150804715Y-92409680D01*
X150823078Y-92319000D01*
X150823078Y-91069000D01*
X150807138Y-90984286D01*
X150757072Y-90906482D01*
X150680680Y-90854285D01*
X150590000Y-90835922D01*
X150581400Y-90835922D01*
X150581400Y-89542000D01*
X150581078Y-89540381D01*
X150581078Y-88942000D01*
X150565138Y-88857286D01*
X150515072Y-88779482D01*
X150438680Y-88727285D01*
X150348000Y-88708922D01*
X149748000Y-88708922D01*
X149663286Y-88724862D01*
X149585482Y-88774928D01*
X149533285Y-88851320D01*
X149514922Y-88942000D01*
X149514922Y-89540381D01*
X149514600Y-89542000D01*
X149514600Y-90835922D01*
X149090000Y-90835922D01*
X149005286Y-90851862D01*
X148927482Y-90901928D01*
X148875285Y-90978320D01*
X148856922Y-91069000D01*
X148856922Y-92319000D01*
X148872862Y-92403714D01*
X148922928Y-92481518D01*
X148999320Y-92533715D01*
X149090000Y-92552078D01*
X149306600Y-92552078D01*
X149306600Y-93753659D01*
X148917075Y-94143183D01*
X148825494Y-94181024D01*
X148664589Y-94341649D01*
X148577400Y-94551623D01*
X148577201Y-94778980D01*
X142011400Y-94778980D01*
X142011400Y-92017850D01*
X146005800Y-92017850D01*
X146005800Y-92435204D01*
X146094739Y-92649922D01*
X146259077Y-92814261D01*
X146473795Y-92903200D01*
X147016150Y-92903200D01*
X147162200Y-92757150D01*
X147162200Y-91871800D01*
X147517800Y-91871800D01*
X147517800Y-92757150D01*
X147663850Y-92903200D01*
X148206205Y-92903200D01*
X148420923Y-92814261D01*
X148585261Y-92649922D01*
X148674200Y-92435204D01*
X148674200Y-92017850D01*
X148528150Y-91871800D01*
X147517800Y-91871800D01*
X147162200Y-91871800D01*
X146151850Y-91871800D01*
X146005800Y-92017850D01*
X142011400Y-92017850D01*
X142011400Y-90952796D01*
X146005800Y-90952796D01*
X146005800Y-91370150D01*
X146151850Y-91516200D01*
X147162200Y-91516200D01*
X147162200Y-90630850D01*
X147517800Y-90630850D01*
X147517800Y-91516200D01*
X148528150Y-91516200D01*
X148674200Y-91370150D01*
X148674200Y-90952796D01*
X148585261Y-90738078D01*
X148420923Y-90573739D01*
X148206205Y-90484800D01*
X147663850Y-90484800D01*
X147517800Y-90630850D01*
X147162200Y-90630850D01*
X147016150Y-90484800D01*
X146473795Y-90484800D01*
X146259077Y-90573739D01*
X146094739Y-90738078D01*
X146005800Y-90952796D01*
X142011400Y-90952796D01*
X142011400Y-88942000D01*
X147614922Y-88942000D01*
X147614922Y-90142000D01*
X147630862Y-90226714D01*
X147680928Y-90304518D01*
X147757320Y-90356715D01*
X147848000Y-90375078D01*
X148448000Y-90375078D01*
X148532714Y-90359138D01*
X148610518Y-90309072D01*
X148662715Y-90232680D01*
X148681078Y-90142000D01*
X148681078Y-88942000D01*
X148665138Y-88857286D01*
X148615072Y-88779482D01*
X148538680Y-88727285D01*
X148448000Y-88708922D01*
X147848000Y-88708922D01*
X147763286Y-88724862D01*
X147685482Y-88774928D01*
X147633285Y-88851320D01*
X147614922Y-88942000D01*
X142011400Y-88942000D01*
X142011400Y-86741005D01*
X142011401Y-86741000D01*
X142008652Y-86727180D01*
X143700401Y-86727180D01*
X143787224Y-86937306D01*
X143947849Y-87098211D01*
X144040229Y-87136571D01*
X144482827Y-87579168D01*
X144482829Y-87579171D01*
X144640023Y-87684204D01*
X144655877Y-87694797D01*
X144860000Y-87735401D01*
X144860005Y-87735400D01*
X145420922Y-87735400D01*
X145420922Y-87952000D01*
X145436862Y-88036714D01*
X145486928Y-88114518D01*
X145563320Y-88166715D01*
X145654000Y-88185078D01*
X146954000Y-88185078D01*
X147038714Y-88169138D01*
X147116518Y-88119072D01*
X147168715Y-88042680D01*
X147187078Y-87952000D01*
X147187078Y-86452000D01*
X147171138Y-86367286D01*
X147121072Y-86289482D01*
X147044680Y-86237285D01*
X146954000Y-86218922D01*
X145654000Y-86218922D01*
X145569286Y-86234862D01*
X145491482Y-86284928D01*
X145439285Y-86361320D01*
X145420922Y-86452000D01*
X145420922Y-86668600D01*
X145080941Y-86668600D01*
X144794617Y-86382275D01*
X144756776Y-86290694D01*
X144596151Y-86129789D01*
X144386177Y-86042600D01*
X144158820Y-86042401D01*
X143948694Y-86129224D01*
X143787789Y-86289849D01*
X143700600Y-86499823D01*
X143700401Y-86727180D01*
X142008652Y-86727180D01*
X141970797Y-86536877D01*
X141855171Y-86363829D01*
X140124171Y-84632829D01*
X140091406Y-84610936D01*
X140950341Y-83752000D01*
X145420922Y-83752000D01*
X145420922Y-85252000D01*
X145436862Y-85336714D01*
X145486928Y-85414518D01*
X145563320Y-85466715D01*
X145654000Y-85485078D01*
X146954000Y-85485078D01*
X147038714Y-85469138D01*
X147116518Y-85419072D01*
X147168715Y-85342680D01*
X147187078Y-85252000D01*
X147187078Y-85203420D01*
X147614600Y-85630942D01*
X147614600Y-87242000D01*
X147614922Y-87243619D01*
X147614922Y-87842000D01*
X147630862Y-87926714D01*
X147680928Y-88004518D01*
X147757320Y-88056715D01*
X147848000Y-88075078D01*
X148262210Y-88075078D01*
X148302739Y-88172923D01*
X148467078Y-88337261D01*
X148681796Y-88426200D01*
X148801950Y-88426200D01*
X148948000Y-88280150D01*
X148948000Y-87419800D01*
X148900200Y-87419800D01*
X148900200Y-87064200D01*
X148948000Y-87064200D01*
X148948000Y-86203850D01*
X149248000Y-86203850D01*
X149248000Y-87064200D01*
X149295800Y-87064200D01*
X149295800Y-87419800D01*
X149248000Y-87419800D01*
X149248000Y-88280150D01*
X149394050Y-88426200D01*
X149514204Y-88426200D01*
X149728922Y-88337261D01*
X149893261Y-88172923D01*
X149933790Y-88075078D01*
X150348000Y-88075078D01*
X150432714Y-88059138D01*
X150459363Y-88041990D01*
X150517739Y-88182923D01*
X150682078Y-88347261D01*
X150896796Y-88436200D01*
X151314150Y-88436200D01*
X151460200Y-88290150D01*
X151460200Y-87279800D01*
X151815800Y-87279800D01*
X151815800Y-88290150D01*
X151961850Y-88436200D01*
X152379204Y-88436200D01*
X152593922Y-88347261D01*
X152758261Y-88182923D01*
X152847200Y-87968205D01*
X152847200Y-87564050D01*
X173127800Y-87564050D01*
X173127800Y-87684204D01*
X173216739Y-87898922D01*
X173381077Y-88063261D01*
X173478922Y-88103790D01*
X173478922Y-88368000D01*
X173494862Y-88452714D01*
X173504191Y-88467212D01*
X173497285Y-88477320D01*
X173478922Y-88568000D01*
X173478922Y-89168000D01*
X173494862Y-89252714D01*
X173504191Y-89267212D01*
X173497285Y-89277320D01*
X173478922Y-89368000D01*
X173478922Y-89968000D01*
X173494862Y-90052714D01*
X173544928Y-90130518D01*
X173621320Y-90182715D01*
X173712000Y-90201078D01*
X174912000Y-90201078D01*
X174996714Y-90185138D01*
X175074518Y-90135072D01*
X175126715Y-90058680D01*
X175145078Y-89968000D01*
X175145078Y-89368000D01*
X175129138Y-89283286D01*
X175119809Y-89268788D01*
X175126715Y-89258680D01*
X175145078Y-89168000D01*
X175145078Y-88831362D01*
X175189849Y-88876211D01*
X175399823Y-88963400D01*
X175627180Y-88963599D01*
X175837306Y-88876776D01*
X175998211Y-88716151D01*
X176085400Y-88506177D01*
X176085599Y-88278820D01*
X175998776Y-88068694D01*
X175838151Y-87907789D01*
X175628177Y-87820600D01*
X175481287Y-87820471D01*
X175459408Y-87798592D01*
X175451114Y-87793050D01*
X175496200Y-87684204D01*
X175496200Y-87564050D01*
X175350150Y-87418000D01*
X174489800Y-87418000D01*
X174489800Y-87465800D01*
X174134200Y-87465800D01*
X174134200Y-87418000D01*
X173273850Y-87418000D01*
X173127800Y-87564050D01*
X152847200Y-87564050D01*
X152847200Y-87425850D01*
X152701150Y-87279800D01*
X151815800Y-87279800D01*
X151460200Y-87279800D01*
X151440200Y-87279800D01*
X151440200Y-86924200D01*
X151460200Y-86924200D01*
X151460200Y-85913850D01*
X151815800Y-85913850D01*
X151815800Y-86924200D01*
X152701150Y-86924200D01*
X152847200Y-86778150D01*
X152847200Y-86235795D01*
X152758261Y-86021077D01*
X152701234Y-85964050D01*
X173127800Y-85964050D01*
X173127800Y-86084204D01*
X173216739Y-86298922D01*
X173381077Y-86463261D01*
X173392518Y-86468000D01*
X173381077Y-86472739D01*
X173216739Y-86637078D01*
X173127800Y-86851796D01*
X173127800Y-86971950D01*
X173273850Y-87118000D01*
X174134200Y-87118000D01*
X174134200Y-87070200D01*
X174489800Y-87070200D01*
X174489800Y-87118000D01*
X175350150Y-87118000D01*
X175496200Y-86971950D01*
X175496200Y-86851796D01*
X175495042Y-86849000D01*
X175577353Y-86849000D01*
X175635156Y-86906904D01*
X175845130Y-86994093D01*
X176072487Y-86994292D01*
X176282613Y-86907469D01*
X176443518Y-86746844D01*
X176530707Y-86536870D01*
X176530906Y-86309513D01*
X176444083Y-86099387D01*
X176283458Y-85938482D01*
X176073484Y-85851293D01*
X175846127Y-85851094D01*
X175636001Y-85937917D01*
X175496200Y-86077475D01*
X175496200Y-85964050D01*
X175350150Y-85818000D01*
X174489800Y-85818000D01*
X174489800Y-85865800D01*
X174134200Y-85865800D01*
X174134200Y-85818000D01*
X173273850Y-85818000D01*
X173127800Y-85964050D01*
X152701234Y-85964050D01*
X152593922Y-85856739D01*
X152379204Y-85767800D01*
X151961850Y-85767800D01*
X151815800Y-85913850D01*
X151460200Y-85913850D01*
X151314150Y-85767800D01*
X150896796Y-85767800D01*
X150682078Y-85856739D01*
X150581400Y-85957416D01*
X150581400Y-85115400D01*
X150779922Y-85115400D01*
X150779922Y-85352000D01*
X150795862Y-85436714D01*
X150845928Y-85514518D01*
X150922320Y-85566715D01*
X151013000Y-85585078D01*
X152263000Y-85585078D01*
X152347714Y-85569138D01*
X152425518Y-85519072D01*
X152477715Y-85442680D01*
X152496078Y-85352000D01*
X152496078Y-83852000D01*
X152480138Y-83767286D01*
X152430072Y-83689482D01*
X152353680Y-83637285D01*
X152263000Y-83618922D01*
X151013000Y-83618922D01*
X150928286Y-83634862D01*
X150850482Y-83684928D01*
X150798285Y-83761320D01*
X150779922Y-83852000D01*
X150779922Y-84048600D01*
X150319691Y-84048600D01*
X150228177Y-84010600D01*
X150000820Y-84010401D01*
X149790694Y-84097224D01*
X149629789Y-84257849D01*
X149542600Y-84467823D01*
X149542565Y-84507410D01*
X149514600Y-84648000D01*
X149514600Y-86057964D01*
X149514204Y-86057800D01*
X149394050Y-86057800D01*
X149248000Y-86203850D01*
X148948000Y-86203850D01*
X148801950Y-86057800D01*
X148681796Y-86057800D01*
X148681400Y-86057964D01*
X148681400Y-85410000D01*
X148640797Y-85205877D01*
X148525171Y-85032829D01*
X147617171Y-84124829D01*
X147444123Y-84009203D01*
X147240000Y-83968600D01*
X147187078Y-83968600D01*
X147187078Y-83752000D01*
X147171138Y-83667286D01*
X147121072Y-83589482D01*
X147044680Y-83537285D01*
X146954000Y-83518922D01*
X145654000Y-83518922D01*
X145569286Y-83534862D01*
X145491482Y-83584928D01*
X145439285Y-83661320D01*
X145420922Y-83752000D01*
X140950341Y-83752000D01*
X141855168Y-82847173D01*
X141855171Y-82847171D01*
X141949829Y-82705504D01*
X141970797Y-82674124D01*
X141981592Y-82619850D01*
X150577800Y-82619850D01*
X150577800Y-83037204D01*
X150666739Y-83251922D01*
X150831077Y-83416261D01*
X151045795Y-83505200D01*
X151588150Y-83505200D01*
X151734200Y-83359150D01*
X151734200Y-82473800D01*
X152089800Y-82473800D01*
X152089800Y-83359150D01*
X152235850Y-83505200D01*
X152778205Y-83505200D01*
X152992923Y-83416261D01*
X153157261Y-83251922D01*
X153246200Y-83037204D01*
X153246200Y-82619850D01*
X153100150Y-82473800D01*
X152089800Y-82473800D01*
X151734200Y-82473800D01*
X150723850Y-82473800D01*
X150577800Y-82619850D01*
X141981592Y-82619850D01*
X142011400Y-82470000D01*
X142011400Y-81075850D01*
X148396800Y-81075850D01*
X148396800Y-81618205D01*
X148485739Y-81832923D01*
X148650078Y-81997261D01*
X148864796Y-82086200D01*
X149282150Y-82086200D01*
X149428200Y-81940150D01*
X149428200Y-80929800D01*
X148542850Y-80929800D01*
X148396800Y-81075850D01*
X142011400Y-81075850D01*
X142011400Y-79885795D01*
X148396800Y-79885795D01*
X148396800Y-80428150D01*
X148542850Y-80574200D01*
X149428200Y-80574200D01*
X149428200Y-79563850D01*
X149783800Y-79563850D01*
X149783800Y-80574200D01*
X149803800Y-80574200D01*
X149803800Y-80929800D01*
X149783800Y-80929800D01*
X149783800Y-81940150D01*
X149929850Y-82086200D01*
X150347204Y-82086200D01*
X150561922Y-81997261D01*
X150582417Y-81976767D01*
X150723850Y-82118200D01*
X151734200Y-82118200D01*
X151734200Y-81232850D01*
X151634200Y-81132850D01*
X151634200Y-80602000D01*
X151989800Y-80602000D01*
X151989800Y-81190150D01*
X152089800Y-81290150D01*
X152089800Y-82118200D01*
X153100150Y-82118200D01*
X153246200Y-81972150D01*
X153246200Y-81671000D01*
X153428922Y-81671000D01*
X153428922Y-82921000D01*
X153444862Y-83005714D01*
X153494928Y-83083518D01*
X153571320Y-83135715D01*
X153662000Y-83154078D01*
X155162000Y-83154078D01*
X155246714Y-83138138D01*
X155324518Y-83088072D01*
X155376715Y-83011680D01*
X155395078Y-82921000D01*
X155395078Y-81671000D01*
X155379138Y-81586286D01*
X155329072Y-81508482D01*
X155252680Y-81456285D01*
X155162000Y-81437922D01*
X154945400Y-81437922D01*
X154945400Y-80035078D01*
X155012000Y-80035078D01*
X155096714Y-80019138D01*
X155174518Y-79969072D01*
X155226715Y-79892680D01*
X155245078Y-79802000D01*
X155245078Y-79202000D01*
X155229138Y-79117286D01*
X155179072Y-79039482D01*
X155102680Y-78987285D01*
X155045400Y-78975686D01*
X155045400Y-78626942D01*
X155425725Y-78246617D01*
X155517306Y-78208776D01*
X155678211Y-78048151D01*
X155765400Y-77838177D01*
X155765599Y-77610820D01*
X155678776Y-77400694D01*
X155518151Y-77239789D01*
X155308177Y-77152600D01*
X155080820Y-77152401D01*
X154870694Y-77239224D01*
X154709789Y-77399849D01*
X154671430Y-77492228D01*
X154134829Y-78028829D01*
X154019203Y-78201877D01*
X153978600Y-78406000D01*
X153978600Y-78975207D01*
X153927286Y-78984862D01*
X153849482Y-79034928D01*
X153797285Y-79111320D01*
X153778922Y-79202000D01*
X153778922Y-79802000D01*
X153794862Y-79886714D01*
X153844928Y-79964518D01*
X153878600Y-79987525D01*
X153878600Y-81437922D01*
X153662000Y-81437922D01*
X153577286Y-81453862D01*
X153499482Y-81503928D01*
X153447285Y-81580320D01*
X153428922Y-81671000D01*
X153246200Y-81671000D01*
X153246200Y-81554796D01*
X153157261Y-81340078D01*
X152992923Y-81175739D01*
X152796009Y-81094175D01*
X152807261Y-81082923D01*
X152896200Y-80868205D01*
X152896200Y-80748050D01*
X152750150Y-80602000D01*
X151989800Y-80602000D01*
X151634200Y-80602000D01*
X151614200Y-80602000D01*
X151614200Y-80302000D01*
X151634200Y-80302000D01*
X151634200Y-79713850D01*
X151989800Y-79713850D01*
X151989800Y-80302000D01*
X152750150Y-80302000D01*
X152896200Y-80155950D01*
X152896200Y-80035795D01*
X152807261Y-79821077D01*
X152642922Y-79656739D01*
X152428204Y-79567800D01*
X152135850Y-79567800D01*
X151989800Y-79713850D01*
X151634200Y-79713850D01*
X151488150Y-79567800D01*
X151195796Y-79567800D01*
X150981078Y-79656739D01*
X150816739Y-79821077D01*
X150802566Y-79855294D01*
X150726261Y-79671077D01*
X150561922Y-79506739D01*
X150347204Y-79417800D01*
X149929850Y-79417800D01*
X149783800Y-79563850D01*
X149428200Y-79563850D01*
X149282150Y-79417800D01*
X148864796Y-79417800D01*
X148650078Y-79506739D01*
X148485739Y-79671077D01*
X148396800Y-79885795D01*
X142011400Y-79885795D01*
X142011400Y-78232000D01*
X141970797Y-78027877D01*
X141937471Y-77978000D01*
X145973800Y-77978000D01*
X146037604Y-78298766D01*
X146219303Y-78570697D01*
X146493303Y-78844697D01*
X146765235Y-79026396D01*
X147086000Y-79090200D01*
X148766105Y-79090200D01*
X148813928Y-79164518D01*
X148890320Y-79216715D01*
X148981000Y-79235078D01*
X150231000Y-79235078D01*
X150315714Y-79219138D01*
X150393518Y-79169072D01*
X150445715Y-79092680D01*
X150464078Y-79002000D01*
X150464078Y-78785400D01*
X151078922Y-78785400D01*
X151078922Y-78852000D01*
X151094862Y-78936714D01*
X151144928Y-79014518D01*
X151221320Y-79066715D01*
X151312000Y-79085078D01*
X151810381Y-79085078D01*
X151812000Y-79085400D01*
X151813619Y-79085078D01*
X152312000Y-79085078D01*
X152396714Y-79069138D01*
X152474518Y-79019072D01*
X152526715Y-78942680D01*
X152545078Y-78852000D01*
X152545078Y-78252000D01*
X152529138Y-78167286D01*
X152479072Y-78089482D01*
X152402680Y-78037285D01*
X152312000Y-78018922D01*
X152033264Y-78018922D01*
X151889171Y-77874829D01*
X151716123Y-77759203D01*
X151512000Y-77718600D01*
X150464078Y-77718600D01*
X150464078Y-77502000D01*
X150448138Y-77417286D01*
X150398072Y-77339482D01*
X150321680Y-77287285D01*
X150231000Y-77268922D01*
X148981000Y-77268922D01*
X148896286Y-77284862D01*
X148818482Y-77334928D01*
X148766285Y-77411320D01*
X148765783Y-77413800D01*
X147433194Y-77413800D01*
X147404697Y-77385303D01*
X147132766Y-77203604D01*
X146812000Y-77139800D01*
X146491234Y-77203604D01*
X146219303Y-77385303D01*
X146037604Y-77657234D01*
X145973800Y-77978000D01*
X141937471Y-77978000D01*
X141855171Y-77854829D01*
X141013171Y-77012829D01*
X140840123Y-76897203D01*
X140636000Y-76856600D01*
X139821078Y-76856600D01*
X139821078Y-76640000D01*
X139805138Y-76555286D01*
X139755072Y-76477482D01*
X139678680Y-76425285D01*
X139588000Y-76406922D01*
X138288000Y-76406922D01*
X138203286Y-76422862D01*
X138125482Y-76472928D01*
X138073285Y-76549320D01*
X138054922Y-76640000D01*
X137614415Y-76640000D01*
X138370903Y-75883512D01*
X157789787Y-75883512D01*
X157976436Y-76335237D01*
X158321745Y-76681149D01*
X158773144Y-76868587D01*
X159261912Y-76869013D01*
X159713637Y-76682364D01*
X160059549Y-76337055D01*
X160246987Y-75885656D01*
X160247413Y-75396888D01*
X160060764Y-74945163D01*
X159715455Y-74599251D01*
X159264056Y-74411813D01*
X158775288Y-74411387D01*
X158323563Y-74598036D01*
X157977651Y-74943345D01*
X157790213Y-75394744D01*
X157789787Y-75883512D01*
X138370903Y-75883512D01*
X138816415Y-75438000D01*
X143941800Y-75438000D01*
X144087603Y-75408998D01*
X144211208Y-75326408D01*
X148493816Y-71043800D01*
X177819984Y-71043800D01*
X180981000Y-74204815D01*
X180981000Y-81800163D01*
X180977286Y-81800862D01*
X180962788Y-81810191D01*
X180952680Y-81803285D01*
X180862000Y-81784922D01*
X180262000Y-81784922D01*
X180177286Y-81800862D01*
X180162788Y-81810191D01*
X180152680Y-81803285D01*
X180062000Y-81784922D01*
X179462000Y-81784922D01*
X179377286Y-81800862D01*
X179362788Y-81810191D01*
X179352680Y-81803285D01*
X179262000Y-81784922D01*
X178662000Y-81784922D01*
X178577286Y-81800862D01*
X178562788Y-81810191D01*
X178552680Y-81803285D01*
X178543000Y-81801325D01*
X178543000Y-81319838D01*
X178614411Y-81248551D01*
X178701600Y-81038577D01*
X178701799Y-80811220D01*
X178614976Y-80601094D01*
X178511200Y-80497137D01*
X178511200Y-79295078D01*
X178704000Y-79295078D01*
X178788714Y-79279138D01*
X178866518Y-79229072D01*
X178918715Y-79152680D01*
X178937078Y-79062000D01*
X178937078Y-77562000D01*
X178921138Y-77477286D01*
X178871072Y-77399482D01*
X178794680Y-77347285D01*
X178704000Y-77328922D01*
X177404000Y-77328922D01*
X177319286Y-77344862D01*
X177241482Y-77394928D01*
X177189285Y-77471320D01*
X177170922Y-77562000D01*
X177170922Y-79062000D01*
X177186862Y-79146714D01*
X177236928Y-79224518D01*
X177313320Y-79276715D01*
X177404000Y-79295078D01*
X177749200Y-79295078D01*
X177749200Y-80497218D01*
X177645989Y-80600249D01*
X177558800Y-80810223D01*
X177558601Y-81037580D01*
X177645424Y-81247706D01*
X177781000Y-81383518D01*
X177781000Y-81800163D01*
X177777286Y-81800862D01*
X177762788Y-81810191D01*
X177752680Y-81803285D01*
X177715460Y-81795748D01*
X177713998Y-81788398D01*
X177631408Y-81664792D01*
X176672408Y-80705792D01*
X176548803Y-80623202D01*
X176403000Y-80594200D01*
X174036182Y-80594200D01*
X173933151Y-80490989D01*
X173723177Y-80403800D01*
X173495820Y-80403601D01*
X173285694Y-80490424D01*
X173124789Y-80651049D01*
X173037600Y-80861023D01*
X173037401Y-81088380D01*
X173124224Y-81298506D01*
X173284849Y-81459411D01*
X173494823Y-81546600D01*
X173722180Y-81546799D01*
X173932306Y-81459976D01*
X174036263Y-81356200D01*
X176245184Y-81356200D01*
X176673906Y-81784922D01*
X176262000Y-81784922D01*
X176177286Y-81800862D01*
X176162788Y-81810191D01*
X176152680Y-81803285D01*
X176062000Y-81784922D01*
X175462000Y-81784922D01*
X175377286Y-81800862D01*
X175299482Y-81850928D01*
X175247285Y-81927320D01*
X175228922Y-82018000D01*
X175228922Y-83218000D01*
X175244862Y-83302714D01*
X175294928Y-83380518D01*
X175371320Y-83432715D01*
X175381000Y-83434675D01*
X175381000Y-83763200D01*
X175410002Y-83909003D01*
X175413405Y-83914096D01*
X175216094Y-83995624D01*
X175145078Y-84066516D01*
X175145078Y-83768000D01*
X175129138Y-83683286D01*
X175079072Y-83605482D01*
X175002680Y-83553285D01*
X174912000Y-83534922D01*
X173712000Y-83534922D01*
X173627286Y-83550862D01*
X173549482Y-83600928D01*
X173497285Y-83677320D01*
X173495325Y-83687000D01*
X165302616Y-83687000D01*
X161899600Y-80283984D01*
X161899600Y-76797160D01*
X163113088Y-76797160D01*
X163218801Y-77043521D01*
X163816709Y-77242769D01*
X164445353Y-77198041D01*
X164818399Y-77043521D01*
X164924112Y-76797160D01*
X164018600Y-75891647D01*
X163113088Y-76797160D01*
X161899600Y-76797160D01*
X161899600Y-75438309D01*
X162416031Y-75438309D01*
X162460759Y-76066953D01*
X162615279Y-76439999D01*
X162861640Y-76545712D01*
X163767153Y-75640200D01*
X164270047Y-75640200D01*
X165175560Y-76545712D01*
X165421921Y-76439999D01*
X165621169Y-75842091D01*
X165576441Y-75213447D01*
X165430868Y-74862000D01*
X177170922Y-74862000D01*
X177170922Y-76362000D01*
X177186862Y-76446714D01*
X177236928Y-76524518D01*
X177313320Y-76576715D01*
X177404000Y-76595078D01*
X178704000Y-76595078D01*
X178788714Y-76579138D01*
X178866518Y-76529072D01*
X178918715Y-76452680D01*
X178937078Y-76362000D01*
X178937078Y-74862000D01*
X178921138Y-74777286D01*
X178871072Y-74699482D01*
X178794680Y-74647285D01*
X178704000Y-74628922D01*
X178587400Y-74628922D01*
X178587400Y-73611691D01*
X178625400Y-73520177D01*
X178625599Y-73292820D01*
X178538776Y-73082694D01*
X178378151Y-72921789D01*
X178168177Y-72834600D01*
X177940820Y-72834401D01*
X177730694Y-72921224D01*
X177569789Y-73081849D01*
X177482600Y-73291823D01*
X177482401Y-73519180D01*
X177520600Y-73611628D01*
X177520600Y-74628922D01*
X177404000Y-74628922D01*
X177319286Y-74644862D01*
X177241482Y-74694928D01*
X177189285Y-74771320D01*
X177170922Y-74862000D01*
X165430868Y-74862000D01*
X165421921Y-74840401D01*
X165175560Y-74734688D01*
X164270047Y-75640200D01*
X163767153Y-75640200D01*
X162861640Y-74734688D01*
X162615279Y-74840401D01*
X162416031Y-75438309D01*
X161899600Y-75438309D01*
X161899600Y-74483240D01*
X163113088Y-74483240D01*
X164018600Y-75388753D01*
X164924112Y-74483240D01*
X164818399Y-74236879D01*
X164220491Y-74037631D01*
X163591847Y-74082359D01*
X163218801Y-74236879D01*
X163113088Y-74483240D01*
X161899600Y-74483240D01*
X161899600Y-73512121D01*
X162213637Y-73382364D01*
X162559549Y-73037055D01*
X162746987Y-72585656D01*
X162747413Y-72096888D01*
X162560764Y-71645163D01*
X162215455Y-71299251D01*
X161764056Y-71111813D01*
X161275288Y-71111387D01*
X160823563Y-71298036D01*
X160477651Y-71643345D01*
X160290213Y-72094744D01*
X160289787Y-72583512D01*
X160476436Y-73035237D01*
X160821745Y-73381149D01*
X161137600Y-73512304D01*
X161137600Y-80441800D01*
X161166602Y-80587603D01*
X161249192Y-80711208D01*
X164875392Y-84337408D01*
X164998997Y-84419998D01*
X165144800Y-84449000D01*
X173494163Y-84449000D01*
X173494862Y-84452714D01*
X173504191Y-84467212D01*
X173497285Y-84477320D01*
X173478922Y-84568000D01*
X173478922Y-84832210D01*
X173381077Y-84872739D01*
X173216739Y-85037078D01*
X173127800Y-85251796D01*
X173127800Y-85371950D01*
X173273850Y-85518000D01*
X174134200Y-85518000D01*
X174134200Y-85470200D01*
X174489800Y-85470200D01*
X174489800Y-85518000D01*
X175350150Y-85518000D01*
X175496200Y-85371950D01*
X175496200Y-85251796D01*
X175440732Y-85117884D01*
X175506745Y-85051871D01*
X175652580Y-85051999D01*
X175862706Y-84965176D01*
X176023611Y-84804551D01*
X176094299Y-84634315D01*
X176885600Y-85425615D01*
X176885600Y-87710862D01*
X176756989Y-87839249D01*
X176669800Y-88049223D01*
X176669601Y-88276580D01*
X176756424Y-88486706D01*
X176917049Y-88647611D01*
X177127023Y-88734800D01*
X177354380Y-88734999D01*
X177564506Y-88648176D01*
X177725411Y-88487551D01*
X177749200Y-88430261D01*
X177749200Y-89285618D01*
X177645989Y-89388649D01*
X177558800Y-89598623D01*
X177558601Y-89825980D01*
X177645424Y-90036106D01*
X177806049Y-90197011D01*
X178016023Y-90284200D01*
X178243380Y-90284399D01*
X178453506Y-90197576D01*
X178614411Y-90036951D01*
X178701600Y-89826977D01*
X178701799Y-89599620D01*
X178614976Y-89389494D01*
X178511200Y-89285537D01*
X178511200Y-86764050D01*
X181627800Y-86764050D01*
X181627800Y-86884204D01*
X181716739Y-87098922D01*
X181881077Y-87263261D01*
X181978922Y-87303790D01*
X181978922Y-87568000D01*
X181994862Y-87652714D01*
X182004191Y-87667212D01*
X181997285Y-87677320D01*
X181978922Y-87768000D01*
X181978922Y-88368000D01*
X181994862Y-88452714D01*
X182004191Y-88467212D01*
X181997285Y-88477320D01*
X181978922Y-88568000D01*
X181978922Y-89168000D01*
X181994862Y-89252714D01*
X182004191Y-89267212D01*
X181997285Y-89277320D01*
X181978922Y-89368000D01*
X181978922Y-89968000D01*
X181994862Y-90052714D01*
X182044928Y-90130518D01*
X182121320Y-90182715D01*
X182212000Y-90201078D01*
X183412000Y-90201078D01*
X183496714Y-90185138D01*
X183574518Y-90135072D01*
X183626715Y-90058680D01*
X183628675Y-90049000D01*
X184201384Y-90049000D01*
X184835800Y-90683415D01*
X184835800Y-98048706D01*
X184681789Y-98202449D01*
X184594600Y-98412423D01*
X184594401Y-98639780D01*
X184681224Y-98849906D01*
X184841849Y-99010811D01*
X185051823Y-99098000D01*
X185279180Y-99098199D01*
X185489306Y-99011376D01*
X185650211Y-98850751D01*
X185737400Y-98640777D01*
X185737599Y-98413420D01*
X185650776Y-98203294D01*
X185597800Y-98150226D01*
X185597800Y-90525605D01*
X185597801Y-90525600D01*
X185568798Y-90379798D01*
X185565006Y-90374123D01*
X185486208Y-90256192D01*
X185486205Y-90256190D01*
X184628608Y-89398592D01*
X184505003Y-89316002D01*
X184359200Y-89287000D01*
X183629837Y-89287000D01*
X183629138Y-89283286D01*
X183619809Y-89268788D01*
X183626715Y-89258680D01*
X183628675Y-89249000D01*
X184605073Y-89249000D01*
X184627928Y-89284518D01*
X184704320Y-89336715D01*
X184795000Y-89355078D01*
X186045000Y-89355078D01*
X186129714Y-89339138D01*
X186207518Y-89289072D01*
X186259715Y-89212680D01*
X186278078Y-89122000D01*
X186278078Y-88905400D01*
X186944144Y-88905400D01*
X187083823Y-88963400D01*
X187311180Y-88963599D01*
X187521306Y-88876776D01*
X187682211Y-88716151D01*
X187769400Y-88506177D01*
X187769599Y-88278820D01*
X187682776Y-88068694D01*
X187522151Y-87907789D01*
X187312177Y-87820600D01*
X187084820Y-87820401D01*
X187040775Y-87838600D01*
X186278078Y-87838600D01*
X186278078Y-87622000D01*
X186262138Y-87537286D01*
X186212072Y-87459482D01*
X186135680Y-87407285D01*
X186045000Y-87388922D01*
X184795000Y-87388922D01*
X184710286Y-87404862D01*
X184632482Y-87454928D01*
X184580285Y-87531320D01*
X184561922Y-87622000D01*
X184561922Y-88487000D01*
X183629837Y-88487000D01*
X183629138Y-88483286D01*
X183619809Y-88468788D01*
X183626715Y-88458680D01*
X183645078Y-88368000D01*
X183645078Y-87768000D01*
X183629138Y-87683286D01*
X183619809Y-87668788D01*
X183626715Y-87658680D01*
X183645078Y-87568000D01*
X183645078Y-87303790D01*
X183742923Y-87263261D01*
X183907261Y-87098922D01*
X183996200Y-86884204D01*
X183996200Y-86764050D01*
X183850150Y-86618000D01*
X182989800Y-86618000D01*
X182989800Y-86665800D01*
X182634200Y-86665800D01*
X182634200Y-86618000D01*
X181773850Y-86618000D01*
X181627800Y-86764050D01*
X178511200Y-86764050D01*
X178511200Y-84937605D01*
X178511201Y-84937600D01*
X178482198Y-84791798D01*
X178435693Y-84722198D01*
X178399608Y-84668192D01*
X178399605Y-84668190D01*
X177182494Y-83451078D01*
X177662000Y-83451078D01*
X177746714Y-83435138D01*
X177761212Y-83425809D01*
X177771320Y-83432715D01*
X177862000Y-83451078D01*
X178462000Y-83451078D01*
X178546714Y-83435138D01*
X178561212Y-83425809D01*
X178571320Y-83432715D01*
X178662000Y-83451078D01*
X179262000Y-83451078D01*
X179346714Y-83435138D01*
X179361212Y-83425809D01*
X179371320Y-83432715D01*
X179462000Y-83451078D01*
X180062000Y-83451078D01*
X180146714Y-83435138D01*
X180161212Y-83425809D01*
X180171320Y-83432715D01*
X180262000Y-83451078D01*
X180862000Y-83451078D01*
X180946714Y-83435138D01*
X180961212Y-83425809D01*
X180971320Y-83432715D01*
X181062000Y-83451078D01*
X181662000Y-83451078D01*
X181746714Y-83435138D01*
X181824518Y-83385072D01*
X181876715Y-83308680D01*
X181895078Y-83218000D01*
X181895078Y-82018000D01*
X181879138Y-81933286D01*
X181829072Y-81855482D01*
X181752680Y-81803285D01*
X181743000Y-81801325D01*
X181743000Y-74281016D01*
X182431000Y-74969016D01*
X182431000Y-83534922D01*
X182212000Y-83534922D01*
X182127286Y-83550862D01*
X182049482Y-83600928D01*
X181997285Y-83677320D01*
X181978922Y-83768000D01*
X181978922Y-84368000D01*
X181994862Y-84452714D01*
X182004191Y-84467212D01*
X181997285Y-84477320D01*
X181978922Y-84568000D01*
X181978922Y-85168000D01*
X181994862Y-85252714D01*
X182004191Y-85267212D01*
X181997285Y-85277320D01*
X181978922Y-85368000D01*
X181978922Y-85632210D01*
X181881077Y-85672739D01*
X181716739Y-85837078D01*
X181627800Y-86051796D01*
X181627800Y-86171950D01*
X181773850Y-86318000D01*
X182634200Y-86318000D01*
X182634200Y-86270200D01*
X182989800Y-86270200D01*
X182989800Y-86318000D01*
X183850150Y-86318000D01*
X183972300Y-86195850D01*
X184210800Y-86195850D01*
X184210800Y-86738205D01*
X184299739Y-86952923D01*
X184464078Y-87117261D01*
X184678796Y-87206200D01*
X185096150Y-87206200D01*
X185242200Y-87060150D01*
X185242200Y-86049800D01*
X185597800Y-86049800D01*
X185597800Y-87060150D01*
X185743850Y-87206200D01*
X186161204Y-87206200D01*
X186375922Y-87117261D01*
X186540261Y-86952923D01*
X186629200Y-86738205D01*
X186629200Y-86195850D01*
X186483150Y-86049800D01*
X185597800Y-86049800D01*
X185242200Y-86049800D01*
X184356850Y-86049800D01*
X184210800Y-86195850D01*
X183972300Y-86195850D01*
X183996200Y-86171950D01*
X183996200Y-86051796D01*
X183907261Y-85837078D01*
X183742923Y-85672739D01*
X183645078Y-85632210D01*
X183645078Y-85368000D01*
X183629138Y-85283286D01*
X183619809Y-85268788D01*
X183626715Y-85258680D01*
X183628675Y-85249000D01*
X183813200Y-85249000D01*
X183959003Y-85219998D01*
X184082608Y-85137408D01*
X184210800Y-85009216D01*
X184210800Y-85548150D01*
X184356850Y-85694200D01*
X185242200Y-85694200D01*
X185242200Y-85674200D01*
X185597800Y-85674200D01*
X185597800Y-85694200D01*
X186483150Y-85694200D01*
X186629200Y-85548150D01*
X186629200Y-85005795D01*
X186540261Y-84791077D01*
X186483584Y-84734400D01*
X188970584Y-84734400D01*
X197053200Y-92817016D01*
X197053200Y-101416785D01*
X196819184Y-101650800D01*
X194775491Y-101650800D01*
X194850607Y-101600609D01*
X195532722Y-100918493D01*
X195532722Y-101026400D01*
X195548662Y-101111114D01*
X195598728Y-101188918D01*
X195675120Y-101241115D01*
X195765800Y-101259478D01*
X196765800Y-101259478D01*
X196850514Y-101243538D01*
X196928318Y-101193472D01*
X196980515Y-101117080D01*
X196998878Y-101026400D01*
X196998878Y-99876400D01*
X196982938Y-99791686D01*
X196932872Y-99713882D01*
X196856480Y-99661685D01*
X196765800Y-99643322D01*
X195765800Y-99643322D01*
X195681086Y-99659262D01*
X195603282Y-99709328D01*
X195551085Y-99785720D01*
X195532722Y-99876400D01*
X195532722Y-100070400D01*
X195461005Y-100070400D01*
X195461000Y-100070399D01*
X195315198Y-100099402D01*
X195191592Y-100181992D01*
X195191590Y-100181995D01*
X194498878Y-100874706D01*
X194498878Y-99876400D01*
X194482938Y-99791686D01*
X194432872Y-99713882D01*
X194356480Y-99661685D01*
X194265800Y-99643322D01*
X193265800Y-99643322D01*
X193181086Y-99659262D01*
X193103282Y-99709328D01*
X193051085Y-99785720D01*
X193032722Y-99876400D01*
X193032722Y-100950201D01*
X183251616Y-100950201D01*
X179122222Y-96820806D01*
X179291706Y-96750776D01*
X179452611Y-96590151D01*
X179539800Y-96380177D01*
X179539915Y-96248667D01*
X179660249Y-96369211D01*
X179870223Y-96456400D01*
X180097580Y-96456599D01*
X180307706Y-96369776D01*
X180468611Y-96209151D01*
X180555800Y-95999177D01*
X180555999Y-95771820D01*
X180469176Y-95561694D01*
X180308551Y-95400789D01*
X180143000Y-95332046D01*
X180143000Y-91935837D01*
X180146714Y-91935138D01*
X180161212Y-91925809D01*
X180171320Y-91932715D01*
X180181000Y-91934675D01*
X180181000Y-94684600D01*
X180210002Y-94830403D01*
X180292592Y-94954008D01*
X180848000Y-95509415D01*
X180848000Y-95889618D01*
X180744789Y-95992649D01*
X180657600Y-96202623D01*
X180657401Y-96429980D01*
X180744224Y-96640106D01*
X180904849Y-96801011D01*
X181114823Y-96888200D01*
X181342180Y-96888399D01*
X181552306Y-96801576D01*
X181713211Y-96640951D01*
X181797375Y-96438263D01*
X181902223Y-96481800D01*
X182129580Y-96481999D01*
X182339706Y-96395176D01*
X182500611Y-96234551D01*
X182587800Y-96024577D01*
X182587999Y-95797220D01*
X182501176Y-95587094D01*
X182397400Y-95483137D01*
X182397400Y-95173800D01*
X182372138Y-95046800D01*
X182368398Y-95027997D01*
X182330046Y-94970600D01*
X182285808Y-94904392D01*
X182285805Y-94904390D01*
X181743000Y-94361584D01*
X181743000Y-91935837D01*
X181746714Y-91935138D01*
X181824518Y-91885072D01*
X181876715Y-91808680D01*
X181895078Y-91718000D01*
X181895078Y-90518000D01*
X181879138Y-90433286D01*
X181829072Y-90355482D01*
X181752680Y-90303285D01*
X181662000Y-90284922D01*
X181062000Y-90284922D01*
X180977286Y-90300862D01*
X180962788Y-90310191D01*
X180952680Y-90303285D01*
X180862000Y-90284922D01*
X180262000Y-90284922D01*
X180177286Y-90300862D01*
X180162788Y-90310191D01*
X180152680Y-90303285D01*
X180062000Y-90284922D01*
X179462000Y-90284922D01*
X179377286Y-90300862D01*
X179362788Y-90310191D01*
X179352680Y-90303285D01*
X179262000Y-90284922D01*
X178662000Y-90284922D01*
X178577286Y-90300862D01*
X178562788Y-90310191D01*
X178552680Y-90303285D01*
X178462000Y-90284922D01*
X177862000Y-90284922D01*
X177777286Y-90300862D01*
X177762788Y-90310191D01*
X177752680Y-90303285D01*
X177662000Y-90284922D01*
X177062000Y-90284922D01*
X176977286Y-90300862D01*
X176962788Y-90310191D01*
X176952680Y-90303285D01*
X176862000Y-90284922D01*
X176798346Y-90284922D01*
X176707802Y-90224423D01*
X176562000Y-90195421D01*
X176416198Y-90224423D01*
X176325654Y-90284922D01*
X176262000Y-90284922D01*
X176177286Y-90300862D01*
X176162788Y-90310191D01*
X176152680Y-90303285D01*
X176062000Y-90284922D01*
X175462000Y-90284922D01*
X175377286Y-90300862D01*
X175299482Y-90350928D01*
X175247285Y-90427320D01*
X175228922Y-90518000D01*
X175228922Y-91718000D01*
X175244862Y-91802714D01*
X175294928Y-91880518D01*
X175371320Y-91932715D01*
X175381000Y-91934675D01*
X175381000Y-92568296D01*
X175232989Y-92716049D01*
X175145800Y-92926023D01*
X175145601Y-93153380D01*
X175232424Y-93363506D01*
X175393049Y-93524411D01*
X175603023Y-93611600D01*
X175830380Y-93611799D01*
X176040506Y-93524976D01*
X176181000Y-93384726D01*
X176181000Y-101054585D01*
X173417588Y-103817996D01*
X173355000Y-103805322D01*
X171323000Y-103805322D01*
X171238286Y-103821262D01*
X171160482Y-103871328D01*
X171108285Y-103947720D01*
X171089922Y-104038400D01*
X171089922Y-104127443D01*
X171062057Y-104071869D01*
X170589914Y-103663309D01*
X170223387Y-103511501D01*
X169976800Y-103611161D01*
X169976800Y-104876600D01*
X169996800Y-104876600D01*
X169996800Y-105232200D01*
X169976800Y-105232200D01*
X169976800Y-106497639D01*
X170223387Y-106597299D01*
X170589914Y-106445491D01*
X171062057Y-106036931D01*
X171089922Y-105981357D01*
X171089922Y-106070400D01*
X171105862Y-106155114D01*
X171155928Y-106232918D01*
X171232320Y-106285115D01*
X171323000Y-106303478D01*
X173355000Y-106303478D01*
X173439714Y-106287538D01*
X173517518Y-106237472D01*
X173569715Y-106161080D01*
X173588078Y-106070400D01*
X173588078Y-104725138D01*
X176831405Y-101481810D01*
X176831408Y-101481808D01*
X176913998Y-101358202D01*
X176919369Y-101331201D01*
X176943001Y-101212400D01*
X176943000Y-101212395D01*
X176943000Y-91935837D01*
X176946714Y-91935138D01*
X176961212Y-91925809D01*
X176971320Y-91932715D01*
X176981000Y-91934675D01*
X176981000Y-95599400D01*
X177010002Y-95745203D01*
X177092592Y-95868808D01*
X182824391Y-101600606D01*
X182824393Y-101600609D01*
X182899510Y-101650800D01*
X181762400Y-101650800D01*
X181616597Y-101679802D01*
X181492992Y-101762392D01*
X174263986Y-108991398D01*
X140416613Y-108991398D01*
X139319000Y-107893784D01*
X139319000Y-105478789D01*
X168256089Y-105478789D01*
X168535943Y-106036931D01*
X169008086Y-106445491D01*
X169374613Y-106597299D01*
X169621200Y-106497639D01*
X169621200Y-105232200D01*
X168354746Y-105232200D01*
X168256089Y-105478789D01*
X139319000Y-105478789D01*
X139319000Y-104630011D01*
X168256089Y-104630011D01*
X168354746Y-104876600D01*
X169621200Y-104876600D01*
X169621200Y-103611161D01*
X169374613Y-103511501D01*
X169008086Y-103663309D01*
X168535943Y-104071869D01*
X168256089Y-104630011D01*
X139319000Y-104630011D01*
X139319000Y-103425078D01*
X139588000Y-103425078D01*
X139672714Y-103409138D01*
X139750518Y-103359072D01*
X139802715Y-103282680D01*
X139821078Y-103192000D01*
X139821078Y-101692000D01*
X139805138Y-101607286D01*
X139755072Y-101529482D01*
X139678680Y-101477285D01*
X139588000Y-101458922D01*
X138709264Y-101458922D01*
X137965171Y-100714829D01*
X137792123Y-100599203D01*
X137588000Y-100558600D01*
X137016029Y-100558600D01*
X136997292Y-100529482D01*
X136920900Y-100477285D01*
X136830220Y-100458922D01*
X135930220Y-100458922D01*
X135845506Y-100474862D01*
X135767702Y-100524928D01*
X135715505Y-100601320D01*
X135697142Y-100692000D01*
X135697142Y-101492000D01*
X135713082Y-101576714D01*
X135763148Y-101654518D01*
X135839540Y-101706715D01*
X135930220Y-101725078D01*
X136830220Y-101725078D01*
X136914934Y-101709138D01*
X136992738Y-101659072D01*
X137015745Y-101625400D01*
X137367058Y-101625400D01*
X138054922Y-102313264D01*
X138054922Y-103192000D01*
X138070862Y-103276714D01*
X138120928Y-103354518D01*
X138197320Y-103406715D01*
X138288000Y-103425078D01*
X138557000Y-103425078D01*
X138557000Y-108051600D01*
X138586002Y-108197403D01*
X138668592Y-108321008D01*
X139796185Y-109448600D01*
X128173817Y-109448600D01*
X127609600Y-108884382D01*
X127609600Y-105537011D01*
X127683721Y-105716397D01*
X127962138Y-105995300D01*
X128326093Y-106146428D01*
X128720178Y-106146772D01*
X129084397Y-105996279D01*
X129363300Y-105717862D01*
X129514428Y-105353907D01*
X129514772Y-104959822D01*
X129364279Y-104595603D01*
X129085862Y-104316700D01*
X128721907Y-104165572D01*
X128327822Y-104165228D01*
X128295409Y-104178621D01*
X128295409Y-102926225D01*
X130032591Y-104663406D01*
X130032593Y-104663409D01*
X130148010Y-104778826D01*
X130073572Y-104958093D01*
X130073228Y-105352178D01*
X130223721Y-105716397D01*
X130502138Y-105995300D01*
X130866093Y-106146428D01*
X131260178Y-106146772D01*
X131276940Y-106139846D01*
X132871601Y-106139846D01*
X132947862Y-106361588D01*
X133459166Y-106520911D01*
X133992520Y-106472439D01*
X134260138Y-106361588D01*
X134336399Y-106139846D01*
X133604000Y-105407447D01*
X132871601Y-106139846D01*
X131276940Y-106139846D01*
X131624397Y-105996279D01*
X131903300Y-105717862D01*
X132054428Y-105353907D01*
X132054727Y-105011166D01*
X132239089Y-105011166D01*
X132287561Y-105544520D01*
X132398412Y-105812138D01*
X132620154Y-105888399D01*
X133352553Y-105156000D01*
X133855447Y-105156000D01*
X134587846Y-105888399D01*
X134809588Y-105812138D01*
X134968911Y-105300834D01*
X134920439Y-104767480D01*
X134809588Y-104499862D01*
X134587846Y-104423601D01*
X133855447Y-105156000D01*
X133352553Y-105156000D01*
X132620154Y-104423601D01*
X132398412Y-104499862D01*
X132239089Y-105011166D01*
X132054727Y-105011166D01*
X132054772Y-104959822D01*
X131904279Y-104595603D01*
X131625862Y-104316700D01*
X131277759Y-104172154D01*
X132871601Y-104172154D01*
X133604000Y-104904553D01*
X134336399Y-104172154D01*
X134260138Y-103950412D01*
X133748834Y-103791089D01*
X133215480Y-103839561D01*
X132947862Y-103950412D01*
X132871601Y-104172154D01*
X131277759Y-104172154D01*
X131261907Y-104165572D01*
X130867822Y-104165228D01*
X130686829Y-104240013D01*
X130571409Y-104124593D01*
X130571406Y-104124591D01*
X128752619Y-102305803D01*
X128752619Y-99553435D01*
X131196922Y-101997738D01*
X131196922Y-103192000D01*
X131212862Y-103276714D01*
X131262928Y-103354518D01*
X131339320Y-103406715D01*
X131430000Y-103425078D01*
X132730000Y-103425078D01*
X132814714Y-103409138D01*
X132892518Y-103359072D01*
X132944715Y-103282680D01*
X132963078Y-103192000D01*
X132963078Y-102575400D01*
X133745431Y-102575400D01*
X133764168Y-102604518D01*
X133840560Y-102656715D01*
X133931240Y-102675078D01*
X134831240Y-102675078D01*
X134915954Y-102659138D01*
X134993758Y-102609072D01*
X135045955Y-102532680D01*
X135064318Y-102442000D01*
X135064318Y-101642000D01*
X135048378Y-101557286D01*
X134998312Y-101479482D01*
X134921920Y-101427285D01*
X134831240Y-101408922D01*
X133931240Y-101408922D01*
X133846526Y-101424862D01*
X133768722Y-101474928D01*
X133745715Y-101508600D01*
X132866511Y-101508600D01*
X132820680Y-101477285D01*
X132730000Y-101458922D01*
X131735738Y-101458922D01*
X129268816Y-98992000D01*
X131196922Y-98992000D01*
X131196922Y-100492000D01*
X131212862Y-100576714D01*
X131262928Y-100654518D01*
X131339320Y-100706715D01*
X131430000Y-100725078D01*
X132730000Y-100725078D01*
X132814714Y-100709138D01*
X132892518Y-100659072D01*
X132944715Y-100582680D01*
X132963078Y-100492000D01*
X132963078Y-100275400D01*
X133698162Y-100275400D01*
X133698162Y-100542000D01*
X133714102Y-100626714D01*
X133764168Y-100704518D01*
X133840560Y-100756715D01*
X133931240Y-100775078D01*
X134831240Y-100775078D01*
X134915954Y-100759138D01*
X134993758Y-100709072D01*
X135045955Y-100632680D01*
X135064318Y-100542000D01*
X135064318Y-99878024D01*
X135867724Y-99074617D01*
X135959306Y-99036776D01*
X136120211Y-98876151D01*
X136207400Y-98666177D01*
X136207599Y-98438820D01*
X136120776Y-98228694D01*
X135960151Y-98067789D01*
X135750177Y-97980600D01*
X135522820Y-97980401D01*
X135312694Y-98067224D01*
X135151789Y-98227849D01*
X135113429Y-98320230D01*
X134184606Y-99249052D01*
X133981240Y-99208600D01*
X132963078Y-99208600D01*
X132963078Y-98992000D01*
X132947138Y-98907286D01*
X132897072Y-98829482D01*
X132820680Y-98777285D01*
X132730000Y-98758922D01*
X131430000Y-98758922D01*
X131345286Y-98774862D01*
X131267482Y-98824928D01*
X131215285Y-98901320D01*
X131196922Y-98992000D01*
X129268816Y-98992000D01*
X129209829Y-98933013D01*
X129209829Y-95022888D01*
X129193911Y-94942862D01*
X129180827Y-94877085D01*
X129098237Y-94753480D01*
X127635028Y-93290271D01*
X127635028Y-78486028D01*
X127630351Y-78462517D01*
X127606026Y-78340225D01*
X127523436Y-78216620D01*
X124475407Y-75168591D01*
X124475404Y-75168589D01*
X124359989Y-75053174D01*
X124434428Y-74873907D01*
X124434429Y-74872178D01*
X124993228Y-74872178D01*
X125143721Y-75236397D01*
X125422138Y-75515300D01*
X125786093Y-75666428D01*
X126180178Y-75666772D01*
X126361171Y-75591987D01*
X127889000Y-77119816D01*
X127889000Y-92710000D01*
X127918002Y-92855803D01*
X128000592Y-92979408D01*
X130366590Y-95345405D01*
X130366592Y-95345408D01*
X130435259Y-95391289D01*
X130490197Y-95427998D01*
X130636000Y-95457000D01*
X131196922Y-95457000D01*
X131196922Y-95826000D01*
X131212862Y-95910714D01*
X131262928Y-95988518D01*
X131339320Y-96040715D01*
X131430000Y-96059078D01*
X132730000Y-96059078D01*
X132814714Y-96043138D01*
X132892518Y-95993072D01*
X132944715Y-95916680D01*
X132963078Y-95826000D01*
X132963078Y-95209400D01*
X133745431Y-95209400D01*
X133764168Y-95238518D01*
X133840560Y-95290715D01*
X133931240Y-95309078D01*
X134831240Y-95309078D01*
X134915954Y-95293138D01*
X134993758Y-95243072D01*
X135045955Y-95166680D01*
X135064318Y-95076000D01*
X135064318Y-94276000D01*
X135048378Y-94191286D01*
X134998312Y-94113482D01*
X134921920Y-94061285D01*
X134831240Y-94042922D01*
X133931240Y-94042922D01*
X133846526Y-94058862D01*
X133768722Y-94108928D01*
X133745715Y-94142600D01*
X132866511Y-94142600D01*
X132820680Y-94111285D01*
X132730000Y-94092922D01*
X131430000Y-94092922D01*
X131345286Y-94108862D01*
X131267482Y-94158928D01*
X131215285Y-94235320D01*
X131196922Y-94326000D01*
X131196922Y-94695000D01*
X130793815Y-94695000D01*
X128651000Y-92552184D01*
X128651000Y-76962000D01*
X128621998Y-76816198D01*
X128621998Y-76816197D01*
X128539408Y-76692592D01*
X126899990Y-75053174D01*
X126974428Y-74873907D01*
X126974429Y-74872178D01*
X127533228Y-74872178D01*
X127683721Y-75236397D01*
X127962138Y-75515300D01*
X128326093Y-75666428D01*
X128720178Y-75666772D01*
X128901171Y-75591987D01*
X128905000Y-75595815D01*
X128905000Y-86106000D01*
X128934002Y-86251803D01*
X129016592Y-86375408D01*
X130620590Y-87979405D01*
X130620592Y-87979408D01*
X130715286Y-88042680D01*
X130744198Y-88061998D01*
X130890000Y-88091001D01*
X130890005Y-88091000D01*
X131196922Y-88091000D01*
X131196922Y-88460000D01*
X131212862Y-88544714D01*
X131262928Y-88622518D01*
X131339320Y-88674715D01*
X131430000Y-88693078D01*
X132730000Y-88693078D01*
X132814714Y-88677138D01*
X132892518Y-88627072D01*
X132944715Y-88550680D01*
X132963078Y-88460000D01*
X132963078Y-87843400D01*
X133745431Y-87843400D01*
X133764168Y-87872518D01*
X133840560Y-87924715D01*
X133931240Y-87943078D01*
X134831240Y-87943078D01*
X134915954Y-87927138D01*
X134993758Y-87877072D01*
X135045955Y-87800680D01*
X135064318Y-87710000D01*
X135064318Y-86910000D01*
X135048378Y-86825286D01*
X134998312Y-86747482D01*
X134921920Y-86695285D01*
X134831240Y-86676922D01*
X133931240Y-86676922D01*
X133846526Y-86692862D01*
X133768722Y-86742928D01*
X133745715Y-86776600D01*
X132866511Y-86776600D01*
X132820680Y-86745285D01*
X132730000Y-86726922D01*
X131430000Y-86726922D01*
X131345286Y-86742862D01*
X131267482Y-86792928D01*
X131215285Y-86869320D01*
X131196922Y-86960000D01*
X131196922Y-87329000D01*
X131047815Y-87329000D01*
X129667000Y-85948184D01*
X129667000Y-75438005D01*
X129667001Y-75438000D01*
X129921000Y-75438000D01*
X129921000Y-79756000D01*
X129950002Y-79901803D01*
X130032592Y-80025408D01*
X130620590Y-80613405D01*
X130620592Y-80613408D01*
X130682828Y-80654992D01*
X130744198Y-80695998D01*
X130890000Y-80725001D01*
X130890005Y-80725000D01*
X131196922Y-80725000D01*
X131196922Y-81094000D01*
X131212862Y-81178714D01*
X131262928Y-81256518D01*
X131339320Y-81308715D01*
X131430000Y-81327078D01*
X132730000Y-81327078D01*
X132814714Y-81311138D01*
X132892518Y-81261072D01*
X132944715Y-81184680D01*
X132963078Y-81094000D01*
X132963078Y-80477400D01*
X133999431Y-80477400D01*
X134018168Y-80506518D01*
X134094560Y-80558715D01*
X134185240Y-80577078D01*
X135085240Y-80577078D01*
X135169954Y-80561138D01*
X135247758Y-80511072D01*
X135299955Y-80434680D01*
X135318318Y-80344000D01*
X135318318Y-79544000D01*
X135302378Y-79459286D01*
X135252312Y-79381482D01*
X135175920Y-79329285D01*
X135085240Y-79310922D01*
X134185240Y-79310922D01*
X134100526Y-79326862D01*
X134022722Y-79376928D01*
X133999715Y-79410600D01*
X132866511Y-79410600D01*
X132820680Y-79379285D01*
X132730000Y-79360922D01*
X131430000Y-79360922D01*
X131345286Y-79376862D01*
X131267482Y-79426928D01*
X131215285Y-79503320D01*
X131196922Y-79594000D01*
X131196922Y-79963000D01*
X131047815Y-79963000D01*
X130683000Y-79598184D01*
X130683000Y-75595816D01*
X130686826Y-75591990D01*
X130866093Y-75666428D01*
X131260178Y-75666772D01*
X131276940Y-75659846D01*
X132871601Y-75659846D01*
X132947862Y-75881588D01*
X133459166Y-76040911D01*
X133992520Y-75992439D01*
X134260138Y-75881588D01*
X134336399Y-75659846D01*
X133604000Y-74927447D01*
X132871601Y-75659846D01*
X131276940Y-75659846D01*
X131624397Y-75516279D01*
X131903300Y-75237862D01*
X132054428Y-74873907D01*
X132054727Y-74531166D01*
X132239089Y-74531166D01*
X132287561Y-75064520D01*
X132398412Y-75332138D01*
X132620154Y-75408399D01*
X133352553Y-74676000D01*
X133855447Y-74676000D01*
X134587846Y-75408399D01*
X134809588Y-75332138D01*
X134968911Y-74820834D01*
X134920439Y-74287480D01*
X134809588Y-74019862D01*
X134587846Y-73943601D01*
X133855447Y-74676000D01*
X133352553Y-74676000D01*
X132620154Y-73943601D01*
X132398412Y-74019862D01*
X132239089Y-74531166D01*
X132054727Y-74531166D01*
X132054772Y-74479822D01*
X131904279Y-74115603D01*
X131625862Y-73836700D01*
X131277759Y-73692154D01*
X132871601Y-73692154D01*
X133604000Y-74424553D01*
X134336399Y-73692154D01*
X134260138Y-73470412D01*
X133748834Y-73311089D01*
X133215480Y-73359561D01*
X132947862Y-73470412D01*
X132871601Y-73692154D01*
X131277759Y-73692154D01*
X131261907Y-73685572D01*
X130867822Y-73685228D01*
X130503603Y-73835721D01*
X130224700Y-74114138D01*
X130073572Y-74478093D01*
X130073228Y-74872178D01*
X130148013Y-75053171D01*
X130032592Y-75168592D01*
X129950002Y-75292197D01*
X129950002Y-75292198D01*
X129921000Y-75438000D01*
X129667001Y-75438000D01*
X129637998Y-75292198D01*
X129600713Y-75236397D01*
X129555408Y-75168592D01*
X129555405Y-75168590D01*
X129439989Y-75053174D01*
X129514428Y-74873907D01*
X129514772Y-74479822D01*
X129364279Y-74115603D01*
X129085862Y-73836700D01*
X128721907Y-73685572D01*
X128327822Y-73685228D01*
X127963603Y-73835721D01*
X127684700Y-74114138D01*
X127533572Y-74478093D01*
X127533228Y-74872178D01*
X126974429Y-74872178D01*
X126974772Y-74479822D01*
X126824279Y-74115603D01*
X126545862Y-73836700D01*
X126181907Y-73685572D01*
X125787822Y-73685228D01*
X125423603Y-73835721D01*
X125144700Y-74114138D01*
X124993572Y-74478093D01*
X124993228Y-74872178D01*
X124434429Y-74872178D01*
X124434772Y-74479822D01*
X124284279Y-74115603D01*
X124005862Y-73836700D01*
X123641907Y-73685572D01*
X123247822Y-73685228D01*
X122883603Y-73835721D01*
X122604700Y-74114138D01*
X122453572Y-74478093D01*
X122453228Y-74872178D01*
X122603721Y-75236397D01*
X122882138Y-75515300D01*
X123246093Y-75666428D01*
X123640178Y-75666772D01*
X123821171Y-75591987D01*
X123936589Y-75707404D01*
X123936591Y-75707407D01*
X126873028Y-78643844D01*
X126873028Y-93174863D01*
X126619000Y-92920835D01*
X126619000Y-81688476D01*
X126589998Y-81542674D01*
X126589998Y-81542673D01*
X126507408Y-81419068D01*
X123266404Y-78178064D01*
X123266404Y-76983802D01*
X123250464Y-76899088D01*
X123200398Y-76821284D01*
X123124006Y-76769087D01*
X123033326Y-76750724D01*
X121733326Y-76750724D01*
X121648612Y-76766664D01*
X121570808Y-76816730D01*
X121518611Y-76893122D01*
X121500248Y-76983802D01*
X121500248Y-77444403D01*
X120649895Y-77444403D01*
X120631158Y-77415285D01*
X120554766Y-77363088D01*
X120464086Y-77344725D01*
X119564086Y-77344725D01*
X119479372Y-77360665D01*
X119401568Y-77410731D01*
X119349371Y-77487123D01*
X119331008Y-77577803D01*
X119331008Y-78377803D01*
X119346948Y-78462517D01*
X119397014Y-78540321D01*
X119473406Y-78592518D01*
X119564086Y-78610881D01*
X120464086Y-78610881D01*
X120548800Y-78594941D01*
X120626604Y-78544875D01*
X120649611Y-78511203D01*
X121505404Y-78511203D01*
X121516188Y-78568516D01*
X121566254Y-78646320D01*
X121642646Y-78698517D01*
X121733326Y-78716880D01*
X122727588Y-78716880D01*
X125857000Y-81846292D01*
X125857000Y-92805427D01*
X125603000Y-92551427D01*
X125603000Y-88038478D01*
X125599325Y-88020002D01*
X125573998Y-87892675D01*
X125513943Y-87802797D01*
X125491408Y-87769070D01*
X125491405Y-87769068D01*
X123266404Y-85544066D01*
X123266404Y-84349804D01*
X123250464Y-84265090D01*
X123200398Y-84187286D01*
X123124006Y-84135089D01*
X123033326Y-84116726D01*
X121733326Y-84116726D01*
X121648612Y-84132666D01*
X121570808Y-84182732D01*
X121518611Y-84259124D01*
X121500248Y-84349804D01*
X121500248Y-84937403D01*
X120649895Y-84937403D01*
X120631158Y-84908285D01*
X120554766Y-84856088D01*
X120464086Y-84837725D01*
X119640285Y-84837725D01*
X119640285Y-83597690D01*
X119640286Y-83597685D01*
X119611283Y-83451883D01*
X119528693Y-83328277D01*
X118396106Y-82195690D01*
X118396106Y-79560881D01*
X118465106Y-79560881D01*
X118549820Y-79544941D01*
X118627624Y-79494875D01*
X118639288Y-79477803D01*
X119331008Y-79477803D01*
X119331008Y-80277803D01*
X119346948Y-80362517D01*
X119397014Y-80440321D01*
X119473406Y-80492518D01*
X119480686Y-80493992D01*
X119480686Y-81406086D01*
X119521289Y-81610209D01*
X119636915Y-81783257D01*
X119873383Y-82019725D01*
X119911224Y-82111306D01*
X120071849Y-82272211D01*
X120281823Y-82359400D01*
X120509180Y-82359599D01*
X120719306Y-82272776D01*
X120880211Y-82112151D01*
X120967400Y-81902177D01*
X120967599Y-81674820D01*
X120880776Y-81464694D01*
X120720151Y-81303789D01*
X120627772Y-81265430D01*
X120547486Y-81185144D01*
X120547486Y-80495188D01*
X120548800Y-80494941D01*
X120626604Y-80444875D01*
X120649611Y-80411203D01*
X121500248Y-80411203D01*
X121500248Y-81183802D01*
X121516188Y-81268516D01*
X121566254Y-81346320D01*
X121642646Y-81398517D01*
X121733326Y-81416880D01*
X123033326Y-81416880D01*
X123118040Y-81400940D01*
X123195844Y-81350874D01*
X123248041Y-81274482D01*
X123266404Y-81183802D01*
X123266404Y-79683802D01*
X123250464Y-79599088D01*
X123200398Y-79521284D01*
X123124006Y-79469087D01*
X123033326Y-79450724D01*
X122129805Y-79450724D01*
X122031450Y-79385006D01*
X121827327Y-79344403D01*
X120649895Y-79344403D01*
X120631158Y-79315285D01*
X120554766Y-79263088D01*
X120464086Y-79244725D01*
X119564086Y-79244725D01*
X119479372Y-79260665D01*
X119401568Y-79310731D01*
X119349371Y-79387123D01*
X119331008Y-79477803D01*
X118639288Y-79477803D01*
X118679821Y-79418483D01*
X118698184Y-79327803D01*
X118698184Y-78527803D01*
X118682244Y-78443089D01*
X118632178Y-78365285D01*
X118555786Y-78313088D01*
X118465106Y-78294725D01*
X118165067Y-78294725D01*
X116972973Y-77102631D01*
X116799925Y-76987005D01*
X116595802Y-76946402D01*
X115646403Y-76946402D01*
X115646403Y-76729802D01*
X115630463Y-76645088D01*
X115580397Y-76567284D01*
X115504005Y-76515087D01*
X115413325Y-76496724D01*
X114113325Y-76496724D01*
X114028611Y-76512664D01*
X113950807Y-76562730D01*
X113898610Y-76639122D01*
X113880247Y-76729802D01*
X96596200Y-76729802D01*
X96596200Y-75065522D01*
X97939464Y-75065522D01*
X98179285Y-75645934D01*
X98622965Y-76090389D01*
X99202957Y-76331223D01*
X99830963Y-76331771D01*
X100411375Y-76091950D01*
X100855830Y-75648270D01*
X101096664Y-75068278D01*
X101096666Y-75065522D01*
X107939465Y-75065522D01*
X108179286Y-75645934D01*
X108622966Y-76090389D01*
X109202958Y-76331223D01*
X109830964Y-76331771D01*
X110411376Y-76091950D01*
X110855831Y-75648270D01*
X111096665Y-75068278D01*
X111096836Y-74872178D01*
X119913228Y-74872178D01*
X120063721Y-75236397D01*
X120342138Y-75515300D01*
X120706093Y-75666428D01*
X121100178Y-75666772D01*
X121464397Y-75516279D01*
X121743300Y-75237862D01*
X121894428Y-74873907D01*
X121894772Y-74479822D01*
X121744279Y-74115603D01*
X121465862Y-73836700D01*
X121101907Y-73685572D01*
X120707822Y-73685228D01*
X120343603Y-73835721D01*
X120064700Y-74114138D01*
X119913572Y-74478093D01*
X119913228Y-74872178D01*
X111096836Y-74872178D01*
X111097213Y-74440272D01*
X110857392Y-73859860D01*
X110413712Y-73415405D01*
X109833720Y-73174571D01*
X109205714Y-73174023D01*
X108625302Y-73413844D01*
X108180847Y-73857524D01*
X107940013Y-74437516D01*
X107939465Y-75065522D01*
X101096666Y-75065522D01*
X101097212Y-74440272D01*
X100857391Y-73859860D01*
X100413711Y-73415405D01*
X99833719Y-73174571D01*
X99205713Y-73174023D01*
X98625301Y-73413844D01*
X98180846Y-73857524D01*
X97940012Y-74437516D01*
X97939464Y-75065522D01*
X96596200Y-75065522D01*
X96596200Y-65100200D01*
X110413800Y-65100200D01*
X110413800Y-72110600D01*
X110413800Y-72110600D01*
G37*
X110413800Y-72110600D02*
X110419803Y-72140246D01*
X110436868Y-72165221D01*
X110462305Y-72181589D01*
X110490000Y-72186800D01*
X133731000Y-72186800D01*
X133733211Y-72186768D01*
X141607211Y-71958168D01*
X141636671Y-71951307D01*
X141661140Y-71933525D01*
X141676763Y-71907624D01*
X141681200Y-71882000D01*
X141681200Y-67785189D01*
X144405489Y-67785189D01*
X144685343Y-68343331D01*
X145157486Y-68751891D01*
X145524013Y-68903699D01*
X145770600Y-68804039D01*
X145770600Y-67538600D01*
X144504146Y-67538600D01*
X144405489Y-67785189D01*
X141681200Y-67785189D01*
X141681200Y-66936411D01*
X144405489Y-66936411D01*
X144504146Y-67183000D01*
X145770600Y-67183000D01*
X145770600Y-65917561D01*
X146126200Y-65917561D01*
X146126200Y-67183000D01*
X146146200Y-67183000D01*
X146146200Y-67538600D01*
X146126200Y-67538600D01*
X146126200Y-68804039D01*
X146372787Y-68903699D01*
X146739314Y-68751891D01*
X147211457Y-68343331D01*
X147239322Y-68287757D01*
X147239322Y-68376800D01*
X147255262Y-68461514D01*
X147305328Y-68539318D01*
X147381720Y-68591515D01*
X147472400Y-68609878D01*
X149504400Y-68609878D01*
X149589114Y-68593938D01*
X149666918Y-68543872D01*
X149719115Y-68467480D01*
X149737478Y-68376800D01*
X149737478Y-66344800D01*
X149721538Y-66260086D01*
X149671472Y-66182282D01*
X149595080Y-66130085D01*
X149504400Y-66111722D01*
X147472400Y-66111722D01*
X147387686Y-66127662D01*
X147309882Y-66177728D01*
X147257685Y-66254120D01*
X147239322Y-66344800D01*
X147239322Y-66433843D01*
X147211457Y-66378269D01*
X146739314Y-65969709D01*
X146372787Y-65817901D01*
X146126200Y-65917561D01*
X145770600Y-65917561D01*
X145524013Y-65817901D01*
X145157486Y-65969709D01*
X144685343Y-66378269D01*
X144405489Y-66936411D01*
X141681200Y-66936411D01*
X141681200Y-65176400D01*
X201345800Y-65176400D01*
X201345800Y-118795800D01*
X96596200Y-118795800D01*
X96596200Y-115112800D01*
X175128522Y-115112800D01*
X175128522Y-117144800D01*
X175144462Y-117229514D01*
X175194528Y-117307318D01*
X175270920Y-117359515D01*
X175361600Y-117377878D01*
X177088800Y-117377878D01*
X177173514Y-117361938D01*
X177251318Y-117311872D01*
X177303515Y-117235480D01*
X177321878Y-117144800D01*
X177321878Y-115952017D01*
X177673000Y-115952017D01*
X177673000Y-116305583D01*
X177756139Y-116723550D01*
X177992898Y-117077885D01*
X178347233Y-117314644D01*
X178765200Y-117397783D01*
X179183167Y-117314644D01*
X179537502Y-117077885D01*
X179774261Y-116723550D01*
X179857400Y-116305583D01*
X179857400Y-115952017D01*
X179774261Y-115534050D01*
X179537502Y-115179715D01*
X179183167Y-114942956D01*
X178765200Y-114859817D01*
X178347233Y-114942956D01*
X177992898Y-115179715D01*
X177756139Y-115534050D01*
X177673000Y-115952017D01*
X177321878Y-115952017D01*
X177321878Y-115112800D01*
X177305938Y-115028086D01*
X177255872Y-114950282D01*
X177179480Y-114898085D01*
X177088800Y-114879722D01*
X175361600Y-114879722D01*
X175276886Y-114895662D01*
X175199082Y-114945728D01*
X175146885Y-115022120D01*
X175128522Y-115112800D01*
X96596200Y-115112800D01*
X96596200Y-112795523D01*
X97939464Y-112795523D01*
X98179285Y-113375935D01*
X98622965Y-113820390D01*
X99202957Y-114061224D01*
X99830963Y-114061772D01*
X100411375Y-113821951D01*
X100855830Y-113378271D01*
X101096664Y-112798279D01*
X101096666Y-112795522D01*
X107939464Y-112795522D01*
X108179285Y-113375934D01*
X108622965Y-113820389D01*
X109202957Y-114061223D01*
X109830963Y-114061771D01*
X110411375Y-113821950D01*
X110855830Y-113378270D01*
X111096664Y-112798278D01*
X111097212Y-112170272D01*
X110857391Y-111589860D01*
X110413711Y-111145405D01*
X109833719Y-110904571D01*
X109205713Y-110904023D01*
X108625301Y-111143844D01*
X108180846Y-111587524D01*
X107940012Y-112167516D01*
X107939464Y-112795522D01*
X101096666Y-112795522D01*
X101097212Y-112170273D01*
X100857391Y-111589861D01*
X100413711Y-111145406D01*
X99833719Y-110904572D01*
X99205713Y-110904024D01*
X98625301Y-111143845D01*
X98180846Y-111587525D01*
X97940012Y-112167517D01*
X97939464Y-112795523D01*
X96596200Y-112795523D01*
X96596200Y-82675127D01*
X111734600Y-82675127D01*
X111734600Y-108204000D01*
X111775203Y-108408123D01*
X111890829Y-108581171D01*
X114539383Y-111229725D01*
X114577224Y-111321306D01*
X114737849Y-111482211D01*
X114947823Y-111569400D01*
X115175180Y-111569599D01*
X115385306Y-111482776D01*
X115546211Y-111322151D01*
X115633400Y-111112177D01*
X115633599Y-110884820D01*
X115546776Y-110674694D01*
X115386151Y-110513789D01*
X115293772Y-110475430D01*
X112801400Y-107983058D01*
X112801400Y-102633742D01*
X113076631Y-102908973D01*
X113249678Y-103024599D01*
X113453802Y-103065202D01*
X113880247Y-103065202D01*
X113880247Y-103281802D01*
X113896187Y-103366516D01*
X113946253Y-103444320D01*
X114022645Y-103496517D01*
X114113325Y-103514880D01*
X115413325Y-103514880D01*
X115498039Y-103498940D01*
X115575843Y-103448874D01*
X115628040Y-103372482D01*
X115646403Y-103281802D01*
X115646403Y-101781802D01*
X115630463Y-101697088D01*
X115580397Y-101619284D01*
X115504005Y-101567087D01*
X115413325Y-101548724D01*
X114113325Y-101548724D01*
X114028611Y-101564664D01*
X113950807Y-101614730D01*
X113898610Y-101691122D01*
X113880247Y-101781802D01*
X113880247Y-101998402D01*
X113674744Y-101998402D01*
X112801400Y-101125058D01*
X112801400Y-94505742D01*
X113880248Y-95584590D01*
X113880248Y-96169802D01*
X113896188Y-96254516D01*
X113946254Y-96332320D01*
X114022646Y-96384517D01*
X114113326Y-96402880D01*
X115413326Y-96402880D01*
X115498040Y-96386940D01*
X115575844Y-96336874D01*
X115628041Y-96260482D01*
X115646404Y-96169802D01*
X115646404Y-94669802D01*
X115630464Y-94585088D01*
X115580398Y-94507284D01*
X115504006Y-94455087D01*
X115413326Y-94436724D01*
X114241066Y-94436724D01*
X112801400Y-92997058D01*
X112801400Y-90390942D01*
X114409461Y-88782881D01*
X115413325Y-88782881D01*
X115498039Y-88766941D01*
X115575843Y-88716875D01*
X115628040Y-88640483D01*
X115646403Y-88549803D01*
X115646403Y-87049803D01*
X115630463Y-86965089D01*
X115580397Y-86887285D01*
X115504005Y-86835088D01*
X115413325Y-86816725D01*
X114113325Y-86816725D01*
X114028611Y-86832665D01*
X113950807Y-86882731D01*
X113898610Y-86959123D01*
X113880247Y-87049803D01*
X113880247Y-87803411D01*
X112801400Y-88882258D01*
X112801400Y-82896069D01*
X114534588Y-81162880D01*
X115413325Y-81162880D01*
X115498039Y-81146940D01*
X115575843Y-81096874D01*
X115628040Y-81020482D01*
X115646403Y-80929802D01*
X115646403Y-79429802D01*
X115630463Y-79345088D01*
X115580397Y-79267284D01*
X115504005Y-79215087D01*
X115413325Y-79196724D01*
X114113325Y-79196724D01*
X114028611Y-79212664D01*
X113950807Y-79262730D01*
X113898610Y-79339122D01*
X113880247Y-79429802D01*
X113880247Y-80308539D01*
X111890829Y-82297956D01*
X111775203Y-82471004D01*
X111734600Y-82675127D01*
X96596200Y-82675127D01*
X96596200Y-76729802D01*
X113880247Y-76729802D01*
X113880247Y-78229802D01*
X113896187Y-78314516D01*
X113946253Y-78392320D01*
X114022645Y-78444517D01*
X114113325Y-78462880D01*
X114624850Y-78462880D01*
X114778877Y-78565797D01*
X114983000Y-78606401D01*
X115187124Y-78565797D01*
X115341151Y-78462880D01*
X115413325Y-78462880D01*
X115498039Y-78446940D01*
X115575843Y-78396874D01*
X115628040Y-78320482D01*
X115646403Y-78229802D01*
X115646403Y-78013202D01*
X116374860Y-78013202D01*
X117332028Y-78970370D01*
X117332028Y-79327803D01*
X117347968Y-79412517D01*
X117398034Y-79490321D01*
X117474426Y-79542518D01*
X117565106Y-79560881D01*
X117634106Y-79560881D01*
X117634106Y-82353506D01*
X117663108Y-82499309D01*
X117745698Y-82622914D01*
X118878285Y-83755501D01*
X118878285Y-89725262D01*
X118396106Y-89243082D01*
X118396106Y-87053881D01*
X118465106Y-87053881D01*
X118549820Y-87037941D01*
X118627624Y-86987875D01*
X118679821Y-86911483D01*
X118698184Y-86820803D01*
X118698184Y-86020803D01*
X118682244Y-85936089D01*
X118632178Y-85858285D01*
X118555786Y-85806088D01*
X118465106Y-85787725D01*
X117565106Y-85787725D01*
X117535616Y-85793274D01*
X116464974Y-84722632D01*
X116291926Y-84607006D01*
X116087803Y-84566403D01*
X115646403Y-84566403D01*
X115646403Y-84349803D01*
X115630463Y-84265089D01*
X115580397Y-84187285D01*
X115504005Y-84135088D01*
X115413325Y-84116725D01*
X114113325Y-84116725D01*
X114028611Y-84132665D01*
X113950807Y-84182731D01*
X113898610Y-84259123D01*
X113880247Y-84349803D01*
X113880247Y-85849803D01*
X113896187Y-85934517D01*
X113946253Y-86012321D01*
X114022645Y-86064518D01*
X114113325Y-86082881D01*
X115413325Y-86082881D01*
X115498039Y-86066941D01*
X115575843Y-86016875D01*
X115628040Y-85940483D01*
X115646403Y-85849803D01*
X115646403Y-85633203D01*
X115866861Y-85633203D01*
X117031632Y-86797974D01*
X117204680Y-86913600D01*
X117374966Y-86947472D01*
X117398034Y-86983321D01*
X117474426Y-87035518D01*
X117565106Y-87053881D01*
X117634106Y-87053881D01*
X117634106Y-89400898D01*
X117663108Y-89546701D01*
X117745698Y-89670306D01*
X118643400Y-90568007D01*
X118643400Y-93241723D01*
X118632178Y-93224284D01*
X118555786Y-93172087D01*
X118465106Y-93153724D01*
X117565106Y-93153724D01*
X117535615Y-93159273D01*
X116718973Y-92342631D01*
X116545925Y-92227005D01*
X116341802Y-92186402D01*
X115646404Y-92186402D01*
X115646404Y-91969802D01*
X115630464Y-91885088D01*
X115580398Y-91807284D01*
X115504006Y-91755087D01*
X115413326Y-91736724D01*
X114113326Y-91736724D01*
X114028612Y-91752664D01*
X113950808Y-91802730D01*
X113898611Y-91879122D01*
X113880248Y-91969802D01*
X113880248Y-93469802D01*
X113896188Y-93554516D01*
X113946254Y-93632320D01*
X114022646Y-93684517D01*
X114113326Y-93702880D01*
X115413326Y-93702880D01*
X115498040Y-93686940D01*
X115575844Y-93636874D01*
X115628041Y-93560482D01*
X115646404Y-93469802D01*
X115646404Y-93253202D01*
X116120860Y-93253202D01*
X117031631Y-94163973D01*
X117204679Y-94279599D01*
X117374966Y-94313472D01*
X117398034Y-94349320D01*
X117474426Y-94401517D01*
X117565106Y-94419880D01*
X117634106Y-94419880D01*
X117634106Y-98863506D01*
X117663108Y-99009309D01*
X117745698Y-99132914D01*
X118541800Y-99929016D01*
X118541800Y-100535257D01*
X118465105Y-100519726D01*
X118038068Y-100519726D01*
X116972973Y-99454631D01*
X116799925Y-99339005D01*
X116595802Y-99298402D01*
X115646403Y-99298402D01*
X115646403Y-99081802D01*
X115630463Y-98997088D01*
X115580397Y-98919284D01*
X115504005Y-98867087D01*
X115413325Y-98848724D01*
X114113325Y-98848724D01*
X114028611Y-98864664D01*
X113950807Y-98914730D01*
X113898610Y-98991122D01*
X113880247Y-99081802D01*
X113880247Y-100581802D01*
X113896187Y-100666516D01*
X113946253Y-100744320D01*
X114022645Y-100796517D01*
X114113325Y-100814880D01*
X115026946Y-100814880D01*
X115110000Y-100831401D01*
X115193054Y-100814880D01*
X115413325Y-100814880D01*
X115498039Y-100798940D01*
X115575843Y-100748874D01*
X115628040Y-100672482D01*
X115646403Y-100581802D01*
X115646403Y-100365202D01*
X116374860Y-100365202D01*
X117332027Y-101322369D01*
X117332027Y-101552804D01*
X117347967Y-101637518D01*
X117398033Y-101715322D01*
X117474425Y-101767519D01*
X117565105Y-101785882D01*
X117634105Y-101785882D01*
X117634105Y-108337705D01*
X117663107Y-108483508D01*
X117745697Y-108607113D01*
X120710790Y-111572205D01*
X120710792Y-111572208D01*
X120801775Y-111633000D01*
X120834398Y-111654798D01*
X120980200Y-111683801D01*
X120980205Y-111683800D01*
X173349584Y-111683800D01*
X173570929Y-111905144D01*
X173570801Y-112050980D01*
X173657624Y-112261106D01*
X173818249Y-112422011D01*
X174028223Y-112509200D01*
X174255580Y-112509399D01*
X174465706Y-112422576D01*
X174626611Y-112261951D01*
X174713800Y-112051977D01*
X174713995Y-111829011D01*
X177058266Y-114173282D01*
X177067002Y-114217202D01*
X177149592Y-114340808D01*
X177273198Y-114423398D01*
X177419000Y-114452400D01*
X179089984Y-114452400D01*
X180275482Y-115637898D01*
X180213000Y-115952017D01*
X180213000Y-116305583D01*
X180296139Y-116723550D01*
X180532898Y-117077885D01*
X180887233Y-117314644D01*
X181305200Y-117397783D01*
X181723167Y-117314644D01*
X182077502Y-117077885D01*
X182314261Y-116723550D01*
X182397400Y-116305583D01*
X182397400Y-115952017D01*
X182753000Y-115952017D01*
X182753000Y-116305583D01*
X182836139Y-116723550D01*
X183072898Y-117077885D01*
X183427233Y-117314644D01*
X183845200Y-117397783D01*
X184263167Y-117314644D01*
X184617502Y-117077885D01*
X184854261Y-116723550D01*
X184892257Y-116532529D01*
X184960738Y-116532529D01*
X185165348Y-117058516D01*
X185555670Y-117466163D01*
X185984818Y-117672537D01*
X186207400Y-117570750D01*
X186207400Y-116306600D01*
X186563000Y-116306600D01*
X186563000Y-117570750D01*
X186785582Y-117672537D01*
X187214730Y-117466163D01*
X187605052Y-117058516D01*
X187809662Y-116532529D01*
X187685391Y-116306600D01*
X186563000Y-116306600D01*
X186207400Y-116306600D01*
X185085009Y-116306600D01*
X184960738Y-116532529D01*
X184892257Y-116532529D01*
X184937400Y-116305583D01*
X184937400Y-115952017D01*
X184892258Y-115725071D01*
X184960738Y-115725071D01*
X185085009Y-115951000D01*
X186207400Y-115951000D01*
X186207400Y-114686850D01*
X186563000Y-114686850D01*
X186563000Y-115951000D01*
X187685391Y-115951000D01*
X187809662Y-115725071D01*
X187605052Y-115199084D01*
X187214730Y-114791437D01*
X186785582Y-114585063D01*
X186563000Y-114686850D01*
X186207400Y-114686850D01*
X185984818Y-114585063D01*
X185555670Y-114791437D01*
X185165348Y-115199084D01*
X184960738Y-115725071D01*
X184892258Y-115725071D01*
X184854261Y-115534050D01*
X184617502Y-115179715D01*
X184263167Y-114942956D01*
X183845200Y-114859817D01*
X183427233Y-114942956D01*
X183072898Y-115179715D01*
X182836139Y-115534050D01*
X182753000Y-115952017D01*
X182397400Y-115952017D01*
X182314261Y-115534050D01*
X182077502Y-115179715D01*
X181723167Y-114942956D01*
X181305200Y-114859817D01*
X180887233Y-114942956D01*
X180749921Y-115034705D01*
X179517208Y-113801992D01*
X179432069Y-113745104D01*
X179469803Y-113737598D01*
X179593408Y-113655008D01*
X180126805Y-113121610D01*
X180126808Y-113121608D01*
X180209398Y-112998002D01*
X180238401Y-112852200D01*
X180238400Y-112852195D01*
X180238400Y-111757007D01*
X180431298Y-112045699D01*
X180785633Y-112282458D01*
X181203600Y-112365597D01*
X181621567Y-112282458D01*
X181975902Y-112045699D01*
X182212661Y-111691364D01*
X182295800Y-111273397D01*
X182295800Y-111230603D01*
X182212661Y-110812636D01*
X181975902Y-110458301D01*
X181621567Y-110221542D01*
X181203600Y-110138403D01*
X180785633Y-110221542D01*
X180431298Y-110458301D01*
X180238400Y-110746993D01*
X180238400Y-110216016D01*
X180741468Y-109712948D01*
X180785633Y-109742458D01*
X181203600Y-109825597D01*
X181621567Y-109742458D01*
X181975902Y-109505699D01*
X182212661Y-109151364D01*
X182220414Y-109112385D01*
X182352249Y-109112385D01*
X182611380Y-109614354D01*
X183042881Y-109978948D01*
X183343218Y-110103337D01*
X183565798Y-110001551D01*
X183565798Y-110159800D01*
X183636030Y-110159800D01*
X183325633Y-110221542D01*
X182971298Y-110458301D01*
X182734539Y-110812636D01*
X182651400Y-111230603D01*
X182651400Y-111273397D01*
X182734539Y-111691364D01*
X182971298Y-112045699D01*
X183325633Y-112282458D01*
X183743600Y-112365597D01*
X184161567Y-112282458D01*
X184515902Y-112045699D01*
X184752661Y-111691364D01*
X184835800Y-111273397D01*
X184835800Y-111230603D01*
X184752661Y-110812636D01*
X184515902Y-110458301D01*
X184161567Y-110221542D01*
X183851170Y-110159800D01*
X183921402Y-110159800D01*
X183921402Y-110001551D01*
X184143982Y-110103337D01*
X184444319Y-109978948D01*
X184875820Y-109614354D01*
X185134951Y-109112385D01*
X185034405Y-108889800D01*
X183921400Y-108889800D01*
X183921400Y-108909800D01*
X183565800Y-108909800D01*
X183565800Y-108889800D01*
X182452795Y-108889800D01*
X182352249Y-109112385D01*
X182220414Y-109112385D01*
X182295800Y-108733397D01*
X182295800Y-108690603D01*
X182220415Y-108311615D01*
X182352249Y-108311615D01*
X182452795Y-108534200D01*
X183565800Y-108534200D01*
X183565800Y-107422450D01*
X183921400Y-107422450D01*
X183921400Y-108534200D01*
X185034405Y-108534200D01*
X185134951Y-108311615D01*
X184875820Y-107809646D01*
X184444319Y-107445052D01*
X184143982Y-107320663D01*
X183921400Y-107422450D01*
X183565800Y-107422450D01*
X183343218Y-107320663D01*
X183042881Y-107445052D01*
X182611380Y-107809646D01*
X182352249Y-108311615D01*
X182220415Y-108311615D01*
X182212661Y-108272636D01*
X181975902Y-107918301D01*
X181621567Y-107681542D01*
X181203600Y-107598403D01*
X180785633Y-107681542D01*
X180431298Y-107918301D01*
X180194539Y-108272636D01*
X180111400Y-108690603D01*
X180111400Y-108733397D01*
X180194539Y-109151364D01*
X180206908Y-109169876D01*
X179587992Y-109788792D01*
X179505402Y-109912397D01*
X179492870Y-109975402D01*
X179476400Y-110058200D01*
X179476400Y-110155322D01*
X177800000Y-110155322D01*
X177715286Y-110171262D01*
X177637482Y-110221328D01*
X177585285Y-110297720D01*
X177566922Y-110388400D01*
X177566922Y-110871000D01*
X176470797Y-110871000D01*
X175159990Y-109560192D01*
X175036385Y-109477602D01*
X174890582Y-109448600D01*
X174884416Y-109448600D01*
X175642413Y-108690603D01*
X177571400Y-108690603D01*
X177571400Y-108733397D01*
X177654539Y-109151364D01*
X177891298Y-109505699D01*
X178245633Y-109742458D01*
X178663600Y-109825597D01*
X179081567Y-109742458D01*
X179435902Y-109505699D01*
X179672661Y-109151364D01*
X179755800Y-108733397D01*
X179755800Y-108690603D01*
X179672661Y-108272636D01*
X179435902Y-107918301D01*
X179081567Y-107681542D01*
X178663600Y-107598403D01*
X178245633Y-107681542D01*
X177891298Y-107918301D01*
X177654539Y-108272636D01*
X177571400Y-108690603D01*
X175642413Y-108690603D01*
X178806616Y-105526400D01*
X193032722Y-105526400D01*
X193032722Y-106676400D01*
X193048662Y-106761114D01*
X193098728Y-106838918D01*
X193175120Y-106891115D01*
X193265800Y-106909478D01*
X194265800Y-106909478D01*
X194350514Y-106893538D01*
X194428318Y-106843472D01*
X194480515Y-106767080D01*
X194498878Y-106676400D01*
X194498878Y-105526400D01*
X195532722Y-105526400D01*
X195532722Y-106676400D01*
X195548662Y-106761114D01*
X195598728Y-106838918D01*
X195675120Y-106891115D01*
X195765800Y-106909478D01*
X196765800Y-106909478D01*
X196850514Y-106893538D01*
X196928318Y-106843472D01*
X196980515Y-106767080D01*
X196998878Y-106676400D01*
X196998878Y-105526400D01*
X198032722Y-105526400D01*
X198032722Y-106676400D01*
X198048662Y-106761114D01*
X198098728Y-106838918D01*
X198175120Y-106891115D01*
X198265800Y-106909478D01*
X199265800Y-106909478D01*
X199350514Y-106893538D01*
X199428318Y-106843472D01*
X199480515Y-106767080D01*
X199498878Y-106676400D01*
X199498878Y-105526400D01*
X199482938Y-105441686D01*
X199432872Y-105363882D01*
X199356480Y-105311685D01*
X199265800Y-105293322D01*
X198265800Y-105293322D01*
X198181086Y-105309262D01*
X198103282Y-105359328D01*
X198051085Y-105435720D01*
X198032722Y-105526400D01*
X196998878Y-105526400D01*
X196982938Y-105441686D01*
X196932872Y-105363882D01*
X196856480Y-105311685D01*
X196765800Y-105293322D01*
X195765800Y-105293322D01*
X195681086Y-105309262D01*
X195603282Y-105359328D01*
X195551085Y-105435720D01*
X195532722Y-105526400D01*
X194498878Y-105526400D01*
X194482938Y-105441686D01*
X194432872Y-105363882D01*
X194356480Y-105311685D01*
X194265800Y-105293322D01*
X193265800Y-105293322D01*
X193181086Y-105309262D01*
X193103282Y-105359328D01*
X193051085Y-105435720D01*
X193032722Y-105526400D01*
X178806616Y-105526400D01*
X180927177Y-103405839D01*
X194112087Y-103405839D01*
X194211382Y-103646151D01*
X194395082Y-103830172D01*
X194635221Y-103929887D01*
X194895239Y-103930113D01*
X195135551Y-103830818D01*
X195319572Y-103647118D01*
X195419287Y-103406979D01*
X195419287Y-103405839D01*
X197112087Y-103405839D01*
X197211382Y-103646151D01*
X197395082Y-103830172D01*
X197635221Y-103929887D01*
X197895239Y-103930113D01*
X198135551Y-103830818D01*
X198319572Y-103647118D01*
X198419287Y-103406979D01*
X198419513Y-103146961D01*
X198320218Y-102906649D01*
X198136518Y-102722628D01*
X197896379Y-102622913D01*
X197636361Y-102622687D01*
X197396049Y-102721982D01*
X197212028Y-102905682D01*
X197112313Y-103145821D01*
X197112087Y-103405839D01*
X195419287Y-103405839D01*
X195419513Y-103146961D01*
X195320218Y-102906649D01*
X195136518Y-102722628D01*
X194896379Y-102622913D01*
X194636361Y-102622687D01*
X194396049Y-102721982D01*
X194212028Y-102905682D01*
X194112313Y-103145821D01*
X194112087Y-103405839D01*
X180927177Y-103405839D01*
X181920216Y-102412800D01*
X196977000Y-102412800D01*
X197122803Y-102383798D01*
X197246408Y-102301208D01*
X197703605Y-101844010D01*
X197703608Y-101844008D01*
X197786198Y-101720402D01*
X197815200Y-101574600D01*
X197815200Y-101401983D01*
X197934877Y-101521661D01*
X198149595Y-101610600D01*
X198441950Y-101610600D01*
X198588000Y-101464550D01*
X198588000Y-100629200D01*
X198943600Y-100629200D01*
X198943600Y-101464550D01*
X199089650Y-101610600D01*
X199382005Y-101610600D01*
X199596723Y-101521661D01*
X199761061Y-101357322D01*
X199850000Y-101142604D01*
X199850000Y-100775250D01*
X199703950Y-100629200D01*
X198943600Y-100629200D01*
X198588000Y-100629200D01*
X198568000Y-100629200D01*
X198568000Y-100273600D01*
X198588000Y-100273600D01*
X198588000Y-99438250D01*
X198943600Y-99438250D01*
X198943600Y-100273600D01*
X199703950Y-100273600D01*
X199850000Y-100127550D01*
X199850000Y-99760196D01*
X199761061Y-99545478D01*
X199596723Y-99381139D01*
X199382005Y-99292200D01*
X199089650Y-99292200D01*
X198943600Y-99438250D01*
X198588000Y-99438250D01*
X198441950Y-99292200D01*
X198149595Y-99292200D01*
X197934877Y-99381139D01*
X197815200Y-99500817D01*
X197815200Y-92659200D01*
X197807083Y-92618392D01*
X197786198Y-92513397D01*
X197703608Y-92389792D01*
X189397808Y-84083992D01*
X189274203Y-84001402D01*
X189128400Y-83972400D01*
X184327800Y-83972400D01*
X184181997Y-84001402D01*
X184147993Y-84024123D01*
X184058392Y-84083992D01*
X184058390Y-84083995D01*
X183655384Y-84487000D01*
X183629837Y-84487000D01*
X183629138Y-84483286D01*
X183619809Y-84468788D01*
X183626715Y-84458680D01*
X183645078Y-84368000D01*
X183645078Y-83768000D01*
X183629138Y-83683286D01*
X183579072Y-83605482D01*
X183502680Y-83553285D01*
X183412000Y-83534922D01*
X183193000Y-83534922D01*
X183193000Y-74811200D01*
X183177781Y-74734688D01*
X183163998Y-74665397D01*
X183081408Y-74541792D01*
X178399608Y-69859992D01*
X178276003Y-69777402D01*
X178130200Y-69748400D01*
X147701000Y-69748400D01*
X147555197Y-69777402D01*
X147505688Y-69810483D01*
X147431592Y-69859992D01*
X147431590Y-69859995D01*
X143098184Y-74193400D01*
X138480800Y-74193400D01*
X138334997Y-74222402D01*
X138313331Y-74236879D01*
X138211392Y-74304992D01*
X138211390Y-74304995D01*
X136207405Y-76308980D01*
X136207599Y-76086820D01*
X136120776Y-75876694D01*
X135960151Y-75715789D01*
X135750177Y-75628600D01*
X135522820Y-75628401D01*
X135312694Y-75715224D01*
X135151789Y-75875849D01*
X135113429Y-75968230D01*
X134258069Y-76823589D01*
X134142443Y-76996637D01*
X134119774Y-77110600D01*
X132963078Y-77110600D01*
X132963078Y-76894000D01*
X132947138Y-76809286D01*
X132897072Y-76731482D01*
X132820680Y-76679285D01*
X132730000Y-76660922D01*
X131430000Y-76660922D01*
X131345286Y-76676862D01*
X131267482Y-76726928D01*
X131215285Y-76803320D01*
X131196922Y-76894000D01*
X131196922Y-78394000D01*
X131212862Y-78478714D01*
X131262928Y-78556518D01*
X131339320Y-78608715D01*
X131430000Y-78627078D01*
X132730000Y-78627078D01*
X132814714Y-78611138D01*
X132892518Y-78561072D01*
X132944715Y-78484680D01*
X132963078Y-78394000D01*
X132963078Y-78177400D01*
X133952162Y-78177400D01*
X133952162Y-78444000D01*
X133968102Y-78528714D01*
X134018168Y-78606518D01*
X134094560Y-78658715D01*
X134185240Y-78677078D01*
X135085240Y-78677078D01*
X135169954Y-78661138D01*
X135247758Y-78611072D01*
X135299955Y-78534680D01*
X135318318Y-78444000D01*
X135318318Y-77644000D01*
X135302378Y-77559286D01*
X135252312Y-77481482D01*
X135175920Y-77429285D01*
X135168640Y-77427811D01*
X135168640Y-77421702D01*
X135519241Y-77071100D01*
X135511941Y-77107802D01*
X135498419Y-77175781D01*
X135498419Y-79637841D01*
X135527421Y-79783644D01*
X135610011Y-79907249D01*
X136067800Y-80365037D01*
X136067800Y-83443626D01*
X135960151Y-83335789D01*
X135750177Y-83248600D01*
X135522820Y-83248401D01*
X135312694Y-83335224D01*
X135151789Y-83495849D01*
X135113429Y-83588230D01*
X134184606Y-84517052D01*
X133981240Y-84476600D01*
X132963078Y-84476600D01*
X132963078Y-84260000D01*
X132947138Y-84175286D01*
X132897072Y-84097482D01*
X132820680Y-84045285D01*
X132730000Y-84026922D01*
X131430000Y-84026922D01*
X131345286Y-84042862D01*
X131267482Y-84092928D01*
X131215285Y-84169320D01*
X131196922Y-84260000D01*
X131196922Y-85760000D01*
X131212862Y-85844714D01*
X131262928Y-85922518D01*
X131339320Y-85974715D01*
X131430000Y-85993078D01*
X132730000Y-85993078D01*
X132814714Y-85977138D01*
X132892518Y-85927072D01*
X132944715Y-85850680D01*
X132963078Y-85760000D01*
X132963078Y-85543400D01*
X133698162Y-85543400D01*
X133698162Y-85810000D01*
X133714102Y-85894714D01*
X133764168Y-85972518D01*
X133840560Y-86024715D01*
X133931240Y-86043078D01*
X134831240Y-86043078D01*
X134915954Y-86027138D01*
X134993758Y-85977072D01*
X135045955Y-85900680D01*
X135064318Y-85810000D01*
X135064318Y-85146024D01*
X135867724Y-84342617D01*
X135959306Y-84304776D01*
X136067800Y-84196471D01*
X136067800Y-84271785D01*
X135356011Y-84983573D01*
X135273421Y-85107178D01*
X135267807Y-85135400D01*
X135244419Y-85252981D01*
X135244419Y-87003841D01*
X135273421Y-87149644D01*
X135356011Y-87273249D01*
X135999220Y-87916458D01*
X135999220Y-90740926D01*
X135960151Y-90701789D01*
X135750177Y-90614600D01*
X135522820Y-90614401D01*
X135312694Y-90701224D01*
X135151789Y-90861849D01*
X135113429Y-90954230D01*
X134184606Y-91883052D01*
X133981240Y-91842600D01*
X132963078Y-91842600D01*
X132963078Y-91626000D01*
X132947138Y-91541286D01*
X132897072Y-91463482D01*
X132820680Y-91411285D01*
X132730000Y-91392922D01*
X131430000Y-91392922D01*
X131345286Y-91408862D01*
X131267482Y-91458928D01*
X131215285Y-91535320D01*
X131196922Y-91626000D01*
X131196922Y-93126000D01*
X131212862Y-93210714D01*
X131262928Y-93288518D01*
X131339320Y-93340715D01*
X131430000Y-93359078D01*
X132730000Y-93359078D01*
X132814714Y-93343138D01*
X132892518Y-93293072D01*
X132944715Y-93216680D01*
X132963078Y-93126000D01*
X132963078Y-92909400D01*
X133698162Y-92909400D01*
X133698162Y-93176000D01*
X133714102Y-93260714D01*
X133764168Y-93338518D01*
X133840560Y-93390715D01*
X133931240Y-93409078D01*
X134831240Y-93409078D01*
X134915954Y-93393138D01*
X134993758Y-93343072D01*
X135045955Y-93266680D01*
X135064318Y-93176000D01*
X135064318Y-92512024D01*
X135867724Y-91708617D01*
X135959306Y-91670776D01*
X135999220Y-91630931D01*
X135999220Y-93092922D01*
X135930220Y-93092922D01*
X135845506Y-93108862D01*
X135767702Y-93158928D01*
X135715505Y-93235320D01*
X135697142Y-93326000D01*
X135697142Y-94126000D01*
X135713082Y-94210714D01*
X135763148Y-94288518D01*
X135839540Y-94340715D01*
X135930220Y-94359078D01*
X136830220Y-94359078D01*
X136914934Y-94343138D01*
X136992738Y-94293072D01*
X137015745Y-94259400D01*
X137367058Y-94259400D01*
X138054922Y-94947264D01*
X138054922Y-95826000D01*
X138070862Y-95910714D01*
X138120928Y-95988518D01*
X138197320Y-96040715D01*
X138288000Y-96059078D01*
X139588000Y-96059078D01*
X139672714Y-96043138D01*
X139750518Y-95993072D01*
X139802715Y-95916680D01*
X139821078Y-95826000D01*
X139821078Y-94326000D01*
X139805138Y-94241286D01*
X139755072Y-94163482D01*
X139678680Y-94111285D01*
X139588000Y-94092922D01*
X138709264Y-94092922D01*
X137965171Y-93348829D01*
X137792123Y-93233203D01*
X137588000Y-93192600D01*
X137016029Y-93192600D01*
X136997292Y-93163482D01*
X136920900Y-93111285D01*
X136830220Y-93092922D01*
X136761220Y-93092922D01*
X136761220Y-87758647D01*
X136761221Y-87758642D01*
X136732218Y-87612840D01*
X136649628Y-87489234D01*
X136153472Y-86993078D01*
X136830220Y-86993078D01*
X136914934Y-86977138D01*
X136992738Y-86927072D01*
X137015745Y-86893400D01*
X137367058Y-86893400D01*
X138054922Y-87581264D01*
X138054922Y-88460000D01*
X138070862Y-88544714D01*
X138120928Y-88622518D01*
X138197320Y-88674715D01*
X138288000Y-88693078D01*
X139588000Y-88693078D01*
X139672714Y-88677138D01*
X139750518Y-88627072D01*
X139802715Y-88550680D01*
X139821078Y-88460000D01*
X139821078Y-86960000D01*
X139805138Y-86875286D01*
X139755072Y-86797482D01*
X139678680Y-86745285D01*
X139588000Y-86726922D01*
X138709264Y-86726922D01*
X137965171Y-85982829D01*
X137792123Y-85867203D01*
X137588000Y-85826600D01*
X137016029Y-85826600D01*
X136997292Y-85797482D01*
X136920900Y-85745285D01*
X136830220Y-85726922D01*
X136006419Y-85726922D01*
X136006419Y-85410797D01*
X136718205Y-84699010D01*
X136718208Y-84699008D01*
X136800798Y-84575402D01*
X136804538Y-84556600D01*
X136829801Y-84429600D01*
X136829800Y-84429595D01*
X136829800Y-80207222D01*
X136800798Y-80061420D01*
X136800798Y-80061419D01*
X136754415Y-79992002D01*
X136718208Y-79937814D01*
X136718205Y-79937812D01*
X136407472Y-79627078D01*
X137084220Y-79627078D01*
X137168934Y-79611138D01*
X137246738Y-79561072D01*
X137269745Y-79527400D01*
X137621058Y-79527400D01*
X138054922Y-79961264D01*
X138054922Y-80840000D01*
X138070862Y-80924714D01*
X138120928Y-81002518D01*
X138197320Y-81054715D01*
X138288000Y-81073078D01*
X139588000Y-81073078D01*
X139672714Y-81057138D01*
X139750518Y-81007072D01*
X139802715Y-80930680D01*
X139821078Y-80840000D01*
X139821078Y-79340000D01*
X139805138Y-79255286D01*
X139755072Y-79177482D01*
X139678680Y-79125285D01*
X139588000Y-79106922D01*
X138709264Y-79106922D01*
X138219171Y-78616829D01*
X138046123Y-78501203D01*
X137842000Y-78460600D01*
X137270029Y-78460600D01*
X137251292Y-78431482D01*
X137174900Y-78379285D01*
X137084220Y-78360922D01*
X137015220Y-78360922D01*
X137015220Y-77239196D01*
X137614415Y-76640000D01*
X138054922Y-76640000D01*
X138054922Y-78140000D01*
X138070862Y-78224714D01*
X138120928Y-78302518D01*
X138197320Y-78354715D01*
X138288000Y-78373078D01*
X139588000Y-78373078D01*
X139672714Y-78357138D01*
X139750518Y-78307072D01*
X139802715Y-78230680D01*
X139821078Y-78140000D01*
X139821078Y-77923400D01*
X140415058Y-77923400D01*
X140944600Y-78452942D01*
X140944600Y-82249059D01*
X139166736Y-84026922D01*
X138288000Y-84026922D01*
X138203286Y-84042862D01*
X138125482Y-84092928D01*
X138073285Y-84169320D01*
X138054922Y-84260000D01*
X138054922Y-85760000D01*
X138070862Y-85844714D01*
X138120928Y-85922518D01*
X138197320Y-85974715D01*
X138288000Y-85993078D01*
X139588000Y-85993078D01*
X139672714Y-85977138D01*
X139750518Y-85927072D01*
X139802715Y-85850680D01*
X139807872Y-85825214D01*
X140944600Y-86961942D01*
X140944600Y-91953012D01*
X140840123Y-91883203D01*
X140636000Y-91842600D01*
X139821078Y-91842600D01*
X139821078Y-91626000D01*
X139805138Y-91541286D01*
X139755072Y-91463482D01*
X139678680Y-91411285D01*
X139588000Y-91392922D01*
X138288000Y-91392922D01*
X138203286Y-91408862D01*
X138125482Y-91458928D01*
X138073285Y-91535320D01*
X138054922Y-91626000D01*
X138054922Y-93126000D01*
X138070862Y-93210714D01*
X138120928Y-93288518D01*
X138197320Y-93340715D01*
X138288000Y-93359078D01*
X139588000Y-93359078D01*
X139672714Y-93343138D01*
X139750518Y-93293072D01*
X139802715Y-93216680D01*
X139821078Y-93126000D01*
X139821078Y-92909400D01*
X140415058Y-92909400D01*
X140944600Y-93438942D01*
X140944600Y-96981058D01*
X139166736Y-98758922D01*
X138288000Y-98758922D01*
X138203286Y-98774862D01*
X138125482Y-98824928D01*
X138073285Y-98901320D01*
X138054922Y-98992000D01*
X138054922Y-100492000D01*
X138070862Y-100576714D01*
X138120928Y-100654518D01*
X138197320Y-100706715D01*
X138288000Y-100725078D01*
X139588000Y-100725078D01*
X139672714Y-100709138D01*
X139750518Y-100659072D01*
X139802715Y-100582680D01*
X139821078Y-100492000D01*
X139821078Y-99613264D01*
X141582742Y-97851600D01*
X143604658Y-97851600D01*
X145171783Y-99418725D01*
X145209624Y-99510306D01*
X145370249Y-99671211D01*
X145580223Y-99758400D01*
X145807580Y-99758599D01*
X146017706Y-99671776D01*
X146178611Y-99511151D01*
X146265800Y-99301177D01*
X146265999Y-99073820D01*
X146179176Y-98863694D01*
X146018551Y-98702789D01*
X145926172Y-98664430D01*
X144202771Y-96941029D01*
X144029723Y-96825403D01*
X143825600Y-96784800D01*
X142011400Y-96784800D01*
X142011400Y-94778980D01*
X148577201Y-94778980D01*
X148664024Y-94989106D01*
X148824649Y-95150011D01*
X149034623Y-95237200D01*
X149261980Y-95237399D01*
X149472106Y-95150576D01*
X149633011Y-94989951D01*
X149671370Y-94897571D01*
X150217168Y-94351773D01*
X150217171Y-94351771D01*
X150290994Y-94241286D01*
X150332797Y-94178724D01*
X150373400Y-93974600D01*
X150373400Y-92552078D01*
X150590000Y-92552078D01*
X150674714Y-92536138D01*
X150752518Y-92486072D01*
X150804715Y-92409680D01*
X150823078Y-92319000D01*
X150823078Y-91069000D01*
X150807138Y-90984286D01*
X150757072Y-90906482D01*
X150680680Y-90854285D01*
X150590000Y-90835922D01*
X150581400Y-90835922D01*
X150581400Y-89542000D01*
X150581078Y-89540381D01*
X150581078Y-88942000D01*
X150565138Y-88857286D01*
X150515072Y-88779482D01*
X150438680Y-88727285D01*
X150348000Y-88708922D01*
X149748000Y-88708922D01*
X149663286Y-88724862D01*
X149585482Y-88774928D01*
X149533285Y-88851320D01*
X149514922Y-88942000D01*
X149514922Y-89540381D01*
X149514600Y-89542000D01*
X149514600Y-90835922D01*
X149090000Y-90835922D01*
X149005286Y-90851862D01*
X148927482Y-90901928D01*
X148875285Y-90978320D01*
X148856922Y-91069000D01*
X148856922Y-92319000D01*
X148872862Y-92403714D01*
X148922928Y-92481518D01*
X148999320Y-92533715D01*
X149090000Y-92552078D01*
X149306600Y-92552078D01*
X149306600Y-93753659D01*
X148917075Y-94143183D01*
X148825494Y-94181024D01*
X148664589Y-94341649D01*
X148577400Y-94551623D01*
X148577201Y-94778980D01*
X142011400Y-94778980D01*
X142011400Y-92017850D01*
X146005800Y-92017850D01*
X146005800Y-92435204D01*
X146094739Y-92649922D01*
X146259077Y-92814261D01*
X146473795Y-92903200D01*
X147016150Y-92903200D01*
X147162200Y-92757150D01*
X147162200Y-91871800D01*
X147517800Y-91871800D01*
X147517800Y-92757150D01*
X147663850Y-92903200D01*
X148206205Y-92903200D01*
X148420923Y-92814261D01*
X148585261Y-92649922D01*
X148674200Y-92435204D01*
X148674200Y-92017850D01*
X148528150Y-91871800D01*
X147517800Y-91871800D01*
X147162200Y-91871800D01*
X146151850Y-91871800D01*
X146005800Y-92017850D01*
X142011400Y-92017850D01*
X142011400Y-90952796D01*
X146005800Y-90952796D01*
X146005800Y-91370150D01*
X146151850Y-91516200D01*
X147162200Y-91516200D01*
X147162200Y-90630850D01*
X147517800Y-90630850D01*
X147517800Y-91516200D01*
X148528150Y-91516200D01*
X148674200Y-91370150D01*
X148674200Y-90952796D01*
X148585261Y-90738078D01*
X148420923Y-90573739D01*
X148206205Y-90484800D01*
X147663850Y-90484800D01*
X147517800Y-90630850D01*
X147162200Y-90630850D01*
X147016150Y-90484800D01*
X146473795Y-90484800D01*
X146259077Y-90573739D01*
X146094739Y-90738078D01*
X146005800Y-90952796D01*
X142011400Y-90952796D01*
X142011400Y-88942000D01*
X147614922Y-88942000D01*
X147614922Y-90142000D01*
X147630862Y-90226714D01*
X147680928Y-90304518D01*
X147757320Y-90356715D01*
X147848000Y-90375078D01*
X148448000Y-90375078D01*
X148532714Y-90359138D01*
X148610518Y-90309072D01*
X148662715Y-90232680D01*
X148681078Y-90142000D01*
X148681078Y-88942000D01*
X148665138Y-88857286D01*
X148615072Y-88779482D01*
X148538680Y-88727285D01*
X148448000Y-88708922D01*
X147848000Y-88708922D01*
X147763286Y-88724862D01*
X147685482Y-88774928D01*
X147633285Y-88851320D01*
X147614922Y-88942000D01*
X142011400Y-88942000D01*
X142011400Y-86741005D01*
X142011401Y-86741000D01*
X142008652Y-86727180D01*
X143700401Y-86727180D01*
X143787224Y-86937306D01*
X143947849Y-87098211D01*
X144040229Y-87136571D01*
X144482827Y-87579168D01*
X144482829Y-87579171D01*
X144640023Y-87684204D01*
X144655877Y-87694797D01*
X144860000Y-87735401D01*
X144860005Y-87735400D01*
X145420922Y-87735400D01*
X145420922Y-87952000D01*
X145436862Y-88036714D01*
X145486928Y-88114518D01*
X145563320Y-88166715D01*
X145654000Y-88185078D01*
X146954000Y-88185078D01*
X147038714Y-88169138D01*
X147116518Y-88119072D01*
X147168715Y-88042680D01*
X147187078Y-87952000D01*
X147187078Y-86452000D01*
X147171138Y-86367286D01*
X147121072Y-86289482D01*
X147044680Y-86237285D01*
X146954000Y-86218922D01*
X145654000Y-86218922D01*
X145569286Y-86234862D01*
X145491482Y-86284928D01*
X145439285Y-86361320D01*
X145420922Y-86452000D01*
X145420922Y-86668600D01*
X145080941Y-86668600D01*
X144794617Y-86382275D01*
X144756776Y-86290694D01*
X144596151Y-86129789D01*
X144386177Y-86042600D01*
X144158820Y-86042401D01*
X143948694Y-86129224D01*
X143787789Y-86289849D01*
X143700600Y-86499823D01*
X143700401Y-86727180D01*
X142008652Y-86727180D01*
X141970797Y-86536877D01*
X141855171Y-86363829D01*
X140124171Y-84632829D01*
X140091406Y-84610936D01*
X140950341Y-83752000D01*
X145420922Y-83752000D01*
X145420922Y-85252000D01*
X145436862Y-85336714D01*
X145486928Y-85414518D01*
X145563320Y-85466715D01*
X145654000Y-85485078D01*
X146954000Y-85485078D01*
X147038714Y-85469138D01*
X147116518Y-85419072D01*
X147168715Y-85342680D01*
X147187078Y-85252000D01*
X147187078Y-85203420D01*
X147614600Y-85630942D01*
X147614600Y-87242000D01*
X147614922Y-87243619D01*
X147614922Y-87842000D01*
X147630862Y-87926714D01*
X147680928Y-88004518D01*
X147757320Y-88056715D01*
X147848000Y-88075078D01*
X148262210Y-88075078D01*
X148302739Y-88172923D01*
X148467078Y-88337261D01*
X148681796Y-88426200D01*
X148801950Y-88426200D01*
X148948000Y-88280150D01*
X148948000Y-87419800D01*
X148900200Y-87419800D01*
X148900200Y-87064200D01*
X148948000Y-87064200D01*
X148948000Y-86203850D01*
X149248000Y-86203850D01*
X149248000Y-87064200D01*
X149295800Y-87064200D01*
X149295800Y-87419800D01*
X149248000Y-87419800D01*
X149248000Y-88280150D01*
X149394050Y-88426200D01*
X149514204Y-88426200D01*
X149728922Y-88337261D01*
X149893261Y-88172923D01*
X149933790Y-88075078D01*
X150348000Y-88075078D01*
X150432714Y-88059138D01*
X150459363Y-88041990D01*
X150517739Y-88182923D01*
X150682078Y-88347261D01*
X150896796Y-88436200D01*
X151314150Y-88436200D01*
X151460200Y-88290150D01*
X151460200Y-87279800D01*
X151815800Y-87279800D01*
X151815800Y-88290150D01*
X151961850Y-88436200D01*
X152379204Y-88436200D01*
X152593922Y-88347261D01*
X152758261Y-88182923D01*
X152847200Y-87968205D01*
X152847200Y-87564050D01*
X173127800Y-87564050D01*
X173127800Y-87684204D01*
X173216739Y-87898922D01*
X173381077Y-88063261D01*
X173478922Y-88103790D01*
X173478922Y-88368000D01*
X173494862Y-88452714D01*
X173504191Y-88467212D01*
X173497285Y-88477320D01*
X173478922Y-88568000D01*
X173478922Y-89168000D01*
X173494862Y-89252714D01*
X173504191Y-89267212D01*
X173497285Y-89277320D01*
X173478922Y-89368000D01*
X173478922Y-89968000D01*
X173494862Y-90052714D01*
X173544928Y-90130518D01*
X173621320Y-90182715D01*
X173712000Y-90201078D01*
X174912000Y-90201078D01*
X174996714Y-90185138D01*
X175074518Y-90135072D01*
X175126715Y-90058680D01*
X175145078Y-89968000D01*
X175145078Y-89368000D01*
X175129138Y-89283286D01*
X175119809Y-89268788D01*
X175126715Y-89258680D01*
X175145078Y-89168000D01*
X175145078Y-88831362D01*
X175189849Y-88876211D01*
X175399823Y-88963400D01*
X175627180Y-88963599D01*
X175837306Y-88876776D01*
X175998211Y-88716151D01*
X176085400Y-88506177D01*
X176085599Y-88278820D01*
X175998776Y-88068694D01*
X175838151Y-87907789D01*
X175628177Y-87820600D01*
X175481287Y-87820471D01*
X175459408Y-87798592D01*
X175451114Y-87793050D01*
X175496200Y-87684204D01*
X175496200Y-87564050D01*
X175350150Y-87418000D01*
X174489800Y-87418000D01*
X174489800Y-87465800D01*
X174134200Y-87465800D01*
X174134200Y-87418000D01*
X173273850Y-87418000D01*
X173127800Y-87564050D01*
X152847200Y-87564050D01*
X152847200Y-87425850D01*
X152701150Y-87279800D01*
X151815800Y-87279800D01*
X151460200Y-87279800D01*
X151440200Y-87279800D01*
X151440200Y-86924200D01*
X151460200Y-86924200D01*
X151460200Y-85913850D01*
X151815800Y-85913850D01*
X151815800Y-86924200D01*
X152701150Y-86924200D01*
X152847200Y-86778150D01*
X152847200Y-86235795D01*
X152758261Y-86021077D01*
X152701234Y-85964050D01*
X173127800Y-85964050D01*
X173127800Y-86084204D01*
X173216739Y-86298922D01*
X173381077Y-86463261D01*
X173392518Y-86468000D01*
X173381077Y-86472739D01*
X173216739Y-86637078D01*
X173127800Y-86851796D01*
X173127800Y-86971950D01*
X173273850Y-87118000D01*
X174134200Y-87118000D01*
X174134200Y-87070200D01*
X174489800Y-87070200D01*
X174489800Y-87118000D01*
X175350150Y-87118000D01*
X175496200Y-86971950D01*
X175496200Y-86851796D01*
X175495042Y-86849000D01*
X175577353Y-86849000D01*
X175635156Y-86906904D01*
X175845130Y-86994093D01*
X176072487Y-86994292D01*
X176282613Y-86907469D01*
X176443518Y-86746844D01*
X176530707Y-86536870D01*
X176530906Y-86309513D01*
X176444083Y-86099387D01*
X176283458Y-85938482D01*
X176073484Y-85851293D01*
X175846127Y-85851094D01*
X175636001Y-85937917D01*
X175496200Y-86077475D01*
X175496200Y-85964050D01*
X175350150Y-85818000D01*
X174489800Y-85818000D01*
X174489800Y-85865800D01*
X174134200Y-85865800D01*
X174134200Y-85818000D01*
X173273850Y-85818000D01*
X173127800Y-85964050D01*
X152701234Y-85964050D01*
X152593922Y-85856739D01*
X152379204Y-85767800D01*
X151961850Y-85767800D01*
X151815800Y-85913850D01*
X151460200Y-85913850D01*
X151314150Y-85767800D01*
X150896796Y-85767800D01*
X150682078Y-85856739D01*
X150581400Y-85957416D01*
X150581400Y-85115400D01*
X150779922Y-85115400D01*
X150779922Y-85352000D01*
X150795862Y-85436714D01*
X150845928Y-85514518D01*
X150922320Y-85566715D01*
X151013000Y-85585078D01*
X152263000Y-85585078D01*
X152347714Y-85569138D01*
X152425518Y-85519072D01*
X152477715Y-85442680D01*
X152496078Y-85352000D01*
X152496078Y-83852000D01*
X152480138Y-83767286D01*
X152430072Y-83689482D01*
X152353680Y-83637285D01*
X152263000Y-83618922D01*
X151013000Y-83618922D01*
X150928286Y-83634862D01*
X150850482Y-83684928D01*
X150798285Y-83761320D01*
X150779922Y-83852000D01*
X150779922Y-84048600D01*
X150319691Y-84048600D01*
X150228177Y-84010600D01*
X150000820Y-84010401D01*
X149790694Y-84097224D01*
X149629789Y-84257849D01*
X149542600Y-84467823D01*
X149542565Y-84507410D01*
X149514600Y-84648000D01*
X149514600Y-86057964D01*
X149514204Y-86057800D01*
X149394050Y-86057800D01*
X149248000Y-86203850D01*
X148948000Y-86203850D01*
X148801950Y-86057800D01*
X148681796Y-86057800D01*
X148681400Y-86057964D01*
X148681400Y-85410000D01*
X148640797Y-85205877D01*
X148525171Y-85032829D01*
X147617171Y-84124829D01*
X147444123Y-84009203D01*
X147240000Y-83968600D01*
X147187078Y-83968600D01*
X147187078Y-83752000D01*
X147171138Y-83667286D01*
X147121072Y-83589482D01*
X147044680Y-83537285D01*
X146954000Y-83518922D01*
X145654000Y-83518922D01*
X145569286Y-83534862D01*
X145491482Y-83584928D01*
X145439285Y-83661320D01*
X145420922Y-83752000D01*
X140950341Y-83752000D01*
X141855168Y-82847173D01*
X141855171Y-82847171D01*
X141949829Y-82705504D01*
X141970797Y-82674124D01*
X141981592Y-82619850D01*
X150577800Y-82619850D01*
X150577800Y-83037204D01*
X150666739Y-83251922D01*
X150831077Y-83416261D01*
X151045795Y-83505200D01*
X151588150Y-83505200D01*
X151734200Y-83359150D01*
X151734200Y-82473800D01*
X152089800Y-82473800D01*
X152089800Y-83359150D01*
X152235850Y-83505200D01*
X152778205Y-83505200D01*
X152992923Y-83416261D01*
X153157261Y-83251922D01*
X153246200Y-83037204D01*
X153246200Y-82619850D01*
X153100150Y-82473800D01*
X152089800Y-82473800D01*
X151734200Y-82473800D01*
X150723850Y-82473800D01*
X150577800Y-82619850D01*
X141981592Y-82619850D01*
X142011400Y-82470000D01*
X142011400Y-81075850D01*
X148396800Y-81075850D01*
X148396800Y-81618205D01*
X148485739Y-81832923D01*
X148650078Y-81997261D01*
X148864796Y-82086200D01*
X149282150Y-82086200D01*
X149428200Y-81940150D01*
X149428200Y-80929800D01*
X148542850Y-80929800D01*
X148396800Y-81075850D01*
X142011400Y-81075850D01*
X142011400Y-79885795D01*
X148396800Y-79885795D01*
X148396800Y-80428150D01*
X148542850Y-80574200D01*
X149428200Y-80574200D01*
X149428200Y-79563850D01*
X149783800Y-79563850D01*
X149783800Y-80574200D01*
X149803800Y-80574200D01*
X149803800Y-80929800D01*
X149783800Y-80929800D01*
X149783800Y-81940150D01*
X149929850Y-82086200D01*
X150347204Y-82086200D01*
X150561922Y-81997261D01*
X150582417Y-81976767D01*
X150723850Y-82118200D01*
X151734200Y-82118200D01*
X151734200Y-81232850D01*
X151634200Y-81132850D01*
X151634200Y-80602000D01*
X151989800Y-80602000D01*
X151989800Y-81190150D01*
X152089800Y-81290150D01*
X152089800Y-82118200D01*
X153100150Y-82118200D01*
X153246200Y-81972150D01*
X153246200Y-81671000D01*
X153428922Y-81671000D01*
X153428922Y-82921000D01*
X153444862Y-83005714D01*
X153494928Y-83083518D01*
X153571320Y-83135715D01*
X153662000Y-83154078D01*
X155162000Y-83154078D01*
X155246714Y-83138138D01*
X155324518Y-83088072D01*
X155376715Y-83011680D01*
X155395078Y-82921000D01*
X155395078Y-81671000D01*
X155379138Y-81586286D01*
X155329072Y-81508482D01*
X155252680Y-81456285D01*
X155162000Y-81437922D01*
X154945400Y-81437922D01*
X154945400Y-80035078D01*
X155012000Y-80035078D01*
X155096714Y-80019138D01*
X155174518Y-79969072D01*
X155226715Y-79892680D01*
X155245078Y-79802000D01*
X155245078Y-79202000D01*
X155229138Y-79117286D01*
X155179072Y-79039482D01*
X155102680Y-78987285D01*
X155045400Y-78975686D01*
X155045400Y-78626942D01*
X155425725Y-78246617D01*
X155517306Y-78208776D01*
X155678211Y-78048151D01*
X155765400Y-77838177D01*
X155765599Y-77610820D01*
X155678776Y-77400694D01*
X155518151Y-77239789D01*
X155308177Y-77152600D01*
X155080820Y-77152401D01*
X154870694Y-77239224D01*
X154709789Y-77399849D01*
X154671430Y-77492228D01*
X154134829Y-78028829D01*
X154019203Y-78201877D01*
X153978600Y-78406000D01*
X153978600Y-78975207D01*
X153927286Y-78984862D01*
X153849482Y-79034928D01*
X153797285Y-79111320D01*
X153778922Y-79202000D01*
X153778922Y-79802000D01*
X153794862Y-79886714D01*
X153844928Y-79964518D01*
X153878600Y-79987525D01*
X153878600Y-81437922D01*
X153662000Y-81437922D01*
X153577286Y-81453862D01*
X153499482Y-81503928D01*
X153447285Y-81580320D01*
X153428922Y-81671000D01*
X153246200Y-81671000D01*
X153246200Y-81554796D01*
X153157261Y-81340078D01*
X152992923Y-81175739D01*
X152796009Y-81094175D01*
X152807261Y-81082923D01*
X152896200Y-80868205D01*
X152896200Y-80748050D01*
X152750150Y-80602000D01*
X151989800Y-80602000D01*
X151634200Y-80602000D01*
X151614200Y-80602000D01*
X151614200Y-80302000D01*
X151634200Y-80302000D01*
X151634200Y-79713850D01*
X151989800Y-79713850D01*
X151989800Y-80302000D01*
X152750150Y-80302000D01*
X152896200Y-80155950D01*
X152896200Y-80035795D01*
X152807261Y-79821077D01*
X152642922Y-79656739D01*
X152428204Y-79567800D01*
X152135850Y-79567800D01*
X151989800Y-79713850D01*
X151634200Y-79713850D01*
X151488150Y-79567800D01*
X151195796Y-79567800D01*
X150981078Y-79656739D01*
X150816739Y-79821077D01*
X150802566Y-79855294D01*
X150726261Y-79671077D01*
X150561922Y-79506739D01*
X150347204Y-79417800D01*
X149929850Y-79417800D01*
X149783800Y-79563850D01*
X149428200Y-79563850D01*
X149282150Y-79417800D01*
X148864796Y-79417800D01*
X148650078Y-79506739D01*
X148485739Y-79671077D01*
X148396800Y-79885795D01*
X142011400Y-79885795D01*
X142011400Y-78232000D01*
X141970797Y-78027877D01*
X141937471Y-77978000D01*
X145973800Y-77978000D01*
X146037604Y-78298766D01*
X146219303Y-78570697D01*
X146493303Y-78844697D01*
X146765235Y-79026396D01*
X147086000Y-79090200D01*
X148766105Y-79090200D01*
X148813928Y-79164518D01*
X148890320Y-79216715D01*
X148981000Y-79235078D01*
X150231000Y-79235078D01*
X150315714Y-79219138D01*
X150393518Y-79169072D01*
X150445715Y-79092680D01*
X150464078Y-79002000D01*
X150464078Y-78785400D01*
X151078922Y-78785400D01*
X151078922Y-78852000D01*
X151094862Y-78936714D01*
X151144928Y-79014518D01*
X151221320Y-79066715D01*
X151312000Y-79085078D01*
X151810381Y-79085078D01*
X151812000Y-79085400D01*
X151813619Y-79085078D01*
X152312000Y-79085078D01*
X152396714Y-79069138D01*
X152474518Y-79019072D01*
X152526715Y-78942680D01*
X152545078Y-78852000D01*
X152545078Y-78252000D01*
X152529138Y-78167286D01*
X152479072Y-78089482D01*
X152402680Y-78037285D01*
X152312000Y-78018922D01*
X152033264Y-78018922D01*
X151889171Y-77874829D01*
X151716123Y-77759203D01*
X151512000Y-77718600D01*
X150464078Y-77718600D01*
X150464078Y-77502000D01*
X150448138Y-77417286D01*
X150398072Y-77339482D01*
X150321680Y-77287285D01*
X150231000Y-77268922D01*
X148981000Y-77268922D01*
X148896286Y-77284862D01*
X148818482Y-77334928D01*
X148766285Y-77411320D01*
X148765783Y-77413800D01*
X147433194Y-77413800D01*
X147404697Y-77385303D01*
X147132766Y-77203604D01*
X146812000Y-77139800D01*
X146491234Y-77203604D01*
X146219303Y-77385303D01*
X146037604Y-77657234D01*
X145973800Y-77978000D01*
X141937471Y-77978000D01*
X141855171Y-77854829D01*
X141013171Y-77012829D01*
X140840123Y-76897203D01*
X140636000Y-76856600D01*
X139821078Y-76856600D01*
X139821078Y-76640000D01*
X139805138Y-76555286D01*
X139755072Y-76477482D01*
X139678680Y-76425285D01*
X139588000Y-76406922D01*
X138288000Y-76406922D01*
X138203286Y-76422862D01*
X138125482Y-76472928D01*
X138073285Y-76549320D01*
X138054922Y-76640000D01*
X137614415Y-76640000D01*
X138370903Y-75883512D01*
X157789787Y-75883512D01*
X157976436Y-76335237D01*
X158321745Y-76681149D01*
X158773144Y-76868587D01*
X159261912Y-76869013D01*
X159713637Y-76682364D01*
X160059549Y-76337055D01*
X160246987Y-75885656D01*
X160247413Y-75396888D01*
X160060764Y-74945163D01*
X159715455Y-74599251D01*
X159264056Y-74411813D01*
X158775288Y-74411387D01*
X158323563Y-74598036D01*
X157977651Y-74943345D01*
X157790213Y-75394744D01*
X157789787Y-75883512D01*
X138370903Y-75883512D01*
X138816415Y-75438000D01*
X143941800Y-75438000D01*
X144087603Y-75408998D01*
X144211208Y-75326408D01*
X148493816Y-71043800D01*
X177819984Y-71043800D01*
X180981000Y-74204815D01*
X180981000Y-81800163D01*
X180977286Y-81800862D01*
X180962788Y-81810191D01*
X180952680Y-81803285D01*
X180862000Y-81784922D01*
X180262000Y-81784922D01*
X180177286Y-81800862D01*
X180162788Y-81810191D01*
X180152680Y-81803285D01*
X180062000Y-81784922D01*
X179462000Y-81784922D01*
X179377286Y-81800862D01*
X179362788Y-81810191D01*
X179352680Y-81803285D01*
X179262000Y-81784922D01*
X178662000Y-81784922D01*
X178577286Y-81800862D01*
X178562788Y-81810191D01*
X178552680Y-81803285D01*
X178543000Y-81801325D01*
X178543000Y-81319838D01*
X178614411Y-81248551D01*
X178701600Y-81038577D01*
X178701799Y-80811220D01*
X178614976Y-80601094D01*
X178511200Y-80497137D01*
X178511200Y-79295078D01*
X178704000Y-79295078D01*
X178788714Y-79279138D01*
X178866518Y-79229072D01*
X178918715Y-79152680D01*
X178937078Y-79062000D01*
X178937078Y-77562000D01*
X178921138Y-77477286D01*
X178871072Y-77399482D01*
X178794680Y-77347285D01*
X178704000Y-77328922D01*
X177404000Y-77328922D01*
X177319286Y-77344862D01*
X177241482Y-77394928D01*
X177189285Y-77471320D01*
X177170922Y-77562000D01*
X177170922Y-79062000D01*
X177186862Y-79146714D01*
X177236928Y-79224518D01*
X177313320Y-79276715D01*
X177404000Y-79295078D01*
X177749200Y-79295078D01*
X177749200Y-80497218D01*
X177645989Y-80600249D01*
X177558800Y-80810223D01*
X177558601Y-81037580D01*
X177645424Y-81247706D01*
X177781000Y-81383518D01*
X177781000Y-81800163D01*
X177777286Y-81800862D01*
X177762788Y-81810191D01*
X177752680Y-81803285D01*
X177715460Y-81795748D01*
X177713998Y-81788398D01*
X177631408Y-81664792D01*
X176672408Y-80705792D01*
X176548803Y-80623202D01*
X176403000Y-80594200D01*
X174036182Y-80594200D01*
X173933151Y-80490989D01*
X173723177Y-80403800D01*
X173495820Y-80403601D01*
X173285694Y-80490424D01*
X173124789Y-80651049D01*
X173037600Y-80861023D01*
X173037401Y-81088380D01*
X173124224Y-81298506D01*
X173284849Y-81459411D01*
X173494823Y-81546600D01*
X173722180Y-81546799D01*
X173932306Y-81459976D01*
X174036263Y-81356200D01*
X176245184Y-81356200D01*
X176673906Y-81784922D01*
X176262000Y-81784922D01*
X176177286Y-81800862D01*
X176162788Y-81810191D01*
X176152680Y-81803285D01*
X176062000Y-81784922D01*
X175462000Y-81784922D01*
X175377286Y-81800862D01*
X175299482Y-81850928D01*
X175247285Y-81927320D01*
X175228922Y-82018000D01*
X175228922Y-83218000D01*
X175244862Y-83302714D01*
X175294928Y-83380518D01*
X175371320Y-83432715D01*
X175381000Y-83434675D01*
X175381000Y-83763200D01*
X175410002Y-83909003D01*
X175413405Y-83914096D01*
X175216094Y-83995624D01*
X175145078Y-84066516D01*
X175145078Y-83768000D01*
X175129138Y-83683286D01*
X175079072Y-83605482D01*
X175002680Y-83553285D01*
X174912000Y-83534922D01*
X173712000Y-83534922D01*
X173627286Y-83550862D01*
X173549482Y-83600928D01*
X173497285Y-83677320D01*
X173495325Y-83687000D01*
X165302616Y-83687000D01*
X161899600Y-80283984D01*
X161899600Y-76797160D01*
X163113088Y-76797160D01*
X163218801Y-77043521D01*
X163816709Y-77242769D01*
X164445353Y-77198041D01*
X164818399Y-77043521D01*
X164924112Y-76797160D01*
X164018600Y-75891647D01*
X163113088Y-76797160D01*
X161899600Y-76797160D01*
X161899600Y-75438309D01*
X162416031Y-75438309D01*
X162460759Y-76066953D01*
X162615279Y-76439999D01*
X162861640Y-76545712D01*
X163767153Y-75640200D01*
X164270047Y-75640200D01*
X165175560Y-76545712D01*
X165421921Y-76439999D01*
X165621169Y-75842091D01*
X165576441Y-75213447D01*
X165430868Y-74862000D01*
X177170922Y-74862000D01*
X177170922Y-76362000D01*
X177186862Y-76446714D01*
X177236928Y-76524518D01*
X177313320Y-76576715D01*
X177404000Y-76595078D01*
X178704000Y-76595078D01*
X178788714Y-76579138D01*
X178866518Y-76529072D01*
X178918715Y-76452680D01*
X178937078Y-76362000D01*
X178937078Y-74862000D01*
X178921138Y-74777286D01*
X178871072Y-74699482D01*
X178794680Y-74647285D01*
X178704000Y-74628922D01*
X178587400Y-74628922D01*
X178587400Y-73611691D01*
X178625400Y-73520177D01*
X178625599Y-73292820D01*
X178538776Y-73082694D01*
X178378151Y-72921789D01*
X178168177Y-72834600D01*
X177940820Y-72834401D01*
X177730694Y-72921224D01*
X177569789Y-73081849D01*
X177482600Y-73291823D01*
X177482401Y-73519180D01*
X177520600Y-73611628D01*
X177520600Y-74628922D01*
X177404000Y-74628922D01*
X177319286Y-74644862D01*
X177241482Y-74694928D01*
X177189285Y-74771320D01*
X177170922Y-74862000D01*
X165430868Y-74862000D01*
X165421921Y-74840401D01*
X165175560Y-74734688D01*
X164270047Y-75640200D01*
X163767153Y-75640200D01*
X162861640Y-74734688D01*
X162615279Y-74840401D01*
X162416031Y-75438309D01*
X161899600Y-75438309D01*
X161899600Y-74483240D01*
X163113088Y-74483240D01*
X164018600Y-75388753D01*
X164924112Y-74483240D01*
X164818399Y-74236879D01*
X164220491Y-74037631D01*
X163591847Y-74082359D01*
X163218801Y-74236879D01*
X163113088Y-74483240D01*
X161899600Y-74483240D01*
X161899600Y-73512121D01*
X162213637Y-73382364D01*
X162559549Y-73037055D01*
X162746987Y-72585656D01*
X162747413Y-72096888D01*
X162560764Y-71645163D01*
X162215455Y-71299251D01*
X161764056Y-71111813D01*
X161275288Y-71111387D01*
X160823563Y-71298036D01*
X160477651Y-71643345D01*
X160290213Y-72094744D01*
X160289787Y-72583512D01*
X160476436Y-73035237D01*
X160821745Y-73381149D01*
X161137600Y-73512304D01*
X161137600Y-80441800D01*
X161166602Y-80587603D01*
X161249192Y-80711208D01*
X164875392Y-84337408D01*
X164998997Y-84419998D01*
X165144800Y-84449000D01*
X173494163Y-84449000D01*
X173494862Y-84452714D01*
X173504191Y-84467212D01*
X173497285Y-84477320D01*
X173478922Y-84568000D01*
X173478922Y-84832210D01*
X173381077Y-84872739D01*
X173216739Y-85037078D01*
X173127800Y-85251796D01*
X173127800Y-85371950D01*
X173273850Y-85518000D01*
X174134200Y-85518000D01*
X174134200Y-85470200D01*
X174489800Y-85470200D01*
X174489800Y-85518000D01*
X175350150Y-85518000D01*
X175496200Y-85371950D01*
X175496200Y-85251796D01*
X175440732Y-85117884D01*
X175506745Y-85051871D01*
X175652580Y-85051999D01*
X175862706Y-84965176D01*
X176023611Y-84804551D01*
X176094299Y-84634315D01*
X176885600Y-85425615D01*
X176885600Y-87710862D01*
X176756989Y-87839249D01*
X176669800Y-88049223D01*
X176669601Y-88276580D01*
X176756424Y-88486706D01*
X176917049Y-88647611D01*
X177127023Y-88734800D01*
X177354380Y-88734999D01*
X177564506Y-88648176D01*
X177725411Y-88487551D01*
X177749200Y-88430261D01*
X177749200Y-89285618D01*
X177645989Y-89388649D01*
X177558800Y-89598623D01*
X177558601Y-89825980D01*
X177645424Y-90036106D01*
X177806049Y-90197011D01*
X178016023Y-90284200D01*
X178243380Y-90284399D01*
X178453506Y-90197576D01*
X178614411Y-90036951D01*
X178701600Y-89826977D01*
X178701799Y-89599620D01*
X178614976Y-89389494D01*
X178511200Y-89285537D01*
X178511200Y-86764050D01*
X181627800Y-86764050D01*
X181627800Y-86884204D01*
X181716739Y-87098922D01*
X181881077Y-87263261D01*
X181978922Y-87303790D01*
X181978922Y-87568000D01*
X181994862Y-87652714D01*
X182004191Y-87667212D01*
X181997285Y-87677320D01*
X181978922Y-87768000D01*
X181978922Y-88368000D01*
X181994862Y-88452714D01*
X182004191Y-88467212D01*
X181997285Y-88477320D01*
X181978922Y-88568000D01*
X181978922Y-89168000D01*
X181994862Y-89252714D01*
X182004191Y-89267212D01*
X181997285Y-89277320D01*
X181978922Y-89368000D01*
X181978922Y-89968000D01*
X181994862Y-90052714D01*
X182044928Y-90130518D01*
X182121320Y-90182715D01*
X182212000Y-90201078D01*
X183412000Y-90201078D01*
X183496714Y-90185138D01*
X183574518Y-90135072D01*
X183626715Y-90058680D01*
X183628675Y-90049000D01*
X184201384Y-90049000D01*
X184835800Y-90683415D01*
X184835800Y-98048706D01*
X184681789Y-98202449D01*
X184594600Y-98412423D01*
X184594401Y-98639780D01*
X184681224Y-98849906D01*
X184841849Y-99010811D01*
X185051823Y-99098000D01*
X185279180Y-99098199D01*
X185489306Y-99011376D01*
X185650211Y-98850751D01*
X185737400Y-98640777D01*
X185737599Y-98413420D01*
X185650776Y-98203294D01*
X185597800Y-98150226D01*
X185597800Y-90525605D01*
X185597801Y-90525600D01*
X185568798Y-90379798D01*
X185565006Y-90374123D01*
X185486208Y-90256192D01*
X185486205Y-90256190D01*
X184628608Y-89398592D01*
X184505003Y-89316002D01*
X184359200Y-89287000D01*
X183629837Y-89287000D01*
X183629138Y-89283286D01*
X183619809Y-89268788D01*
X183626715Y-89258680D01*
X183628675Y-89249000D01*
X184605073Y-89249000D01*
X184627928Y-89284518D01*
X184704320Y-89336715D01*
X184795000Y-89355078D01*
X186045000Y-89355078D01*
X186129714Y-89339138D01*
X186207518Y-89289072D01*
X186259715Y-89212680D01*
X186278078Y-89122000D01*
X186278078Y-88905400D01*
X186944144Y-88905400D01*
X187083823Y-88963400D01*
X187311180Y-88963599D01*
X187521306Y-88876776D01*
X187682211Y-88716151D01*
X187769400Y-88506177D01*
X187769599Y-88278820D01*
X187682776Y-88068694D01*
X187522151Y-87907789D01*
X187312177Y-87820600D01*
X187084820Y-87820401D01*
X187040775Y-87838600D01*
X186278078Y-87838600D01*
X186278078Y-87622000D01*
X186262138Y-87537286D01*
X186212072Y-87459482D01*
X186135680Y-87407285D01*
X186045000Y-87388922D01*
X184795000Y-87388922D01*
X184710286Y-87404862D01*
X184632482Y-87454928D01*
X184580285Y-87531320D01*
X184561922Y-87622000D01*
X184561922Y-88487000D01*
X183629837Y-88487000D01*
X183629138Y-88483286D01*
X183619809Y-88468788D01*
X183626715Y-88458680D01*
X183645078Y-88368000D01*
X183645078Y-87768000D01*
X183629138Y-87683286D01*
X183619809Y-87668788D01*
X183626715Y-87658680D01*
X183645078Y-87568000D01*
X183645078Y-87303790D01*
X183742923Y-87263261D01*
X183907261Y-87098922D01*
X183996200Y-86884204D01*
X183996200Y-86764050D01*
X183850150Y-86618000D01*
X182989800Y-86618000D01*
X182989800Y-86665800D01*
X182634200Y-86665800D01*
X182634200Y-86618000D01*
X181773850Y-86618000D01*
X181627800Y-86764050D01*
X178511200Y-86764050D01*
X178511200Y-84937605D01*
X178511201Y-84937600D01*
X178482198Y-84791798D01*
X178435693Y-84722198D01*
X178399608Y-84668192D01*
X178399605Y-84668190D01*
X177182494Y-83451078D01*
X177662000Y-83451078D01*
X177746714Y-83435138D01*
X177761212Y-83425809D01*
X177771320Y-83432715D01*
X177862000Y-83451078D01*
X178462000Y-83451078D01*
X178546714Y-83435138D01*
X178561212Y-83425809D01*
X178571320Y-83432715D01*
X178662000Y-83451078D01*
X179262000Y-83451078D01*
X179346714Y-83435138D01*
X179361212Y-83425809D01*
X179371320Y-83432715D01*
X179462000Y-83451078D01*
X180062000Y-83451078D01*
X180146714Y-83435138D01*
X180161212Y-83425809D01*
X180171320Y-83432715D01*
X180262000Y-83451078D01*
X180862000Y-83451078D01*
X180946714Y-83435138D01*
X180961212Y-83425809D01*
X180971320Y-83432715D01*
X181062000Y-83451078D01*
X181662000Y-83451078D01*
X181746714Y-83435138D01*
X181824518Y-83385072D01*
X181876715Y-83308680D01*
X181895078Y-83218000D01*
X181895078Y-82018000D01*
X181879138Y-81933286D01*
X181829072Y-81855482D01*
X181752680Y-81803285D01*
X181743000Y-81801325D01*
X181743000Y-74281016D01*
X182431000Y-74969016D01*
X182431000Y-83534922D01*
X182212000Y-83534922D01*
X182127286Y-83550862D01*
X182049482Y-83600928D01*
X181997285Y-83677320D01*
X181978922Y-83768000D01*
X181978922Y-84368000D01*
X181994862Y-84452714D01*
X182004191Y-84467212D01*
X181997285Y-84477320D01*
X181978922Y-84568000D01*
X181978922Y-85168000D01*
X181994862Y-85252714D01*
X182004191Y-85267212D01*
X181997285Y-85277320D01*
X181978922Y-85368000D01*
X181978922Y-85632210D01*
X181881077Y-85672739D01*
X181716739Y-85837078D01*
X181627800Y-86051796D01*
X181627800Y-86171950D01*
X181773850Y-86318000D01*
X182634200Y-86318000D01*
X182634200Y-86270200D01*
X182989800Y-86270200D01*
X182989800Y-86318000D01*
X183850150Y-86318000D01*
X183972300Y-86195850D01*
X184210800Y-86195850D01*
X184210800Y-86738205D01*
X184299739Y-86952923D01*
X184464078Y-87117261D01*
X184678796Y-87206200D01*
X185096150Y-87206200D01*
X185242200Y-87060150D01*
X185242200Y-86049800D01*
X185597800Y-86049800D01*
X185597800Y-87060150D01*
X185743850Y-87206200D01*
X186161204Y-87206200D01*
X186375922Y-87117261D01*
X186540261Y-86952923D01*
X186629200Y-86738205D01*
X186629200Y-86195850D01*
X186483150Y-86049800D01*
X185597800Y-86049800D01*
X185242200Y-86049800D01*
X184356850Y-86049800D01*
X184210800Y-86195850D01*
X183972300Y-86195850D01*
X183996200Y-86171950D01*
X183996200Y-86051796D01*
X183907261Y-85837078D01*
X183742923Y-85672739D01*
X183645078Y-85632210D01*
X183645078Y-85368000D01*
X183629138Y-85283286D01*
X183619809Y-85268788D01*
X183626715Y-85258680D01*
X183628675Y-85249000D01*
X183813200Y-85249000D01*
X183959003Y-85219998D01*
X184082608Y-85137408D01*
X184210800Y-85009216D01*
X184210800Y-85548150D01*
X184356850Y-85694200D01*
X185242200Y-85694200D01*
X185242200Y-85674200D01*
X185597800Y-85674200D01*
X185597800Y-85694200D01*
X186483150Y-85694200D01*
X186629200Y-85548150D01*
X186629200Y-85005795D01*
X186540261Y-84791077D01*
X186483584Y-84734400D01*
X188970584Y-84734400D01*
X197053200Y-92817016D01*
X197053200Y-101416785D01*
X196819184Y-101650800D01*
X194775491Y-101650800D01*
X194850607Y-101600609D01*
X195532722Y-100918493D01*
X195532722Y-101026400D01*
X195548662Y-101111114D01*
X195598728Y-101188918D01*
X195675120Y-101241115D01*
X195765800Y-101259478D01*
X196765800Y-101259478D01*
X196850514Y-101243538D01*
X196928318Y-101193472D01*
X196980515Y-101117080D01*
X196998878Y-101026400D01*
X196998878Y-99876400D01*
X196982938Y-99791686D01*
X196932872Y-99713882D01*
X196856480Y-99661685D01*
X196765800Y-99643322D01*
X195765800Y-99643322D01*
X195681086Y-99659262D01*
X195603282Y-99709328D01*
X195551085Y-99785720D01*
X195532722Y-99876400D01*
X195532722Y-100070400D01*
X195461005Y-100070400D01*
X195461000Y-100070399D01*
X195315198Y-100099402D01*
X195191592Y-100181992D01*
X195191590Y-100181995D01*
X194498878Y-100874706D01*
X194498878Y-99876400D01*
X194482938Y-99791686D01*
X194432872Y-99713882D01*
X194356480Y-99661685D01*
X194265800Y-99643322D01*
X193265800Y-99643322D01*
X193181086Y-99659262D01*
X193103282Y-99709328D01*
X193051085Y-99785720D01*
X193032722Y-99876400D01*
X193032722Y-100950201D01*
X183251616Y-100950201D01*
X179122222Y-96820806D01*
X179291706Y-96750776D01*
X179452611Y-96590151D01*
X179539800Y-96380177D01*
X179539915Y-96248667D01*
X179660249Y-96369211D01*
X179870223Y-96456400D01*
X180097580Y-96456599D01*
X180307706Y-96369776D01*
X180468611Y-96209151D01*
X180555800Y-95999177D01*
X180555999Y-95771820D01*
X180469176Y-95561694D01*
X180308551Y-95400789D01*
X180143000Y-95332046D01*
X180143000Y-91935837D01*
X180146714Y-91935138D01*
X180161212Y-91925809D01*
X180171320Y-91932715D01*
X180181000Y-91934675D01*
X180181000Y-94684600D01*
X180210002Y-94830403D01*
X180292592Y-94954008D01*
X180848000Y-95509415D01*
X180848000Y-95889618D01*
X180744789Y-95992649D01*
X180657600Y-96202623D01*
X180657401Y-96429980D01*
X180744224Y-96640106D01*
X180904849Y-96801011D01*
X181114823Y-96888200D01*
X181342180Y-96888399D01*
X181552306Y-96801576D01*
X181713211Y-96640951D01*
X181797375Y-96438263D01*
X181902223Y-96481800D01*
X182129580Y-96481999D01*
X182339706Y-96395176D01*
X182500611Y-96234551D01*
X182587800Y-96024577D01*
X182587999Y-95797220D01*
X182501176Y-95587094D01*
X182397400Y-95483137D01*
X182397400Y-95173800D01*
X182372138Y-95046800D01*
X182368398Y-95027997D01*
X182330046Y-94970600D01*
X182285808Y-94904392D01*
X182285805Y-94904390D01*
X181743000Y-94361584D01*
X181743000Y-91935837D01*
X181746714Y-91935138D01*
X181824518Y-91885072D01*
X181876715Y-91808680D01*
X181895078Y-91718000D01*
X181895078Y-90518000D01*
X181879138Y-90433286D01*
X181829072Y-90355482D01*
X181752680Y-90303285D01*
X181662000Y-90284922D01*
X181062000Y-90284922D01*
X180977286Y-90300862D01*
X180962788Y-90310191D01*
X180952680Y-90303285D01*
X180862000Y-90284922D01*
X180262000Y-90284922D01*
X180177286Y-90300862D01*
X180162788Y-90310191D01*
X180152680Y-90303285D01*
X180062000Y-90284922D01*
X179462000Y-90284922D01*
X179377286Y-90300862D01*
X179362788Y-90310191D01*
X179352680Y-90303285D01*
X179262000Y-90284922D01*
X178662000Y-90284922D01*
X178577286Y-90300862D01*
X178562788Y-90310191D01*
X178552680Y-90303285D01*
X178462000Y-90284922D01*
X177862000Y-90284922D01*
X177777286Y-90300862D01*
X177762788Y-90310191D01*
X177752680Y-90303285D01*
X177662000Y-90284922D01*
X177062000Y-90284922D01*
X176977286Y-90300862D01*
X176962788Y-90310191D01*
X176952680Y-90303285D01*
X176862000Y-90284922D01*
X176798346Y-90284922D01*
X176707802Y-90224423D01*
X176562000Y-90195421D01*
X176416198Y-90224423D01*
X176325654Y-90284922D01*
X176262000Y-90284922D01*
X176177286Y-90300862D01*
X176162788Y-90310191D01*
X176152680Y-90303285D01*
X176062000Y-90284922D01*
X175462000Y-90284922D01*
X175377286Y-90300862D01*
X175299482Y-90350928D01*
X175247285Y-90427320D01*
X175228922Y-90518000D01*
X175228922Y-91718000D01*
X175244862Y-91802714D01*
X175294928Y-91880518D01*
X175371320Y-91932715D01*
X175381000Y-91934675D01*
X175381000Y-92568296D01*
X175232989Y-92716049D01*
X175145800Y-92926023D01*
X175145601Y-93153380D01*
X175232424Y-93363506D01*
X175393049Y-93524411D01*
X175603023Y-93611600D01*
X175830380Y-93611799D01*
X176040506Y-93524976D01*
X176181000Y-93384726D01*
X176181000Y-101054585D01*
X173417588Y-103817996D01*
X173355000Y-103805322D01*
X171323000Y-103805322D01*
X171238286Y-103821262D01*
X171160482Y-103871328D01*
X171108285Y-103947720D01*
X171089922Y-104038400D01*
X171089922Y-104127443D01*
X171062057Y-104071869D01*
X170589914Y-103663309D01*
X170223387Y-103511501D01*
X169976800Y-103611161D01*
X169976800Y-104876600D01*
X169996800Y-104876600D01*
X169996800Y-105232200D01*
X169976800Y-105232200D01*
X169976800Y-106497639D01*
X170223387Y-106597299D01*
X170589914Y-106445491D01*
X171062057Y-106036931D01*
X171089922Y-105981357D01*
X171089922Y-106070400D01*
X171105862Y-106155114D01*
X171155928Y-106232918D01*
X171232320Y-106285115D01*
X171323000Y-106303478D01*
X173355000Y-106303478D01*
X173439714Y-106287538D01*
X173517518Y-106237472D01*
X173569715Y-106161080D01*
X173588078Y-106070400D01*
X173588078Y-104725138D01*
X176831405Y-101481810D01*
X176831408Y-101481808D01*
X176913998Y-101358202D01*
X176919369Y-101331201D01*
X176943001Y-101212400D01*
X176943000Y-101212395D01*
X176943000Y-91935837D01*
X176946714Y-91935138D01*
X176961212Y-91925809D01*
X176971320Y-91932715D01*
X176981000Y-91934675D01*
X176981000Y-95599400D01*
X177010002Y-95745203D01*
X177092592Y-95868808D01*
X182824391Y-101600606D01*
X182824393Y-101600609D01*
X182899510Y-101650800D01*
X181762400Y-101650800D01*
X181616597Y-101679802D01*
X181492992Y-101762392D01*
X174263986Y-108991398D01*
X140416613Y-108991398D01*
X139319000Y-107893784D01*
X139319000Y-105478789D01*
X168256089Y-105478789D01*
X168535943Y-106036931D01*
X169008086Y-106445491D01*
X169374613Y-106597299D01*
X169621200Y-106497639D01*
X169621200Y-105232200D01*
X168354746Y-105232200D01*
X168256089Y-105478789D01*
X139319000Y-105478789D01*
X139319000Y-104630011D01*
X168256089Y-104630011D01*
X168354746Y-104876600D01*
X169621200Y-104876600D01*
X169621200Y-103611161D01*
X169374613Y-103511501D01*
X169008086Y-103663309D01*
X168535943Y-104071869D01*
X168256089Y-104630011D01*
X139319000Y-104630011D01*
X139319000Y-103425078D01*
X139588000Y-103425078D01*
X139672714Y-103409138D01*
X139750518Y-103359072D01*
X139802715Y-103282680D01*
X139821078Y-103192000D01*
X139821078Y-101692000D01*
X139805138Y-101607286D01*
X139755072Y-101529482D01*
X139678680Y-101477285D01*
X139588000Y-101458922D01*
X138709264Y-101458922D01*
X137965171Y-100714829D01*
X137792123Y-100599203D01*
X137588000Y-100558600D01*
X137016029Y-100558600D01*
X136997292Y-100529482D01*
X136920900Y-100477285D01*
X136830220Y-100458922D01*
X135930220Y-100458922D01*
X135845506Y-100474862D01*
X135767702Y-100524928D01*
X135715505Y-100601320D01*
X135697142Y-100692000D01*
X135697142Y-101492000D01*
X135713082Y-101576714D01*
X135763148Y-101654518D01*
X135839540Y-101706715D01*
X135930220Y-101725078D01*
X136830220Y-101725078D01*
X136914934Y-101709138D01*
X136992738Y-101659072D01*
X137015745Y-101625400D01*
X137367058Y-101625400D01*
X138054922Y-102313264D01*
X138054922Y-103192000D01*
X138070862Y-103276714D01*
X138120928Y-103354518D01*
X138197320Y-103406715D01*
X138288000Y-103425078D01*
X138557000Y-103425078D01*
X138557000Y-108051600D01*
X138586002Y-108197403D01*
X138668592Y-108321008D01*
X139796185Y-109448600D01*
X128173817Y-109448600D01*
X127609600Y-108884382D01*
X127609600Y-105537011D01*
X127683721Y-105716397D01*
X127962138Y-105995300D01*
X128326093Y-106146428D01*
X128720178Y-106146772D01*
X129084397Y-105996279D01*
X129363300Y-105717862D01*
X129514428Y-105353907D01*
X129514772Y-104959822D01*
X129364279Y-104595603D01*
X129085862Y-104316700D01*
X128721907Y-104165572D01*
X128327822Y-104165228D01*
X128295409Y-104178621D01*
X128295409Y-102926225D01*
X130032591Y-104663406D01*
X130032593Y-104663409D01*
X130148010Y-104778826D01*
X130073572Y-104958093D01*
X130073228Y-105352178D01*
X130223721Y-105716397D01*
X130502138Y-105995300D01*
X130866093Y-106146428D01*
X131260178Y-106146772D01*
X131276940Y-106139846D01*
X132871601Y-106139846D01*
X132947862Y-106361588D01*
X133459166Y-106520911D01*
X133992520Y-106472439D01*
X134260138Y-106361588D01*
X134336399Y-106139846D01*
X133604000Y-105407447D01*
X132871601Y-106139846D01*
X131276940Y-106139846D01*
X131624397Y-105996279D01*
X131903300Y-105717862D01*
X132054428Y-105353907D01*
X132054727Y-105011166D01*
X132239089Y-105011166D01*
X132287561Y-105544520D01*
X132398412Y-105812138D01*
X132620154Y-105888399D01*
X133352553Y-105156000D01*
X133855447Y-105156000D01*
X134587846Y-105888399D01*
X134809588Y-105812138D01*
X134968911Y-105300834D01*
X134920439Y-104767480D01*
X134809588Y-104499862D01*
X134587846Y-104423601D01*
X133855447Y-105156000D01*
X133352553Y-105156000D01*
X132620154Y-104423601D01*
X132398412Y-104499862D01*
X132239089Y-105011166D01*
X132054727Y-105011166D01*
X132054772Y-104959822D01*
X131904279Y-104595603D01*
X131625862Y-104316700D01*
X131277759Y-104172154D01*
X132871601Y-104172154D01*
X133604000Y-104904553D01*
X134336399Y-104172154D01*
X134260138Y-103950412D01*
X133748834Y-103791089D01*
X133215480Y-103839561D01*
X132947862Y-103950412D01*
X132871601Y-104172154D01*
X131277759Y-104172154D01*
X131261907Y-104165572D01*
X130867822Y-104165228D01*
X130686829Y-104240013D01*
X130571409Y-104124593D01*
X130571406Y-104124591D01*
X128752619Y-102305803D01*
X128752619Y-99553435D01*
X131196922Y-101997738D01*
X131196922Y-103192000D01*
X131212862Y-103276714D01*
X131262928Y-103354518D01*
X131339320Y-103406715D01*
X131430000Y-103425078D01*
X132730000Y-103425078D01*
X132814714Y-103409138D01*
X132892518Y-103359072D01*
X132944715Y-103282680D01*
X132963078Y-103192000D01*
X132963078Y-102575400D01*
X133745431Y-102575400D01*
X133764168Y-102604518D01*
X133840560Y-102656715D01*
X133931240Y-102675078D01*
X134831240Y-102675078D01*
X134915954Y-102659138D01*
X134993758Y-102609072D01*
X135045955Y-102532680D01*
X135064318Y-102442000D01*
X135064318Y-101642000D01*
X135048378Y-101557286D01*
X134998312Y-101479482D01*
X134921920Y-101427285D01*
X134831240Y-101408922D01*
X133931240Y-101408922D01*
X133846526Y-101424862D01*
X133768722Y-101474928D01*
X133745715Y-101508600D01*
X132866511Y-101508600D01*
X132820680Y-101477285D01*
X132730000Y-101458922D01*
X131735738Y-101458922D01*
X129268816Y-98992000D01*
X131196922Y-98992000D01*
X131196922Y-100492000D01*
X131212862Y-100576714D01*
X131262928Y-100654518D01*
X131339320Y-100706715D01*
X131430000Y-100725078D01*
X132730000Y-100725078D01*
X132814714Y-100709138D01*
X132892518Y-100659072D01*
X132944715Y-100582680D01*
X132963078Y-100492000D01*
X132963078Y-100275400D01*
X133698162Y-100275400D01*
X133698162Y-100542000D01*
X133714102Y-100626714D01*
X133764168Y-100704518D01*
X133840560Y-100756715D01*
X133931240Y-100775078D01*
X134831240Y-100775078D01*
X134915954Y-100759138D01*
X134993758Y-100709072D01*
X135045955Y-100632680D01*
X135064318Y-100542000D01*
X135064318Y-99878024D01*
X135867724Y-99074617D01*
X135959306Y-99036776D01*
X136120211Y-98876151D01*
X136207400Y-98666177D01*
X136207599Y-98438820D01*
X136120776Y-98228694D01*
X135960151Y-98067789D01*
X135750177Y-97980600D01*
X135522820Y-97980401D01*
X135312694Y-98067224D01*
X135151789Y-98227849D01*
X135113429Y-98320230D01*
X134184606Y-99249052D01*
X133981240Y-99208600D01*
X132963078Y-99208600D01*
X132963078Y-98992000D01*
X132947138Y-98907286D01*
X132897072Y-98829482D01*
X132820680Y-98777285D01*
X132730000Y-98758922D01*
X131430000Y-98758922D01*
X131345286Y-98774862D01*
X131267482Y-98824928D01*
X131215285Y-98901320D01*
X131196922Y-98992000D01*
X129268816Y-98992000D01*
X129209829Y-98933013D01*
X129209829Y-95022888D01*
X129193911Y-94942862D01*
X129180827Y-94877085D01*
X129098237Y-94753480D01*
X127635028Y-93290271D01*
X127635028Y-78486028D01*
X127630351Y-78462517D01*
X127606026Y-78340225D01*
X127523436Y-78216620D01*
X124475407Y-75168591D01*
X124475404Y-75168589D01*
X124359989Y-75053174D01*
X124434428Y-74873907D01*
X124434429Y-74872178D01*
X124993228Y-74872178D01*
X125143721Y-75236397D01*
X125422138Y-75515300D01*
X125786093Y-75666428D01*
X126180178Y-75666772D01*
X126361171Y-75591987D01*
X127889000Y-77119816D01*
X127889000Y-92710000D01*
X127918002Y-92855803D01*
X128000592Y-92979408D01*
X130366590Y-95345405D01*
X130366592Y-95345408D01*
X130435259Y-95391289D01*
X130490197Y-95427998D01*
X130636000Y-95457000D01*
X131196922Y-95457000D01*
X131196922Y-95826000D01*
X131212862Y-95910714D01*
X131262928Y-95988518D01*
X131339320Y-96040715D01*
X131430000Y-96059078D01*
X132730000Y-96059078D01*
X132814714Y-96043138D01*
X132892518Y-95993072D01*
X132944715Y-95916680D01*
X132963078Y-95826000D01*
X132963078Y-95209400D01*
X133745431Y-95209400D01*
X133764168Y-95238518D01*
X133840560Y-95290715D01*
X133931240Y-95309078D01*
X134831240Y-95309078D01*
X134915954Y-95293138D01*
X134993758Y-95243072D01*
X135045955Y-95166680D01*
X135064318Y-95076000D01*
X135064318Y-94276000D01*
X135048378Y-94191286D01*
X134998312Y-94113482D01*
X134921920Y-94061285D01*
X134831240Y-94042922D01*
X133931240Y-94042922D01*
X133846526Y-94058862D01*
X133768722Y-94108928D01*
X133745715Y-94142600D01*
X132866511Y-94142600D01*
X132820680Y-94111285D01*
X132730000Y-94092922D01*
X131430000Y-94092922D01*
X131345286Y-94108862D01*
X131267482Y-94158928D01*
X131215285Y-94235320D01*
X131196922Y-94326000D01*
X131196922Y-94695000D01*
X130793815Y-94695000D01*
X128651000Y-92552184D01*
X128651000Y-76962000D01*
X128621998Y-76816198D01*
X128621998Y-76816197D01*
X128539408Y-76692592D01*
X126899990Y-75053174D01*
X126974428Y-74873907D01*
X126974429Y-74872178D01*
X127533228Y-74872178D01*
X127683721Y-75236397D01*
X127962138Y-75515300D01*
X128326093Y-75666428D01*
X128720178Y-75666772D01*
X128901171Y-75591987D01*
X128905000Y-75595815D01*
X128905000Y-86106000D01*
X128934002Y-86251803D01*
X129016592Y-86375408D01*
X130620590Y-87979405D01*
X130620592Y-87979408D01*
X130715286Y-88042680D01*
X130744198Y-88061998D01*
X130890000Y-88091001D01*
X130890005Y-88091000D01*
X131196922Y-88091000D01*
X131196922Y-88460000D01*
X131212862Y-88544714D01*
X131262928Y-88622518D01*
X131339320Y-88674715D01*
X131430000Y-88693078D01*
X132730000Y-88693078D01*
X132814714Y-88677138D01*
X132892518Y-88627072D01*
X132944715Y-88550680D01*
X132963078Y-88460000D01*
X132963078Y-87843400D01*
X133745431Y-87843400D01*
X133764168Y-87872518D01*
X133840560Y-87924715D01*
X133931240Y-87943078D01*
X134831240Y-87943078D01*
X134915954Y-87927138D01*
X134993758Y-87877072D01*
X135045955Y-87800680D01*
X135064318Y-87710000D01*
X135064318Y-86910000D01*
X135048378Y-86825286D01*
X134998312Y-86747482D01*
X134921920Y-86695285D01*
X134831240Y-86676922D01*
X133931240Y-86676922D01*
X133846526Y-86692862D01*
X133768722Y-86742928D01*
X133745715Y-86776600D01*
X132866511Y-86776600D01*
X132820680Y-86745285D01*
X132730000Y-86726922D01*
X131430000Y-86726922D01*
X131345286Y-86742862D01*
X131267482Y-86792928D01*
X131215285Y-86869320D01*
X131196922Y-86960000D01*
X131196922Y-87329000D01*
X131047815Y-87329000D01*
X129667000Y-85948184D01*
X129667000Y-75438005D01*
X129667001Y-75438000D01*
X129921000Y-75438000D01*
X129921000Y-79756000D01*
X129950002Y-79901803D01*
X130032592Y-80025408D01*
X130620590Y-80613405D01*
X130620592Y-80613408D01*
X130682828Y-80654992D01*
X130744198Y-80695998D01*
X130890000Y-80725001D01*
X130890005Y-80725000D01*
X131196922Y-80725000D01*
X131196922Y-81094000D01*
X131212862Y-81178714D01*
X131262928Y-81256518D01*
X131339320Y-81308715D01*
X131430000Y-81327078D01*
X132730000Y-81327078D01*
X132814714Y-81311138D01*
X132892518Y-81261072D01*
X132944715Y-81184680D01*
X132963078Y-81094000D01*
X132963078Y-80477400D01*
X133999431Y-80477400D01*
X134018168Y-80506518D01*
X134094560Y-80558715D01*
X134185240Y-80577078D01*
X135085240Y-80577078D01*
X135169954Y-80561138D01*
X135247758Y-80511072D01*
X135299955Y-80434680D01*
X135318318Y-80344000D01*
X135318318Y-79544000D01*
X135302378Y-79459286D01*
X135252312Y-79381482D01*
X135175920Y-79329285D01*
X135085240Y-79310922D01*
X134185240Y-79310922D01*
X134100526Y-79326862D01*
X134022722Y-79376928D01*
X133999715Y-79410600D01*
X132866511Y-79410600D01*
X132820680Y-79379285D01*
X132730000Y-79360922D01*
X131430000Y-79360922D01*
X131345286Y-79376862D01*
X131267482Y-79426928D01*
X131215285Y-79503320D01*
X131196922Y-79594000D01*
X131196922Y-79963000D01*
X131047815Y-79963000D01*
X130683000Y-79598184D01*
X130683000Y-75595816D01*
X130686826Y-75591990D01*
X130866093Y-75666428D01*
X131260178Y-75666772D01*
X131276940Y-75659846D01*
X132871601Y-75659846D01*
X132947862Y-75881588D01*
X133459166Y-76040911D01*
X133992520Y-75992439D01*
X134260138Y-75881588D01*
X134336399Y-75659846D01*
X133604000Y-74927447D01*
X132871601Y-75659846D01*
X131276940Y-75659846D01*
X131624397Y-75516279D01*
X131903300Y-75237862D01*
X132054428Y-74873907D01*
X132054727Y-74531166D01*
X132239089Y-74531166D01*
X132287561Y-75064520D01*
X132398412Y-75332138D01*
X132620154Y-75408399D01*
X133352553Y-74676000D01*
X133855447Y-74676000D01*
X134587846Y-75408399D01*
X134809588Y-75332138D01*
X134968911Y-74820834D01*
X134920439Y-74287480D01*
X134809588Y-74019862D01*
X134587846Y-73943601D01*
X133855447Y-74676000D01*
X133352553Y-74676000D01*
X132620154Y-73943601D01*
X132398412Y-74019862D01*
X132239089Y-74531166D01*
X132054727Y-74531166D01*
X132054772Y-74479822D01*
X131904279Y-74115603D01*
X131625862Y-73836700D01*
X131277759Y-73692154D01*
X132871601Y-73692154D01*
X133604000Y-74424553D01*
X134336399Y-73692154D01*
X134260138Y-73470412D01*
X133748834Y-73311089D01*
X133215480Y-73359561D01*
X132947862Y-73470412D01*
X132871601Y-73692154D01*
X131277759Y-73692154D01*
X131261907Y-73685572D01*
X130867822Y-73685228D01*
X130503603Y-73835721D01*
X130224700Y-74114138D01*
X130073572Y-74478093D01*
X130073228Y-74872178D01*
X130148013Y-75053171D01*
X130032592Y-75168592D01*
X129950002Y-75292197D01*
X129950002Y-75292198D01*
X129921000Y-75438000D01*
X129667001Y-75438000D01*
X129637998Y-75292198D01*
X129600713Y-75236397D01*
X129555408Y-75168592D01*
X129555405Y-75168590D01*
X129439989Y-75053174D01*
X129514428Y-74873907D01*
X129514772Y-74479822D01*
X129364279Y-74115603D01*
X129085862Y-73836700D01*
X128721907Y-73685572D01*
X128327822Y-73685228D01*
X127963603Y-73835721D01*
X127684700Y-74114138D01*
X127533572Y-74478093D01*
X127533228Y-74872178D01*
X126974429Y-74872178D01*
X126974772Y-74479822D01*
X126824279Y-74115603D01*
X126545862Y-73836700D01*
X126181907Y-73685572D01*
X125787822Y-73685228D01*
X125423603Y-73835721D01*
X125144700Y-74114138D01*
X124993572Y-74478093D01*
X124993228Y-74872178D01*
X124434429Y-74872178D01*
X124434772Y-74479822D01*
X124284279Y-74115603D01*
X124005862Y-73836700D01*
X123641907Y-73685572D01*
X123247822Y-73685228D01*
X122883603Y-73835721D01*
X122604700Y-74114138D01*
X122453572Y-74478093D01*
X122453228Y-74872178D01*
X122603721Y-75236397D01*
X122882138Y-75515300D01*
X123246093Y-75666428D01*
X123640178Y-75666772D01*
X123821171Y-75591987D01*
X123936589Y-75707404D01*
X123936591Y-75707407D01*
X126873028Y-78643844D01*
X126873028Y-93174863D01*
X126619000Y-92920835D01*
X126619000Y-81688476D01*
X126589998Y-81542674D01*
X126589998Y-81542673D01*
X126507408Y-81419068D01*
X123266404Y-78178064D01*
X123266404Y-76983802D01*
X123250464Y-76899088D01*
X123200398Y-76821284D01*
X123124006Y-76769087D01*
X123033326Y-76750724D01*
X121733326Y-76750724D01*
X121648612Y-76766664D01*
X121570808Y-76816730D01*
X121518611Y-76893122D01*
X121500248Y-76983802D01*
X121500248Y-77444403D01*
X120649895Y-77444403D01*
X120631158Y-77415285D01*
X120554766Y-77363088D01*
X120464086Y-77344725D01*
X119564086Y-77344725D01*
X119479372Y-77360665D01*
X119401568Y-77410731D01*
X119349371Y-77487123D01*
X119331008Y-77577803D01*
X119331008Y-78377803D01*
X119346948Y-78462517D01*
X119397014Y-78540321D01*
X119473406Y-78592518D01*
X119564086Y-78610881D01*
X120464086Y-78610881D01*
X120548800Y-78594941D01*
X120626604Y-78544875D01*
X120649611Y-78511203D01*
X121505404Y-78511203D01*
X121516188Y-78568516D01*
X121566254Y-78646320D01*
X121642646Y-78698517D01*
X121733326Y-78716880D01*
X122727588Y-78716880D01*
X125857000Y-81846292D01*
X125857000Y-92805427D01*
X125603000Y-92551427D01*
X125603000Y-88038478D01*
X125599325Y-88020002D01*
X125573998Y-87892675D01*
X125513943Y-87802797D01*
X125491408Y-87769070D01*
X125491405Y-87769068D01*
X123266404Y-85544066D01*
X123266404Y-84349804D01*
X123250464Y-84265090D01*
X123200398Y-84187286D01*
X123124006Y-84135089D01*
X123033326Y-84116726D01*
X121733326Y-84116726D01*
X121648612Y-84132666D01*
X121570808Y-84182732D01*
X121518611Y-84259124D01*
X121500248Y-84349804D01*
X121500248Y-84937403D01*
X120649895Y-84937403D01*
X120631158Y-84908285D01*
X120554766Y-84856088D01*
X120464086Y-84837725D01*
X119640285Y-84837725D01*
X119640285Y-83597690D01*
X119640286Y-83597685D01*
X119611283Y-83451883D01*
X119528693Y-83328277D01*
X118396106Y-82195690D01*
X118396106Y-79560881D01*
X118465106Y-79560881D01*
X118549820Y-79544941D01*
X118627624Y-79494875D01*
X118639288Y-79477803D01*
X119331008Y-79477803D01*
X119331008Y-80277803D01*
X119346948Y-80362517D01*
X119397014Y-80440321D01*
X119473406Y-80492518D01*
X119480686Y-80493992D01*
X119480686Y-81406086D01*
X119521289Y-81610209D01*
X119636915Y-81783257D01*
X119873383Y-82019725D01*
X119911224Y-82111306D01*
X120071849Y-82272211D01*
X120281823Y-82359400D01*
X120509180Y-82359599D01*
X120719306Y-82272776D01*
X120880211Y-82112151D01*
X120967400Y-81902177D01*
X120967599Y-81674820D01*
X120880776Y-81464694D01*
X120720151Y-81303789D01*
X120627772Y-81265430D01*
X120547486Y-81185144D01*
X120547486Y-80495188D01*
X120548800Y-80494941D01*
X120626604Y-80444875D01*
X120649611Y-80411203D01*
X121500248Y-80411203D01*
X121500248Y-81183802D01*
X121516188Y-81268516D01*
X121566254Y-81346320D01*
X121642646Y-81398517D01*
X121733326Y-81416880D01*
X123033326Y-81416880D01*
X123118040Y-81400940D01*
X123195844Y-81350874D01*
X123248041Y-81274482D01*
X123266404Y-81183802D01*
X123266404Y-79683802D01*
X123250464Y-79599088D01*
X123200398Y-79521284D01*
X123124006Y-79469087D01*
X123033326Y-79450724D01*
X122129805Y-79450724D01*
X122031450Y-79385006D01*
X121827327Y-79344403D01*
X120649895Y-79344403D01*
X120631158Y-79315285D01*
X120554766Y-79263088D01*
X120464086Y-79244725D01*
X119564086Y-79244725D01*
X119479372Y-79260665D01*
X119401568Y-79310731D01*
X119349371Y-79387123D01*
X119331008Y-79477803D01*
X118639288Y-79477803D01*
X118679821Y-79418483D01*
X118698184Y-79327803D01*
X118698184Y-78527803D01*
X118682244Y-78443089D01*
X118632178Y-78365285D01*
X118555786Y-78313088D01*
X118465106Y-78294725D01*
X118165067Y-78294725D01*
X116972973Y-77102631D01*
X116799925Y-76987005D01*
X116595802Y-76946402D01*
X115646403Y-76946402D01*
X115646403Y-76729802D01*
X115630463Y-76645088D01*
X115580397Y-76567284D01*
X115504005Y-76515087D01*
X115413325Y-76496724D01*
X114113325Y-76496724D01*
X114028611Y-76512664D01*
X113950807Y-76562730D01*
X113898610Y-76639122D01*
X113880247Y-76729802D01*
X96596200Y-76729802D01*
X96596200Y-75065522D01*
X97939464Y-75065522D01*
X98179285Y-75645934D01*
X98622965Y-76090389D01*
X99202957Y-76331223D01*
X99830963Y-76331771D01*
X100411375Y-76091950D01*
X100855830Y-75648270D01*
X101096664Y-75068278D01*
X101096666Y-75065522D01*
X107939465Y-75065522D01*
X108179286Y-75645934D01*
X108622966Y-76090389D01*
X109202958Y-76331223D01*
X109830964Y-76331771D01*
X110411376Y-76091950D01*
X110855831Y-75648270D01*
X111096665Y-75068278D01*
X111096836Y-74872178D01*
X119913228Y-74872178D01*
X120063721Y-75236397D01*
X120342138Y-75515300D01*
X120706093Y-75666428D01*
X121100178Y-75666772D01*
X121464397Y-75516279D01*
X121743300Y-75237862D01*
X121894428Y-74873907D01*
X121894772Y-74479822D01*
X121744279Y-74115603D01*
X121465862Y-73836700D01*
X121101907Y-73685572D01*
X120707822Y-73685228D01*
X120343603Y-73835721D01*
X120064700Y-74114138D01*
X119913572Y-74478093D01*
X119913228Y-74872178D01*
X111096836Y-74872178D01*
X111097213Y-74440272D01*
X110857392Y-73859860D01*
X110413712Y-73415405D01*
X109833720Y-73174571D01*
X109205714Y-73174023D01*
X108625302Y-73413844D01*
X108180847Y-73857524D01*
X107940013Y-74437516D01*
X107939465Y-75065522D01*
X101096666Y-75065522D01*
X101097212Y-74440272D01*
X100857391Y-73859860D01*
X100413711Y-73415405D01*
X99833719Y-73174571D01*
X99205713Y-73174023D01*
X98625301Y-73413844D01*
X98180846Y-73857524D01*
X97940012Y-74437516D01*
X97939464Y-75065522D01*
X96596200Y-75065522D01*
X96596200Y-65100200D01*
X110413800Y-65100200D01*
X110413800Y-72110600D01*
M02*
