G04 #@! TF.FileFunction,Legend,Top*
%FSLAX46Y46*%
G04 Gerber Fmt 4.6, Leading zero omitted, Abs format (unit mm)*
G04 Created by KiCad (PCBNEW 0.201508140901+6091~28~ubuntu14.04.1-product) date Tue 22 Sep 2015 11:40:43 PM CEST*
%MOMM*%
G01*
G04 APERTURE LIST*
%ADD10C,0.100000*%
%ADD11C,0.127000*%
%ADD12C,0.762000*%
%ADD13C,0.076200*%
%ADD14C,0.150000*%
%ADD15R,1.250000X1.500000*%
%ADD16R,1.500000X1.250000*%
%ADD17R,1.200000X0.600000*%
%ADD18R,0.600000X1.200000*%
%ADD19R,2.032000X2.032000*%
%ADD20O,2.032000X2.032000*%
%ADD21R,1.727200X1.727200*%
%ADD22O,1.727200X1.727200*%
%ADD23R,0.900000X0.800000*%
%ADD24R,1.300000X1.500000*%
%ADD25R,1.000000X1.150000*%
%ADD26C,0.850000*%
%ADD27C,2.000000*%
%ADD28R,1.000000X0.600000*%
%ADD29C,1.524000*%
%ADD30R,1.727200X2.032000*%
%ADD31O,1.727200X2.032000*%
G04 APERTURE END LIST*
D10*
D11*
X174247629Y-82945514D02*
X173812201Y-82945514D01*
X174029915Y-82945514D02*
X174029915Y-82183514D01*
X173957344Y-82292371D01*
X173884772Y-82364943D01*
X173812201Y-82401229D01*
X174683058Y-82183514D02*
X174683058Y-82364943D01*
X174501629Y-82292371D02*
X174683058Y-82364943D01*
X174864486Y-82292371D01*
X174574201Y-82510086D02*
X174683058Y-82364943D01*
X174791915Y-82510086D01*
D12*
X179400200Y-113461800D02*
X183896000Y-113461800D01*
D11*
X142318014Y-104513743D02*
X141955157Y-104767743D01*
X142318014Y-104949171D02*
X141556014Y-104949171D01*
X141556014Y-104658886D01*
X141592300Y-104586314D01*
X141628586Y-104550029D01*
X141701157Y-104513743D01*
X141810014Y-104513743D01*
X141882586Y-104550029D01*
X141918871Y-104586314D01*
X141955157Y-104658886D01*
X141955157Y-104949171D01*
X141556014Y-104296029D02*
X141556014Y-103860600D01*
X142318014Y-104078314D02*
X141556014Y-104078314D01*
X142245443Y-103171172D02*
X142281729Y-103207458D01*
X142318014Y-103316315D01*
X142318014Y-103388886D01*
X142281729Y-103497743D01*
X142209157Y-103570315D01*
X142136586Y-103606600D01*
X141991443Y-103642886D01*
X141882586Y-103642886D01*
X141737443Y-103606600D01*
X141664871Y-103570315D01*
X141592300Y-103497743D01*
X141556014Y-103388886D01*
X141556014Y-103316315D01*
X141592300Y-103207458D01*
X141628586Y-103171172D01*
X142027729Y-102844600D02*
X142027729Y-102264029D01*
X142318014Y-101901171D02*
X141556014Y-101901171D01*
X141556014Y-101719743D01*
X141592300Y-101610886D01*
X141664871Y-101538314D01*
X141737443Y-101502029D01*
X141882586Y-101465743D01*
X141991443Y-101465743D01*
X142136586Y-101502029D01*
X142209157Y-101538314D01*
X142281729Y-101610886D01*
X142318014Y-101719743D01*
X142318014Y-101901171D01*
X142245443Y-100703743D02*
X142281729Y-100740029D01*
X142318014Y-100848886D01*
X142318014Y-100921457D01*
X142281729Y-101030314D01*
X142209157Y-101102886D01*
X142136586Y-101139171D01*
X141991443Y-101175457D01*
X141882586Y-101175457D01*
X141737443Y-101139171D01*
X141664871Y-101102886D01*
X141592300Y-101030314D01*
X141556014Y-100921457D01*
X141556014Y-100848886D01*
X141592300Y-100740029D01*
X141628586Y-100703743D01*
X141918871Y-100123171D02*
X141918871Y-100377171D01*
X142318014Y-100377171D02*
X141556014Y-100377171D01*
X141556014Y-100014314D01*
X143511814Y-104550029D02*
X143511814Y-104985457D01*
X143511814Y-104767743D02*
X142749814Y-104767743D01*
X142858671Y-104840314D01*
X142931243Y-104912886D01*
X142967529Y-104985457D01*
X142749814Y-104296029D02*
X142749814Y-103824315D01*
X143040100Y-104078315D01*
X143040100Y-103969457D01*
X143076386Y-103896886D01*
X143112671Y-103860600D01*
X143185243Y-103824315D01*
X143366671Y-103824315D01*
X143439243Y-103860600D01*
X143475529Y-103896886D01*
X143511814Y-103969457D01*
X143511814Y-104187172D01*
X143475529Y-104259743D01*
X143439243Y-104296029D01*
X142749814Y-103352601D02*
X142749814Y-103280029D01*
X142786100Y-103207458D01*
X142822386Y-103171172D01*
X142894957Y-103134886D01*
X143040100Y-103098601D01*
X143221529Y-103098601D01*
X143366671Y-103134886D01*
X143439243Y-103171172D01*
X143475529Y-103207458D01*
X143511814Y-103280029D01*
X143511814Y-103352601D01*
X143475529Y-103425172D01*
X143439243Y-103461458D01*
X143366671Y-103497743D01*
X143221529Y-103534029D01*
X143040100Y-103534029D01*
X142894957Y-103497743D01*
X142822386Y-103461458D01*
X142786100Y-103425172D01*
X142749814Y-103352601D01*
X142749814Y-102409172D02*
X142749814Y-102772029D01*
X143112671Y-102808315D01*
X143076386Y-102772029D01*
X143040100Y-102699458D01*
X143040100Y-102518029D01*
X143076386Y-102445458D01*
X143112671Y-102409172D01*
X143185243Y-102372887D01*
X143366671Y-102372887D01*
X143439243Y-102409172D01*
X143475529Y-102445458D01*
X143511814Y-102518029D01*
X143511814Y-102699458D01*
X143475529Y-102772029D01*
X143439243Y-102808315D01*
X143003814Y-101719744D02*
X143511814Y-101719744D01*
X142713529Y-101901173D02*
X143257814Y-102082601D01*
X143257814Y-101610887D01*
X143511814Y-100921459D02*
X143511814Y-101356887D01*
X143511814Y-101139173D02*
X142749814Y-101139173D01*
X142858671Y-101211744D01*
X142931243Y-101284316D01*
X142967529Y-101356887D01*
X143511814Y-99615174D02*
X143511814Y-100050602D01*
X143511814Y-99832888D02*
X142749814Y-99832888D01*
X142858671Y-99905459D01*
X142931243Y-99978031D01*
X142967529Y-100050602D01*
X143439243Y-99288602D02*
X143475529Y-99252317D01*
X143511814Y-99288602D01*
X143475529Y-99324888D01*
X143439243Y-99288602D01*
X143511814Y-99288602D01*
X142749814Y-98780603D02*
X142749814Y-98708031D01*
X142786100Y-98635460D01*
X142822386Y-98599174D01*
X142894957Y-98562888D01*
X143040100Y-98526603D01*
X143221529Y-98526603D01*
X143366671Y-98562888D01*
X143439243Y-98599174D01*
X143475529Y-98635460D01*
X143511814Y-98708031D01*
X143511814Y-98780603D01*
X143475529Y-98853174D01*
X143439243Y-98889460D01*
X143366671Y-98925745D01*
X143221529Y-98962031D01*
X143040100Y-98962031D01*
X142894957Y-98925745D01*
X142822386Y-98889460D01*
X142786100Y-98853174D01*
X142749814Y-98780603D01*
X143294100Y-97655746D02*
X143294100Y-97292889D01*
X143511814Y-97728318D02*
X142749814Y-97474318D01*
X143511814Y-97220318D01*
X143003814Y-96966317D02*
X143765814Y-96966317D01*
X143040100Y-96966317D02*
X143003814Y-96893746D01*
X143003814Y-96748603D01*
X143040100Y-96676032D01*
X143076386Y-96639746D01*
X143148957Y-96603460D01*
X143366671Y-96603460D01*
X143439243Y-96639746D01*
X143475529Y-96676032D01*
X143511814Y-96748603D01*
X143511814Y-96893746D01*
X143475529Y-96966317D01*
X143511814Y-96276888D02*
X143003814Y-96276888D01*
X143148957Y-96276888D02*
X143076386Y-96240603D01*
X143040100Y-96204317D01*
X143003814Y-96131746D01*
X143003814Y-96059174D01*
X143511814Y-95805174D02*
X143003814Y-95805174D01*
X142749814Y-95805174D02*
X142786100Y-95841460D01*
X142822386Y-95805174D01*
X142786100Y-95768889D01*
X142749814Y-95805174D01*
X142822386Y-95805174D01*
X143511814Y-95333460D02*
X143475529Y-95406032D01*
X143402957Y-95442317D01*
X142749814Y-95442317D01*
X142822386Y-94498889D02*
X142786100Y-94462603D01*
X142749814Y-94390032D01*
X142749814Y-94208603D01*
X142786100Y-94136032D01*
X142822386Y-94099746D01*
X142894957Y-94063461D01*
X142967529Y-94063461D01*
X143076386Y-94099746D01*
X143511814Y-94535175D01*
X143511814Y-94063461D01*
X142749814Y-93591747D02*
X142749814Y-93519175D01*
X142786100Y-93446604D01*
X142822386Y-93410318D01*
X142894957Y-93374032D01*
X143040100Y-93337747D01*
X143221529Y-93337747D01*
X143366671Y-93374032D01*
X143439243Y-93410318D01*
X143475529Y-93446604D01*
X143511814Y-93519175D01*
X143511814Y-93591747D01*
X143475529Y-93664318D01*
X143439243Y-93700604D01*
X143366671Y-93736889D01*
X143221529Y-93773175D01*
X143040100Y-93773175D01*
X142894957Y-93736889D01*
X142822386Y-93700604D01*
X142786100Y-93664318D01*
X142749814Y-93591747D01*
X143511814Y-92612033D02*
X143511814Y-93047461D01*
X143511814Y-92829747D02*
X142749814Y-92829747D01*
X142858671Y-92902318D01*
X142931243Y-92974890D01*
X142967529Y-93047461D01*
X142749814Y-92358033D02*
X142749814Y-91886319D01*
X143040100Y-92140319D01*
X143040100Y-92031461D01*
X143076386Y-91958890D01*
X143112671Y-91922604D01*
X143185243Y-91886319D01*
X143366671Y-91886319D01*
X143439243Y-91922604D01*
X143475529Y-91958890D01*
X143511814Y-92031461D01*
X143511814Y-92249176D01*
X143475529Y-92321747D01*
X143439243Y-92358033D01*
X104732667Y-98376619D02*
X104732667Y-97771857D01*
X105095524Y-98497572D02*
X103825524Y-98074238D01*
X105095524Y-97650905D01*
X104248857Y-97227572D02*
X105095524Y-97227572D01*
X104369810Y-97227572D02*
X104309333Y-97167096D01*
X104248857Y-97046143D01*
X104248857Y-96864715D01*
X104309333Y-96743763D01*
X104430286Y-96683286D01*
X105095524Y-96683286D01*
X104248857Y-96259953D02*
X104248857Y-95776143D01*
X103825524Y-96078524D02*
X104914095Y-96078524D01*
X105035048Y-96018048D01*
X105095524Y-95897095D01*
X105095524Y-95776143D01*
X105035048Y-94869001D02*
X105095524Y-94989953D01*
X105095524Y-95231858D01*
X105035048Y-95352810D01*
X104914095Y-95413286D01*
X104430286Y-95413286D01*
X104309333Y-95352810D01*
X104248857Y-95231858D01*
X104248857Y-94989953D01*
X104309333Y-94869001D01*
X104430286Y-94808524D01*
X104551238Y-94808524D01*
X104672190Y-95413286D01*
X104248857Y-94264239D02*
X105095524Y-94264239D01*
X104369810Y-94264239D02*
X104309333Y-94203763D01*
X104248857Y-94082810D01*
X104248857Y-93901382D01*
X104309333Y-93780430D01*
X104430286Y-93719953D01*
X105095524Y-93719953D01*
X104248857Y-93115191D02*
X105095524Y-93115191D01*
X104369810Y-93115191D02*
X104309333Y-93054715D01*
X104248857Y-92933762D01*
X104248857Y-92752334D01*
X104309333Y-92631382D01*
X104430286Y-92570905D01*
X105095524Y-92570905D01*
X105095524Y-91421857D02*
X104430286Y-91421857D01*
X104309333Y-91482334D01*
X104248857Y-91603286D01*
X104248857Y-91845191D01*
X104309333Y-91966143D01*
X105035048Y-91421857D02*
X105095524Y-91542810D01*
X105095524Y-91845191D01*
X105035048Y-91966143D01*
X104914095Y-92026619D01*
X104793143Y-92026619D01*
X104672190Y-91966143D01*
X104611714Y-91845191D01*
X104611714Y-91542810D01*
X104551238Y-91421857D01*
X143843828Y-69900800D02*
X143771257Y-69864514D01*
X143662400Y-69864514D01*
X143553543Y-69900800D01*
X143480971Y-69973371D01*
X143444686Y-70045943D01*
X143408400Y-70191086D01*
X143408400Y-70299943D01*
X143444686Y-70445086D01*
X143480971Y-70517657D01*
X143553543Y-70590229D01*
X143662400Y-70626514D01*
X143734971Y-70626514D01*
X143843828Y-70590229D01*
X143880114Y-70553943D01*
X143880114Y-70299943D01*
X143734971Y-70299943D01*
X144206686Y-70626514D02*
X144206686Y-69864514D01*
X144642114Y-70626514D01*
X144642114Y-69864514D01*
X145004972Y-70626514D02*
X145004972Y-69864514D01*
X145186400Y-69864514D01*
X145295257Y-69900800D01*
X145367829Y-69973371D01*
X145404114Y-70045943D01*
X145440400Y-70191086D01*
X145440400Y-70299943D01*
X145404114Y-70445086D01*
X145367829Y-70517657D01*
X145295257Y-70590229D01*
X145186400Y-70626514D01*
X145004972Y-70626514D01*
X135182428Y-74244200D02*
X135109857Y-74207914D01*
X135001000Y-74207914D01*
X134892143Y-74244200D01*
X134819571Y-74316771D01*
X134783286Y-74389343D01*
X134747000Y-74534486D01*
X134747000Y-74643343D01*
X134783286Y-74788486D01*
X134819571Y-74861057D01*
X134892143Y-74933629D01*
X135001000Y-74969914D01*
X135073571Y-74969914D01*
X135182428Y-74933629D01*
X135218714Y-74897343D01*
X135218714Y-74643343D01*
X135073571Y-74643343D01*
X135545286Y-74969914D02*
X135545286Y-74207914D01*
X135980714Y-74969914D01*
X135980714Y-74207914D01*
X136343572Y-74969914D02*
X136343572Y-74207914D01*
X136525000Y-74207914D01*
X136633857Y-74244200D01*
X136706429Y-74316771D01*
X136742714Y-74389343D01*
X136779000Y-74534486D01*
X136779000Y-74643343D01*
X136742714Y-74788486D01*
X136706429Y-74861057D01*
X136633857Y-74933629D01*
X136525000Y-74969914D01*
X136343572Y-74969914D01*
X129340429Y-72974200D02*
X129703286Y-72974200D01*
X129267857Y-73191914D02*
X129521857Y-72429914D01*
X129775857Y-73191914D01*
X130138715Y-73191914D02*
X130066143Y-73155629D01*
X130029858Y-73083057D01*
X130029858Y-72429914D01*
X130755572Y-73191914D02*
X130755572Y-72792771D01*
X130719286Y-72720200D01*
X130646715Y-72683914D01*
X130501572Y-72683914D01*
X130429001Y-72720200D01*
X130755572Y-73155629D02*
X130683001Y-73191914D01*
X130501572Y-73191914D01*
X130429001Y-73155629D01*
X130392715Y-73083057D01*
X130392715Y-73010486D01*
X130429001Y-72937914D01*
X130501572Y-72901629D01*
X130683001Y-72901629D01*
X130755572Y-72865343D01*
X131118430Y-73191914D02*
X131118430Y-72683914D01*
X131118430Y-72829057D02*
X131154715Y-72756486D01*
X131191001Y-72720200D01*
X131263572Y-72683914D01*
X131336144Y-72683914D01*
X131590144Y-73191914D02*
X131590144Y-72683914D01*
X131590144Y-72756486D02*
X131626429Y-72720200D01*
X131699001Y-72683914D01*
X131807858Y-72683914D01*
X131880429Y-72720200D01*
X131916715Y-72792771D01*
X131916715Y-73191914D01*
X131916715Y-72792771D02*
X131953001Y-72720200D01*
X132025572Y-72683914D01*
X132134429Y-72683914D01*
X132207001Y-72720200D01*
X132243286Y-72792771D01*
X132243286Y-73191914D01*
X125127658Y-73445914D02*
X125127658Y-72683914D01*
X125309086Y-72683914D01*
X125417943Y-72720200D01*
X125490515Y-72792771D01*
X125526800Y-72865343D01*
X125563086Y-73010486D01*
X125563086Y-73119343D01*
X125526800Y-73264486D01*
X125490515Y-73337057D01*
X125417943Y-73409629D01*
X125309086Y-73445914D01*
X125127658Y-73445914D01*
X126325086Y-73373343D02*
X126288800Y-73409629D01*
X126179943Y-73445914D01*
X126107372Y-73445914D01*
X125998515Y-73409629D01*
X125925943Y-73337057D01*
X125889658Y-73264486D01*
X125853372Y-73119343D01*
X125853372Y-73010486D01*
X125889658Y-72865343D01*
X125925943Y-72792771D01*
X125998515Y-72720200D01*
X126107372Y-72683914D01*
X126179943Y-72683914D01*
X126288800Y-72720200D01*
X126325086Y-72756486D01*
X126905658Y-73046771D02*
X126651658Y-73046771D01*
X126651658Y-73445914D02*
X126651658Y-72683914D01*
X127014515Y-72683914D01*
X121099943Y-73369714D02*
X121099943Y-72607714D01*
X121390228Y-72607714D01*
X121462800Y-72644000D01*
X121499085Y-72680286D01*
X121535371Y-72752857D01*
X121535371Y-72861714D01*
X121499085Y-72934286D01*
X121462800Y-72970571D01*
X121390228Y-73006857D01*
X121099943Y-73006857D01*
X122152228Y-73333429D02*
X122079657Y-73369714D01*
X121934514Y-73369714D01*
X121861943Y-73333429D01*
X121825657Y-73260857D01*
X121825657Y-72970571D01*
X121861943Y-72898000D01*
X121934514Y-72861714D01*
X122079657Y-72861714D01*
X122152228Y-72898000D01*
X122188514Y-72970571D01*
X122188514Y-73043143D01*
X121825657Y-73115714D01*
X122515086Y-73369714D02*
X122515086Y-72861714D01*
X122515086Y-73006857D02*
X122551371Y-72934286D01*
X122587657Y-72898000D01*
X122660228Y-72861714D01*
X122732800Y-72861714D01*
X122986800Y-73369714D02*
X122986800Y-72861714D01*
X122986800Y-72607714D02*
X122950514Y-72644000D01*
X122986800Y-72680286D01*
X123023085Y-72644000D01*
X122986800Y-72607714D01*
X122986800Y-72680286D01*
X123458514Y-73369714D02*
X123385942Y-73333429D01*
X123349657Y-73297143D01*
X123313371Y-73224571D01*
X123313371Y-73006857D01*
X123349657Y-72934286D01*
X123385942Y-72898000D01*
X123458514Y-72861714D01*
X123567371Y-72861714D01*
X123639942Y-72898000D01*
X123676228Y-72934286D01*
X123712514Y-73006857D01*
X123712514Y-73224571D01*
X123676228Y-73297143D01*
X123639942Y-73333429D01*
X123567371Y-73369714D01*
X123458514Y-73369714D01*
X124365657Y-73369714D02*
X124365657Y-72607714D01*
X124365657Y-73333429D02*
X124293086Y-73369714D01*
X124147943Y-73369714D01*
X124075371Y-73333429D01*
X124039086Y-73297143D01*
X124002800Y-73224571D01*
X124002800Y-73006857D01*
X124039086Y-72934286D01*
X124075371Y-72898000D01*
X124147943Y-72861714D01*
X124293086Y-72861714D01*
X124365657Y-72898000D01*
X117496771Y-74258714D02*
X117750771Y-75020714D01*
X118004771Y-74258714D01*
X118258772Y-75020714D02*
X118258772Y-74258714D01*
X118258772Y-74549000D02*
X118331343Y-74512714D01*
X118476486Y-74512714D01*
X118549057Y-74549000D01*
X118585343Y-74585286D01*
X118621629Y-74657857D01*
X118621629Y-74875571D01*
X118585343Y-74948143D01*
X118549057Y-74984429D01*
X118476486Y-75020714D01*
X118331343Y-75020714D01*
X118258772Y-74984429D01*
X118948201Y-75020714D02*
X118948201Y-74258714D01*
X118948201Y-74549000D02*
X119020772Y-74512714D01*
X119165915Y-74512714D01*
X119238486Y-74549000D01*
X119274772Y-74585286D01*
X119311058Y-74657857D01*
X119311058Y-74875571D01*
X119274772Y-74948143D01*
X119238486Y-74984429D01*
X119165915Y-75020714D01*
X119020772Y-75020714D01*
X118948201Y-74984429D01*
X133277428Y-108178600D02*
X133204857Y-108142314D01*
X133096000Y-108142314D01*
X132987143Y-108178600D01*
X132914571Y-108251171D01*
X132878286Y-108323743D01*
X132842000Y-108468886D01*
X132842000Y-108577743D01*
X132878286Y-108722886D01*
X132914571Y-108795457D01*
X132987143Y-108868029D01*
X133096000Y-108904314D01*
X133168571Y-108904314D01*
X133277428Y-108868029D01*
X133313714Y-108831743D01*
X133313714Y-108577743D01*
X133168571Y-108577743D01*
X133640286Y-108904314D02*
X133640286Y-108142314D01*
X134075714Y-108904314D01*
X134075714Y-108142314D01*
X134438572Y-108904314D02*
X134438572Y-108142314D01*
X134620000Y-108142314D01*
X134728857Y-108178600D01*
X134801429Y-108251171D01*
X134837714Y-108323743D01*
X134874000Y-108468886D01*
X134874000Y-108577743D01*
X134837714Y-108722886D01*
X134801429Y-108795457D01*
X134728857Y-108868029D01*
X134620000Y-108904314D01*
X134438572Y-108904314D01*
X131688114Y-110442828D02*
X130926114Y-110442828D01*
X131470400Y-110188828D01*
X130926114Y-109934828D01*
X131688114Y-109934828D01*
X131688114Y-109571971D02*
X130926114Y-109571971D01*
X131651829Y-109245400D02*
X131688114Y-109136543D01*
X131688114Y-108955114D01*
X131651829Y-108882543D01*
X131615543Y-108846257D01*
X131542971Y-108809972D01*
X131470400Y-108809972D01*
X131397829Y-108846257D01*
X131361543Y-108882543D01*
X131325257Y-108955114D01*
X131288971Y-109100257D01*
X131252686Y-109172829D01*
X131216400Y-109209114D01*
X131143829Y-109245400D01*
X131071257Y-109245400D01*
X130998686Y-109209114D01*
X130962400Y-109172829D01*
X130926114Y-109100257D01*
X130926114Y-108918829D01*
X130962400Y-108809972D01*
X130926114Y-108338258D02*
X130926114Y-108193115D01*
X130962400Y-108120543D01*
X131034971Y-108047972D01*
X131180114Y-108011686D01*
X131434114Y-108011686D01*
X131579257Y-108047972D01*
X131651829Y-108120543D01*
X131688114Y-108193115D01*
X131688114Y-108338258D01*
X131651829Y-108410829D01*
X131579257Y-108483400D01*
X131434114Y-108519686D01*
X131180114Y-108519686D01*
X131034971Y-108483400D01*
X130962400Y-108410829D01*
X130926114Y-108338258D01*
X128995714Y-110417428D02*
X128233714Y-110417428D01*
X128778000Y-110163428D01*
X128233714Y-109909428D01*
X128995714Y-109909428D01*
X128233714Y-109401429D02*
X128233714Y-109256286D01*
X128270000Y-109183714D01*
X128342571Y-109111143D01*
X128487714Y-109074857D01*
X128741714Y-109074857D01*
X128886857Y-109111143D01*
X128959429Y-109183714D01*
X128995714Y-109256286D01*
X128995714Y-109401429D01*
X128959429Y-109474000D01*
X128886857Y-109546571D01*
X128741714Y-109582857D01*
X128487714Y-109582857D01*
X128342571Y-109546571D01*
X128270000Y-109474000D01*
X128233714Y-109401429D01*
X128959429Y-108784571D02*
X128995714Y-108675714D01*
X128995714Y-108494285D01*
X128959429Y-108421714D01*
X128923143Y-108385428D01*
X128850571Y-108349143D01*
X128778000Y-108349143D01*
X128705429Y-108385428D01*
X128669143Y-108421714D01*
X128632857Y-108494285D01*
X128596571Y-108639428D01*
X128560286Y-108712000D01*
X128524000Y-108748285D01*
X128451429Y-108784571D01*
X128378857Y-108784571D01*
X128306286Y-108748285D01*
X128270000Y-108712000D01*
X128233714Y-108639428D01*
X128233714Y-108458000D01*
X128270000Y-108349143D01*
X128995714Y-108022571D02*
X128233714Y-108022571D01*
X126470229Y-110047314D02*
X126506514Y-109938457D01*
X126506514Y-109757028D01*
X126470229Y-109684457D01*
X126433943Y-109648171D01*
X126361371Y-109611886D01*
X126288800Y-109611886D01*
X126216229Y-109648171D01*
X126179943Y-109684457D01*
X126143657Y-109757028D01*
X126107371Y-109902171D01*
X126071086Y-109974743D01*
X126034800Y-110011028D01*
X125962229Y-110047314D01*
X125889657Y-110047314D01*
X125817086Y-110011028D01*
X125780800Y-109974743D01*
X125744514Y-109902171D01*
X125744514Y-109720743D01*
X125780800Y-109611886D01*
X126433943Y-108849886D02*
X126470229Y-108886172D01*
X126506514Y-108995029D01*
X126506514Y-109067600D01*
X126470229Y-109176457D01*
X126397657Y-109249029D01*
X126325086Y-109285314D01*
X126179943Y-109321600D01*
X126071086Y-109321600D01*
X125925943Y-109285314D01*
X125853371Y-109249029D01*
X125780800Y-109176457D01*
X125744514Y-109067600D01*
X125744514Y-108995029D01*
X125780800Y-108886172D01*
X125817086Y-108849886D01*
X126506514Y-108523314D02*
X125744514Y-108523314D01*
X126506514Y-108087886D02*
X126071086Y-108414457D01*
X125744514Y-108087886D02*
X126179943Y-108523314D01*
X122888829Y-109172829D02*
X122997686Y-109209114D01*
X123179115Y-109209114D01*
X123251686Y-109172829D01*
X123287972Y-109136543D01*
X123324257Y-109063971D01*
X123324257Y-108991400D01*
X123287972Y-108918829D01*
X123251686Y-108882543D01*
X123179115Y-108846257D01*
X123033972Y-108809971D01*
X122961400Y-108773686D01*
X122925115Y-108737400D01*
X122888829Y-108664829D01*
X122888829Y-108592257D01*
X122925115Y-108519686D01*
X122961400Y-108483400D01*
X123033972Y-108447114D01*
X123215400Y-108447114D01*
X123324257Y-108483400D01*
X123614543Y-109172829D02*
X123723400Y-109209114D01*
X123904829Y-109209114D01*
X123977400Y-109172829D01*
X124013686Y-109136543D01*
X124049971Y-109063971D01*
X124049971Y-108991400D01*
X124013686Y-108918829D01*
X123977400Y-108882543D01*
X123904829Y-108846257D01*
X123759686Y-108809971D01*
X123687114Y-108773686D01*
X123650829Y-108737400D01*
X123614543Y-108664829D01*
X123614543Y-108592257D01*
X123650829Y-108519686D01*
X123687114Y-108483400D01*
X123759686Y-108447114D01*
X123941114Y-108447114D01*
X124049971Y-108483400D01*
X122743686Y-108315760D02*
X124195114Y-108315760D01*
X120011371Y-108243914D02*
X120265371Y-109005914D01*
X120519371Y-108243914D01*
X120773372Y-109005914D02*
X120773372Y-108243914D01*
X120773372Y-108534200D02*
X120845943Y-108497914D01*
X120991086Y-108497914D01*
X121063657Y-108534200D01*
X121099943Y-108570486D01*
X121136229Y-108643057D01*
X121136229Y-108860771D01*
X121099943Y-108933343D01*
X121063657Y-108969629D01*
X120991086Y-109005914D01*
X120845943Y-109005914D01*
X120773372Y-108969629D01*
X121462801Y-109005914D02*
X121462801Y-108243914D01*
X121462801Y-108534200D02*
X121535372Y-108497914D01*
X121680515Y-108497914D01*
X121753086Y-108534200D01*
X121789372Y-108570486D01*
X121825658Y-108643057D01*
X121825658Y-108860771D01*
X121789372Y-108933343D01*
X121753086Y-108969629D01*
X121680515Y-109005914D01*
X121535372Y-109005914D01*
X121462801Y-108969629D01*
X193446399Y-107975400D02*
X193809256Y-107975400D01*
X193373827Y-108193114D02*
X193627827Y-107431114D01*
X193881827Y-108193114D01*
X194462399Y-107685114D02*
X194462399Y-108193114D01*
X194135828Y-107685114D02*
X194135828Y-108084257D01*
X194172113Y-108156829D01*
X194244685Y-108193114D01*
X194353542Y-108193114D01*
X194426113Y-108156829D01*
X194462399Y-108120543D01*
X194716399Y-107685114D02*
X195006685Y-107685114D01*
X194825257Y-107431114D02*
X194825257Y-108084257D01*
X194861542Y-108156829D01*
X194934114Y-108193114D01*
X195006685Y-108193114D01*
X195369543Y-108193114D02*
X195296971Y-108156829D01*
X195260686Y-108120543D01*
X195224400Y-108047971D01*
X195224400Y-107830257D01*
X195260686Y-107757686D01*
X195296971Y-107721400D01*
X195369543Y-107685114D01*
X195478400Y-107685114D01*
X195550971Y-107721400D01*
X195587257Y-107757686D01*
X195623543Y-107830257D01*
X195623543Y-108047971D01*
X195587257Y-108120543D01*
X195550971Y-108156829D01*
X195478400Y-108193114D01*
X195369543Y-108193114D01*
X195950115Y-107902829D02*
X196530686Y-107902829D01*
X196784686Y-107685114D02*
X197074972Y-107685114D01*
X196893544Y-107431114D02*
X196893544Y-108084257D01*
X196929829Y-108156829D01*
X197002401Y-108193114D01*
X197074972Y-108193114D01*
X197328973Y-108193114D02*
X197328973Y-107685114D01*
X197328973Y-107431114D02*
X197292687Y-107467400D01*
X197328973Y-107503686D01*
X197365258Y-107467400D01*
X197328973Y-107431114D01*
X197328973Y-107503686D01*
X197691830Y-108193114D02*
X197691830Y-107685114D01*
X197691830Y-107757686D02*
X197728115Y-107721400D01*
X197800687Y-107685114D01*
X197909544Y-107685114D01*
X197982115Y-107721400D01*
X198018401Y-107793971D01*
X198018401Y-108193114D01*
X198018401Y-107793971D02*
X198054687Y-107721400D01*
X198127258Y-107685114D01*
X198236115Y-107685114D01*
X198308687Y-107721400D01*
X198344972Y-107793971D01*
X198344972Y-108193114D01*
X198998115Y-108156829D02*
X198925544Y-108193114D01*
X198780401Y-108193114D01*
X198707830Y-108156829D01*
X198671544Y-108084257D01*
X198671544Y-107793971D01*
X198707830Y-107721400D01*
X198780401Y-107685114D01*
X198925544Y-107685114D01*
X198998115Y-107721400D01*
X199034401Y-107793971D01*
X199034401Y-107866543D01*
X198671544Y-107939114D01*
X158488742Y-78892400D02*
X158851599Y-78892400D01*
X158416170Y-79110114D02*
X158670170Y-78348114D01*
X158924170Y-79110114D01*
X159287028Y-79110114D02*
X159214456Y-79073829D01*
X159178171Y-79001257D01*
X159178171Y-78348114D01*
X159903885Y-79110114D02*
X159903885Y-78710971D01*
X159867599Y-78638400D01*
X159795028Y-78602114D01*
X159649885Y-78602114D01*
X159577314Y-78638400D01*
X159903885Y-79073829D02*
X159831314Y-79110114D01*
X159649885Y-79110114D01*
X159577314Y-79073829D01*
X159541028Y-79001257D01*
X159541028Y-78928686D01*
X159577314Y-78856114D01*
X159649885Y-78819829D01*
X159831314Y-78819829D01*
X159903885Y-78783543D01*
X160266743Y-79110114D02*
X160266743Y-78602114D01*
X160266743Y-78747257D02*
X160303028Y-78674686D01*
X160339314Y-78638400D01*
X160411885Y-78602114D01*
X160484457Y-78602114D01*
X160738457Y-79110114D02*
X160738457Y-78602114D01*
X160738457Y-78674686D02*
X160774742Y-78638400D01*
X160847314Y-78602114D01*
X160956171Y-78602114D01*
X161028742Y-78638400D01*
X161065028Y-78710971D01*
X161065028Y-79110114D01*
X161065028Y-78710971D02*
X161101314Y-78638400D01*
X161173885Y-78602114D01*
X161282742Y-78602114D01*
X161355314Y-78638400D01*
X161391599Y-78710971D01*
X161391599Y-79110114D01*
X162335028Y-78710971D02*
X162589028Y-78710971D01*
X162697885Y-79110114D02*
X162335028Y-79110114D01*
X162335028Y-78348114D01*
X162697885Y-78348114D01*
X163024457Y-78602114D02*
X163024457Y-79110114D01*
X163024457Y-78674686D02*
X163060742Y-78638400D01*
X163133314Y-78602114D01*
X163242171Y-78602114D01*
X163314742Y-78638400D01*
X163351028Y-78710971D01*
X163351028Y-79110114D01*
X164040457Y-79110114D02*
X164040457Y-78710971D01*
X164004171Y-78638400D01*
X163931600Y-78602114D01*
X163786457Y-78602114D01*
X163713886Y-78638400D01*
X164040457Y-79073829D02*
X163967886Y-79110114D01*
X163786457Y-79110114D01*
X163713886Y-79073829D01*
X163677600Y-79001257D01*
X163677600Y-78928686D01*
X163713886Y-78856114D01*
X163786457Y-78819829D01*
X163967886Y-78819829D01*
X164040457Y-78783543D01*
X164403315Y-79110114D02*
X164403315Y-78348114D01*
X164403315Y-78638400D02*
X164475886Y-78602114D01*
X164621029Y-78602114D01*
X164693600Y-78638400D01*
X164729886Y-78674686D01*
X164766172Y-78747257D01*
X164766172Y-78964971D01*
X164729886Y-79037543D01*
X164693600Y-79073829D01*
X164621029Y-79110114D01*
X164475886Y-79110114D01*
X164403315Y-79073829D01*
X165201601Y-79110114D02*
X165129029Y-79073829D01*
X165092744Y-79001257D01*
X165092744Y-78348114D01*
X165782172Y-79073829D02*
X165709601Y-79110114D01*
X165564458Y-79110114D01*
X165491887Y-79073829D01*
X165455601Y-79001257D01*
X165455601Y-78710971D01*
X165491887Y-78638400D01*
X165564458Y-78602114D01*
X165709601Y-78602114D01*
X165782172Y-78638400D01*
X165818458Y-78710971D01*
X165818458Y-78783543D01*
X165455601Y-78856114D01*
X196566971Y-65776324D02*
X197292686Y-65776324D01*
X196929829Y-67046324D02*
X196929829Y-65776324D01*
X197534590Y-66199657D02*
X198018400Y-66199657D01*
X197716019Y-67046324D02*
X197716019Y-65957752D01*
X197776495Y-65836800D01*
X197897448Y-65776324D01*
X198018400Y-65776324D01*
X198986019Y-67046324D02*
X198986019Y-66381086D01*
X198925542Y-66260133D01*
X198804590Y-66199657D01*
X198562685Y-66199657D01*
X198441733Y-66260133D01*
X198986019Y-66985848D02*
X198865066Y-67046324D01*
X198562685Y-67046324D01*
X198441733Y-66985848D01*
X198381257Y-66864895D01*
X198381257Y-66743943D01*
X198441733Y-66622990D01*
X198562685Y-66562514D01*
X198865066Y-66562514D01*
X198986019Y-66502038D01*
X200316495Y-66925371D02*
X200256019Y-66985848D01*
X200074590Y-67046324D01*
X199953638Y-67046324D01*
X199772210Y-66985848D01*
X199651257Y-66864895D01*
X199590781Y-66743943D01*
X199530305Y-66502038D01*
X199530305Y-66320610D01*
X199590781Y-66078705D01*
X199651257Y-65957752D01*
X199772210Y-65836800D01*
X199953638Y-65776324D01*
X200074590Y-65776324D01*
X200256019Y-65836800D01*
X200316495Y-65897276D01*
X193240781Y-68951324D02*
X192817448Y-68346562D01*
X192515067Y-68951324D02*
X192515067Y-67681324D01*
X192998876Y-67681324D01*
X193119829Y-67741800D01*
X193180305Y-67802276D01*
X193240781Y-67923229D01*
X193240781Y-68104657D01*
X193180305Y-68225610D01*
X193119829Y-68286086D01*
X192998876Y-68346562D01*
X192515067Y-68346562D01*
X194268876Y-68890848D02*
X194147924Y-68951324D01*
X193906019Y-68951324D01*
X193785067Y-68890848D01*
X193724591Y-68769895D01*
X193724591Y-68286086D01*
X193785067Y-68165133D01*
X193906019Y-68104657D01*
X194147924Y-68104657D01*
X194268876Y-68165133D01*
X194329353Y-68286086D01*
X194329353Y-68407038D01*
X193724591Y-68527990D01*
X194752686Y-68104657D02*
X195055067Y-68951324D01*
X195357447Y-68104657D01*
X196748400Y-67802276D02*
X196808876Y-67741800D01*
X196929828Y-67681324D01*
X197232209Y-67681324D01*
X197353162Y-67741800D01*
X197413638Y-67802276D01*
X197474114Y-67923229D01*
X197474114Y-68044181D01*
X197413638Y-68225610D01*
X196687924Y-68951324D01*
X197474114Y-68951324D01*
X198623162Y-68951324D02*
X198018400Y-68951324D01*
X198018400Y-67681324D01*
X199046495Y-68830371D02*
X199106971Y-68890848D01*
X199046495Y-68951324D01*
X198986019Y-68890848D01*
X199046495Y-68830371D01*
X199046495Y-68951324D01*
X200316495Y-68951324D02*
X199590781Y-68951324D01*
X199953638Y-68951324D02*
X199953638Y-67681324D01*
X199832686Y-67862752D01*
X199711733Y-67983705D01*
X199590781Y-68044181D01*
X190942685Y-70795848D02*
X191124113Y-70856324D01*
X191426494Y-70856324D01*
X191547447Y-70795848D01*
X191607923Y-70735371D01*
X191668399Y-70614419D01*
X191668399Y-70493467D01*
X191607923Y-70372514D01*
X191547447Y-70312038D01*
X191426494Y-70251562D01*
X191184590Y-70191086D01*
X191063637Y-70130610D01*
X191003161Y-70070133D01*
X190942685Y-69949181D01*
X190942685Y-69828229D01*
X191003161Y-69707276D01*
X191063637Y-69646800D01*
X191184590Y-69586324D01*
X191486970Y-69586324D01*
X191668399Y-69646800D01*
X192696494Y-70795848D02*
X192575542Y-70856324D01*
X192333637Y-70856324D01*
X192212685Y-70795848D01*
X192152209Y-70674895D01*
X192152209Y-70191086D01*
X192212685Y-70070133D01*
X192333637Y-70009657D01*
X192575542Y-70009657D01*
X192696494Y-70070133D01*
X192756971Y-70191086D01*
X192756971Y-70312038D01*
X192152209Y-70432990D01*
X193301256Y-70009657D02*
X193301256Y-71279657D01*
X193301256Y-70070133D02*
X193422208Y-70009657D01*
X193664113Y-70009657D01*
X193785065Y-70070133D01*
X193845542Y-70130610D01*
X193906018Y-70251562D01*
X193906018Y-70614419D01*
X193845542Y-70735371D01*
X193785065Y-70795848D01*
X193664113Y-70856324D01*
X193422208Y-70856324D01*
X193301256Y-70795848D01*
X194450304Y-70735371D02*
X194510780Y-70795848D01*
X194450304Y-70856324D01*
X194389828Y-70795848D01*
X194450304Y-70735371D01*
X194450304Y-70856324D01*
X195962209Y-69707276D02*
X196022685Y-69646800D01*
X196143637Y-69586324D01*
X196446018Y-69586324D01*
X196566971Y-69646800D01*
X196627447Y-69707276D01*
X196687923Y-69828229D01*
X196687923Y-69949181D01*
X196627447Y-70130610D01*
X195901733Y-70856324D01*
X196687923Y-70856324D01*
X197474114Y-69586324D02*
X197595066Y-69586324D01*
X197716018Y-69646800D01*
X197776495Y-69707276D01*
X197836971Y-69828229D01*
X197897447Y-70070133D01*
X197897447Y-70372514D01*
X197836971Y-70614419D01*
X197776495Y-70735371D01*
X197716018Y-70795848D01*
X197595066Y-70856324D01*
X197474114Y-70856324D01*
X197353161Y-70795848D01*
X197292685Y-70735371D01*
X197232209Y-70614419D01*
X197171733Y-70372514D01*
X197171733Y-70070133D01*
X197232209Y-69828229D01*
X197292685Y-69707276D01*
X197353161Y-69646800D01*
X197474114Y-69586324D01*
X199106971Y-70856324D02*
X198381257Y-70856324D01*
X198744114Y-70856324D02*
X198744114Y-69586324D01*
X198623162Y-69767752D01*
X198502209Y-69888705D01*
X198381257Y-69949181D01*
X200256019Y-69586324D02*
X199651257Y-69586324D01*
X199590781Y-70191086D01*
X199651257Y-70130610D01*
X199772209Y-70070133D01*
X200074590Y-70070133D01*
X200195543Y-70130610D01*
X200256019Y-70191086D01*
X200316495Y-70312038D01*
X200316495Y-70614419D01*
X200256019Y-70735371D01*
X200195543Y-70795848D01*
X200074590Y-70856324D01*
X199772209Y-70856324D01*
X199651257Y-70795848D01*
X199590781Y-70735371D01*
X146601542Y-69966114D02*
X146855542Y-70728114D01*
X147109542Y-69966114D01*
X147363543Y-70728114D02*
X147363543Y-70220114D01*
X147363543Y-69966114D02*
X147327257Y-70002400D01*
X147363543Y-70038686D01*
X147399828Y-70002400D01*
X147363543Y-69966114D01*
X147363543Y-70038686D01*
X147726400Y-70220114D02*
X147726400Y-70728114D01*
X147726400Y-70292686D02*
X147762685Y-70256400D01*
X147835257Y-70220114D01*
X147944114Y-70220114D01*
X148016685Y-70256400D01*
X148052971Y-70328971D01*
X148052971Y-70728114D01*
X148415829Y-70437829D02*
X148996400Y-70437829D01*
X148706114Y-70728114D02*
X148706114Y-70147543D01*
X185931628Y-118059200D02*
X185859057Y-118022914D01*
X185750200Y-118022914D01*
X185641343Y-118059200D01*
X185568771Y-118131771D01*
X185532486Y-118204343D01*
X185496200Y-118349486D01*
X185496200Y-118458343D01*
X185532486Y-118603486D01*
X185568771Y-118676057D01*
X185641343Y-118748629D01*
X185750200Y-118784914D01*
X185822771Y-118784914D01*
X185931628Y-118748629D01*
X185967914Y-118712343D01*
X185967914Y-118458343D01*
X185822771Y-118458343D01*
X186294486Y-118784914D02*
X186294486Y-118022914D01*
X186729914Y-118784914D01*
X186729914Y-118022914D01*
X187092772Y-118784914D02*
X187092772Y-118022914D01*
X187274200Y-118022914D01*
X187383057Y-118059200D01*
X187455629Y-118131771D01*
X187491914Y-118204343D01*
X187528200Y-118349486D01*
X187528200Y-118458343D01*
X187491914Y-118603486D01*
X187455629Y-118676057D01*
X187383057Y-118748629D01*
X187274200Y-118784914D01*
X187092772Y-118784914D01*
X183239229Y-118748629D02*
X183348086Y-118784914D01*
X183529515Y-118784914D01*
X183602086Y-118748629D01*
X183638372Y-118712343D01*
X183674657Y-118639771D01*
X183674657Y-118567200D01*
X183638372Y-118494629D01*
X183602086Y-118458343D01*
X183529515Y-118422057D01*
X183384372Y-118385771D01*
X183311800Y-118349486D01*
X183275515Y-118313200D01*
X183239229Y-118240629D01*
X183239229Y-118168057D01*
X183275515Y-118095486D01*
X183311800Y-118059200D01*
X183384372Y-118022914D01*
X183565800Y-118022914D01*
X183674657Y-118059200D01*
X183964943Y-118748629D02*
X184073800Y-118784914D01*
X184255229Y-118784914D01*
X184327800Y-118748629D01*
X184364086Y-118712343D01*
X184400371Y-118639771D01*
X184400371Y-118567200D01*
X184364086Y-118494629D01*
X184327800Y-118458343D01*
X184255229Y-118422057D01*
X184110086Y-118385771D01*
X184037514Y-118349486D01*
X184001229Y-118313200D01*
X183964943Y-118240629D01*
X183964943Y-118168057D01*
X184001229Y-118095486D01*
X184037514Y-118059200D01*
X184110086Y-118022914D01*
X184291514Y-118022914D01*
X184400371Y-118059200D01*
X183094086Y-117891560D02*
X184545514Y-117891560D01*
X180401686Y-118723229D02*
X180510543Y-118759514D01*
X180691972Y-118759514D01*
X180764543Y-118723229D01*
X180800829Y-118686943D01*
X180837114Y-118614371D01*
X180837114Y-118541800D01*
X180800829Y-118469229D01*
X180764543Y-118432943D01*
X180691972Y-118396657D01*
X180546829Y-118360371D01*
X180474257Y-118324086D01*
X180437972Y-118287800D01*
X180401686Y-118215229D01*
X180401686Y-118142657D01*
X180437972Y-118070086D01*
X180474257Y-118033800D01*
X180546829Y-117997514D01*
X180728257Y-117997514D01*
X180837114Y-118033800D01*
X181599114Y-118686943D02*
X181562828Y-118723229D01*
X181453971Y-118759514D01*
X181381400Y-118759514D01*
X181272543Y-118723229D01*
X181199971Y-118650657D01*
X181163686Y-118578086D01*
X181127400Y-118432943D01*
X181127400Y-118324086D01*
X181163686Y-118178943D01*
X181199971Y-118106371D01*
X181272543Y-118033800D01*
X181381400Y-117997514D01*
X181453971Y-117997514D01*
X181562828Y-118033800D01*
X181599114Y-118070086D01*
X181925686Y-118759514D02*
X181925686Y-117997514D01*
X182361114Y-118759514D02*
X182034543Y-118324086D01*
X182361114Y-117997514D02*
X181925686Y-118432943D01*
X177618572Y-118784914D02*
X177618572Y-118022914D01*
X177872572Y-118567200D01*
X178126572Y-118022914D01*
X178126572Y-118784914D01*
X178489429Y-118784914D02*
X178489429Y-118022914D01*
X178816000Y-118748629D02*
X178924857Y-118784914D01*
X179106286Y-118784914D01*
X179178857Y-118748629D01*
X179215143Y-118712343D01*
X179251428Y-118639771D01*
X179251428Y-118567200D01*
X179215143Y-118494629D01*
X179178857Y-118458343D01*
X179106286Y-118422057D01*
X178961143Y-118385771D01*
X178888571Y-118349486D01*
X178852286Y-118313200D01*
X178816000Y-118240629D01*
X178816000Y-118168057D01*
X178852286Y-118095486D01*
X178888571Y-118059200D01*
X178961143Y-118022914D01*
X179142571Y-118022914D01*
X179251428Y-118059200D01*
X179723142Y-118022914D02*
X179868285Y-118022914D01*
X179940857Y-118059200D01*
X180013428Y-118131771D01*
X180049714Y-118276914D01*
X180049714Y-118530914D01*
X180013428Y-118676057D01*
X179940857Y-118748629D01*
X179868285Y-118784914D01*
X179723142Y-118784914D01*
X179650571Y-118748629D01*
X179578000Y-118676057D01*
X179541714Y-118530914D01*
X179541714Y-118276914D01*
X179578000Y-118131771D01*
X179650571Y-118059200D01*
X179723142Y-118022914D01*
X175241857Y-117997514D02*
X175495857Y-118759514D01*
X175749857Y-117997514D01*
X176330429Y-118723229D02*
X176257858Y-118759514D01*
X176112715Y-118759514D01*
X176040143Y-118723229D01*
X176003858Y-118686943D01*
X175967572Y-118614371D01*
X175967572Y-118396657D01*
X176003858Y-118324086D01*
X176040143Y-118287800D01*
X176112715Y-118251514D01*
X176257858Y-118251514D01*
X176330429Y-118287800D01*
X176983572Y-118723229D02*
X176911001Y-118759514D01*
X176765858Y-118759514D01*
X176693286Y-118723229D01*
X176657001Y-118686943D01*
X176620715Y-118614371D01*
X176620715Y-118396657D01*
X176657001Y-118324086D01*
X176693286Y-118287800D01*
X176765858Y-118251514D01*
X176911001Y-118251514D01*
X176983572Y-118287800D01*
X183939544Y-106542114D02*
X183939544Y-105780114D01*
X184266115Y-106505829D02*
X184374972Y-106542114D01*
X184556401Y-106542114D01*
X184628972Y-106505829D01*
X184665258Y-106469543D01*
X184701543Y-106396971D01*
X184701543Y-106324400D01*
X184665258Y-106251829D01*
X184628972Y-106215543D01*
X184556401Y-106179257D01*
X184411258Y-106142971D01*
X184338686Y-106106686D01*
X184302401Y-106070400D01*
X184266115Y-105997829D01*
X184266115Y-105925257D01*
X184302401Y-105852686D01*
X184338686Y-105816400D01*
X184411258Y-105780114D01*
X184592686Y-105780114D01*
X184701543Y-105816400D01*
X185028115Y-106542114D02*
X185028115Y-105780114D01*
X185318400Y-105780114D01*
X185390972Y-105816400D01*
X185427257Y-105852686D01*
X185463543Y-105925257D01*
X185463543Y-106034114D01*
X185427257Y-106106686D01*
X185390972Y-106142971D01*
X185318400Y-106179257D01*
X185028115Y-106179257D01*
D13*
X100651018Y-68654471D02*
X108651019Y-68654470D01*
X100651018Y-118654471D02*
X100651018Y-68654471D01*
X108651019Y-118654470D02*
X100651018Y-118654471D01*
X108651019Y-68654470D02*
X108651019Y-118654470D01*
D14*
X152488000Y-86352000D02*
X152488000Y-85352000D01*
X150788000Y-85352000D02*
X150788000Y-86352000D01*
X150456000Y-80002000D02*
X150456000Y-79002000D01*
X148756000Y-79002000D02*
X148756000Y-80002000D01*
X152662000Y-83146000D02*
X153662000Y-83146000D01*
X153662000Y-81446000D02*
X152662000Y-81446000D01*
X148090000Y-92544000D02*
X149090000Y-92544000D01*
X149090000Y-90844000D02*
X148090000Y-90844000D01*
X184570000Y-86622000D02*
X184570000Y-87622000D01*
X186270000Y-87622000D02*
X186270000Y-86622000D01*
X174937000Y-83243000D02*
X174937000Y-83543000D01*
X182187000Y-83243000D02*
X182187000Y-83543000D01*
X182187000Y-90493000D02*
X182187000Y-90193000D01*
X174937000Y-90493000D02*
X174937000Y-90193000D01*
X174937000Y-83243000D02*
X175237000Y-83243000D01*
X174937000Y-90493000D02*
X175237000Y-90493000D01*
X182187000Y-90493000D02*
X181887000Y-90493000D01*
X182187000Y-83243000D02*
X181887000Y-83243000D01*
X174937000Y-83543000D02*
X173712000Y-83543000D01*
X147218400Y-68630800D02*
X144678400Y-68630800D01*
X150038400Y-68910800D02*
X148488400Y-68910800D01*
X147218400Y-68630800D02*
X147218400Y-66090800D01*
X148488400Y-65810800D02*
X150038400Y-65810800D01*
X150038400Y-65810800D02*
X150038400Y-68910800D01*
X147218400Y-66090800D02*
X144678400Y-66090800D01*
X144678400Y-66090800D02*
X144678400Y-68630800D01*
X179933600Y-112522000D02*
X185013600Y-112522000D01*
X177113600Y-112802000D02*
X177113600Y-111252000D01*
X177393600Y-109982000D02*
X179933600Y-109982000D01*
X179933600Y-109982000D02*
X179933600Y-112522000D01*
X185013600Y-112522000D02*
X185013600Y-107442000D01*
X185013600Y-107442000D02*
X179933600Y-107442000D01*
X177113600Y-112802000D02*
X178663600Y-112802000D01*
X177393600Y-107442000D02*
X177393600Y-109982000D01*
X179933600Y-107442000D02*
X177393600Y-107442000D01*
X136032240Y-102391160D02*
X136032240Y-102342900D01*
X135331200Y-99592180D02*
X136032240Y-99592180D01*
X136032240Y-99592180D02*
X136032240Y-99841100D01*
X136032240Y-102391160D02*
X136032240Y-102591820D01*
X136032240Y-102591820D02*
X135331200Y-102591820D01*
X136032240Y-95025160D02*
X136032240Y-94976900D01*
X135331200Y-92226180D02*
X136032240Y-92226180D01*
X136032240Y-92226180D02*
X136032240Y-92475100D01*
X136032240Y-95025160D02*
X136032240Y-95225820D01*
X136032240Y-95225820D02*
X135331200Y-95225820D01*
X118363085Y-99853644D02*
X118363085Y-99901904D01*
X119064125Y-102652624D02*
X118363085Y-102652624D01*
X118363085Y-102652624D02*
X118363085Y-102403704D01*
X118363085Y-99853644D02*
X118363085Y-99652984D01*
X118363085Y-99652984D02*
X119064125Y-99652984D01*
X118363086Y-85121643D02*
X118363086Y-85169903D01*
X119064126Y-87920623D02*
X118363086Y-87920623D01*
X118363086Y-87920623D02*
X118363086Y-87671703D01*
X118363086Y-85121643D02*
X118363086Y-84920983D01*
X118363086Y-84920983D02*
X119064126Y-84920983D01*
X118363086Y-77628643D02*
X118363086Y-77676903D01*
X119064126Y-80427623D02*
X118363086Y-80427623D01*
X118363086Y-80427623D02*
X118363086Y-80178703D01*
X118363086Y-77628643D02*
X118363086Y-77427983D01*
X118363086Y-77427983D02*
X119064126Y-77427983D01*
X118363086Y-92487642D02*
X118363086Y-92535902D01*
X119064126Y-95286622D02*
X118363086Y-95286622D01*
X118363086Y-95286622D02*
X118363086Y-95037702D01*
X118363086Y-92487642D02*
X118363086Y-92286982D01*
X118363086Y-92286982D02*
X119064126Y-92286982D01*
X136032240Y-87659160D02*
X136032240Y-87610900D01*
X135331200Y-84860180D02*
X136032240Y-84860180D01*
X136032240Y-84860180D02*
X136032240Y-85109100D01*
X136032240Y-87659160D02*
X136032240Y-87859820D01*
X136032240Y-87859820D02*
X135331200Y-87859820D01*
X136286240Y-80293160D02*
X136286240Y-80244900D01*
X135585200Y-77494180D02*
X136286240Y-77494180D01*
X136286240Y-77494180D02*
X136286240Y-77743100D01*
X136286240Y-80293160D02*
X136286240Y-80493820D01*
X136286240Y-80493820D02*
X135585200Y-80493820D01*
X147179000Y-85252000D02*
X147179000Y-86452000D01*
X145429000Y-86452000D02*
X145429000Y-85252000D01*
X131205000Y-101692000D02*
X131205000Y-100492000D01*
X132955000Y-100492000D02*
X132955000Y-101692000D01*
X138063000Y-101692000D02*
X138063000Y-100492000D01*
X139813000Y-100492000D02*
X139813000Y-101692000D01*
X131205000Y-94326000D02*
X131205000Y-93126000D01*
X132955000Y-93126000D02*
X132955000Y-94326000D01*
X138063000Y-94326000D02*
X138063000Y-93126000D01*
X139813000Y-93126000D02*
X139813000Y-94326000D01*
X123258326Y-100581802D02*
X123258326Y-101781802D01*
X121508326Y-101781802D02*
X121508326Y-100581802D01*
X115638325Y-100581802D02*
X115638325Y-101781802D01*
X113888325Y-101781802D02*
X113888325Y-100581802D01*
X123258326Y-85849804D02*
X123258326Y-87049804D01*
X121508326Y-87049804D02*
X121508326Y-85849804D01*
X115638325Y-85849803D02*
X115638325Y-87049803D01*
X113888325Y-87049803D02*
X113888325Y-85849803D01*
X123258326Y-78483802D02*
X123258326Y-79683802D01*
X121508326Y-79683802D02*
X121508326Y-78483802D01*
X115638325Y-78229802D02*
X115638325Y-79429802D01*
X113888325Y-79429802D02*
X113888325Y-78229802D01*
X123258325Y-93215802D02*
X123258325Y-94415802D01*
X121508325Y-94415802D02*
X121508325Y-93215802D01*
X115638326Y-93469802D02*
X115638326Y-94669802D01*
X113888326Y-94669802D02*
X113888326Y-93469802D01*
X131205000Y-86960000D02*
X131205000Y-85760000D01*
X132955000Y-85760000D02*
X132955000Y-86960000D01*
X138063000Y-86960000D02*
X138063000Y-85760000D01*
X139813000Y-85760000D02*
X139813000Y-86960000D01*
X131205000Y-79594000D02*
X131205000Y-78394000D01*
X132955000Y-78394000D02*
X132955000Y-79594000D01*
X138063000Y-79340000D02*
X138063000Y-78140000D01*
X139813000Y-78140000D02*
X139813000Y-79340000D01*
X177179000Y-77562000D02*
X177179000Y-76362000D01*
X178929000Y-76362000D02*
X178929000Y-77562000D01*
D11*
X194765800Y-98776400D02*
X192265800Y-98776400D01*
X192265800Y-98776400D02*
X192265800Y-101276400D01*
X192765800Y-99276400D02*
X199765800Y-99276400D01*
X199765800Y-99276400D02*
X199765800Y-107276400D01*
X199765800Y-107276400D02*
X192765800Y-107276400D01*
X192765800Y-107276400D02*
X192765800Y-99276400D01*
D14*
X171069000Y-106324400D02*
X168529000Y-106324400D01*
X173889000Y-106604400D02*
X172339000Y-106604400D01*
X171069000Y-106324400D02*
X171069000Y-103784400D01*
X172339000Y-103504400D02*
X173889000Y-103504400D01*
X173889000Y-103504400D02*
X173889000Y-106604400D01*
X171069000Y-103784400D02*
X168529000Y-103784400D01*
X168529000Y-103784400D02*
X168529000Y-106324400D01*
D11*
X158018600Y-76490200D02*
G75*
G03X158018600Y-76490200I-300000J0D01*
G01*
X157268600Y-70990200D02*
X165768600Y-70990200D01*
X165768600Y-70990200D02*
X165768600Y-76990200D01*
X165768600Y-76990200D02*
X157268600Y-76990200D01*
X157268600Y-76990200D02*
X157268600Y-70990200D01*
D14*
X153111200Y-78002180D02*
X153812240Y-78002180D01*
X153812240Y-78002180D02*
X153812240Y-78251100D01*
X153812240Y-80801160D02*
X153812240Y-81001820D01*
X153812240Y-81001820D02*
X153111200Y-81001820D01*
X150148000Y-86142000D02*
G75*
G03X150148000Y-86142000I-100000J0D01*
G01*
X150548000Y-88642000D02*
X150548000Y-88142000D01*
X147648000Y-88642000D02*
X150548000Y-88642000D01*
X147648000Y-88142000D02*
X147648000Y-88642000D01*
X150548000Y-88142000D02*
X147648000Y-88142000D01*
D11*
X119801214Y-106316000D02*
G75*
G03X119801214Y-106316000I-447214J0D01*
G01*
D14*
X141224000Y-107696000D02*
X113284000Y-107696000D01*
X113284000Y-107696000D02*
X113284000Y-72136000D01*
X113284000Y-72136000D02*
X141224000Y-72136000D01*
X141224000Y-72136000D02*
X141224000Y-107696000D01*
X176225200Y-117678800D02*
X174675200Y-117678800D01*
X174675200Y-117678800D02*
X174675200Y-114578800D01*
X174675200Y-114578800D02*
X176225200Y-114578800D01*
X177495200Y-114858800D02*
X187655200Y-114858800D01*
X187655200Y-114858800D02*
X187655200Y-117398800D01*
X187655200Y-117398800D02*
X177495200Y-117398800D01*
X177495200Y-114858800D02*
X177495200Y-117398800D01*
D10*
G36*
X190095978Y-67633218D02*
X190093838Y-68226876D01*
X190093600Y-68411745D01*
X190091632Y-69052017D01*
X190084965Y-69542253D01*
X190072456Y-69901714D01*
X190052961Y-70149661D01*
X190025335Y-70305354D01*
X189988435Y-70388052D01*
X189975431Y-70401470D01*
X189808196Y-70472942D01*
X189670267Y-70503274D01*
X189670267Y-70049548D01*
X189670267Y-68456171D01*
X189666211Y-67935709D01*
X189654850Y-67486132D01*
X189637395Y-67132465D01*
X189615053Y-66899737D01*
X189590875Y-66813726D01*
X189479427Y-66782892D01*
X189237152Y-66736419D01*
X188901093Y-66680895D01*
X188553708Y-66629285D01*
X187925240Y-66567336D01*
X187197651Y-66539045D01*
X186427737Y-66543297D01*
X185672292Y-66578979D01*
X184988114Y-66644976D01*
X184590267Y-66707037D01*
X184039933Y-66811659D01*
X184016966Y-68432943D01*
X183993999Y-70054226D01*
X184567299Y-70144998D01*
X184903213Y-70197728D01*
X185208024Y-70244802D01*
X185394600Y-70272891D01*
X185634769Y-70290539D01*
X186006125Y-70296961D01*
X186470983Y-70293417D01*
X186991657Y-70281164D01*
X187530462Y-70261460D01*
X188049712Y-70235561D01*
X188511722Y-70204726D01*
X188878806Y-70170212D01*
X189014100Y-70152106D01*
X189670267Y-70049548D01*
X189670267Y-70503274D01*
X189498875Y-70540966D01*
X189074713Y-70602837D01*
X188562956Y-70655851D01*
X187990849Y-70697304D01*
X187385639Y-70724492D01*
X186774569Y-70734710D01*
X186622267Y-70734283D01*
X186137269Y-70729060D01*
X185698489Y-70721001D01*
X185339754Y-70710983D01*
X185094892Y-70699880D01*
X185013600Y-70692616D01*
X184507028Y-70609036D01*
X184099239Y-70526508D01*
X183814062Y-70450432D01*
X183680100Y-70390474D01*
X183643065Y-70312649D01*
X183614906Y-70137590D01*
X183594798Y-69849875D01*
X183581917Y-69434084D01*
X183575437Y-68874796D01*
X183574267Y-68411745D01*
X183575218Y-67795399D01*
X183579177Y-67326964D01*
X183587800Y-66985024D01*
X183602744Y-66748162D01*
X183625666Y-66594960D01*
X183658222Y-66504003D01*
X183702068Y-66453873D01*
X183726912Y-66438397D01*
X183992800Y-66344979D01*
X184398361Y-66264975D01*
X184914373Y-66199630D01*
X185511615Y-66150189D01*
X186160864Y-66117899D01*
X186832898Y-66104004D01*
X187498496Y-66109750D01*
X188128434Y-66136382D01*
X188693491Y-66185146D01*
X188931793Y-66216583D01*
X189297258Y-66268223D01*
X189577362Y-66313152D01*
X189783366Y-66372647D01*
X189926529Y-66467982D01*
X190018112Y-66620432D01*
X190069375Y-66851271D01*
X190091577Y-67181775D01*
X190095978Y-67633218D01*
X190095978Y-67633218D01*
X190095978Y-67633218D01*
G37*
X190095978Y-67633218D02*
X190093838Y-68226876D01*
X190093600Y-68411745D01*
X190091632Y-69052017D01*
X190084965Y-69542253D01*
X190072456Y-69901714D01*
X190052961Y-70149661D01*
X190025335Y-70305354D01*
X189988435Y-70388052D01*
X189975431Y-70401470D01*
X189808196Y-70472942D01*
X189670267Y-70503274D01*
X189670267Y-70049548D01*
X189670267Y-68456171D01*
X189666211Y-67935709D01*
X189654850Y-67486132D01*
X189637395Y-67132465D01*
X189615053Y-66899737D01*
X189590875Y-66813726D01*
X189479427Y-66782892D01*
X189237152Y-66736419D01*
X188901093Y-66680895D01*
X188553708Y-66629285D01*
X187925240Y-66567336D01*
X187197651Y-66539045D01*
X186427737Y-66543297D01*
X185672292Y-66578979D01*
X184988114Y-66644976D01*
X184590267Y-66707037D01*
X184039933Y-66811659D01*
X184016966Y-68432943D01*
X183993999Y-70054226D01*
X184567299Y-70144998D01*
X184903213Y-70197728D01*
X185208024Y-70244802D01*
X185394600Y-70272891D01*
X185634769Y-70290539D01*
X186006125Y-70296961D01*
X186470983Y-70293417D01*
X186991657Y-70281164D01*
X187530462Y-70261460D01*
X188049712Y-70235561D01*
X188511722Y-70204726D01*
X188878806Y-70170212D01*
X189014100Y-70152106D01*
X189670267Y-70049548D01*
X189670267Y-70503274D01*
X189498875Y-70540966D01*
X189074713Y-70602837D01*
X188562956Y-70655851D01*
X187990849Y-70697304D01*
X187385639Y-70724492D01*
X186774569Y-70734710D01*
X186622267Y-70734283D01*
X186137269Y-70729060D01*
X185698489Y-70721001D01*
X185339754Y-70710983D01*
X185094892Y-70699880D01*
X185013600Y-70692616D01*
X184507028Y-70609036D01*
X184099239Y-70526508D01*
X183814062Y-70450432D01*
X183680100Y-70390474D01*
X183643065Y-70312649D01*
X183614906Y-70137590D01*
X183594798Y-69849875D01*
X183581917Y-69434084D01*
X183575437Y-68874796D01*
X183574267Y-68411745D01*
X183575218Y-67795399D01*
X183579177Y-67326964D01*
X183587800Y-66985024D01*
X183602744Y-66748162D01*
X183625666Y-66594960D01*
X183658222Y-66504003D01*
X183702068Y-66453873D01*
X183726912Y-66438397D01*
X183992800Y-66344979D01*
X184398361Y-66264975D01*
X184914373Y-66199630D01*
X185511615Y-66150189D01*
X186160864Y-66117899D01*
X186832898Y-66104004D01*
X187498496Y-66109750D01*
X188128434Y-66136382D01*
X188693491Y-66185146D01*
X188931793Y-66216583D01*
X189297258Y-66268223D01*
X189577362Y-66313152D01*
X189783366Y-66372647D01*
X189926529Y-66467982D01*
X190018112Y-66620432D01*
X190069375Y-66851271D01*
X190091577Y-67181775D01*
X190095978Y-67633218D01*
X190095978Y-67633218D01*
G36*
X187134270Y-68778196D02*
X187086789Y-69161750D01*
X186922047Y-69511281D01*
X186647761Y-69780611D01*
X186506503Y-69853968D01*
X186318167Y-69903905D01*
X186047315Y-69935678D01*
X185658511Y-69954542D01*
X185436933Y-69960193D01*
X185040539Y-69964491D01*
X184702247Y-69960529D01*
X184460470Y-69949250D01*
X184357433Y-69933753D01*
X184268571Y-69816685D01*
X184260484Y-69638560D01*
X184328294Y-69484396D01*
X184385525Y-69444191D01*
X184524327Y-69422178D01*
X184788399Y-69404877D01*
X185133693Y-69394613D01*
X185359191Y-69392800D01*
X185840735Y-69377229D01*
X186177271Y-69323281D01*
X186390872Y-69220099D01*
X186503613Y-69056828D01*
X186537567Y-68822611D01*
X186537600Y-68813255D01*
X186471102Y-68549292D01*
X186266458Y-68362444D01*
X185915942Y-68247120D01*
X185714524Y-68217704D01*
X185438961Y-68181863D01*
X185292293Y-68135856D01*
X185234473Y-68058055D01*
X185225267Y-67953466D01*
X185236231Y-67839068D01*
X185294564Y-67772755D01*
X185438424Y-67737966D01*
X185705969Y-67718141D01*
X185775600Y-67714617D01*
X186191880Y-67718644D01*
X186491580Y-67783045D01*
X186585879Y-67825586D01*
X186882542Y-68069894D01*
X187065763Y-68400837D01*
X187134270Y-68778196D01*
X187134270Y-68778196D01*
X187134270Y-68778196D01*
G37*
X187134270Y-68778196D02*
X187086789Y-69161750D01*
X186922047Y-69511281D01*
X186647761Y-69780611D01*
X186506503Y-69853968D01*
X186318167Y-69903905D01*
X186047315Y-69935678D01*
X185658511Y-69954542D01*
X185436933Y-69960193D01*
X185040539Y-69964491D01*
X184702247Y-69960529D01*
X184460470Y-69949250D01*
X184357433Y-69933753D01*
X184268571Y-69816685D01*
X184260484Y-69638560D01*
X184328294Y-69484396D01*
X184385525Y-69444191D01*
X184524327Y-69422178D01*
X184788399Y-69404877D01*
X185133693Y-69394613D01*
X185359191Y-69392800D01*
X185840735Y-69377229D01*
X186177271Y-69323281D01*
X186390872Y-69220099D01*
X186503613Y-69056828D01*
X186537567Y-68822611D01*
X186537600Y-68813255D01*
X186471102Y-68549292D01*
X186266458Y-68362444D01*
X185915942Y-68247120D01*
X185714524Y-68217704D01*
X185438961Y-68181863D01*
X185292293Y-68135856D01*
X185234473Y-68058055D01*
X185225267Y-67953466D01*
X185236231Y-67839068D01*
X185294564Y-67772755D01*
X185438424Y-67737966D01*
X185705969Y-67718141D01*
X185775600Y-67714617D01*
X186191880Y-67718644D01*
X186491580Y-67783045D01*
X186585879Y-67825586D01*
X186882542Y-68069894D01*
X187065763Y-68400837D01*
X187134270Y-68778196D01*
X187134270Y-68778196D01*
G36*
X189330668Y-68869199D02*
X189310738Y-69391957D01*
X189249939Y-69754869D01*
X189148894Y-69956646D01*
X189008224Y-69996003D01*
X188840533Y-69883866D01*
X188787282Y-69738288D01*
X188753286Y-69431682D01*
X188739276Y-68971337D01*
X188738933Y-68871850D01*
X188730364Y-68474535D01*
X188707230Y-68122207D01*
X188673390Y-67860677D01*
X188644841Y-67754924D01*
X188501275Y-67585454D01*
X188266928Y-67438365D01*
X188221508Y-67419084D01*
X188000438Y-67308586D01*
X187905607Y-67182772D01*
X187892267Y-67077485D01*
X187956239Y-66901043D01*
X188124169Y-66817467D01*
X188360075Y-66824281D01*
X188627974Y-66919005D01*
X188891884Y-67099161D01*
X188945878Y-67150055D01*
X189097160Y-67326785D01*
X189203816Y-67526597D01*
X189273117Y-67781986D01*
X189312337Y-68125449D01*
X189328749Y-68589482D01*
X189330668Y-68869199D01*
X189330668Y-68869199D01*
X189330668Y-68869199D01*
G37*
X189330668Y-68869199D02*
X189310738Y-69391957D01*
X189249939Y-69754869D01*
X189148894Y-69956646D01*
X189008224Y-69996003D01*
X188840533Y-69883866D01*
X188787282Y-69738288D01*
X188753286Y-69431682D01*
X188739276Y-68971337D01*
X188738933Y-68871850D01*
X188730364Y-68474535D01*
X188707230Y-68122207D01*
X188673390Y-67860677D01*
X188644841Y-67754924D01*
X188501275Y-67585454D01*
X188266928Y-67438365D01*
X188221508Y-67419084D01*
X188000438Y-67308586D01*
X187905607Y-67182772D01*
X187892267Y-67077485D01*
X187956239Y-66901043D01*
X188124169Y-66817467D01*
X188360075Y-66824281D01*
X188627974Y-66919005D01*
X188891884Y-67099161D01*
X188945878Y-67150055D01*
X189097160Y-67326785D01*
X189203816Y-67526597D01*
X189273117Y-67781986D01*
X189312337Y-68125449D01*
X189328749Y-68589482D01*
X189330668Y-68869199D01*
X189330668Y-68869199D01*
G36*
X187986799Y-68503320D02*
X187962774Y-68800319D01*
X187910817Y-69010127D01*
X187849933Y-69084751D01*
X187657905Y-69114823D01*
X187537457Y-69018421D01*
X187478711Y-68781674D01*
X187468933Y-68549709D01*
X187433854Y-68054212D01*
X187326585Y-67704737D01*
X187144079Y-67492731D01*
X187079735Y-67457136D01*
X186902294Y-67414201D01*
X186607186Y-67381119D01*
X186246008Y-67362858D01*
X186079367Y-67360800D01*
X185687742Y-67366348D01*
X185422946Y-67387880D01*
X185242698Y-67432727D01*
X185104714Y-67508222D01*
X185067351Y-67536278D01*
X184888354Y-67765539D01*
X184850802Y-68028750D01*
X184957986Y-68275750D01*
X185014912Y-68335654D01*
X185237806Y-68450254D01*
X185587242Y-68521308D01*
X185671079Y-68529444D01*
X186035448Y-68585877D01*
X186236248Y-68683406D01*
X186274408Y-68822955D01*
X186150857Y-69005447D01*
X186150552Y-69005752D01*
X185953453Y-69103749D01*
X185630823Y-69121515D01*
X185170721Y-69059660D01*
X185154351Y-69056519D01*
X184774602Y-68909880D01*
X184496156Y-68658301D01*
X184323096Y-68335486D01*
X184259501Y-67975135D01*
X184309454Y-67610951D01*
X184477035Y-67276637D01*
X184766326Y-67005894D01*
X184897128Y-66932369D01*
X185080460Y-66852987D01*
X185263889Y-66802624D01*
X185488937Y-66776675D01*
X185797128Y-66770534D01*
X186229984Y-66779596D01*
X186265091Y-66780652D01*
X186758086Y-66803066D01*
X187116035Y-66843623D01*
X187373123Y-66914516D01*
X187563532Y-67027937D01*
X187721445Y-67196077D01*
X187819225Y-67334971D01*
X187899105Y-67534954D01*
X187954182Y-67826059D01*
X187983674Y-68163707D01*
X187986799Y-68503320D01*
X187986799Y-68503320D01*
X187986799Y-68503320D01*
G37*
X187986799Y-68503320D02*
X187962774Y-68800319D01*
X187910817Y-69010127D01*
X187849933Y-69084751D01*
X187657905Y-69114823D01*
X187537457Y-69018421D01*
X187478711Y-68781674D01*
X187468933Y-68549709D01*
X187433854Y-68054212D01*
X187326585Y-67704737D01*
X187144079Y-67492731D01*
X187079735Y-67457136D01*
X186902294Y-67414201D01*
X186607186Y-67381119D01*
X186246008Y-67362858D01*
X186079367Y-67360800D01*
X185687742Y-67366348D01*
X185422946Y-67387880D01*
X185242698Y-67432727D01*
X185104714Y-67508222D01*
X185067351Y-67536278D01*
X184888354Y-67765539D01*
X184850802Y-68028750D01*
X184957986Y-68275750D01*
X185014912Y-68335654D01*
X185237806Y-68450254D01*
X185587242Y-68521308D01*
X185671079Y-68529444D01*
X186035448Y-68585877D01*
X186236248Y-68683406D01*
X186274408Y-68822955D01*
X186150857Y-69005447D01*
X186150552Y-69005752D01*
X185953453Y-69103749D01*
X185630823Y-69121515D01*
X185170721Y-69059660D01*
X185154351Y-69056519D01*
X184774602Y-68909880D01*
X184496156Y-68658301D01*
X184323096Y-68335486D01*
X184259501Y-67975135D01*
X184309454Y-67610951D01*
X184477035Y-67276637D01*
X184766326Y-67005894D01*
X184897128Y-66932369D01*
X185080460Y-66852987D01*
X185263889Y-66802624D01*
X185488937Y-66776675D01*
X185797128Y-66770534D01*
X186229984Y-66779596D01*
X186265091Y-66780652D01*
X186758086Y-66803066D01*
X187116035Y-66843623D01*
X187373123Y-66914516D01*
X187563532Y-67027937D01*
X187721445Y-67196077D01*
X187819225Y-67334971D01*
X187899105Y-67534954D01*
X187954182Y-67826059D01*
X187983674Y-68163707D01*
X187986799Y-68503320D01*
X187986799Y-68503320D01*
D11*
X151783143Y-90895714D02*
X151819429Y-90932000D01*
X151855714Y-91040857D01*
X151855714Y-91113428D01*
X151819429Y-91222285D01*
X151746857Y-91294857D01*
X151674286Y-91331142D01*
X151529143Y-91367428D01*
X151420286Y-91367428D01*
X151275143Y-91331142D01*
X151202571Y-91294857D01*
X151130000Y-91222285D01*
X151093714Y-91113428D01*
X151093714Y-91040857D01*
X151130000Y-90932000D01*
X151166286Y-90895714D01*
X151166286Y-90605428D02*
X151130000Y-90569142D01*
X151093714Y-90496571D01*
X151093714Y-90315142D01*
X151130000Y-90242571D01*
X151166286Y-90206285D01*
X151238857Y-90170000D01*
X151311429Y-90170000D01*
X151420286Y-90206285D01*
X151855714Y-90641714D01*
X151855714Y-90170000D01*
X151093714Y-89698286D02*
X151093714Y-89625714D01*
X151130000Y-89553143D01*
X151166286Y-89516857D01*
X151238857Y-89480571D01*
X151384000Y-89444286D01*
X151565429Y-89444286D01*
X151710571Y-89480571D01*
X151783143Y-89516857D01*
X151819429Y-89553143D01*
X151855714Y-89625714D01*
X151855714Y-89698286D01*
X151819429Y-89770857D01*
X151783143Y-89807143D01*
X151710571Y-89843428D01*
X151565429Y-89879714D01*
X151384000Y-89879714D01*
X151238857Y-89843428D01*
X151166286Y-89807143D01*
X151130000Y-89770857D01*
X151093714Y-89698286D01*
X151855714Y-88718572D02*
X151855714Y-89154000D01*
X151855714Y-88936286D02*
X151093714Y-88936286D01*
X151202571Y-89008857D01*
X151275143Y-89081429D01*
X151311429Y-89154000D01*
X148100143Y-80354714D02*
X148136429Y-80391000D01*
X148172714Y-80499857D01*
X148172714Y-80572428D01*
X148136429Y-80681285D01*
X148063857Y-80753857D01*
X147991286Y-80790142D01*
X147846143Y-80826428D01*
X147737286Y-80826428D01*
X147592143Y-80790142D01*
X147519571Y-80753857D01*
X147447000Y-80681285D01*
X147410714Y-80572428D01*
X147410714Y-80499857D01*
X147447000Y-80391000D01*
X147483286Y-80354714D01*
X147483286Y-80064428D02*
X147447000Y-80028142D01*
X147410714Y-79955571D01*
X147410714Y-79774142D01*
X147447000Y-79701571D01*
X147483286Y-79665285D01*
X147555857Y-79629000D01*
X147628429Y-79629000D01*
X147737286Y-79665285D01*
X148172714Y-80100714D01*
X148172714Y-79629000D01*
X147410714Y-79157286D02*
X147410714Y-79084714D01*
X147447000Y-79012143D01*
X147483286Y-78975857D01*
X147555857Y-78939571D01*
X147701000Y-78903286D01*
X147882429Y-78903286D01*
X148027571Y-78939571D01*
X148100143Y-78975857D01*
X148136429Y-79012143D01*
X148172714Y-79084714D01*
X148172714Y-79157286D01*
X148136429Y-79229857D01*
X148100143Y-79266143D01*
X148027571Y-79302428D01*
X147882429Y-79338714D01*
X147701000Y-79338714D01*
X147555857Y-79302428D01*
X147483286Y-79266143D01*
X147447000Y-79229857D01*
X147410714Y-79157286D01*
X147483286Y-78613000D02*
X147447000Y-78576714D01*
X147410714Y-78504143D01*
X147410714Y-78322714D01*
X147447000Y-78250143D01*
X147483286Y-78213857D01*
X147555857Y-78177572D01*
X147628429Y-78177572D01*
X147737286Y-78213857D01*
X148172714Y-78649286D01*
X148172714Y-78177572D01*
X156398686Y-83203143D02*
X156362400Y-83239429D01*
X156253543Y-83275714D01*
X156180972Y-83275714D01*
X156072115Y-83239429D01*
X155999543Y-83166857D01*
X155963258Y-83094286D01*
X155926972Y-82949143D01*
X155926972Y-82840286D01*
X155963258Y-82695143D01*
X155999543Y-82622571D01*
X156072115Y-82550000D01*
X156180972Y-82513714D01*
X156253543Y-82513714D01*
X156362400Y-82550000D01*
X156398686Y-82586286D01*
X156688972Y-82586286D02*
X156725258Y-82550000D01*
X156797829Y-82513714D01*
X156979258Y-82513714D01*
X157051829Y-82550000D01*
X157088115Y-82586286D01*
X157124400Y-82658857D01*
X157124400Y-82731429D01*
X157088115Y-82840286D01*
X156652686Y-83275714D01*
X157124400Y-83275714D01*
X157596114Y-82513714D02*
X157668686Y-82513714D01*
X157741257Y-82550000D01*
X157777543Y-82586286D01*
X157813829Y-82658857D01*
X157850114Y-82804000D01*
X157850114Y-82985429D01*
X157813829Y-83130571D01*
X157777543Y-83203143D01*
X157741257Y-83239429D01*
X157668686Y-83275714D01*
X157596114Y-83275714D01*
X157523543Y-83239429D01*
X157487257Y-83203143D01*
X157450972Y-83130571D01*
X157414686Y-82985429D01*
X157414686Y-82804000D01*
X157450972Y-82658857D01*
X157487257Y-82586286D01*
X157523543Y-82550000D01*
X157596114Y-82513714D01*
X158104114Y-82513714D02*
X158575828Y-82513714D01*
X158321828Y-82804000D01*
X158430686Y-82804000D01*
X158503257Y-82840286D01*
X158539543Y-82876571D01*
X158575828Y-82949143D01*
X158575828Y-83130571D01*
X158539543Y-83203143D01*
X158503257Y-83239429D01*
X158430686Y-83275714D01*
X158212971Y-83275714D01*
X158140400Y-83239429D01*
X158104114Y-83203143D01*
X146619686Y-93820343D02*
X146583400Y-93856629D01*
X146474543Y-93892914D01*
X146401972Y-93892914D01*
X146293115Y-93856629D01*
X146220543Y-93784057D01*
X146184258Y-93711486D01*
X146147972Y-93566343D01*
X146147972Y-93457486D01*
X146184258Y-93312343D01*
X146220543Y-93239771D01*
X146293115Y-93167200D01*
X146401972Y-93130914D01*
X146474543Y-93130914D01*
X146583400Y-93167200D01*
X146619686Y-93203486D01*
X146909972Y-93203486D02*
X146946258Y-93167200D01*
X147018829Y-93130914D01*
X147200258Y-93130914D01*
X147272829Y-93167200D01*
X147309115Y-93203486D01*
X147345400Y-93276057D01*
X147345400Y-93348629D01*
X147309115Y-93457486D01*
X146873686Y-93892914D01*
X147345400Y-93892914D01*
X147817114Y-93130914D02*
X147889686Y-93130914D01*
X147962257Y-93167200D01*
X147998543Y-93203486D01*
X148034829Y-93276057D01*
X148071114Y-93421200D01*
X148071114Y-93602629D01*
X148034829Y-93747771D01*
X147998543Y-93820343D01*
X147962257Y-93856629D01*
X147889686Y-93892914D01*
X147817114Y-93892914D01*
X147744543Y-93856629D01*
X147708257Y-93820343D01*
X147671972Y-93747771D01*
X147635686Y-93602629D01*
X147635686Y-93421200D01*
X147671972Y-93276057D01*
X147708257Y-93203486D01*
X147744543Y-93167200D01*
X147817114Y-93130914D01*
X148724257Y-93384914D02*
X148724257Y-93892914D01*
X148542828Y-93094629D02*
X148361400Y-93638914D01*
X148833114Y-93638914D01*
X187343143Y-87695314D02*
X187379429Y-87731600D01*
X187415714Y-87840457D01*
X187415714Y-87913028D01*
X187379429Y-88021885D01*
X187306857Y-88094457D01*
X187234286Y-88130742D01*
X187089143Y-88167028D01*
X186980286Y-88167028D01*
X186835143Y-88130742D01*
X186762571Y-88094457D01*
X186690000Y-88021885D01*
X186653714Y-87913028D01*
X186653714Y-87840457D01*
X186690000Y-87731600D01*
X186726286Y-87695314D01*
X186653714Y-87005885D02*
X186653714Y-87368742D01*
X187016571Y-87405028D01*
X186980286Y-87368742D01*
X186944000Y-87296171D01*
X186944000Y-87114742D01*
X186980286Y-87042171D01*
X187016571Y-87005885D01*
X187089143Y-86969600D01*
X187270571Y-86969600D01*
X187343143Y-87005885D01*
X187379429Y-87042171D01*
X187415714Y-87114742D01*
X187415714Y-87296171D01*
X187379429Y-87368742D01*
X187343143Y-87405028D01*
X186653714Y-86497886D02*
X186653714Y-86425314D01*
X186690000Y-86352743D01*
X186726286Y-86316457D01*
X186798857Y-86280171D01*
X186944000Y-86243886D01*
X187125429Y-86243886D01*
X187270571Y-86280171D01*
X187343143Y-86316457D01*
X187379429Y-86352743D01*
X187415714Y-86425314D01*
X187415714Y-86497886D01*
X187379429Y-86570457D01*
X187343143Y-86606743D01*
X187270571Y-86643028D01*
X187125429Y-86679314D01*
X186944000Y-86679314D01*
X186798857Y-86643028D01*
X186726286Y-86606743D01*
X186690000Y-86570457D01*
X186653714Y-86497886D01*
X187415714Y-85518172D02*
X187415714Y-85953600D01*
X187415714Y-85735886D02*
X186653714Y-85735886D01*
X186762571Y-85808457D01*
X186835143Y-85881029D01*
X186871429Y-85953600D01*
X181004030Y-92927714D02*
X181004030Y-92165714D01*
X181802315Y-92855143D02*
X181766029Y-92891429D01*
X181657172Y-92927714D01*
X181584601Y-92927714D01*
X181475744Y-92891429D01*
X181403172Y-92818857D01*
X181366887Y-92746286D01*
X181330601Y-92601143D01*
X181330601Y-92492286D01*
X181366887Y-92347143D01*
X181403172Y-92274571D01*
X181475744Y-92202000D01*
X181584601Y-92165714D01*
X181657172Y-92165714D01*
X181766029Y-92202000D01*
X181802315Y-92238286D01*
X182491744Y-92165714D02*
X182128887Y-92165714D01*
X182092601Y-92528571D01*
X182128887Y-92492286D01*
X182201458Y-92456000D01*
X182382887Y-92456000D01*
X182455458Y-92492286D01*
X182491744Y-92528571D01*
X182528029Y-92601143D01*
X182528029Y-92782571D01*
X182491744Y-92855143D01*
X182455458Y-92891429D01*
X182382887Y-92927714D01*
X182201458Y-92927714D01*
X182128887Y-92891429D01*
X182092601Y-92855143D01*
X182999743Y-92165714D02*
X183072315Y-92165714D01*
X183144886Y-92202000D01*
X183181172Y-92238286D01*
X183217458Y-92310857D01*
X183253743Y-92456000D01*
X183253743Y-92637429D01*
X183217458Y-92782571D01*
X183181172Y-92855143D01*
X183144886Y-92891429D01*
X183072315Y-92927714D01*
X182999743Y-92927714D01*
X182927172Y-92891429D01*
X182890886Y-92855143D01*
X182854601Y-92782571D01*
X182818315Y-92637429D01*
X182818315Y-92456000D01*
X182854601Y-92310857D01*
X182890886Y-92238286D01*
X182927172Y-92202000D01*
X182999743Y-92165714D01*
X183979457Y-92927714D02*
X183544029Y-92927714D01*
X183761743Y-92927714D02*
X183761743Y-92165714D01*
X183689172Y-92274571D01*
X183616600Y-92347143D01*
X183544029Y-92383429D01*
X150527658Y-69077114D02*
X150527658Y-68315114D01*
X150817943Y-68315114D01*
X150890515Y-68351400D01*
X150926800Y-68387686D01*
X150963086Y-68460257D01*
X150963086Y-68569114D01*
X150926800Y-68641686D01*
X150890515Y-68677971D01*
X150817943Y-68714257D01*
X150527658Y-68714257D01*
X151688800Y-69077114D02*
X151253372Y-69077114D01*
X151471086Y-69077114D02*
X151471086Y-68315114D01*
X151398515Y-68423971D01*
X151325943Y-68496543D01*
X151253372Y-68532829D01*
X152160514Y-68315114D02*
X152233086Y-68315114D01*
X152305657Y-68351400D01*
X152341943Y-68387686D01*
X152378229Y-68460257D01*
X152414514Y-68605400D01*
X152414514Y-68786829D01*
X152378229Y-68931971D01*
X152341943Y-69004543D01*
X152305657Y-69040829D01*
X152233086Y-69077114D01*
X152160514Y-69077114D01*
X152087943Y-69040829D01*
X152051657Y-69004543D01*
X152015372Y-68931971D01*
X151979086Y-68786829D01*
X151979086Y-68605400D01*
X152015372Y-68460257D01*
X152051657Y-68387686D01*
X152087943Y-68351400D01*
X152160514Y-68315114D01*
X153140228Y-69077114D02*
X152704800Y-69077114D01*
X152922514Y-69077114D02*
X152922514Y-68315114D01*
X152849943Y-68423971D01*
X152777371Y-68496543D01*
X152704800Y-68532829D01*
X176867458Y-106567514D02*
X176867458Y-105805514D01*
X177157743Y-105805514D01*
X177230315Y-105841800D01*
X177266600Y-105878086D01*
X177302886Y-105950657D01*
X177302886Y-106059514D01*
X177266600Y-106132086D01*
X177230315Y-106168371D01*
X177157743Y-106204657D01*
X176867458Y-106204657D01*
X177992315Y-105805514D02*
X177629458Y-105805514D01*
X177593172Y-106168371D01*
X177629458Y-106132086D01*
X177702029Y-106095800D01*
X177883458Y-106095800D01*
X177956029Y-106132086D01*
X177992315Y-106168371D01*
X178028600Y-106240943D01*
X178028600Y-106422371D01*
X177992315Y-106494943D01*
X177956029Y-106531229D01*
X177883458Y-106567514D01*
X177702029Y-106567514D01*
X177629458Y-106531229D01*
X177593172Y-106494943D01*
X178500314Y-105805514D02*
X178572886Y-105805514D01*
X178645457Y-105841800D01*
X178681743Y-105878086D01*
X178718029Y-105950657D01*
X178754314Y-106095800D01*
X178754314Y-106277229D01*
X178718029Y-106422371D01*
X178681743Y-106494943D01*
X178645457Y-106531229D01*
X178572886Y-106567514D01*
X178500314Y-106567514D01*
X178427743Y-106531229D01*
X178391457Y-106494943D01*
X178355172Y-106422371D01*
X178318886Y-106277229D01*
X178318886Y-106095800D01*
X178355172Y-105950657D01*
X178391457Y-105878086D01*
X178427743Y-105841800D01*
X178500314Y-105805514D01*
X179480028Y-106567514D02*
X179044600Y-106567514D01*
X179262314Y-106567514D02*
X179262314Y-105805514D01*
X179189743Y-105914371D01*
X179117171Y-105986943D01*
X179044600Y-106023229D01*
X134583715Y-103795286D02*
X134511143Y-103759000D01*
X134438572Y-103686429D01*
X134329715Y-103577571D01*
X134257143Y-103541286D01*
X134184572Y-103541286D01*
X134220857Y-103722714D02*
X134148286Y-103686429D01*
X134075715Y-103613857D01*
X134039429Y-103468714D01*
X134039429Y-103214714D01*
X134075715Y-103069571D01*
X134148286Y-102997000D01*
X134220857Y-102960714D01*
X134366000Y-102960714D01*
X134438572Y-102997000D01*
X134511143Y-103069571D01*
X134547429Y-103214714D01*
X134547429Y-103468714D01*
X134511143Y-103613857D01*
X134438572Y-103686429D01*
X134366000Y-103722714D01*
X134220857Y-103722714D01*
X135200572Y-103214714D02*
X135200572Y-103722714D01*
X135019143Y-102924429D02*
X134837715Y-103468714D01*
X135309429Y-103468714D01*
X135744857Y-102960714D02*
X135817429Y-102960714D01*
X135890000Y-102997000D01*
X135926286Y-103033286D01*
X135962572Y-103105857D01*
X135998857Y-103251000D01*
X135998857Y-103432429D01*
X135962572Y-103577571D01*
X135926286Y-103650143D01*
X135890000Y-103686429D01*
X135817429Y-103722714D01*
X135744857Y-103722714D01*
X135672286Y-103686429D01*
X135636000Y-103650143D01*
X135599715Y-103577571D01*
X135563429Y-103432429D01*
X135563429Y-103251000D01*
X135599715Y-103105857D01*
X135636000Y-103033286D01*
X135672286Y-102997000D01*
X135744857Y-102960714D01*
X136724571Y-103722714D02*
X136289143Y-103722714D01*
X136506857Y-103722714D02*
X136506857Y-102960714D01*
X136434286Y-103069571D01*
X136361714Y-103142143D01*
X136289143Y-103178429D01*
X134583715Y-96556286D02*
X134511143Y-96520000D01*
X134438572Y-96447429D01*
X134329715Y-96338571D01*
X134257143Y-96302286D01*
X134184572Y-96302286D01*
X134220857Y-96483714D02*
X134148286Y-96447429D01*
X134075715Y-96374857D01*
X134039429Y-96229714D01*
X134039429Y-95975714D01*
X134075715Y-95830571D01*
X134148286Y-95758000D01*
X134220857Y-95721714D01*
X134366000Y-95721714D01*
X134438572Y-95758000D01*
X134511143Y-95830571D01*
X134547429Y-95975714D01*
X134547429Y-96229714D01*
X134511143Y-96374857D01*
X134438572Y-96447429D01*
X134366000Y-96483714D01*
X134220857Y-96483714D01*
X135200572Y-95975714D02*
X135200572Y-96483714D01*
X135019143Y-95685429D02*
X134837715Y-96229714D01*
X135309429Y-96229714D01*
X135744857Y-95721714D02*
X135817429Y-95721714D01*
X135890000Y-95758000D01*
X135926286Y-95794286D01*
X135962572Y-95866857D01*
X135998857Y-96012000D01*
X135998857Y-96193429D01*
X135962572Y-96338571D01*
X135926286Y-96411143D01*
X135890000Y-96447429D01*
X135817429Y-96483714D01*
X135744857Y-96483714D01*
X135672286Y-96447429D01*
X135636000Y-96411143D01*
X135599715Y-96338571D01*
X135563429Y-96193429D01*
X135563429Y-96012000D01*
X135599715Y-95866857D01*
X135636000Y-95794286D01*
X135672286Y-95758000D01*
X135744857Y-95721714D01*
X136289143Y-95794286D02*
X136325429Y-95758000D01*
X136398000Y-95721714D01*
X136579429Y-95721714D01*
X136652000Y-95758000D01*
X136688286Y-95794286D01*
X136724571Y-95866857D01*
X136724571Y-95939429D01*
X136688286Y-96048286D01*
X136252857Y-96483714D01*
X136724571Y-96483714D01*
X118215040Y-104070090D02*
X118142468Y-104033804D01*
X118069897Y-103961233D01*
X117961040Y-103852375D01*
X117888468Y-103816090D01*
X117815897Y-103816090D01*
X117852182Y-103997518D02*
X117779611Y-103961233D01*
X117707040Y-103888661D01*
X117670754Y-103743518D01*
X117670754Y-103489518D01*
X117707040Y-103344375D01*
X117779611Y-103271804D01*
X117852182Y-103235518D01*
X117997325Y-103235518D01*
X118069897Y-103271804D01*
X118142468Y-103344375D01*
X118178754Y-103489518D01*
X118178754Y-103743518D01*
X118142468Y-103888661D01*
X118069897Y-103961233D01*
X117997325Y-103997518D01*
X117852182Y-103997518D01*
X118831897Y-103489518D02*
X118831897Y-103997518D01*
X118650468Y-103199233D02*
X118469040Y-103743518D01*
X118940754Y-103743518D01*
X119376182Y-103235518D02*
X119448754Y-103235518D01*
X119521325Y-103271804D01*
X119557611Y-103308090D01*
X119593897Y-103380661D01*
X119630182Y-103525804D01*
X119630182Y-103707233D01*
X119593897Y-103852375D01*
X119557611Y-103924947D01*
X119521325Y-103961233D01*
X119448754Y-103997518D01*
X119376182Y-103997518D01*
X119303611Y-103961233D01*
X119267325Y-103924947D01*
X119231040Y-103852375D01*
X119194754Y-103707233D01*
X119194754Y-103525804D01*
X119231040Y-103380661D01*
X119267325Y-103308090D01*
X119303611Y-103271804D01*
X119376182Y-103235518D01*
X119884182Y-103235518D02*
X120355896Y-103235518D01*
X120101896Y-103525804D01*
X120210754Y-103525804D01*
X120283325Y-103562090D01*
X120319611Y-103598375D01*
X120355896Y-103670947D01*
X120355896Y-103852375D01*
X120319611Y-103924947D01*
X120283325Y-103961233D01*
X120210754Y-103997518D01*
X119993039Y-103997518D01*
X119920468Y-103961233D01*
X119884182Y-103924947D01*
X118215041Y-89251089D02*
X118142469Y-89214803D01*
X118069898Y-89142232D01*
X117961041Y-89033374D01*
X117888469Y-88997089D01*
X117815898Y-88997089D01*
X117852183Y-89178517D02*
X117779612Y-89142232D01*
X117707041Y-89069660D01*
X117670755Y-88924517D01*
X117670755Y-88670517D01*
X117707041Y-88525374D01*
X117779612Y-88452803D01*
X117852183Y-88416517D01*
X117997326Y-88416517D01*
X118069898Y-88452803D01*
X118142469Y-88525374D01*
X118178755Y-88670517D01*
X118178755Y-88924517D01*
X118142469Y-89069660D01*
X118069898Y-89142232D01*
X117997326Y-89178517D01*
X117852183Y-89178517D01*
X118831898Y-88670517D02*
X118831898Y-89178517D01*
X118650469Y-88380232D02*
X118469041Y-88924517D01*
X118940755Y-88924517D01*
X119376183Y-88416517D02*
X119448755Y-88416517D01*
X119521326Y-88452803D01*
X119557612Y-88489089D01*
X119593898Y-88561660D01*
X119630183Y-88706803D01*
X119630183Y-88888232D01*
X119593898Y-89033374D01*
X119557612Y-89105946D01*
X119521326Y-89142232D01*
X119448755Y-89178517D01*
X119376183Y-89178517D01*
X119303612Y-89142232D01*
X119267326Y-89105946D01*
X119231041Y-89033374D01*
X119194755Y-88888232D01*
X119194755Y-88706803D01*
X119231041Y-88561660D01*
X119267326Y-88489089D01*
X119303612Y-88452803D01*
X119376183Y-88416517D01*
X120283326Y-88670517D02*
X120283326Y-89178517D01*
X120101897Y-88380232D02*
X119920469Y-88924517D01*
X120392183Y-88924517D01*
X118215041Y-81758089D02*
X118142469Y-81721803D01*
X118069898Y-81649232D01*
X117961041Y-81540374D01*
X117888469Y-81504089D01*
X117815898Y-81504089D01*
X117852183Y-81685517D02*
X117779612Y-81649232D01*
X117707041Y-81576660D01*
X117670755Y-81431517D01*
X117670755Y-81177517D01*
X117707041Y-81032374D01*
X117779612Y-80959803D01*
X117852183Y-80923517D01*
X117997326Y-80923517D01*
X118069898Y-80959803D01*
X118142469Y-81032374D01*
X118178755Y-81177517D01*
X118178755Y-81431517D01*
X118142469Y-81576660D01*
X118069898Y-81649232D01*
X117997326Y-81685517D01*
X117852183Y-81685517D01*
X118831898Y-81177517D02*
X118831898Y-81685517D01*
X118650469Y-80887232D02*
X118469041Y-81431517D01*
X118940755Y-81431517D01*
X119376183Y-80923517D02*
X119448755Y-80923517D01*
X119521326Y-80959803D01*
X119557612Y-80996089D01*
X119593898Y-81068660D01*
X119630183Y-81213803D01*
X119630183Y-81395232D01*
X119593898Y-81540374D01*
X119557612Y-81612946D01*
X119521326Y-81649232D01*
X119448755Y-81685517D01*
X119376183Y-81685517D01*
X119303612Y-81649232D01*
X119267326Y-81612946D01*
X119231041Y-81540374D01*
X119194755Y-81395232D01*
X119194755Y-81213803D01*
X119231041Y-81068660D01*
X119267326Y-80996089D01*
X119303612Y-80959803D01*
X119376183Y-80923517D01*
X120319612Y-80923517D02*
X119956755Y-80923517D01*
X119920469Y-81286374D01*
X119956755Y-81250089D01*
X120029326Y-81213803D01*
X120210755Y-81213803D01*
X120283326Y-81250089D01*
X120319612Y-81286374D01*
X120355897Y-81358946D01*
X120355897Y-81540374D01*
X120319612Y-81612946D01*
X120283326Y-81649232D01*
X120210755Y-81685517D01*
X120029326Y-81685517D01*
X119956755Y-81649232D01*
X119920469Y-81612946D01*
X117961041Y-96617088D02*
X117888469Y-96580802D01*
X117815898Y-96508231D01*
X117707041Y-96399373D01*
X117634469Y-96363088D01*
X117561898Y-96363088D01*
X117598183Y-96544516D02*
X117525612Y-96508231D01*
X117453041Y-96435659D01*
X117416755Y-96290516D01*
X117416755Y-96036516D01*
X117453041Y-95891373D01*
X117525612Y-95818802D01*
X117598183Y-95782516D01*
X117743326Y-95782516D01*
X117815898Y-95818802D01*
X117888469Y-95891373D01*
X117924755Y-96036516D01*
X117924755Y-96290516D01*
X117888469Y-96435659D01*
X117815898Y-96508231D01*
X117743326Y-96544516D01*
X117598183Y-96544516D01*
X118577898Y-96036516D02*
X118577898Y-96544516D01*
X118396469Y-95746231D02*
X118215041Y-96290516D01*
X118686755Y-96290516D01*
X119122183Y-95782516D02*
X119194755Y-95782516D01*
X119267326Y-95818802D01*
X119303612Y-95855088D01*
X119339898Y-95927659D01*
X119376183Y-96072802D01*
X119376183Y-96254231D01*
X119339898Y-96399373D01*
X119303612Y-96471945D01*
X119267326Y-96508231D01*
X119194755Y-96544516D01*
X119122183Y-96544516D01*
X119049612Y-96508231D01*
X119013326Y-96471945D01*
X118977041Y-96399373D01*
X118940755Y-96254231D01*
X118940755Y-96072802D01*
X118977041Y-95927659D01*
X119013326Y-95855088D01*
X119049612Y-95818802D01*
X119122183Y-95782516D01*
X120029326Y-95782516D02*
X119884183Y-95782516D01*
X119811612Y-95818802D01*
X119775326Y-95855088D01*
X119702755Y-95963945D01*
X119666469Y-96109088D01*
X119666469Y-96399373D01*
X119702755Y-96471945D01*
X119739040Y-96508231D01*
X119811612Y-96544516D01*
X119956755Y-96544516D01*
X120029326Y-96508231D01*
X120065612Y-96471945D01*
X120101897Y-96399373D01*
X120101897Y-96217945D01*
X120065612Y-96145373D01*
X120029326Y-96109088D01*
X119956755Y-96072802D01*
X119811612Y-96072802D01*
X119739040Y-96109088D01*
X119702755Y-96145373D01*
X119666469Y-96217945D01*
X134583715Y-89190286D02*
X134511143Y-89154000D01*
X134438572Y-89081429D01*
X134329715Y-88972571D01*
X134257143Y-88936286D01*
X134184572Y-88936286D01*
X134220857Y-89117714D02*
X134148286Y-89081429D01*
X134075715Y-89008857D01*
X134039429Y-88863714D01*
X134039429Y-88609714D01*
X134075715Y-88464571D01*
X134148286Y-88392000D01*
X134220857Y-88355714D01*
X134366000Y-88355714D01*
X134438572Y-88392000D01*
X134511143Y-88464571D01*
X134547429Y-88609714D01*
X134547429Y-88863714D01*
X134511143Y-89008857D01*
X134438572Y-89081429D01*
X134366000Y-89117714D01*
X134220857Y-89117714D01*
X135200572Y-88609714D02*
X135200572Y-89117714D01*
X135019143Y-88319429D02*
X134837715Y-88863714D01*
X135309429Y-88863714D01*
X135744857Y-88355714D02*
X135817429Y-88355714D01*
X135890000Y-88392000D01*
X135926286Y-88428286D01*
X135962572Y-88500857D01*
X135998857Y-88646000D01*
X135998857Y-88827429D01*
X135962572Y-88972571D01*
X135926286Y-89045143D01*
X135890000Y-89081429D01*
X135817429Y-89117714D01*
X135744857Y-89117714D01*
X135672286Y-89081429D01*
X135636000Y-89045143D01*
X135599715Y-88972571D01*
X135563429Y-88827429D01*
X135563429Y-88646000D01*
X135599715Y-88500857D01*
X135636000Y-88428286D01*
X135672286Y-88392000D01*
X135744857Y-88355714D01*
X136252857Y-88355714D02*
X136760857Y-88355714D01*
X136434286Y-89117714D01*
X134705715Y-81924286D02*
X134633143Y-81888000D01*
X134560572Y-81815429D01*
X134451715Y-81706571D01*
X134379143Y-81670286D01*
X134306572Y-81670286D01*
X134342857Y-81851714D02*
X134270286Y-81815429D01*
X134197715Y-81742857D01*
X134161429Y-81597714D01*
X134161429Y-81343714D01*
X134197715Y-81198571D01*
X134270286Y-81126000D01*
X134342857Y-81089714D01*
X134488000Y-81089714D01*
X134560572Y-81126000D01*
X134633143Y-81198571D01*
X134669429Y-81343714D01*
X134669429Y-81597714D01*
X134633143Y-81742857D01*
X134560572Y-81815429D01*
X134488000Y-81851714D01*
X134342857Y-81851714D01*
X135322572Y-81343714D02*
X135322572Y-81851714D01*
X135141143Y-81053429D02*
X134959715Y-81597714D01*
X135431429Y-81597714D01*
X135866857Y-81089714D02*
X135939429Y-81089714D01*
X136012000Y-81126000D01*
X136048286Y-81162286D01*
X136084572Y-81234857D01*
X136120857Y-81380000D01*
X136120857Y-81561429D01*
X136084572Y-81706571D01*
X136048286Y-81779143D01*
X136012000Y-81815429D01*
X135939429Y-81851714D01*
X135866857Y-81851714D01*
X135794286Y-81815429D01*
X135758000Y-81779143D01*
X135721715Y-81706571D01*
X135685429Y-81561429D01*
X135685429Y-81380000D01*
X135721715Y-81234857D01*
X135758000Y-81162286D01*
X135794286Y-81126000D01*
X135866857Y-81089714D01*
X136556286Y-81416286D02*
X136483714Y-81380000D01*
X136447429Y-81343714D01*
X136411143Y-81271143D01*
X136411143Y-81234857D01*
X136447429Y-81162286D01*
X136483714Y-81126000D01*
X136556286Y-81089714D01*
X136701429Y-81089714D01*
X136774000Y-81126000D01*
X136810286Y-81162286D01*
X136846571Y-81234857D01*
X136846571Y-81271143D01*
X136810286Y-81343714D01*
X136774000Y-81380000D01*
X136701429Y-81416286D01*
X136556286Y-81416286D01*
X136483714Y-81452571D01*
X136447429Y-81488857D01*
X136411143Y-81561429D01*
X136411143Y-81706571D01*
X136447429Y-81779143D01*
X136483714Y-81815429D01*
X136556286Y-81851714D01*
X136701429Y-81851714D01*
X136774000Y-81815429D01*
X136810286Y-81779143D01*
X136846571Y-81706571D01*
X136846571Y-81561429D01*
X136810286Y-81488857D01*
X136774000Y-81452571D01*
X136701429Y-81416286D01*
X144896114Y-85612514D02*
X144533257Y-85866514D01*
X144896114Y-86047942D02*
X144134114Y-86047942D01*
X144134114Y-85757657D01*
X144170400Y-85685085D01*
X144206686Y-85648800D01*
X144279257Y-85612514D01*
X144388114Y-85612514D01*
X144460686Y-85648800D01*
X144496971Y-85685085D01*
X144533257Y-85757657D01*
X144533257Y-86047942D01*
X144206686Y-85322228D02*
X144170400Y-85285942D01*
X144134114Y-85213371D01*
X144134114Y-85031942D01*
X144170400Y-84959371D01*
X144206686Y-84923085D01*
X144279257Y-84886800D01*
X144351829Y-84886800D01*
X144460686Y-84923085D01*
X144896114Y-85358514D01*
X144896114Y-84886800D01*
X144134114Y-84415086D02*
X144134114Y-84342514D01*
X144170400Y-84269943D01*
X144206686Y-84233657D01*
X144279257Y-84197371D01*
X144424400Y-84161086D01*
X144605829Y-84161086D01*
X144750971Y-84197371D01*
X144823543Y-84233657D01*
X144859829Y-84269943D01*
X144896114Y-84342514D01*
X144896114Y-84415086D01*
X144859829Y-84487657D01*
X144823543Y-84523943D01*
X144750971Y-84560228D01*
X144605829Y-84596514D01*
X144424400Y-84596514D01*
X144279257Y-84560228D01*
X144206686Y-84523943D01*
X144170400Y-84487657D01*
X144134114Y-84415086D01*
X144896114Y-83435372D02*
X144896114Y-83870800D01*
X144896114Y-83653086D02*
X144134114Y-83653086D01*
X144242971Y-83725657D01*
X144315543Y-83798229D01*
X144351829Y-83870800D01*
X130646714Y-101944714D02*
X130283857Y-102198714D01*
X130646714Y-102380142D02*
X129884714Y-102380142D01*
X129884714Y-102089857D01*
X129921000Y-102017285D01*
X129957286Y-101981000D01*
X130029857Y-101944714D01*
X130138714Y-101944714D01*
X130211286Y-101981000D01*
X130247571Y-102017285D01*
X130283857Y-102089857D01*
X130283857Y-102380142D01*
X130138714Y-101291571D02*
X130646714Y-101291571D01*
X129848429Y-101473000D02*
X130392714Y-101654428D01*
X130392714Y-101182714D01*
X129884714Y-100747286D02*
X129884714Y-100674714D01*
X129921000Y-100602143D01*
X129957286Y-100565857D01*
X130029857Y-100529571D01*
X130175000Y-100493286D01*
X130356429Y-100493286D01*
X130501571Y-100529571D01*
X130574143Y-100565857D01*
X130610429Y-100602143D01*
X130646714Y-100674714D01*
X130646714Y-100747286D01*
X130610429Y-100819857D01*
X130574143Y-100856143D01*
X130501571Y-100892428D01*
X130356429Y-100928714D01*
X130175000Y-100928714D01*
X130029857Y-100892428D01*
X129957286Y-100856143D01*
X129921000Y-100819857D01*
X129884714Y-100747286D01*
X130646714Y-99767572D02*
X130646714Y-100203000D01*
X130646714Y-99985286D02*
X129884714Y-99985286D01*
X129993571Y-100057857D01*
X130066143Y-100130429D01*
X130102429Y-100203000D01*
X141060714Y-101817714D02*
X140697857Y-102071714D01*
X141060714Y-102253142D02*
X140298714Y-102253142D01*
X140298714Y-101962857D01*
X140335000Y-101890285D01*
X140371286Y-101854000D01*
X140443857Y-101817714D01*
X140552714Y-101817714D01*
X140625286Y-101854000D01*
X140661571Y-101890285D01*
X140697857Y-101962857D01*
X140697857Y-102253142D01*
X140552714Y-101164571D02*
X141060714Y-101164571D01*
X140262429Y-101346000D02*
X140806714Y-101527428D01*
X140806714Y-101055714D01*
X140298714Y-100620286D02*
X140298714Y-100547714D01*
X140335000Y-100475143D01*
X140371286Y-100438857D01*
X140443857Y-100402571D01*
X140589000Y-100366286D01*
X140770429Y-100366286D01*
X140915571Y-100402571D01*
X140988143Y-100438857D01*
X141024429Y-100475143D01*
X141060714Y-100547714D01*
X141060714Y-100620286D01*
X141024429Y-100692857D01*
X140988143Y-100729143D01*
X140915571Y-100765428D01*
X140770429Y-100801714D01*
X140589000Y-100801714D01*
X140443857Y-100765428D01*
X140371286Y-100729143D01*
X140335000Y-100692857D01*
X140298714Y-100620286D01*
X140371286Y-100076000D02*
X140335000Y-100039714D01*
X140298714Y-99967143D01*
X140298714Y-99785714D01*
X140335000Y-99713143D01*
X140371286Y-99676857D01*
X140443857Y-99640572D01*
X140516429Y-99640572D01*
X140625286Y-99676857D01*
X141060714Y-100112286D01*
X141060714Y-99640572D01*
X130646714Y-94578714D02*
X130283857Y-94832714D01*
X130646714Y-95014142D02*
X129884714Y-95014142D01*
X129884714Y-94723857D01*
X129921000Y-94651285D01*
X129957286Y-94615000D01*
X130029857Y-94578714D01*
X130138714Y-94578714D01*
X130211286Y-94615000D01*
X130247571Y-94651285D01*
X130283857Y-94723857D01*
X130283857Y-95014142D01*
X130138714Y-93925571D02*
X130646714Y-93925571D01*
X129848429Y-94107000D02*
X130392714Y-94288428D01*
X130392714Y-93816714D01*
X129884714Y-93381286D02*
X129884714Y-93308714D01*
X129921000Y-93236143D01*
X129957286Y-93199857D01*
X130029857Y-93163571D01*
X130175000Y-93127286D01*
X130356429Y-93127286D01*
X130501571Y-93163571D01*
X130574143Y-93199857D01*
X130610429Y-93236143D01*
X130646714Y-93308714D01*
X130646714Y-93381286D01*
X130610429Y-93453857D01*
X130574143Y-93490143D01*
X130501571Y-93526428D01*
X130356429Y-93562714D01*
X130175000Y-93562714D01*
X130029857Y-93526428D01*
X129957286Y-93490143D01*
X129921000Y-93453857D01*
X129884714Y-93381286D01*
X129884714Y-92873286D02*
X129884714Y-92401572D01*
X130175000Y-92655572D01*
X130175000Y-92546714D01*
X130211286Y-92474143D01*
X130247571Y-92437857D01*
X130320143Y-92401572D01*
X130501571Y-92401572D01*
X130574143Y-92437857D01*
X130610429Y-92474143D01*
X130646714Y-92546714D01*
X130646714Y-92764429D01*
X130610429Y-92837000D01*
X130574143Y-92873286D01*
X140933714Y-94451714D02*
X140570857Y-94705714D01*
X140933714Y-94887142D02*
X140171714Y-94887142D01*
X140171714Y-94596857D01*
X140208000Y-94524285D01*
X140244286Y-94488000D01*
X140316857Y-94451714D01*
X140425714Y-94451714D01*
X140498286Y-94488000D01*
X140534571Y-94524285D01*
X140570857Y-94596857D01*
X140570857Y-94887142D01*
X140425714Y-93798571D02*
X140933714Y-93798571D01*
X140135429Y-93980000D02*
X140679714Y-94161428D01*
X140679714Y-93689714D01*
X140171714Y-93254286D02*
X140171714Y-93181714D01*
X140208000Y-93109143D01*
X140244286Y-93072857D01*
X140316857Y-93036571D01*
X140462000Y-93000286D01*
X140643429Y-93000286D01*
X140788571Y-93036571D01*
X140861143Y-93072857D01*
X140897429Y-93109143D01*
X140933714Y-93181714D01*
X140933714Y-93254286D01*
X140897429Y-93326857D01*
X140861143Y-93363143D01*
X140788571Y-93399428D01*
X140643429Y-93435714D01*
X140462000Y-93435714D01*
X140316857Y-93399428D01*
X140244286Y-93363143D01*
X140208000Y-93326857D01*
X140171714Y-93254286D01*
X140425714Y-92347143D02*
X140933714Y-92347143D01*
X140135429Y-92528572D02*
X140679714Y-92710000D01*
X140679714Y-92238286D01*
X124506040Y-102288516D02*
X124143183Y-102542516D01*
X124506040Y-102723944D02*
X123744040Y-102723944D01*
X123744040Y-102433659D01*
X123780326Y-102361087D01*
X123816612Y-102324802D01*
X123889183Y-102288516D01*
X123998040Y-102288516D01*
X124070612Y-102324802D01*
X124106897Y-102361087D01*
X124143183Y-102433659D01*
X124143183Y-102723944D01*
X123998040Y-101635373D02*
X124506040Y-101635373D01*
X123707755Y-101816802D02*
X124252040Y-101998230D01*
X124252040Y-101526516D01*
X123744040Y-101091088D02*
X123744040Y-101018516D01*
X123780326Y-100945945D01*
X123816612Y-100909659D01*
X123889183Y-100873373D01*
X124034326Y-100837088D01*
X124215755Y-100837088D01*
X124360897Y-100873373D01*
X124433469Y-100909659D01*
X124469755Y-100945945D01*
X124506040Y-101018516D01*
X124506040Y-101091088D01*
X124469755Y-101163659D01*
X124433469Y-101199945D01*
X124360897Y-101236230D01*
X124215755Y-101272516D01*
X124034326Y-101272516D01*
X123889183Y-101236230D01*
X123816612Y-101199945D01*
X123780326Y-101163659D01*
X123744040Y-101091088D01*
X123744040Y-100147659D02*
X123744040Y-100510516D01*
X124106897Y-100546802D01*
X124070612Y-100510516D01*
X124034326Y-100437945D01*
X124034326Y-100256516D01*
X124070612Y-100183945D01*
X124106897Y-100147659D01*
X124179469Y-100111374D01*
X124360897Y-100111374D01*
X124433469Y-100147659D01*
X124469755Y-100183945D01*
X124506040Y-100256516D01*
X124506040Y-100437945D01*
X124469755Y-100510516D01*
X124433469Y-100546802D01*
X113108039Y-102034516D02*
X112745182Y-102288516D01*
X113108039Y-102469944D02*
X112346039Y-102469944D01*
X112346039Y-102179659D01*
X112382325Y-102107087D01*
X112418611Y-102070802D01*
X112491182Y-102034516D01*
X112600039Y-102034516D01*
X112672611Y-102070802D01*
X112708896Y-102107087D01*
X112745182Y-102179659D01*
X112745182Y-102469944D01*
X112600039Y-101381373D02*
X113108039Y-101381373D01*
X112309754Y-101562802D02*
X112854039Y-101744230D01*
X112854039Y-101272516D01*
X112346039Y-100837088D02*
X112346039Y-100764516D01*
X112382325Y-100691945D01*
X112418611Y-100655659D01*
X112491182Y-100619373D01*
X112636325Y-100583088D01*
X112817754Y-100583088D01*
X112962896Y-100619373D01*
X113035468Y-100655659D01*
X113071754Y-100691945D01*
X113108039Y-100764516D01*
X113108039Y-100837088D01*
X113071754Y-100909659D01*
X113035468Y-100945945D01*
X112962896Y-100982230D01*
X112817754Y-101018516D01*
X112636325Y-101018516D01*
X112491182Y-100982230D01*
X112418611Y-100945945D01*
X112382325Y-100909659D01*
X112346039Y-100837088D01*
X112346039Y-99929945D02*
X112346039Y-100075088D01*
X112382325Y-100147659D01*
X112418611Y-100183945D01*
X112527468Y-100256516D01*
X112672611Y-100292802D01*
X112962896Y-100292802D01*
X113035468Y-100256516D01*
X113071754Y-100220231D01*
X113108039Y-100147659D01*
X113108039Y-100002516D01*
X113071754Y-99929945D01*
X113035468Y-99893659D01*
X112962896Y-99857374D01*
X112781468Y-99857374D01*
X112708896Y-99893659D01*
X112672611Y-99929945D01*
X112636325Y-100002516D01*
X112636325Y-100147659D01*
X112672611Y-100220231D01*
X112708896Y-100256516D01*
X112781468Y-100292802D01*
X124506040Y-87556518D02*
X124143183Y-87810518D01*
X124506040Y-87991946D02*
X123744040Y-87991946D01*
X123744040Y-87701661D01*
X123780326Y-87629089D01*
X123816612Y-87592804D01*
X123889183Y-87556518D01*
X123998040Y-87556518D01*
X124070612Y-87592804D01*
X124106897Y-87629089D01*
X124143183Y-87701661D01*
X124143183Y-87991946D01*
X123998040Y-86903375D02*
X124506040Y-86903375D01*
X123707755Y-87084804D02*
X124252040Y-87266232D01*
X124252040Y-86794518D01*
X123744040Y-86359090D02*
X123744040Y-86286518D01*
X123780326Y-86213947D01*
X123816612Y-86177661D01*
X123889183Y-86141375D01*
X124034326Y-86105090D01*
X124215755Y-86105090D01*
X124360897Y-86141375D01*
X124433469Y-86177661D01*
X124469755Y-86213947D01*
X124506040Y-86286518D01*
X124506040Y-86359090D01*
X124469755Y-86431661D01*
X124433469Y-86467947D01*
X124360897Y-86504232D01*
X124215755Y-86540518D01*
X124034326Y-86540518D01*
X123889183Y-86504232D01*
X123816612Y-86467947D01*
X123780326Y-86431661D01*
X123744040Y-86359090D01*
X123744040Y-85851090D02*
X123744040Y-85343090D01*
X124506040Y-85669661D01*
X113330039Y-87302517D02*
X112967182Y-87556517D01*
X113330039Y-87737945D02*
X112568039Y-87737945D01*
X112568039Y-87447660D01*
X112604325Y-87375088D01*
X112640611Y-87338803D01*
X112713182Y-87302517D01*
X112822039Y-87302517D01*
X112894611Y-87338803D01*
X112930896Y-87375088D01*
X112967182Y-87447660D01*
X112967182Y-87737945D01*
X112822039Y-86649374D02*
X113330039Y-86649374D01*
X112531754Y-86830803D02*
X113076039Y-87012231D01*
X113076039Y-86540517D01*
X112568039Y-86105089D02*
X112568039Y-86032517D01*
X112604325Y-85959946D01*
X112640611Y-85923660D01*
X112713182Y-85887374D01*
X112858325Y-85851089D01*
X113039754Y-85851089D01*
X113184896Y-85887374D01*
X113257468Y-85923660D01*
X113293754Y-85959946D01*
X113330039Y-86032517D01*
X113330039Y-86105089D01*
X113293754Y-86177660D01*
X113257468Y-86213946D01*
X113184896Y-86250231D01*
X113039754Y-86286517D01*
X112858325Y-86286517D01*
X112713182Y-86250231D01*
X112640611Y-86213946D01*
X112604325Y-86177660D01*
X112568039Y-86105089D01*
X112894611Y-85415660D02*
X112858325Y-85488232D01*
X112822039Y-85524517D01*
X112749468Y-85560803D01*
X112713182Y-85560803D01*
X112640611Y-85524517D01*
X112604325Y-85488232D01*
X112568039Y-85415660D01*
X112568039Y-85270517D01*
X112604325Y-85197946D01*
X112640611Y-85161660D01*
X112713182Y-85125375D01*
X112749468Y-85125375D01*
X112822039Y-85161660D01*
X112858325Y-85197946D01*
X112894611Y-85270517D01*
X112894611Y-85415660D01*
X112930896Y-85488232D01*
X112967182Y-85524517D01*
X113039754Y-85560803D01*
X113184896Y-85560803D01*
X113257468Y-85524517D01*
X113293754Y-85488232D01*
X113330039Y-85415660D01*
X113330039Y-85270517D01*
X113293754Y-85197946D01*
X113257468Y-85161660D01*
X113184896Y-85125375D01*
X113039754Y-85125375D01*
X112967182Y-85161660D01*
X112930896Y-85197946D01*
X112894611Y-85270517D01*
X124506040Y-80190516D02*
X124143183Y-80444516D01*
X124506040Y-80625944D02*
X123744040Y-80625944D01*
X123744040Y-80335659D01*
X123780326Y-80263087D01*
X123816612Y-80226802D01*
X123889183Y-80190516D01*
X123998040Y-80190516D01*
X124070612Y-80226802D01*
X124106897Y-80263087D01*
X124143183Y-80335659D01*
X124143183Y-80625944D01*
X123998040Y-79537373D02*
X124506040Y-79537373D01*
X123707755Y-79718802D02*
X124252040Y-79900230D01*
X124252040Y-79428516D01*
X123744040Y-78993088D02*
X123744040Y-78920516D01*
X123780326Y-78847945D01*
X123816612Y-78811659D01*
X123889183Y-78775373D01*
X124034326Y-78739088D01*
X124215755Y-78739088D01*
X124360897Y-78775373D01*
X124433469Y-78811659D01*
X124469755Y-78847945D01*
X124506040Y-78920516D01*
X124506040Y-78993088D01*
X124469755Y-79065659D01*
X124433469Y-79101945D01*
X124360897Y-79138230D01*
X124215755Y-79174516D01*
X124034326Y-79174516D01*
X123889183Y-79138230D01*
X123816612Y-79101945D01*
X123780326Y-79065659D01*
X123744040Y-78993088D01*
X124506040Y-78376231D02*
X124506040Y-78231088D01*
X124469755Y-78158516D01*
X124433469Y-78122231D01*
X124324612Y-78049659D01*
X124179469Y-78013374D01*
X123889183Y-78013374D01*
X123816612Y-78049659D01*
X123780326Y-78085945D01*
X123744040Y-78158516D01*
X123744040Y-78303659D01*
X123780326Y-78376231D01*
X123816612Y-78412516D01*
X123889183Y-78448802D01*
X124070612Y-78448802D01*
X124143183Y-78412516D01*
X124179469Y-78376231D01*
X124215755Y-78303659D01*
X124215755Y-78158516D01*
X124179469Y-78085945D01*
X124143183Y-78049659D01*
X124070612Y-78013374D01*
X113108039Y-79682516D02*
X112745182Y-79936516D01*
X113108039Y-80117944D02*
X112346039Y-80117944D01*
X112346039Y-79827659D01*
X112382325Y-79755087D01*
X112418611Y-79718802D01*
X112491182Y-79682516D01*
X112600039Y-79682516D01*
X112672611Y-79718802D01*
X112708896Y-79755087D01*
X112745182Y-79827659D01*
X112745182Y-80117944D01*
X112600039Y-79029373D02*
X113108039Y-79029373D01*
X112309754Y-79210802D02*
X112854039Y-79392230D01*
X112854039Y-78920516D01*
X113108039Y-78231088D02*
X113108039Y-78666516D01*
X113108039Y-78448802D02*
X112346039Y-78448802D01*
X112454896Y-78521373D01*
X112527468Y-78593945D01*
X112563754Y-78666516D01*
X112346039Y-77759374D02*
X112346039Y-77686802D01*
X112382325Y-77614231D01*
X112418611Y-77577945D01*
X112491182Y-77541659D01*
X112636325Y-77505374D01*
X112817754Y-77505374D01*
X112962896Y-77541659D01*
X113035468Y-77577945D01*
X113071754Y-77614231D01*
X113108039Y-77686802D01*
X113108039Y-77759374D01*
X113071754Y-77831945D01*
X113035468Y-77868231D01*
X112962896Y-77904516D01*
X112817754Y-77940802D01*
X112636325Y-77940802D01*
X112491182Y-77904516D01*
X112418611Y-77868231D01*
X112382325Y-77831945D01*
X112346039Y-77759374D01*
X124506039Y-94668516D02*
X124143182Y-94922516D01*
X124506039Y-95103944D02*
X123744039Y-95103944D01*
X123744039Y-94813659D01*
X123780325Y-94741087D01*
X123816611Y-94704802D01*
X123889182Y-94668516D01*
X123998039Y-94668516D01*
X124070611Y-94704802D01*
X124106896Y-94741087D01*
X124143182Y-94813659D01*
X124143182Y-95103944D01*
X123998039Y-94015373D02*
X124506039Y-94015373D01*
X123707754Y-94196802D02*
X124252039Y-94378230D01*
X124252039Y-93906516D01*
X124506039Y-93217088D02*
X124506039Y-93652516D01*
X124506039Y-93434802D02*
X123744039Y-93434802D01*
X123852896Y-93507373D01*
X123925468Y-93579945D01*
X123961754Y-93652516D01*
X124506039Y-92491374D02*
X124506039Y-92926802D01*
X124506039Y-92709088D02*
X123744039Y-92709088D01*
X123852896Y-92781659D01*
X123925468Y-92854231D01*
X123961754Y-92926802D01*
X113108040Y-94922516D02*
X112745183Y-95176516D01*
X113108040Y-95357944D02*
X112346040Y-95357944D01*
X112346040Y-95067659D01*
X112382326Y-94995087D01*
X112418612Y-94958802D01*
X112491183Y-94922516D01*
X112600040Y-94922516D01*
X112672612Y-94958802D01*
X112708897Y-94995087D01*
X112745183Y-95067659D01*
X112745183Y-95357944D01*
X112600040Y-94269373D02*
X113108040Y-94269373D01*
X112309755Y-94450802D02*
X112854040Y-94632230D01*
X112854040Y-94160516D01*
X113108040Y-93471088D02*
X113108040Y-93906516D01*
X113108040Y-93688802D02*
X112346040Y-93688802D01*
X112454897Y-93761373D01*
X112527469Y-93833945D01*
X112563755Y-93906516D01*
X112418612Y-93180802D02*
X112382326Y-93144516D01*
X112346040Y-93071945D01*
X112346040Y-92890516D01*
X112382326Y-92817945D01*
X112418612Y-92781659D01*
X112491183Y-92745374D01*
X112563755Y-92745374D01*
X112672612Y-92781659D01*
X113108040Y-93217088D01*
X113108040Y-92745374D01*
X130646714Y-87212714D02*
X130283857Y-87466714D01*
X130646714Y-87648142D02*
X129884714Y-87648142D01*
X129884714Y-87357857D01*
X129921000Y-87285285D01*
X129957286Y-87249000D01*
X130029857Y-87212714D01*
X130138714Y-87212714D01*
X130211286Y-87249000D01*
X130247571Y-87285285D01*
X130283857Y-87357857D01*
X130283857Y-87648142D01*
X130138714Y-86559571D02*
X130646714Y-86559571D01*
X129848429Y-86741000D02*
X130392714Y-86922428D01*
X130392714Y-86450714D01*
X130646714Y-85761286D02*
X130646714Y-86196714D01*
X130646714Y-85979000D02*
X129884714Y-85979000D01*
X129993571Y-86051571D01*
X130066143Y-86124143D01*
X130102429Y-86196714D01*
X129884714Y-85507286D02*
X129884714Y-85035572D01*
X130175000Y-85289572D01*
X130175000Y-85180714D01*
X130211286Y-85108143D01*
X130247571Y-85071857D01*
X130320143Y-85035572D01*
X130501571Y-85035572D01*
X130574143Y-85071857D01*
X130610429Y-85108143D01*
X130646714Y-85180714D01*
X130646714Y-85398429D01*
X130610429Y-85471000D01*
X130574143Y-85507286D01*
X141060714Y-87212714D02*
X140697857Y-87466714D01*
X141060714Y-87648142D02*
X140298714Y-87648142D01*
X140298714Y-87357857D01*
X140335000Y-87285285D01*
X140371286Y-87249000D01*
X140443857Y-87212714D01*
X140552714Y-87212714D01*
X140625286Y-87249000D01*
X140661571Y-87285285D01*
X140697857Y-87357857D01*
X140697857Y-87648142D01*
X140552714Y-86559571D02*
X141060714Y-86559571D01*
X140262429Y-86741000D02*
X140806714Y-86922428D01*
X140806714Y-86450714D01*
X141060714Y-85761286D02*
X141060714Y-86196714D01*
X141060714Y-85979000D02*
X140298714Y-85979000D01*
X140407571Y-86051571D01*
X140480143Y-86124143D01*
X140516429Y-86196714D01*
X140552714Y-85108143D02*
X141060714Y-85108143D01*
X140262429Y-85289572D02*
X140806714Y-85471000D01*
X140806714Y-84999286D01*
X130646714Y-79846714D02*
X130283857Y-80100714D01*
X130646714Y-80282142D02*
X129884714Y-80282142D01*
X129884714Y-79991857D01*
X129921000Y-79919285D01*
X129957286Y-79883000D01*
X130029857Y-79846714D01*
X130138714Y-79846714D01*
X130211286Y-79883000D01*
X130247571Y-79919285D01*
X130283857Y-79991857D01*
X130283857Y-80282142D01*
X130138714Y-79193571D02*
X130646714Y-79193571D01*
X129848429Y-79375000D02*
X130392714Y-79556428D01*
X130392714Y-79084714D01*
X130646714Y-78395286D02*
X130646714Y-78830714D01*
X130646714Y-78613000D02*
X129884714Y-78613000D01*
X129993571Y-78685571D01*
X130066143Y-78758143D01*
X130102429Y-78830714D01*
X129884714Y-77705857D02*
X129884714Y-78068714D01*
X130247571Y-78105000D01*
X130211286Y-78068714D01*
X130175000Y-77996143D01*
X130175000Y-77814714D01*
X130211286Y-77742143D01*
X130247571Y-77705857D01*
X130320143Y-77669572D01*
X130501571Y-77669572D01*
X130574143Y-77705857D01*
X130610429Y-77742143D01*
X130646714Y-77814714D01*
X130646714Y-77996143D01*
X130610429Y-78068714D01*
X130574143Y-78105000D01*
X140933714Y-79465714D02*
X140570857Y-79719714D01*
X140933714Y-79901142D02*
X140171714Y-79901142D01*
X140171714Y-79610857D01*
X140208000Y-79538285D01*
X140244286Y-79502000D01*
X140316857Y-79465714D01*
X140425714Y-79465714D01*
X140498286Y-79502000D01*
X140534571Y-79538285D01*
X140570857Y-79610857D01*
X140570857Y-79901142D01*
X140425714Y-78812571D02*
X140933714Y-78812571D01*
X140135429Y-78994000D02*
X140679714Y-79175428D01*
X140679714Y-78703714D01*
X140933714Y-78014286D02*
X140933714Y-78449714D01*
X140933714Y-78232000D02*
X140171714Y-78232000D01*
X140280571Y-78304571D01*
X140353143Y-78377143D01*
X140389429Y-78449714D01*
X140171714Y-77361143D02*
X140171714Y-77506286D01*
X140208000Y-77578857D01*
X140244286Y-77615143D01*
X140353143Y-77687714D01*
X140498286Y-77724000D01*
X140788571Y-77724000D01*
X140861143Y-77687714D01*
X140897429Y-77651429D01*
X140933714Y-77578857D01*
X140933714Y-77433714D01*
X140897429Y-77361143D01*
X140861143Y-77324857D01*
X140788571Y-77288572D01*
X140607143Y-77288572D01*
X140534571Y-77324857D01*
X140498286Y-77361143D01*
X140462000Y-77433714D01*
X140462000Y-77578857D01*
X140498286Y-77651429D01*
X140534571Y-77687714D01*
X140607143Y-77724000D01*
X176823914Y-77662314D02*
X176461057Y-77916314D01*
X176823914Y-78097742D02*
X176061914Y-78097742D01*
X176061914Y-77807457D01*
X176098200Y-77734885D01*
X176134486Y-77698600D01*
X176207057Y-77662314D01*
X176315914Y-77662314D01*
X176388486Y-77698600D01*
X176424771Y-77734885D01*
X176461057Y-77807457D01*
X176461057Y-78097742D01*
X176061914Y-76972885D02*
X176061914Y-77335742D01*
X176424771Y-77372028D01*
X176388486Y-77335742D01*
X176352200Y-77263171D01*
X176352200Y-77081742D01*
X176388486Y-77009171D01*
X176424771Y-76972885D01*
X176497343Y-76936600D01*
X176678771Y-76936600D01*
X176751343Y-76972885D01*
X176787629Y-77009171D01*
X176823914Y-77081742D01*
X176823914Y-77263171D01*
X176787629Y-77335742D01*
X176751343Y-77372028D01*
X176061914Y-76464886D02*
X176061914Y-76392314D01*
X176098200Y-76319743D01*
X176134486Y-76283457D01*
X176207057Y-76247171D01*
X176352200Y-76210886D01*
X176533629Y-76210886D01*
X176678771Y-76247171D01*
X176751343Y-76283457D01*
X176787629Y-76319743D01*
X176823914Y-76392314D01*
X176823914Y-76464886D01*
X176787629Y-76537457D01*
X176751343Y-76573743D01*
X176678771Y-76610028D01*
X176533629Y-76646314D01*
X176352200Y-76646314D01*
X176207057Y-76610028D01*
X176134486Y-76573743D01*
X176098200Y-76537457D01*
X176061914Y-76464886D01*
X176823914Y-75485172D02*
X176823914Y-75920600D01*
X176823914Y-75702886D02*
X176061914Y-75702886D01*
X176170771Y-75775457D01*
X176243343Y-75848029D01*
X176279629Y-75920600D01*
X194314087Y-98336829D02*
X194422944Y-98373114D01*
X194604373Y-98373114D01*
X194676944Y-98336829D01*
X194713230Y-98300543D01*
X194749515Y-98227971D01*
X194749515Y-98155400D01*
X194713230Y-98082829D01*
X194676944Y-98046543D01*
X194604373Y-98010257D01*
X194459230Y-97973971D01*
X194386658Y-97937686D01*
X194350373Y-97901400D01*
X194314087Y-97828829D01*
X194314087Y-97756257D01*
X194350373Y-97683686D01*
X194386658Y-97647400D01*
X194459230Y-97611114D01*
X194640658Y-97611114D01*
X194749515Y-97647400D01*
X195003515Y-97611114D02*
X195184944Y-98373114D01*
X195330087Y-97828829D01*
X195475229Y-98373114D01*
X195656658Y-97611114D01*
X196309801Y-97611114D02*
X195946944Y-97611114D01*
X195910658Y-97973971D01*
X195946944Y-97937686D01*
X196019515Y-97901400D01*
X196200944Y-97901400D01*
X196273515Y-97937686D01*
X196309801Y-97973971D01*
X196346086Y-98046543D01*
X196346086Y-98227971D01*
X196309801Y-98300543D01*
X196273515Y-98336829D01*
X196200944Y-98373114D01*
X196019515Y-98373114D01*
X195946944Y-98336829D01*
X195910658Y-98300543D01*
X196817800Y-97611114D02*
X196890372Y-97611114D01*
X196962943Y-97647400D01*
X196999229Y-97683686D01*
X197035515Y-97756257D01*
X197071800Y-97901400D01*
X197071800Y-98082829D01*
X197035515Y-98227971D01*
X196999229Y-98300543D01*
X196962943Y-98336829D01*
X196890372Y-98373114D01*
X196817800Y-98373114D01*
X196745229Y-98336829D01*
X196708943Y-98300543D01*
X196672658Y-98227971D01*
X196636372Y-98082829D01*
X196636372Y-97901400D01*
X196672658Y-97756257D01*
X196708943Y-97683686D01*
X196745229Y-97647400D01*
X196817800Y-97611114D01*
X197761229Y-97611114D02*
X197398372Y-97611114D01*
X197362086Y-97973971D01*
X197398372Y-97937686D01*
X197470943Y-97901400D01*
X197652372Y-97901400D01*
X197724943Y-97937686D01*
X197761229Y-97973971D01*
X197797514Y-98046543D01*
X197797514Y-98227971D01*
X197761229Y-98300543D01*
X197724943Y-98336829D01*
X197652372Y-98373114D01*
X197470943Y-98373114D01*
X197398372Y-98336829D01*
X197362086Y-98300543D01*
X170521087Y-107775829D02*
X170629944Y-107812114D01*
X170811373Y-107812114D01*
X170883944Y-107775829D01*
X170920230Y-107739543D01*
X170956515Y-107666971D01*
X170956515Y-107594400D01*
X170920230Y-107521829D01*
X170883944Y-107485543D01*
X170811373Y-107449257D01*
X170666230Y-107412971D01*
X170593658Y-107376686D01*
X170557373Y-107340400D01*
X170521087Y-107267829D01*
X170521087Y-107195257D01*
X170557373Y-107122686D01*
X170593658Y-107086400D01*
X170666230Y-107050114D01*
X170847658Y-107050114D01*
X170956515Y-107086400D01*
X171210515Y-107050114D02*
X171391944Y-107812114D01*
X171537087Y-107267829D01*
X171682229Y-107812114D01*
X171863658Y-107050114D01*
X172516801Y-107050114D02*
X172153944Y-107050114D01*
X172117658Y-107412971D01*
X172153944Y-107376686D01*
X172226515Y-107340400D01*
X172407944Y-107340400D01*
X172480515Y-107376686D01*
X172516801Y-107412971D01*
X172553086Y-107485543D01*
X172553086Y-107666971D01*
X172516801Y-107739543D01*
X172480515Y-107775829D01*
X172407944Y-107812114D01*
X172226515Y-107812114D01*
X172153944Y-107775829D01*
X172117658Y-107739543D01*
X173024800Y-107050114D02*
X173097372Y-107050114D01*
X173169943Y-107086400D01*
X173206229Y-107122686D01*
X173242515Y-107195257D01*
X173278800Y-107340400D01*
X173278800Y-107521829D01*
X173242515Y-107666971D01*
X173206229Y-107739543D01*
X173169943Y-107775829D01*
X173097372Y-107812114D01*
X173024800Y-107812114D01*
X172952229Y-107775829D01*
X172915943Y-107739543D01*
X172879658Y-107666971D01*
X172843372Y-107521829D01*
X172843372Y-107340400D01*
X172879658Y-107195257D01*
X172915943Y-107122686D01*
X172952229Y-107086400D01*
X173024800Y-107050114D01*
X173532800Y-107050114D02*
X174040800Y-107050114D01*
X173714229Y-107812114D01*
X162266087Y-78032429D02*
X162374944Y-78068714D01*
X162556373Y-78068714D01*
X162628944Y-78032429D01*
X162665230Y-77996143D01*
X162701515Y-77923571D01*
X162701515Y-77851000D01*
X162665230Y-77778429D01*
X162628944Y-77742143D01*
X162556373Y-77705857D01*
X162411230Y-77669571D01*
X162338658Y-77633286D01*
X162302373Y-77597000D01*
X162266087Y-77524429D01*
X162266087Y-77451857D01*
X162302373Y-77379286D01*
X162338658Y-77343000D01*
X162411230Y-77306714D01*
X162592658Y-77306714D01*
X162701515Y-77343000D01*
X162955515Y-77306714D02*
X163136944Y-78068714D01*
X163282087Y-77524429D01*
X163427229Y-78068714D01*
X163608658Y-77306714D01*
X164261801Y-77306714D02*
X163898944Y-77306714D01*
X163862658Y-77669571D01*
X163898944Y-77633286D01*
X163971515Y-77597000D01*
X164152944Y-77597000D01*
X164225515Y-77633286D01*
X164261801Y-77669571D01*
X164298086Y-77742143D01*
X164298086Y-77923571D01*
X164261801Y-77996143D01*
X164225515Y-78032429D01*
X164152944Y-78068714D01*
X163971515Y-78068714D01*
X163898944Y-78032429D01*
X163862658Y-77996143D01*
X164769800Y-77306714D02*
X164842372Y-77306714D01*
X164914943Y-77343000D01*
X164951229Y-77379286D01*
X164987515Y-77451857D01*
X165023800Y-77597000D01*
X165023800Y-77778429D01*
X164987515Y-77923571D01*
X164951229Y-77996143D01*
X164914943Y-78032429D01*
X164842372Y-78068714D01*
X164769800Y-78068714D01*
X164697229Y-78032429D01*
X164660943Y-77996143D01*
X164624658Y-77923571D01*
X164588372Y-77778429D01*
X164588372Y-77597000D01*
X164624658Y-77451857D01*
X164660943Y-77379286D01*
X164697229Y-77343000D01*
X164769800Y-77306714D01*
X165459229Y-77633286D02*
X165386657Y-77597000D01*
X165350372Y-77560714D01*
X165314086Y-77488143D01*
X165314086Y-77451857D01*
X165350372Y-77379286D01*
X165386657Y-77343000D01*
X165459229Y-77306714D01*
X165604372Y-77306714D01*
X165676943Y-77343000D01*
X165713229Y-77379286D01*
X165749514Y-77451857D01*
X165749514Y-77488143D01*
X165713229Y-77560714D01*
X165676943Y-77597000D01*
X165604372Y-77633286D01*
X165459229Y-77633286D01*
X165386657Y-77669571D01*
X165350372Y-77705857D01*
X165314086Y-77778429D01*
X165314086Y-77923571D01*
X165350372Y-77996143D01*
X165386657Y-78032429D01*
X165459229Y-78068714D01*
X165604372Y-78068714D01*
X165676943Y-78032429D01*
X165713229Y-77996143D01*
X165749514Y-77923571D01*
X165749514Y-77778429D01*
X165713229Y-77705857D01*
X165676943Y-77669571D01*
X165604372Y-77633286D01*
X151652515Y-76925714D02*
X151652515Y-77542571D01*
X151688800Y-77615143D01*
X151725086Y-77651429D01*
X151797657Y-77687714D01*
X151942800Y-77687714D01*
X152015372Y-77651429D01*
X152051657Y-77615143D01*
X152087943Y-77542571D01*
X152087943Y-76925714D01*
X152414515Y-76998286D02*
X152450801Y-76962000D01*
X152523372Y-76925714D01*
X152704801Y-76925714D01*
X152777372Y-76962000D01*
X152813658Y-76998286D01*
X152849943Y-77070857D01*
X152849943Y-77143429D01*
X152813658Y-77252286D01*
X152378229Y-77687714D01*
X152849943Y-77687714D01*
X153321657Y-76925714D02*
X153394229Y-76925714D01*
X153466800Y-76962000D01*
X153503086Y-76998286D01*
X153539372Y-77070857D01*
X153575657Y-77216000D01*
X153575657Y-77397429D01*
X153539372Y-77542571D01*
X153503086Y-77615143D01*
X153466800Y-77651429D01*
X153394229Y-77687714D01*
X153321657Y-77687714D01*
X153249086Y-77651429D01*
X153212800Y-77615143D01*
X153176515Y-77542571D01*
X153140229Y-77397429D01*
X153140229Y-77216000D01*
X153176515Y-77070857D01*
X153212800Y-76998286D01*
X153249086Y-76962000D01*
X153321657Y-76925714D01*
X154301371Y-77687714D02*
X153865943Y-77687714D01*
X154083657Y-77687714D02*
X154083657Y-76925714D01*
X154011086Y-77034571D01*
X153938514Y-77107143D01*
X153865943Y-77143429D01*
X147664715Y-85104514D02*
X147664715Y-85721371D01*
X147701000Y-85793943D01*
X147737286Y-85830229D01*
X147809857Y-85866514D01*
X147955000Y-85866514D01*
X148027572Y-85830229D01*
X148063857Y-85793943D01*
X148100143Y-85721371D01*
X148100143Y-85104514D01*
X148426715Y-85177086D02*
X148463001Y-85140800D01*
X148535572Y-85104514D01*
X148717001Y-85104514D01*
X148789572Y-85140800D01*
X148825858Y-85177086D01*
X148862143Y-85249657D01*
X148862143Y-85322229D01*
X148825858Y-85431086D01*
X148390429Y-85866514D01*
X148862143Y-85866514D01*
X149333857Y-85104514D02*
X149406429Y-85104514D01*
X149479000Y-85140800D01*
X149515286Y-85177086D01*
X149551572Y-85249657D01*
X149587857Y-85394800D01*
X149587857Y-85576229D01*
X149551572Y-85721371D01*
X149515286Y-85793943D01*
X149479000Y-85830229D01*
X149406429Y-85866514D01*
X149333857Y-85866514D01*
X149261286Y-85830229D01*
X149225000Y-85793943D01*
X149188715Y-85721371D01*
X149152429Y-85576229D01*
X149152429Y-85394800D01*
X149188715Y-85249657D01*
X149225000Y-85177086D01*
X149261286Y-85140800D01*
X149333857Y-85104514D01*
X149878143Y-85177086D02*
X149914429Y-85140800D01*
X149987000Y-85104514D01*
X150168429Y-85104514D01*
X150241000Y-85140800D01*
X150277286Y-85177086D01*
X150313571Y-85249657D01*
X150313571Y-85322229D01*
X150277286Y-85431086D01*
X149841857Y-85866514D01*
X150313571Y-85866514D01*
D14*
X141719514Y-106741981D02*
X141719514Y-107551505D01*
X141767133Y-107646743D01*
X141814752Y-107694362D01*
X141909990Y-107741981D01*
X142100467Y-107741981D01*
X142195705Y-107694362D01*
X142243324Y-107646743D01*
X142290943Y-107551505D01*
X142290943Y-106741981D01*
X143195705Y-107075314D02*
X143195705Y-107741981D01*
X142957609Y-106694362D02*
X142719514Y-107408648D01*
X143338562Y-107408648D01*
X143909990Y-106741981D02*
X144005229Y-106741981D01*
X144100467Y-106789600D01*
X144148086Y-106837219D01*
X144195705Y-106932457D01*
X144243324Y-107122933D01*
X144243324Y-107361029D01*
X144195705Y-107551505D01*
X144148086Y-107646743D01*
X144100467Y-107694362D01*
X144005229Y-107741981D01*
X143909990Y-107741981D01*
X143814752Y-107694362D01*
X143767133Y-107646743D01*
X143719514Y-107551505D01*
X143671895Y-107361029D01*
X143671895Y-107122933D01*
X143719514Y-106932457D01*
X143767133Y-106837219D01*
X143814752Y-106789600D01*
X143909990Y-106741981D01*
X145195705Y-107741981D02*
X144624276Y-107741981D01*
X144909990Y-107741981D02*
X144909990Y-106741981D01*
X144814752Y-106884838D01*
X144719514Y-106980076D01*
X144624276Y-107027695D01*
X170500895Y-117825781D02*
X170500895Y-116825781D01*
X170834229Y-117540067D01*
X171167562Y-116825781D01*
X171167562Y-117825781D01*
X171548514Y-116825781D02*
X172167562Y-116825781D01*
X171834228Y-117206733D01*
X171977086Y-117206733D01*
X172072324Y-117254352D01*
X172119943Y-117301971D01*
X172167562Y-117397210D01*
X172167562Y-117635305D01*
X172119943Y-117730543D01*
X172072324Y-117778162D01*
X171977086Y-117825781D01*
X171691371Y-117825781D01*
X171596133Y-117778162D01*
X171548514Y-117730543D01*
X172786609Y-116825781D02*
X172881848Y-116825781D01*
X172977086Y-116873400D01*
X173024705Y-116921019D01*
X173072324Y-117016257D01*
X173119943Y-117206733D01*
X173119943Y-117444829D01*
X173072324Y-117635305D01*
X173024705Y-117730543D01*
X172977086Y-117778162D01*
X172881848Y-117825781D01*
X172786609Y-117825781D01*
X172691371Y-117778162D01*
X172643752Y-117730543D01*
X172596133Y-117635305D01*
X172548514Y-117444829D01*
X172548514Y-117206733D01*
X172596133Y-117016257D01*
X172643752Y-116921019D01*
X172691371Y-116873400D01*
X172786609Y-116825781D01*
X174072324Y-117825781D02*
X173500895Y-117825781D01*
X173786609Y-117825781D02*
X173786609Y-116825781D01*
X173691371Y-116968638D01*
X173596133Y-117063876D01*
X173500895Y-117111495D01*
%LPC*%
D15*
X151638000Y-84602000D03*
X151638000Y-87102000D03*
X149606000Y-78252000D03*
X149606000Y-80752000D03*
D16*
X154412000Y-82296000D03*
X151912000Y-82296000D03*
X149840000Y-91694000D03*
X147340000Y-91694000D03*
D15*
X185420000Y-88372000D03*
X185420000Y-85872000D03*
D17*
X174312000Y-84068000D03*
X174312000Y-84868000D03*
X174312000Y-85668000D03*
X174312000Y-86468000D03*
X174312000Y-87268000D03*
X174312000Y-88068000D03*
X174312000Y-88868000D03*
X174312000Y-89668000D03*
D18*
X175762000Y-91118000D03*
X176562000Y-91118000D03*
X177362000Y-91118000D03*
X178162000Y-91118000D03*
X178962000Y-91118000D03*
X179762000Y-91118000D03*
X180562000Y-91118000D03*
X181362000Y-91118000D03*
D17*
X182812000Y-89668000D03*
X182812000Y-88868000D03*
X182812000Y-88068000D03*
X182812000Y-87268000D03*
X182812000Y-86468000D03*
X182812000Y-85668000D03*
X182812000Y-84868000D03*
X182812000Y-84068000D03*
D18*
X181362000Y-82618000D03*
X180562000Y-82618000D03*
X179762000Y-82618000D03*
X178962000Y-82618000D03*
X178162000Y-82618000D03*
X177362000Y-82618000D03*
X176562000Y-82618000D03*
X175762000Y-82618000D03*
D19*
X148488400Y-67360800D03*
D20*
X145948400Y-67360800D03*
D21*
X178663600Y-111252000D03*
D22*
X178663600Y-108712000D03*
X181203600Y-111252000D03*
X181203600Y-108712000D03*
X183743600Y-111252000D03*
X183743600Y-108712000D03*
D23*
X134381240Y-100142000D03*
X134381240Y-102042000D03*
X136380220Y-101092000D03*
X134381240Y-92776000D03*
X134381240Y-94676000D03*
X136380220Y-93726000D03*
X120014085Y-102102804D03*
X120014085Y-100202804D03*
X118015105Y-101152804D03*
X120014086Y-87370803D03*
X120014086Y-85470803D03*
X118015106Y-86420803D03*
X120014086Y-79877803D03*
X120014086Y-77977803D03*
X118015106Y-78927803D03*
X120014086Y-94736802D03*
X120014086Y-92836802D03*
X118015106Y-93786802D03*
X134381240Y-85410000D03*
X134381240Y-87310000D03*
X136380220Y-86360000D03*
X134635240Y-78044000D03*
X134635240Y-79944000D03*
X136634220Y-78994000D03*
D24*
X146304000Y-87202000D03*
X146304000Y-84502000D03*
X132080000Y-99742000D03*
X132080000Y-102442000D03*
X138938000Y-99742000D03*
X138938000Y-102442000D03*
X132080000Y-92376000D03*
X132080000Y-95076000D03*
X138938000Y-92376000D03*
X138938000Y-95076000D03*
X122383326Y-102531802D03*
X122383326Y-99831802D03*
X114763325Y-102531802D03*
X114763325Y-99831802D03*
X122383326Y-87799804D03*
X122383326Y-85099804D03*
X114763325Y-87799803D03*
X114763325Y-85099803D03*
X122383326Y-80433802D03*
X122383326Y-77733802D03*
X114763325Y-80179802D03*
X114763325Y-77479802D03*
X122383325Y-95165802D03*
X122383325Y-92465802D03*
X114763326Y-95419802D03*
X114763326Y-92719802D03*
X132080000Y-85010000D03*
X132080000Y-87710000D03*
X138938000Y-85010000D03*
X138938000Y-87710000D03*
X132080000Y-77644000D03*
X132080000Y-80344000D03*
X138938000Y-77390000D03*
X138938000Y-80090000D03*
X178054000Y-75612000D03*
X178054000Y-78312000D03*
D25*
X196265800Y-100451400D03*
X196265800Y-106101400D03*
X193765800Y-100451400D03*
X198765800Y-100451400D03*
X193765800Y-106101400D03*
X198765800Y-106101400D03*
D26*
X194765800Y-103276400D03*
X197765800Y-103276400D03*
D19*
X172339000Y-105054400D03*
D20*
X169799000Y-105054400D03*
D27*
X161518600Y-72340200D03*
X159018600Y-75640200D03*
X164018600Y-75640200D03*
D28*
X151812000Y-78552000D03*
X151812000Y-80452000D03*
X154512000Y-79502000D03*
D18*
X150048000Y-87242000D03*
X149098000Y-87242000D03*
X148148000Y-87242000D03*
X148148000Y-89542000D03*
X150048000Y-89542000D03*
D29*
X133604000Y-105156000D03*
X131064000Y-105156000D03*
X128524000Y-105156000D03*
X125984000Y-105156000D03*
X123444000Y-105156000D03*
X120904000Y-105156000D03*
X120904000Y-74676000D03*
X123444000Y-74676000D03*
X125984000Y-74676000D03*
X128524000Y-74676000D03*
X131064000Y-74676000D03*
X133604000Y-74676000D03*
D30*
X176225200Y-116128800D03*
D31*
X178765200Y-116128800D03*
X181305200Y-116128800D03*
X183845200Y-116128800D03*
X186385200Y-116128800D03*
M02*
