G04 #@! TF.FileFunction,Soldermask,Bot*
%FSLAX46Y46*%
G04 Gerber Fmt 4.6, Leading zero omitted, Abs format (unit mm)*
G04 Created by KiCad (PCBNEW 0.201508140901+6091~28~ubuntu14.04.1-product) date Tue 22 Sep 2015 11:40:43 PM CEST*
%MOMM*%
G01*
G04 APERTURE LIST*
%ADD10C,0.100000*%
%ADD11R,2.032000X2.032000*%
%ADD12O,2.032000X2.032000*%
%ADD13R,1.727200X1.727200*%
%ADD14O,1.727200X1.727200*%
%ADD15R,0.500000X0.700000*%
%ADD16R,0.200000X1.100000*%
%ADD17C,0.850000*%
%ADD18C,2.000000*%
%ADD19C,1.524000*%
%ADD20R,1.727200X2.032000*%
%ADD21O,1.727200X2.032000*%
G04 APERTURE END LIST*
D10*
D11*
X148488400Y-67360800D03*
D12*
X145948400Y-67360800D03*
D13*
X178663600Y-111252000D03*
D14*
X178663600Y-108712000D03*
X181203600Y-111252000D03*
X181203600Y-108712000D03*
X183743600Y-111252000D03*
X183743600Y-108712000D03*
D15*
X169375000Y-82075000D03*
X173625000Y-82075000D03*
X169375000Y-78925000D03*
X173625000Y-78925000D03*
D16*
X173975000Y-82075000D03*
X169025000Y-82075000D03*
X169025000Y-78925000D03*
X173975000Y-78925000D03*
D15*
X183875000Y-82075000D03*
X188125000Y-82075000D03*
X183875000Y-78925000D03*
X188125000Y-78925000D03*
D16*
X188475000Y-82075000D03*
X183525000Y-82075000D03*
X183525000Y-78925000D03*
X188475000Y-78925000D03*
D15*
X173625000Y-93925000D03*
X169375000Y-93925000D03*
X173625000Y-97075000D03*
X169375000Y-97075000D03*
D16*
X169025000Y-93925000D03*
X173975000Y-93925000D03*
X173975000Y-97075000D03*
X169025000Y-97075000D03*
D15*
X188125000Y-93925000D03*
X183875000Y-93925000D03*
X188125000Y-97075000D03*
X183875000Y-97075000D03*
D16*
X183525000Y-93925000D03*
X188475000Y-93925000D03*
X188475000Y-97075000D03*
X183525000Y-97075000D03*
D17*
X194765800Y-103276400D03*
X197765800Y-103276400D03*
D15*
X198625000Y-110725000D03*
X194375000Y-110725000D03*
X198625000Y-113875000D03*
X194375000Y-113875000D03*
D16*
X194025000Y-110725000D03*
X198975000Y-110725000D03*
X198975000Y-113875000D03*
X194025000Y-113875000D03*
D11*
X172339000Y-105054400D03*
D12*
X169799000Y-105054400D03*
D18*
X161518600Y-72340200D03*
X159018600Y-75640200D03*
X164018600Y-75640200D03*
D19*
X133604000Y-105156000D03*
X131064000Y-105156000D03*
X128524000Y-105156000D03*
X125984000Y-105156000D03*
X123444000Y-105156000D03*
X120904000Y-105156000D03*
X120904000Y-74676000D03*
X123444000Y-74676000D03*
X125984000Y-74676000D03*
X128524000Y-74676000D03*
X131064000Y-74676000D03*
X133604000Y-74676000D03*
D20*
X176225200Y-116128800D03*
D21*
X178765200Y-116128800D03*
X181305200Y-116128800D03*
X183845200Y-116128800D03*
X186385200Y-116128800D03*
M02*
