G04 #@! TF.FileFunction,Paste,Bot*
%FSLAX46Y46*%
G04 Gerber Fmt 4.6, Leading zero omitted, Abs format (unit mm)*
G04 Created by KiCad (PCBNEW 0.201508140901+6091~28~ubuntu14.04.1-product) date Tue 27 Oct 2015 09:22:58 PM CET*
%MOMM*%
G01*
G04 APERTURE LIST*
%ADD10C,0.100000*%
%ADD11R,0.550800X0.750800*%
%ADD12R,0.250800X1.150800*%
G04 APERTURE END LIST*
D10*
D11*
X169375000Y-82075000D03*
X173625000Y-82075000D03*
X169375000Y-78925000D03*
X173625000Y-78925000D03*
D12*
X173975000Y-82075000D03*
X169025000Y-82075000D03*
X169025000Y-78925000D03*
X173975000Y-78925000D03*
D11*
X183875000Y-82075000D03*
X188125000Y-82075000D03*
X183875000Y-78925000D03*
X188125000Y-78925000D03*
D12*
X188475000Y-82075000D03*
X183525000Y-82075000D03*
X183525000Y-78925000D03*
X188475000Y-78925000D03*
D11*
X173625000Y-93925000D03*
X169375000Y-93925000D03*
X173625000Y-97075000D03*
X169375000Y-97075000D03*
D12*
X169025000Y-93925000D03*
X173975000Y-93925000D03*
X173975000Y-97075000D03*
X169025000Y-97075000D03*
D11*
X188125000Y-93925000D03*
X183875000Y-93925000D03*
X188125000Y-97075000D03*
X183875000Y-97075000D03*
D12*
X183525000Y-93925000D03*
X188475000Y-93925000D03*
X188475000Y-97075000D03*
X183525000Y-97075000D03*
D11*
X198625000Y-110725000D03*
X194375000Y-110725000D03*
X198625000Y-113875000D03*
X194375000Y-113875000D03*
D12*
X194025000Y-110725000D03*
X198975000Y-110725000D03*
X198975000Y-113875000D03*
X194025000Y-113875000D03*
M02*
