G04 #@! TF.FileFunction,Paste,Bot*
%FSLAX46Y46*%
G04 Gerber Fmt 4.6, Leading zero omitted, Abs format (unit mm)*
G04 Created by KiCad (PCBNEW 4.0.0-2.201512072331+6194~38~ubuntu14.04.1-stable) date Sun 31 Jul 2016 10:05:07 AM CEST*
%MOMM*%
G01*
G04 APERTURE LIST*
%ADD10C,0.100000*%
%ADD11R,0.550800X0.750800*%
%ADD12R,0.250800X1.150800*%
%ADD13R,1.051560X1.551940*%
%ADD14R,2.049780X3.050540*%
%ADD15R,4.050800X3.050800*%
%ADD16R,0.960800X1.270800*%
G04 APERTURE END LIST*
D10*
D11*
X169375000Y-82075000D03*
X173625000Y-82075000D03*
X169375000Y-78925000D03*
X173625000Y-78925000D03*
D12*
X173975000Y-82075000D03*
X169025000Y-82075000D03*
X169025000Y-78925000D03*
X173975000Y-78925000D03*
D11*
X183875000Y-82075000D03*
X188125000Y-82075000D03*
X183875000Y-78925000D03*
X188125000Y-78925000D03*
D12*
X188475000Y-82075000D03*
X183525000Y-82075000D03*
X183525000Y-78925000D03*
X188475000Y-78925000D03*
D11*
X173625000Y-93925000D03*
X169375000Y-93925000D03*
X173625000Y-97075000D03*
X169375000Y-97075000D03*
D12*
X169025000Y-93925000D03*
X173975000Y-93925000D03*
X173975000Y-97075000D03*
X169025000Y-97075000D03*
D11*
X188125000Y-93925000D03*
X183875000Y-93925000D03*
X188125000Y-97075000D03*
X183875000Y-97075000D03*
D12*
X183525000Y-93925000D03*
X188475000Y-93925000D03*
X188475000Y-97075000D03*
X183525000Y-97075000D03*
D11*
X198625000Y-110725000D03*
X194375000Y-110725000D03*
X198625000Y-113875000D03*
X194375000Y-113875000D03*
D12*
X194025000Y-110725000D03*
X198975000Y-110725000D03*
X198975000Y-113875000D03*
X194025000Y-113875000D03*
D13*
X137899140Y-82369660D03*
X136398000Y-82369660D03*
X134896860Y-82369660D03*
D14*
X136398000Y-79418180D03*
D10*
G36*
X135872220Y-81667350D02*
X135371840Y-80867250D01*
X137424160Y-80867250D01*
X136923780Y-81667350D01*
X135872220Y-81667350D01*
X135872220Y-81667350D01*
G37*
D15*
X119060000Y-82931000D03*
X129860000Y-82931000D03*
D16*
X122444000Y-90932000D03*
X125714000Y-90932000D03*
M02*
