G04 #@! TF.FileFunction,Soldermask,Top*
%FSLAX46Y46*%
G04 Gerber Fmt 4.6, Leading zero omitted, Abs format (unit mm)*
G04 Created by KiCad (PCBNEW 0.201508140901+6091~28~ubuntu14.04.1-product) date Tue 22 Sep 2015 11:40:43 PM CEST*
%MOMM*%
G01*
G04 APERTURE LIST*
%ADD10C,0.100000*%
%ADD11R,1.250000X1.500000*%
%ADD12R,1.500000X1.250000*%
%ADD13R,1.200000X0.600000*%
%ADD14R,0.600000X1.200000*%
%ADD15R,2.032000X2.032000*%
%ADD16O,2.032000X2.032000*%
%ADD17R,1.727200X1.727200*%
%ADD18O,1.727200X1.727200*%
%ADD19R,0.900000X0.800000*%
%ADD20R,1.300000X1.500000*%
%ADD21R,1.000000X1.150000*%
%ADD22C,0.850000*%
%ADD23C,2.000000*%
%ADD24R,1.000000X0.600000*%
%ADD25C,1.524000*%
%ADD26R,1.727200X2.032000*%
%ADD27O,1.727200X2.032000*%
G04 APERTURE END LIST*
D10*
D11*
X151638000Y-84602000D03*
X151638000Y-87102000D03*
X149606000Y-78252000D03*
X149606000Y-80752000D03*
D12*
X154412000Y-82296000D03*
X151912000Y-82296000D03*
X149840000Y-91694000D03*
X147340000Y-91694000D03*
D11*
X185420000Y-88372000D03*
X185420000Y-85872000D03*
D13*
X174312000Y-84068000D03*
X174312000Y-84868000D03*
X174312000Y-85668000D03*
X174312000Y-86468000D03*
X174312000Y-87268000D03*
X174312000Y-88068000D03*
X174312000Y-88868000D03*
X174312000Y-89668000D03*
D14*
X175762000Y-91118000D03*
X176562000Y-91118000D03*
X177362000Y-91118000D03*
X178162000Y-91118000D03*
X178962000Y-91118000D03*
X179762000Y-91118000D03*
X180562000Y-91118000D03*
X181362000Y-91118000D03*
D13*
X182812000Y-89668000D03*
X182812000Y-88868000D03*
X182812000Y-88068000D03*
X182812000Y-87268000D03*
X182812000Y-86468000D03*
X182812000Y-85668000D03*
X182812000Y-84868000D03*
X182812000Y-84068000D03*
D14*
X181362000Y-82618000D03*
X180562000Y-82618000D03*
X179762000Y-82618000D03*
X178962000Y-82618000D03*
X178162000Y-82618000D03*
X177362000Y-82618000D03*
X176562000Y-82618000D03*
X175762000Y-82618000D03*
D15*
X148488400Y-67360800D03*
D16*
X145948400Y-67360800D03*
D17*
X178663600Y-111252000D03*
D18*
X178663600Y-108712000D03*
X181203600Y-111252000D03*
X181203600Y-108712000D03*
X183743600Y-111252000D03*
X183743600Y-108712000D03*
D19*
X134381240Y-100142000D03*
X134381240Y-102042000D03*
X136380220Y-101092000D03*
X134381240Y-92776000D03*
X134381240Y-94676000D03*
X136380220Y-93726000D03*
X120014085Y-102102804D03*
X120014085Y-100202804D03*
X118015105Y-101152804D03*
X120014086Y-87370803D03*
X120014086Y-85470803D03*
X118015106Y-86420803D03*
X120014086Y-79877803D03*
X120014086Y-77977803D03*
X118015106Y-78927803D03*
X120014086Y-94736802D03*
X120014086Y-92836802D03*
X118015106Y-93786802D03*
X134381240Y-85410000D03*
X134381240Y-87310000D03*
X136380220Y-86360000D03*
X134635240Y-78044000D03*
X134635240Y-79944000D03*
X136634220Y-78994000D03*
D20*
X146304000Y-87202000D03*
X146304000Y-84502000D03*
X132080000Y-99742000D03*
X132080000Y-102442000D03*
X138938000Y-99742000D03*
X138938000Y-102442000D03*
X132080000Y-92376000D03*
X132080000Y-95076000D03*
X138938000Y-92376000D03*
X138938000Y-95076000D03*
X122383326Y-102531802D03*
X122383326Y-99831802D03*
X114763325Y-102531802D03*
X114763325Y-99831802D03*
X122383326Y-87799804D03*
X122383326Y-85099804D03*
X114763325Y-87799803D03*
X114763325Y-85099803D03*
X122383326Y-80433802D03*
X122383326Y-77733802D03*
X114763325Y-80179802D03*
X114763325Y-77479802D03*
X122383325Y-95165802D03*
X122383325Y-92465802D03*
X114763326Y-95419802D03*
X114763326Y-92719802D03*
X132080000Y-85010000D03*
X132080000Y-87710000D03*
X138938000Y-85010000D03*
X138938000Y-87710000D03*
X132080000Y-77644000D03*
X132080000Y-80344000D03*
X138938000Y-77390000D03*
X138938000Y-80090000D03*
X178054000Y-75612000D03*
X178054000Y-78312000D03*
D21*
X196265800Y-100451400D03*
X196265800Y-106101400D03*
X193765800Y-100451400D03*
X198765800Y-100451400D03*
X193765800Y-106101400D03*
X198765800Y-106101400D03*
D22*
X194765800Y-103276400D03*
X197765800Y-103276400D03*
D15*
X172339000Y-105054400D03*
D16*
X169799000Y-105054400D03*
D23*
X161518600Y-72340200D03*
X159018600Y-75640200D03*
X164018600Y-75640200D03*
D24*
X151812000Y-78552000D03*
X151812000Y-80452000D03*
X154512000Y-79502000D03*
D14*
X150048000Y-87242000D03*
X149098000Y-87242000D03*
X148148000Y-87242000D03*
X148148000Y-89542000D03*
X150048000Y-89542000D03*
D25*
X133604000Y-105156000D03*
X131064000Y-105156000D03*
X128524000Y-105156000D03*
X125984000Y-105156000D03*
X123444000Y-105156000D03*
X120904000Y-105156000D03*
X120904000Y-74676000D03*
X123444000Y-74676000D03*
X125984000Y-74676000D03*
X128524000Y-74676000D03*
X131064000Y-74676000D03*
X133604000Y-74676000D03*
D26*
X176225200Y-116128800D03*
D27*
X178765200Y-116128800D03*
X181305200Y-116128800D03*
X183845200Y-116128800D03*
X186385200Y-116128800D03*
M02*
