M48
;DRILL file {KiCad 0.201508140901+6091~28~ubuntu14.04.1-product} date Tue 27 Oct 2015 09:23:02 PM CET
;FORMAT={2:4/ absolute / inch / suppress trailing zeros}
FMAT,2
INCH,LZ
T1C0.013
T2C0.033
T3C0.039
T4C0.040
T5C0.106
T6C0.157
%
G90
G05
M72
T1
X04535Y-0444
X04595Y-0353
X04645Y-03795
X0467Y-0324
X0477Y-0311
X04775Y-034
X04775Y-03695
X04775Y-03985
X05245Y-0398
X0525Y-03115
X0525Y-034
X05255Y-03695
X05505Y-0413
X0568Y-0341
X05695Y-03975
X0578Y-0307
X05872Y-03727
X0591Y-0333
X061525Y-0315
X06749Y-03761
X06752Y-03169
X06795Y-0345
X068Y-0331
X06835Y-03188
X06911Y-03326
X0692Y-0343
X06975Y-0352
X06978Y-03471
X0701Y-0289
X07013Y-03532
X07045Y-03645
X07075Y-04095
X071Y-0333
X0711Y-0353
X07175Y-0378
X07323Y-0317
X073255Y-037598
X0737Y-0348
X07737Y-04421
T2
X064009Y-0405
X065191Y-0405
T3
X061616Y-0297
X0626Y-0284
X063584Y-0297
T4
X0476Y-0294
X0476Y-0414
X0486Y-0294
X0486Y-0414
X0496Y-0294
X0496Y-0414
X0506Y-0294
X0506Y-0414
X0516Y-0294
X0516Y-0414
X0526Y-0294
X0526Y-0414
X05746Y-02652
X05846Y-02652
X06355Y-0338
X06455Y-0338
X0692Y-04515
X06925Y-04225
X06925Y-04325
X0702Y-04515
X07025Y-04225
X07025Y-04325
X0712Y-04515
X07125Y-04225
X07125Y-04325
X0722Y-04515
X0732Y-04515
T5
X03918Y-02943
X03918Y-044285
X043117Y-044285
X043117Y-02943
T6
X05885Y-02915
T0
M30
